%TF.GenerationSoftware,KiCad,Pcbnew,8.0.2*%
%TF.CreationDate,2024-06-14T11:54:08+02:00*%
%TF.ProjectId,LoraSensor,4c6f7261-5365-46e7-936f-722e6b696361,rev?*%
%TF.SameCoordinates,Original*%
%TF.FileFunction,Copper,L1,Top*%
%TF.FilePolarity,Positive*%
%FSLAX46Y46*%
G04 Gerber Fmt 4.6, Leading zero omitted, Abs format (unit mm)*
G04 Created by KiCad (PCBNEW 8.0.2) date 2024-06-14 11:54:08*
%MOMM*%
%LPD*%
G01*
G04 APERTURE LIST*
G04 Aperture macros list*
%AMRoundRect*
0 Rectangle with rounded corners*
0 $1 Rounding radius*
0 $2 $3 $4 $5 $6 $7 $8 $9 X,Y pos of 4 corners*
0 Add a 4 corners polygon primitive as box body*
4,1,4,$2,$3,$4,$5,$6,$7,$8,$9,$2,$3,0*
0 Add four circle primitives for the rounded corners*
1,1,$1+$1,$2,$3*
1,1,$1+$1,$4,$5*
1,1,$1+$1,$6,$7*
1,1,$1+$1,$8,$9*
0 Add four rect primitives between the rounded corners*
20,1,$1+$1,$2,$3,$4,$5,0*
20,1,$1+$1,$4,$5,$6,$7,0*
20,1,$1+$1,$6,$7,$8,$9,0*
20,1,$1+$1,$8,$9,$2,$3,0*%
%AMFreePoly0*
4,1,19,0.500000,-0.750000,0.000000,-0.750000,0.000000,-0.744911,-0.071157,-0.744911,-0.207708,-0.704816,-0.327430,-0.627875,-0.420627,-0.520320,-0.479746,-0.390866,-0.500000,-0.250000,-0.500000,0.250000,-0.479746,0.390866,-0.420627,0.520320,-0.327430,0.627875,-0.207708,0.704816,-0.071157,0.744911,0.000000,0.744911,0.000000,0.750000,0.500000,0.750000,0.500000,-0.750000,0.500000,-0.750000,
$1*%
%AMFreePoly1*
4,1,19,0.000000,0.744911,0.071157,0.744911,0.207708,0.704816,0.327430,0.627875,0.420627,0.520320,0.479746,0.390866,0.500000,0.250000,0.500000,-0.250000,0.479746,-0.390866,0.420627,-0.520320,0.327430,-0.627875,0.207708,-0.704816,0.071157,-0.744911,0.000000,-0.744911,0.000000,-0.750000,-0.500000,-0.750000,-0.500000,0.750000,0.000000,0.750000,0.000000,0.744911,0.000000,0.744911,
$1*%
G04 Aperture macros list end*
%TA.AperFunction,EtchedComponent*%
%ADD10C,0.000000*%
%TD*%
%TA.AperFunction,SMDPad,CuDef*%
%ADD11RoundRect,0.250000X0.625000X-0.312500X0.625000X0.312500X-0.625000X0.312500X-0.625000X-0.312500X0*%
%TD*%
%TA.AperFunction,SMDPad,CuDef*%
%ADD12RoundRect,0.349250X-0.412750X-0.349250X0.412750X-0.349250X0.412750X0.349250X-0.412750X0.349250X0*%
%TD*%
%TA.AperFunction,SMDPad,CuDef*%
%ADD13C,0.500000*%
%TD*%
%TA.AperFunction,SMDPad,CuDef*%
%ADD14RoundRect,0.250000X0.250000X0.500000X-0.250000X0.500000X-0.250000X-0.500000X0.250000X-0.500000X0*%
%TD*%
%TA.AperFunction,SMDPad,CuDef*%
%ADD15RoundRect,0.250000X-0.425000X0.537500X-0.425000X-0.537500X0.425000X-0.537500X0.425000X0.537500X0*%
%TD*%
%TA.AperFunction,SMDPad,CuDef*%
%ADD16RoundRect,0.250000X-0.312500X-0.625000X0.312500X-0.625000X0.312500X0.625000X-0.312500X0.625000X0*%
%TD*%
%TA.AperFunction,SMDPad,CuDef*%
%ADD17FreePoly0,270.000000*%
%TD*%
%TA.AperFunction,SMDPad,CuDef*%
%ADD18FreePoly1,270.000000*%
%TD*%
%TA.AperFunction,HeatsinkPad*%
%ADD19R,1.600000X1.000000*%
%TD*%
%TA.AperFunction,SMDPad,CuDef*%
%ADD20RoundRect,0.075000X0.075000X-0.150000X0.075000X0.150000X-0.075000X0.150000X-0.075000X-0.150000X0*%
%TD*%
%TA.AperFunction,SMDPad,CuDef*%
%ADD21RoundRect,0.112500X0.112500X-0.187500X0.112500X0.187500X-0.112500X0.187500X-0.112500X-0.187500X0*%
%TD*%
%TA.AperFunction,SMDPad,CuDef*%
%ADD22RoundRect,0.250000X-0.625000X0.312500X-0.625000X-0.312500X0.625000X-0.312500X0.625000X0.312500X0*%
%TD*%
%TA.AperFunction,SMDPad,CuDef*%
%ADD23R,0.450000X1.380000*%
%TD*%
%TA.AperFunction,SMDPad,CuDef*%
%ADD24R,1.650000X1.300000*%
%TD*%
%TA.AperFunction,SMDPad,CuDef*%
%ADD25R,1.425000X1.550000*%
%TD*%
%TA.AperFunction,SMDPad,CuDef*%
%ADD26R,1.800000X1.900000*%
%TD*%
%TA.AperFunction,SMDPad,CuDef*%
%ADD27R,1.000000X1.900000*%
%TD*%
%TA.AperFunction,SMDPad,CuDef*%
%ADD28R,3.000000X2.100000*%
%TD*%
%TA.AperFunction,SMDPad,CuDef*%
%ADD29R,1.600000X0.800000*%
%TD*%
%TA.AperFunction,SMDPad,CuDef*%
%ADD30R,0.863600X1.600200*%
%TD*%
%TA.AperFunction,ComponentPad*%
%ADD31R,1.700000X1.700000*%
%TD*%
%TA.AperFunction,ComponentPad*%
%ADD32O,1.700000X1.700000*%
%TD*%
%TA.AperFunction,SMDPad,CuDef*%
%ADD33RoundRect,0.250000X-0.337500X-0.475000X0.337500X-0.475000X0.337500X0.475000X-0.337500X0.475000X0*%
%TD*%
%TA.AperFunction,SMDPad,CuDef*%
%ADD34R,2.997200X2.108200*%
%TD*%
%TA.AperFunction,SMDPad,CuDef*%
%ADD35R,1.600200X0.812800*%
%TD*%
%TA.AperFunction,SMDPad,CuDef*%
%ADD36RoundRect,0.250000X-0.475000X0.337500X-0.475000X-0.337500X0.475000X-0.337500X0.475000X0.337500X0*%
%TD*%
%TA.AperFunction,SMDPad,CuDef*%
%ADD37R,2.500000X2.000000*%
%TD*%
%TA.AperFunction,SMDPad,CuDef*%
%ADD38O,50.000000X10.000000*%
%TD*%
%TA.AperFunction,SMDPad,CuDef*%
%ADD39RoundRect,0.250000X0.475000X-0.337500X0.475000X0.337500X-0.475000X0.337500X-0.475000X-0.337500X0*%
%TD*%
%TA.AperFunction,SMDPad,CuDef*%
%ADD40RoundRect,0.250000X0.337500X0.475000X-0.337500X0.475000X-0.337500X-0.475000X0.337500X-0.475000X0*%
%TD*%
%TA.AperFunction,SMDPad,CuDef*%
%ADD41RoundRect,0.087500X-0.087500X0.187500X-0.087500X-0.187500X0.087500X-0.187500X0.087500X0.187500X0*%
%TD*%
%TA.AperFunction,SMDPad,CuDef*%
%ADD42RoundRect,0.175000X-0.625000X0.175000X-0.625000X-0.175000X0.625000X-0.175000X0.625000X0.175000X0*%
%TD*%
%TA.AperFunction,SMDPad,CuDef*%
%ADD43RoundRect,0.150000X0.587500X0.150000X-0.587500X0.150000X-0.587500X-0.150000X0.587500X-0.150000X0*%
%TD*%
%TA.AperFunction,SMDPad,CuDef*%
%ADD44FreePoly1,90.000000*%
%TD*%
%TA.AperFunction,SMDPad,CuDef*%
%ADD45FreePoly0,90.000000*%
%TD*%
%TA.AperFunction,ViaPad*%
%ADD46C,0.600000*%
%TD*%
%TA.AperFunction,ViaPad*%
%ADD47C,0.500000*%
%TD*%
%TA.AperFunction,Conductor*%
%ADD48C,0.127000*%
%TD*%
%TA.AperFunction,Conductor*%
%ADD49C,0.304800*%
%TD*%
%TA.AperFunction,Conductor*%
%ADD50C,0.508000*%
%TD*%
%TA.AperFunction,Conductor*%
%ADD51C,0.200000*%
%TD*%
%TA.AperFunction,Conductor*%
%ADD52C,0.609600*%
%TD*%
G04 APERTURE END LIST*
D10*
%TA.AperFunction,EtchedComponent*%
%TO.C,NT1*%
G36*
X191889000Y-76450000D02*
G01*
X190889000Y-76450000D01*
X190889000Y-75950000D01*
X191889000Y-75950000D01*
X191889000Y-76450000D01*
G37*
%TD.AperFunction*%
%TA.AperFunction,EtchedComponent*%
%TO.C,NT2*%
G36*
X191889000Y-73910000D02*
G01*
X190889000Y-73910000D01*
X190889000Y-73410000D01*
X191889000Y-73410000D01*
X191889000Y-73910000D01*
G37*
%TD.AperFunction*%
%TD*%
D11*
%TO.P,R3,1*%
%TO.N,/BTN*%
X176657000Y-82361500D03*
%TO.P,R3,2*%
%TO.N,+3V3*%
X176657000Y-79436500D03*
%TD*%
D12*
%TO.P,SW1,2,2*%
%TO.N,GND*%
X186610000Y-87249000D03*
%TO.P,SW1,1,1*%
%TO.N,/BTN*%
X181610000Y-87249000D03*
%TD*%
D13*
%TO.P,NT1,1,1*%
%TO.N,/SENSE*%
X190889000Y-76200000D03*
%TO.P,NT1,2,2*%
%TO.N,/SENSE_SENSOR*%
X191889000Y-76200000D03*
%TD*%
D14*
%TO.P,U3,1,2.4G_Ant*%
%TO.N,Net-(AE1-FEED)*%
X169189400Y-82270600D03*
%TO.P,U3,2,GND*%
%TO.N,GND*%
X167919400Y-82270600D03*
%TO.P,U3,3,GPIO7*%
%TO.N,unconnected-(U3-GPIO7-Pad3)*%
X166649400Y-82270600D03*
%TO.P,U3,4,GPIO6*%
%TO.N,unconnected-(U3-GPIO6-Pad4)*%
X165379400Y-82270600D03*
%TO.P,U3,5,GPIO5*%
%TO.N,unconnected-(U3-GPIO5-Pad5)*%
X164109400Y-82270600D03*
%TO.P,U3,6,GPIO4*%
%TO.N,unconnected-(U3-GPIO4-Pad6)*%
X162839400Y-82270600D03*
%TO.P,U3,7,GPIO3*%
%TO.N,unconnected-(U3-GPIO3-Pad7)*%
X161569400Y-82270600D03*
%TO.P,U3,8,GPIO2*%
%TO.N,/BTN*%
X160299400Y-82270600D03*
%TO.P,U3,9,GPIO1*%
%TO.N,/BATSENSE*%
X159029400Y-82270600D03*
%TO.P,U3,10,GPIO0*%
%TO.N,/SENSE*%
X157759400Y-82270600D03*
%TO.P,U3,11,EN*%
%TO.N,/EN*%
X156489400Y-82270600D03*
%TO.P,U3,12,VDD*%
%TO.N,+3V3*%
X169189400Y-64490600D03*
%TO.P,U3,13,GND*%
%TO.N,GND*%
X167919400Y-64490600D03*
%TO.P,U3,14,GPIO10*%
%TO.N,/PWM*%
X166649400Y-64490600D03*
%TO.P,U3,15,GPIO9*%
%TO.N,/GPIO9*%
X165379400Y-64490600D03*
%TO.P,U3,16,GPIO8*%
%TO.N,unconnected-(U3-GPIO8-Pad16)*%
X164109400Y-64490600D03*
%TO.P,U3,17,GPIO18_DN*%
%TO.N,/DN*%
X162839400Y-64490600D03*
%TO.P,U3,18,GPIO19_DP*%
%TO.N,/DP*%
X161569400Y-64490600D03*
%TO.P,U3,19,GPIO20_RXD*%
%TO.N,/SCL*%
X160299400Y-64490600D03*
%TO.P,U3,20,GPIO21_TXD*%
%TO.N,/SDA*%
X159029400Y-64490600D03*
%TO.P,U3,21,GND*%
%TO.N,GND*%
X157759400Y-64490600D03*
%TO.P,U3,22,LoRa_Ant*%
%TO.N,Net-(AE2-FEED)*%
X156489400Y-64490600D03*
%TD*%
D15*
%TO.P,C3,1*%
%TO.N,+3V3*%
X173405800Y-62443500D03*
%TO.P,C3,2*%
%TO.N,GND*%
X173405800Y-65318500D03*
%TD*%
D13*
%TO.P,NT2,1,1*%
%TO.N,/PWM*%
X190889000Y-73660000D03*
%TO.P,NT2,2,2*%
%TO.N,/PWM_SENSOR*%
X191889000Y-73660000D03*
%TD*%
D16*
%TO.P,R7,1*%
%TO.N,/PWM_SENSOR*%
X201037000Y-73914000D03*
%TO.P,R7,2*%
%TO.N,Net-(Q1-B)*%
X203962000Y-73914000D03*
%TD*%
D17*
%TO.P,JP2,1,A*%
%TO.N,Net-(JP2-A)*%
X166293800Y-61173600D03*
D18*
%TO.P,JP2,2,B*%
%TO.N,/GPIO9*%
X166293800Y-62473600D03*
%TD*%
D19*
%TO.P,U1,7,PAD*%
%TO.N,GND*%
X176896000Y-69484000D03*
D20*
%TO.P,U1,6,IN*%
%TO.N,VIN*%
X176246000Y-68509000D03*
%TO.P,U1,5,GND*%
%TO.N,GND*%
X176896000Y-68509000D03*
%TO.P,U1,4,EN*%
%TO.N,VIN*%
X177546000Y-68509000D03*
%TO.P,U1,3,PG*%
%TO.N,unconnected-(U1-PG-Pad3)*%
X177546000Y-70459000D03*
%TO.P,U1,2,FB_NC*%
%TO.N,unconnected-(U1-FB_NC-Pad2)*%
X176896000Y-70459000D03*
%TO.P,U1,1,OUT*%
%TO.N,+3V3*%
X176246000Y-70459000D03*
%TD*%
D16*
%TO.P,R8,1*%
%TO.N,GND*%
X160767300Y-61849000D03*
%TO.P,R8,2*%
%TO.N,Net-(JP2-A)*%
X163692300Y-61849000D03*
%TD*%
D11*
%TO.P,R6,1*%
%TO.N,/SENSE_SENSOR*%
X197866000Y-77408500D03*
%TO.P,R6,2*%
%TO.N,GND*%
X197866000Y-74483500D03*
%TD*%
D21*
%TO.P,D1,1,K*%
%TO.N,VIN*%
X186182000Y-63026000D03*
%TO.P,D1,2,A*%
%TO.N,VBUS*%
X186182000Y-60926000D03*
%TD*%
D22*
%TO.P,R1,1*%
%TO.N,VIN*%
X179324000Y-79436500D03*
%TO.P,R1,2*%
%TO.N,/BATSENSE*%
X179324000Y-82361500D03*
%TD*%
D23*
%TO.P,J2,1,VBUS*%
%TO.N,VBUS*%
X181386000Y-63883600D03*
%TO.P,J2,2,D-*%
%TO.N,/DN*%
X180736000Y-63883600D03*
%TO.P,J2,3,D+*%
%TO.N,/DP*%
X180086000Y-63883600D03*
%TO.P,J2,4,ID*%
%TO.N,unconnected-(J2-ID-Pad4)*%
X179436000Y-63883600D03*
%TO.P,J2,5,GND*%
%TO.N,GND*%
X178786000Y-63883600D03*
D24*
%TO.P,J2,6,Shield*%
X183461000Y-61223600D03*
D25*
X182573500Y-63798600D03*
D26*
X181236000Y-61223600D03*
D27*
X178536000Y-61223600D03*
D25*
X177598500Y-63798600D03*
D24*
X176711000Y-61223600D03*
%TD*%
D28*
%TO.P,J1,*%
%TO.N,*%
X185185000Y-66675000D03*
X185185000Y-73025000D03*
D29*
%TO.P,J1,1,Pin_1*%
%TO.N,VIN*%
X182285000Y-70475000D03*
%TO.P,J1,2,Pin_2*%
%TO.N,GND*%
X182285000Y-69225000D03*
%TD*%
D30*
%TO.P,AE1,1,FEED*%
%TO.N,Net-(AE1-FEED)*%
X150266201Y-82397600D03*
%TO.P,AE1,2,PCB_Trace*%
%TO.N,unconnected-(AE1-PCB_Trace-Pad2)*%
X147218599Y-82397600D03*
%TD*%
D31*
%TO.P,J6,1,Pin_1*%
%TO.N,/SENSE_SENSOR*%
X194056000Y-76200000D03*
D32*
%TO.P,J6,2,Pin_2*%
%TO.N,/PWM_SENSOR*%
X194056000Y-73660000D03*
%TO.P,J6,3,Pin_3*%
%TO.N,GND*%
X194056000Y-71120000D03*
%TD*%
D11*
%TO.P,R5,1*%
%TO.N,/PWM_SENSOR*%
X197866000Y-72582500D03*
%TO.P,R5,2*%
%TO.N,/CAP*%
X197866000Y-69657500D03*
%TD*%
D33*
%TO.P,C5,1*%
%TO.N,/SENSE_SENSOR*%
X201400500Y-76708000D03*
%TO.P,C5,2*%
%TO.N,GND*%
X203475500Y-76708000D03*
%TD*%
D21*
%TO.P,D2,1,K*%
%TO.N,/SENSE_SENSOR*%
X200914000Y-71662000D03*
%TO.P,D2,2,A*%
%TO.N,/CAP*%
X200914000Y-69562000D03*
%TD*%
D34*
%TO.P,J5,*%
%TO.N,*%
X185154499Y-84318000D03*
X185154499Y-76718000D03*
D35*
%TO.P,J5,1,Pin_1*%
%TO.N,/SENSE*%
X182254500Y-81768000D03*
%TO.P,J5,2,Pin_2*%
%TO.N,/PWM*%
X182254500Y-80518000D03*
%TO.P,J5,3,Pin_3*%
%TO.N,GND*%
X182254500Y-79268000D03*
%TD*%
D36*
%TO.P,C1,2*%
%TO.N,+3V3*%
X174210000Y-70648500D03*
%TO.P,C1,1*%
%TO.N,GND*%
X174210000Y-68573500D03*
%TD*%
D11*
%TO.P,R2,2*%
%TO.N,/BATSENSE*%
X179324000Y-84389500D03*
%TO.P,R2,1*%
%TO.N,GND*%
X179324000Y-87314500D03*
%TD*%
D37*
%TO.P,AE2,1,FEED*%
%TO.N,Net-(AE2-FEED)*%
X151978000Y-73400600D03*
%TO.P,AE2,2,PCB_Trace*%
%TO.N,unconnected-(AE2-PCB_Trace-Pad2)*%
X151978000Y-63200600D03*
%TD*%
D38*
%TO.P,J4,1,Pin_1*%
%TO.N,/CAP*%
X234760000Y-73660000D03*
%TD*%
D39*
%TO.P,C2,2*%
%TO.N,VIN*%
X179324000Y-68389501D03*
%TO.P,C2,1*%
%TO.N,GND*%
X179324000Y-70464501D03*
%TD*%
D40*
%TO.P,C4,1*%
%TO.N,GND*%
X171141300Y-61849000D03*
%TO.P,C4,2*%
%TO.N,+3V3*%
X169066300Y-61849000D03*
%TD*%
D41*
%TO.P,U2,1,VDD*%
%TO.N,+3V3*%
X176645750Y-74549000D03*
%TO.P,U2,2,SCL*%
%TO.N,/SCL*%
X175645750Y-74549000D03*
%TO.P,U2,3,SDA*%
%TO.N,/SDA*%
X175645750Y-76399000D03*
%TO.P,U2,4,VSS*%
%TO.N,GND*%
X176645750Y-76399000D03*
D42*
%TO.P,U2,5,NC*%
%TO.N,unconnected-(U2-NC-Pad5)*%
X176145750Y-75474000D03*
%TD*%
D39*
%TO.P,C6,1*%
%TO.N,GND*%
X171831000Y-86000500D03*
%TO.P,C6,2*%
%TO.N,/EN*%
X171831000Y-83925500D03*
%TD*%
D43*
%TO.P,Q1,1,B*%
%TO.N,Net-(Q1-B)*%
X206345000Y-71816000D03*
%TO.P,Q1,2,E*%
%TO.N,/CAP*%
X206345000Y-69916000D03*
%TO.P,Q1,3,C*%
%TO.N,GND*%
X204470000Y-70866000D03*
%TD*%
D11*
%TO.P,R9,1*%
%TO.N,/EN*%
X174244000Y-82361500D03*
%TO.P,R9,2*%
%TO.N,+3V3*%
X174244000Y-79436500D03*
%TD*%
D36*
%TO.P,C7,1*%
%TO.N,+3V3*%
X178812750Y-74436500D03*
%TO.P,C7,2*%
%TO.N,GND*%
X178812750Y-76511500D03*
%TD*%
D44*
%TO.P,JP1,2,B*%
%TO.N,/EN*%
X174244000Y-85837000D03*
D45*
%TO.P,JP1,1,A*%
%TO.N,GND*%
X174244000Y-87137000D03*
%TD*%
D46*
%TO.N,GND*%
X172466000Y-87630000D03*
X177800000Y-87376000D03*
X178816000Y-75565000D03*
%TO.N,/PWM*%
X172974000Y-74803000D03*
X172974000Y-76327000D03*
%TO.N,GND*%
X184404000Y-87249000D03*
D47*
X155702000Y-88138000D03*
X159969200Y-60553600D03*
X155448000Y-70104000D03*
X159512000Y-84074000D03*
X153924000Y-71628000D03*
X157302200Y-67614800D03*
X166370000Y-88138000D03*
X155194000Y-74930000D03*
X152654000Y-77978000D03*
X166878000Y-80772000D03*
X159258000Y-85852000D03*
X153847800Y-63404750D03*
X169418000Y-88138000D03*
X154686000Y-85852000D03*
X157734000Y-74930000D03*
X163322000Y-84074000D03*
X176276000Y-62677600D03*
X154838400Y-62407800D03*
X158750000Y-88138000D03*
X155702000Y-84074000D03*
X153847800Y-70485000D03*
X168656000Y-88138000D03*
X163322000Y-88138000D03*
X156464000Y-75946000D03*
X157276800Y-61468000D03*
X167132000Y-88138000D03*
X161036000Y-84074000D03*
X161798000Y-88138000D03*
X153416000Y-84836000D03*
X163068000Y-85852000D03*
X152400000Y-85852000D03*
X167894000Y-88138000D03*
X184525597Y-60046135D03*
X157734000Y-85852000D03*
X164846000Y-88138000D03*
X155448000Y-86868000D03*
X157302200Y-69138800D03*
X170180000Y-84328000D03*
X156514800Y-71501000D03*
X152908000Y-84328000D03*
X153847800Y-66929000D03*
X166878000Y-85852000D03*
X159181800Y-68707002D03*
X153847800Y-74168000D03*
X157302200Y-66852800D03*
X153924000Y-78740000D03*
X153416000Y-88138000D03*
X157734000Y-73152000D03*
X170180000Y-85852000D03*
X154178000Y-80518000D03*
X167640000Y-86868000D03*
X162814000Y-80772000D03*
X205740000Y-76708000D03*
X152400000Y-88138000D03*
X159181800Y-70315668D03*
X158165800Y-67966166D03*
X163830000Y-85852000D03*
X156210000Y-85852000D03*
X152400000Y-83820000D03*
X163068000Y-86868000D03*
X158191200Y-66751200D03*
X157022800Y-62738000D03*
X158750000Y-84074000D03*
X154940000Y-88138000D03*
X157988000Y-88138000D03*
X154432000Y-83312000D03*
X159512000Y-74676000D03*
X158496000Y-85852000D03*
X154609800Y-69596000D03*
X155600400Y-65455800D03*
X157988000Y-76708000D03*
X159512000Y-76708000D03*
X154609800Y-60833000D03*
X152654000Y-80264000D03*
X202692000Y-70866000D03*
X155498800Y-72517000D03*
X152400000Y-87376000D03*
X170180000Y-81788000D03*
X158927800Y-65913000D03*
X153847800Y-75057000D03*
X184150000Y-63439600D03*
X164846000Y-80772000D03*
X160020000Y-85852000D03*
X155600400Y-69342000D03*
X157480000Y-79248000D03*
X167640000Y-85852000D03*
X152654000Y-79502000D03*
X164592000Y-85852000D03*
X167894000Y-80518000D03*
X153847800Y-65166875D03*
X157226000Y-84074000D03*
X156514800Y-60706000D03*
X159004000Y-86868000D03*
X154940000Y-70612000D03*
X157226000Y-86868000D03*
D46*
X183743600Y-69240400D03*
D47*
X152654000Y-77216000D03*
X156083000Y-62077600D03*
X155600400Y-67056000D03*
X161036000Y-86868000D03*
X175330600Y-69469500D03*
X155194000Y-79248000D03*
X156006800Y-72009000D03*
X156972000Y-85852000D03*
X159512000Y-75692000D03*
X160274000Y-88138000D03*
X153847800Y-68691125D03*
X154990800Y-73025000D03*
X182245000Y-78105000D03*
X162306000Y-85852000D03*
X167132000Y-84074000D03*
X170180000Y-83566000D03*
X169672000Y-85090000D03*
X152400000Y-86614000D03*
X154482800Y-73533000D03*
X161036000Y-88138000D03*
X152400000Y-85090000D03*
X163830000Y-80772000D03*
X158242000Y-78486000D03*
X162560000Y-88138000D03*
X158165800Y-71374000D03*
X168910000Y-80772000D03*
X153416000Y-82296000D03*
X155956000Y-80772000D03*
X167944800Y-66167000D03*
X173405800Y-63881000D03*
X156464000Y-88138000D03*
X161544000Y-85852000D03*
X152654000Y-78740000D03*
X166116000Y-85852000D03*
X155448000Y-85852000D03*
X170180000Y-87376000D03*
X170180000Y-88138000D03*
X168402000Y-85852000D03*
X157302200Y-66090800D03*
X199390000Y-74676000D03*
X154584400Y-66040000D03*
X171119800Y-63101600D03*
X157937200Y-62331600D03*
X153924000Y-82804000D03*
X153670000Y-86868000D03*
X161798000Y-84074000D03*
X157302200Y-70662800D03*
X157226000Y-88138000D03*
X155600400Y-68580000D03*
X165608000Y-88138000D03*
X157302200Y-69900800D03*
X152908000Y-81788000D03*
X160782000Y-85852000D03*
X156464000Y-84074000D03*
X164084000Y-88138000D03*
X159512000Y-72644000D03*
X169926000Y-80772000D03*
X157302200Y-68376800D03*
X159512000Y-73660000D03*
X159512000Y-71628000D03*
X152654000Y-76454000D03*
X167894000Y-84074000D03*
X153924000Y-75946000D03*
X157988000Y-84074000D03*
X155194000Y-81534000D03*
X164846000Y-84074000D03*
X165354000Y-86868000D03*
X160274000Y-84074000D03*
X156718000Y-80010000D03*
X166370000Y-84074000D03*
X170180000Y-86614000D03*
X159258000Y-77978000D03*
X156718000Y-77978000D03*
X155600400Y-66294000D03*
X164084000Y-84074000D03*
X156464000Y-74168000D03*
X159181800Y-67098336D03*
X169164000Y-85598000D03*
X154432000Y-71120000D03*
X153416000Y-76708000D03*
X153847800Y-61642625D03*
X155371800Y-64033400D03*
X155371800Y-64770000D03*
X165608000Y-84074000D03*
X158165800Y-69511332D03*
X162560000Y-84074000D03*
X154178000Y-88138000D03*
X158038800Y-60706000D03*
X153924000Y-85344000D03*
X155600400Y-67818000D03*
X165354000Y-85852000D03*
X155524200Y-63220600D03*
X154609800Y-67818000D03*
X154940000Y-83820000D03*
X152654000Y-81026000D03*
X165862000Y-80772000D03*
X159512000Y-88138000D03*
X154940000Y-77216000D03*
D46*
%TO.N,/EN*%
X172339000Y-79629000D03*
X171196000Y-80772000D03*
%TD*%
D48*
%TO.N,/EN*%
X173228000Y-84821000D02*
X174244000Y-85837000D01*
X173101000Y-83185000D02*
X173228000Y-83312000D01*
X173228000Y-83312000D02*
X173228000Y-84821000D01*
X172360500Y-83925500D02*
X173101000Y-83185000D01*
X171831000Y-83925500D02*
X172360500Y-83925500D01*
D49*
%TO.N,GND*%
X172474500Y-87630000D02*
X172466000Y-87630000D01*
X172967500Y-87137000D02*
X172474500Y-87630000D01*
X172967500Y-87137000D02*
X174244000Y-87137000D01*
X171831000Y-86000500D02*
X172967500Y-87137000D01*
D48*
%TO.N,/PWM*%
X190500000Y-73660000D02*
X190889000Y-73660000D01*
X189992000Y-74168000D02*
X190500000Y-73660000D01*
X189357000Y-80518000D02*
X189992000Y-79883000D01*
X182254500Y-80518000D02*
X189357000Y-80518000D01*
X189992000Y-79883000D02*
X189992000Y-74168000D01*
%TO.N,/SENSE*%
X190500000Y-76589000D02*
X190889000Y-76200000D01*
X190500000Y-80010000D02*
X190500000Y-76589000D01*
X184753003Y-80899000D02*
X189611000Y-80899000D01*
X182254500Y-81768000D02*
X183884003Y-81768000D01*
X183884003Y-81768000D02*
X184753003Y-80899000D01*
X189611000Y-80899000D02*
X190500000Y-80010000D01*
D49*
%TO.N,GND*%
X170285500Y-87270500D02*
X170180000Y-87376000D01*
D48*
%TO.N,/EN*%
X171196000Y-81280000D02*
X173101000Y-83185000D01*
X171196000Y-80772000D02*
X171196000Y-81280000D01*
X173924500Y-82361500D02*
X173101000Y-83185000D01*
X174244000Y-82361500D02*
X173924500Y-82361500D01*
D49*
%TO.N,GND*%
X174110500Y-87270500D02*
X174244000Y-87137000D01*
X177861500Y-87314500D02*
X177800000Y-87376000D01*
X179324000Y-87314500D02*
X177861500Y-87314500D01*
D48*
%TO.N,/BTN*%
X175956500Y-81661000D02*
X176657000Y-82361500D01*
X175514000Y-81661000D02*
X175956500Y-81661000D01*
X180213000Y-85852000D02*
X181610000Y-87249000D01*
X177292000Y-85852000D02*
X180213000Y-85852000D01*
X175514000Y-84074000D02*
X177292000Y-85852000D01*
X175006000Y-81153000D02*
X175514000Y-81661000D01*
X172375954Y-81153000D02*
X175006000Y-81153000D01*
X170724954Y-79502000D02*
X172375954Y-81153000D01*
X162814000Y-79502000D02*
X170724954Y-79502000D01*
X160299400Y-82270600D02*
X160299400Y-82016600D01*
X175514000Y-81661000D02*
X175514000Y-84074000D01*
X160299400Y-82016600D02*
X162814000Y-79502000D01*
%TO.N,/BATSENSE*%
X179324000Y-82361500D02*
X179324000Y-84389500D01*
X177861500Y-80899000D02*
X179324000Y-82361500D01*
X172481164Y-80899000D02*
X177861500Y-80899000D01*
X170830164Y-79248000D02*
X172481164Y-80899000D01*
X159029400Y-81520600D02*
X161302000Y-79248000D01*
X161302000Y-79248000D02*
X170830164Y-79248000D01*
X159029400Y-82270600D02*
X159029400Y-81520600D01*
D49*
%TO.N,+3V3*%
X179768500Y-77851000D02*
X175641000Y-77851000D01*
X180213000Y-77406500D02*
X179768500Y-77851000D01*
X180213000Y-75057000D02*
X180213000Y-77406500D01*
X175641000Y-77851000D02*
X175387000Y-78105000D01*
X179592500Y-74436500D02*
X180213000Y-75057000D01*
X178812750Y-74436500D02*
X179592500Y-74436500D01*
X175387000Y-78105000D02*
X175387000Y-79436500D01*
X175387000Y-79436500D02*
X174244000Y-79436500D01*
X176657000Y-79436500D02*
X175387000Y-79436500D01*
X176911000Y-79436500D02*
X176911000Y-79375000D01*
%TO.N,GND*%
X178812750Y-75568250D02*
X178816000Y-75565000D01*
X178812750Y-76511500D02*
X178812750Y-75568250D01*
D48*
%TO.N,/SENSE*%
X180955000Y-81768000D02*
X182254500Y-81768000D01*
X160286000Y-78994000D02*
X170935374Y-78994000D01*
X170935374Y-78994000D02*
X172586374Y-80645000D01*
X157759400Y-81520600D02*
X160286000Y-78994000D01*
X179832000Y-80645000D02*
X180955000Y-81768000D01*
X157759400Y-82270600D02*
X157759400Y-81520600D01*
X172586374Y-80645000D02*
X179832000Y-80645000D01*
%TO.N,/EN*%
X156489400Y-81508600D02*
X156489400Y-82270600D01*
X159258000Y-78740000D02*
X156489400Y-81508600D01*
X171323000Y-78740000D02*
X159258000Y-78740000D01*
X172339000Y-79629000D02*
X172212000Y-79629000D01*
X172212000Y-79629000D02*
X171323000Y-78740000D01*
%TO.N,/PWM*%
X182127500Y-80391000D02*
X182254500Y-80518000D01*
X172974000Y-79883000D02*
X173482000Y-80391000D01*
X172974000Y-76327000D02*
X172974000Y-79883000D01*
X173482000Y-80391000D02*
X182127500Y-80391000D01*
X172974000Y-72390000D02*
X172974000Y-74803000D01*
X170180000Y-69596000D02*
X172974000Y-72390000D01*
%TO.N,/SCL*%
X169701010Y-75438000D02*
X174244000Y-75438000D01*
X174244000Y-75438000D02*
X175133000Y-74549000D01*
X160299400Y-66036390D02*
X169701010Y-75438000D01*
X160299400Y-64490600D02*
X160299400Y-66036390D01*
X175133000Y-74549000D02*
X175645750Y-74549000D01*
%TO.N,/SDA*%
X174117000Y-75692000D02*
X174824000Y-76399000D01*
X174824000Y-76399000D02*
X175645750Y-76399000D01*
X159029400Y-65125600D02*
X169595800Y-75692000D01*
X169595800Y-75692000D02*
X174117000Y-75692000D01*
X159029400Y-64490600D02*
X159029400Y-65125600D01*
D49*
%TO.N,VIN*%
X180848000Y-77912500D02*
X179324000Y-79436500D01*
X180848000Y-70896800D02*
X180848000Y-77912500D01*
X181269800Y-70475000D02*
X180848000Y-70896800D01*
%TO.N,+3V3*%
X178812750Y-73783750D02*
X178812750Y-74436500D01*
X175133000Y-72517000D02*
X177546000Y-72517000D01*
X177546000Y-72517000D02*
X178812750Y-73783750D01*
X174210000Y-71594000D02*
X175133000Y-72517000D01*
X174210000Y-70648500D02*
X174210000Y-71594000D01*
X169189400Y-65627900D02*
X174210000Y-70648500D01*
X169189400Y-64490600D02*
X169189400Y-65627900D01*
%TO.N,VIN*%
X184912000Y-65024000D02*
X183388000Y-65024000D01*
X186182000Y-63754000D02*
X184912000Y-65024000D01*
X186182000Y-63026000D02*
X186182000Y-63754000D01*
X183388000Y-65024000D02*
X180949600Y-67462400D01*
X180022499Y-68389501D02*
X180949600Y-67462400D01*
X179324000Y-68389501D02*
X180022499Y-68389501D01*
X179324000Y-68389501D02*
X179324000Y-68199000D01*
X179324000Y-68389501D02*
X179402499Y-68468000D01*
%TO.N,/EN*%
X174667434Y-81976500D02*
X174244000Y-81976500D01*
X174963888Y-81976500D02*
X174244000Y-81976500D01*
%TO.N,GND*%
X186610000Y-87249000D02*
X184404000Y-87249000D01*
X159969200Y-60553600D02*
X159969200Y-61050900D01*
X204470000Y-70866000D02*
X202692000Y-70866000D01*
X181236000Y-61223600D02*
X183461000Y-61223600D01*
X178700250Y-76399000D02*
X178812750Y-76511500D01*
X171141300Y-61849000D02*
X171141300Y-63080100D01*
X183791000Y-63798600D02*
X184150000Y-63439600D01*
X203913000Y-76708000D02*
X205740000Y-76708000D01*
X182245000Y-78105000D02*
X182245000Y-79258500D01*
X175345100Y-69484000D02*
X175330600Y-69469500D01*
X176711000Y-62242600D02*
X176276000Y-62677600D01*
X157022800Y-62738000D02*
X157759400Y-63474600D01*
X182285000Y-69225000D02*
X183728200Y-69225000D01*
X167919400Y-64490600D02*
X167919400Y-66141600D01*
X184525597Y-60046135D02*
X183461000Y-61110732D01*
X178812750Y-76511500D02*
X178588050Y-76511500D01*
X183461000Y-61110732D02*
X183461000Y-61223600D01*
X178786000Y-63883600D02*
X177683500Y-63883600D01*
D50*
X178343499Y-69484000D02*
X179324000Y-70464501D01*
D49*
X199197500Y-74483500D02*
X199390000Y-74676000D01*
X176711000Y-61223600D02*
X178536000Y-61223600D01*
D50*
X176896000Y-69484000D02*
X178343499Y-69484000D01*
D49*
X159969200Y-61050900D02*
X160767300Y-61849000D01*
X167919400Y-66141600D02*
X167944800Y-66167000D01*
X176645750Y-76399000D02*
X178700250Y-76399000D01*
X182245000Y-79258500D02*
X182254500Y-79268000D01*
X182573500Y-63798600D02*
X183791000Y-63798600D01*
X177598500Y-63798600D02*
X177397000Y-63798600D01*
X177397000Y-63798600D02*
X176276000Y-62677600D01*
X173405800Y-65318500D02*
X173405800Y-63881000D01*
X175106000Y-69469500D02*
X174210000Y-68573500D01*
X171141300Y-63080100D02*
X171119800Y-63101600D01*
D50*
X176896000Y-69484000D02*
X176896000Y-68509000D01*
D49*
X157759400Y-63474600D02*
X157759400Y-64490600D01*
D50*
X176896000Y-69484000D02*
X175345100Y-69484000D01*
D49*
X178536000Y-61223600D02*
X181236000Y-61223600D01*
X197866000Y-74483500D02*
X199197500Y-74483500D01*
X183728200Y-69225000D02*
X183743600Y-69240400D01*
X175330600Y-69469500D02*
X175106000Y-69469500D01*
X176711000Y-61223600D02*
X176711000Y-62242600D01*
%TO.N,VIN*%
X180949600Y-69350899D02*
X180949600Y-70154800D01*
X177283500Y-67746001D02*
X177546000Y-68008501D01*
X176246000Y-68038501D02*
X176538500Y-67746001D01*
X177546000Y-68008501D02*
X177546000Y-68509000D01*
X176246000Y-68509000D02*
X176246000Y-68038501D01*
X176538500Y-67746001D02*
X176911000Y-67746001D01*
X181269800Y-70475000D02*
X182285000Y-70475000D01*
X179204501Y-68509000D02*
X179324000Y-68389501D01*
X177546000Y-68509000D02*
X179204501Y-68509000D01*
X176911000Y-67746001D02*
X177283500Y-67746001D01*
X180949600Y-67462400D02*
X180949600Y-69350899D01*
X180949600Y-70154800D02*
X181269800Y-70475000D01*
%TO.N,+3V3*%
X173405800Y-62611000D02*
X172262800Y-63754000D01*
X176056500Y-70648500D02*
X176246000Y-70459000D01*
X169066300Y-61849000D02*
X169066300Y-64367500D01*
X174210000Y-70648500D02*
X176056500Y-70648500D01*
X169926000Y-63754000D02*
X169189400Y-64490600D01*
X176645750Y-74549000D02*
X178700250Y-74549000D01*
X172262800Y-63754000D02*
X169926000Y-63754000D01*
X173405800Y-62443500D02*
X173405800Y-62611000D01*
X169066300Y-64367500D02*
X169189400Y-64490600D01*
X178700250Y-74549000D02*
X178812750Y-74436500D01*
D51*
%TO.N,/CAP*%
X208280000Y-70866000D02*
X208280000Y-72898000D01*
X207330000Y-69916000D02*
X208280000Y-70866000D01*
X205991000Y-69562000D02*
X206345000Y-69916000D01*
X200914000Y-69562000D02*
X205991000Y-69562000D01*
X200818500Y-69657500D02*
X200914000Y-69562000D01*
X206345000Y-69916000D02*
X207330000Y-69916000D01*
X209042000Y-73660000D02*
X234760000Y-73660000D01*
X208280000Y-72898000D02*
X209042000Y-73660000D01*
X197866000Y-69657500D02*
X200818500Y-69657500D01*
D49*
%TO.N,VBUS*%
X184912000Y-62484000D02*
X186182000Y-61214000D01*
X181386000Y-63883600D02*
X181386000Y-62962000D01*
X181386000Y-62962000D02*
X181864000Y-62484000D01*
X186182000Y-61214000D02*
X186182000Y-60926000D01*
X181864000Y-62484000D02*
X184912000Y-62484000D01*
D48*
%TO.N,/GPIO9*%
X165379400Y-64168400D02*
X165379400Y-64490600D01*
X166293800Y-62473600D02*
X166293800Y-63254000D01*
X166293800Y-63254000D02*
X165379400Y-64168400D01*
%TO.N,/SDA*%
X175637750Y-76407000D02*
X175645750Y-76399000D01*
%TO.N,/DP*%
X161975800Y-60833000D02*
X161975800Y-62738000D01*
X180086000Y-64709600D02*
X179549000Y-65246600D01*
X174472600Y-59740800D02*
X163068000Y-59740800D01*
X180086000Y-63883600D02*
X180086000Y-64709600D01*
X161975800Y-62738000D02*
X161569400Y-63144400D01*
X163068000Y-59740800D02*
X161975800Y-60833000D01*
X175358000Y-64108400D02*
X175358000Y-60626200D01*
X176496200Y-65246600D02*
X175358000Y-64108400D01*
X161569400Y-63144400D02*
X161569400Y-64490600D01*
X179549000Y-65246600D02*
X176496200Y-65246600D01*
X175358000Y-60626200D02*
X174472600Y-59740800D01*
%TO.N,/DN*%
X162839400Y-63093600D02*
X162839400Y-64490600D01*
X162483800Y-62738000D02*
X162839400Y-63093600D01*
X180115000Y-65696600D02*
X176309800Y-65696600D01*
X174908000Y-64294800D02*
X174908000Y-61370000D01*
X180736000Y-63883600D02*
X180736000Y-65075600D01*
X176309800Y-65696600D02*
X174908000Y-64294800D01*
X162483800Y-61087000D02*
X162483800Y-62738000D01*
X180736000Y-65075600D02*
X180115000Y-65696600D01*
X173583600Y-60045600D02*
X163525200Y-60045600D01*
X174908000Y-61370000D02*
X173583600Y-60045600D01*
X163525200Y-60045600D02*
X162483800Y-61087000D01*
D51*
%TO.N,Net-(Q1-B)*%
X203962000Y-73914000D02*
X204247000Y-73914000D01*
X204247000Y-73914000D02*
X206345000Y-71816000D01*
%TO.N,/SENSE_SENSOR*%
X201676000Y-76708000D02*
X200963000Y-76708000D01*
X197866000Y-77408500D02*
X200262500Y-77408500D01*
X191889000Y-76200000D02*
X194056000Y-76200000D01*
X200262500Y-77408500D02*
X200963000Y-76708000D01*
X200914000Y-71662000D02*
X201456000Y-71662000D01*
X194056000Y-76200000D02*
X195264500Y-77408500D01*
X201456000Y-71662000D02*
X202438000Y-72644000D01*
X195264500Y-77408500D02*
X197866000Y-77408500D01*
X202438000Y-75946000D02*
X201676000Y-76708000D01*
X202438000Y-72644000D02*
X202438000Y-75946000D01*
%TO.N,/PWM_SENSOR*%
X194056000Y-73660000D02*
X195133500Y-72582500D01*
X195133500Y-72582500D02*
X195326000Y-72582500D01*
X197866000Y-72582500D02*
X199705500Y-72582500D01*
X191889000Y-73660000D02*
X194056000Y-73660000D01*
X195326000Y-72582500D02*
X197866000Y-72582500D01*
X199705500Y-72582500D02*
X201037000Y-73914000D01*
D48*
%TO.N,/PWM*%
X166649400Y-66065400D02*
X170180000Y-69596000D01*
X166649400Y-64490600D02*
X166649400Y-66065400D01*
%TO.N,Net-(JP2-A)*%
X165292800Y-61173600D02*
X166293800Y-61173600D01*
X164617400Y-61849000D02*
X165292800Y-61173600D01*
X163692300Y-61849000D02*
X164617400Y-61849000D01*
D52*
%TO.N,Net-(AE1-FEED)*%
X154686000Y-84937600D02*
X152146000Y-82397600D01*
X168452800Y-84937600D02*
X154686000Y-84937600D01*
X169189400Y-84201000D02*
X168452800Y-84937600D01*
X152146000Y-82397600D02*
X150266201Y-82397600D01*
X169189400Y-82270600D02*
X169189400Y-84201000D01*
%TO.N,Net-(AE2-FEED)*%
X156489400Y-70360796D02*
X153449596Y-73400600D01*
X153449596Y-73400600D02*
X151978000Y-73400600D01*
X156489400Y-64490600D02*
X156489400Y-70360796D01*
%TD*%
%TA.AperFunction,Conductor*%
%TO.N,GND*%
G36*
X256255468Y-64000502D02*
G01*
X256263703Y-64000501D01*
X256263708Y-64000503D01*
X256281319Y-64000502D01*
X256348356Y-64020180D01*
X256369006Y-64036820D01*
X265904505Y-73572318D01*
X265937990Y-73633641D01*
X265933006Y-73703333D01*
X265904505Y-73747680D01*
X256369005Y-83283179D01*
X256307682Y-83316664D01*
X256281320Y-83319497D01*
X256263708Y-83319497D01*
X256263706Y-83319497D01*
X256255468Y-83319497D01*
X256255424Y-83319500D01*
X189354000Y-83319500D01*
X189286961Y-83299815D01*
X189241206Y-83247011D01*
X189230000Y-83195500D01*
X189230000Y-81587000D01*
X189249685Y-81519961D01*
X189302489Y-81474206D01*
X189354000Y-81463000D01*
X189685251Y-81463000D01*
X189685253Y-81463000D01*
X189828696Y-81424565D01*
X189957304Y-81350313D01*
X190062313Y-81245304D01*
X190062313Y-81245302D01*
X190072517Y-81235099D01*
X190072521Y-81235094D01*
X190836094Y-80471521D01*
X190836099Y-80471517D01*
X190846302Y-80461313D01*
X190846304Y-80461313D01*
X190951313Y-80356304D01*
X191025565Y-80227696D01*
X191064000Y-80084252D01*
X191064000Y-77079500D01*
X191083685Y-77012461D01*
X191136489Y-76966706D01*
X191188000Y-76955500D01*
X191889000Y-76955500D01*
X191960940Y-76950355D01*
X191968350Y-76948178D01*
X191989386Y-76943937D01*
X192057059Y-76936313D01*
X192216690Y-76880456D01*
X192313691Y-76819505D01*
X192379663Y-76800500D01*
X192581501Y-76800500D01*
X192648540Y-76820185D01*
X192694295Y-76872989D01*
X192705501Y-76924500D01*
X192705501Y-77097876D01*
X192711908Y-77157483D01*
X192762202Y-77292328D01*
X192762206Y-77292335D01*
X192848452Y-77407544D01*
X192848455Y-77407547D01*
X192963664Y-77493793D01*
X192963671Y-77493797D01*
X193098517Y-77544091D01*
X193098516Y-77544091D01*
X193105444Y-77544835D01*
X193158127Y-77550500D01*
X194505902Y-77550499D01*
X194572941Y-77570184D01*
X194593583Y-77586818D01*
X194779639Y-77772874D01*
X194779649Y-77772885D01*
X194783979Y-77777215D01*
X194783980Y-77777216D01*
X194895784Y-77889020D01*
X194954639Y-77922999D01*
X194982595Y-77939139D01*
X194982597Y-77939141D01*
X195020651Y-77961111D01*
X195032715Y-77968077D01*
X195185443Y-78009000D01*
X196467652Y-78009000D01*
X196534691Y-78028685D01*
X196573189Y-78067901D01*
X196648288Y-78189656D01*
X196772344Y-78313712D01*
X196921666Y-78405814D01*
X197088203Y-78460999D01*
X197190991Y-78471500D01*
X198541008Y-78471499D01*
X198643797Y-78460999D01*
X198810334Y-78405814D01*
X198959656Y-78313712D01*
X199083712Y-78189656D01*
X199158809Y-78067902D01*
X199210757Y-78021179D01*
X199264348Y-78009000D01*
X200175831Y-78009000D01*
X200175847Y-78009001D01*
X200183443Y-78009001D01*
X200341554Y-78009001D01*
X200341557Y-78009001D01*
X200494285Y-77968077D01*
X200544404Y-77939139D01*
X200631216Y-77889020D01*
X200631224Y-77889011D01*
X200632303Y-77888185D01*
X200633390Y-77887764D01*
X200638255Y-77884956D01*
X200638692Y-77885714D01*
X200697471Y-77862987D01*
X200746794Y-77868850D01*
X200910203Y-77922999D01*
X201012991Y-77933500D01*
X201788008Y-77933499D01*
X201788016Y-77933498D01*
X201788019Y-77933498D01*
X201844302Y-77927748D01*
X201890797Y-77922999D01*
X202057334Y-77867814D01*
X202206656Y-77775712D01*
X202330712Y-77651656D01*
X202332752Y-77648347D01*
X202334745Y-77646555D01*
X202335193Y-77645989D01*
X202335289Y-77646065D01*
X202384694Y-77601623D01*
X202453656Y-77590395D01*
X202517740Y-77618234D01*
X202543829Y-77648339D01*
X202545681Y-77651341D01*
X202545683Y-77651344D01*
X202669654Y-77775315D01*
X202818875Y-77867356D01*
X202818880Y-77867358D01*
X202985302Y-77922505D01*
X202985309Y-77922506D01*
X203088019Y-77932999D01*
X203225499Y-77932999D01*
X203725500Y-77932999D01*
X203862972Y-77932999D01*
X203862986Y-77932998D01*
X203965697Y-77922505D01*
X204132119Y-77867358D01*
X204132124Y-77867356D01*
X204281345Y-77775315D01*
X204405315Y-77651345D01*
X204497356Y-77502124D01*
X204497358Y-77502119D01*
X204552505Y-77335697D01*
X204552506Y-77335690D01*
X204562999Y-77232986D01*
X204563000Y-77232973D01*
X204563000Y-76958000D01*
X203725500Y-76958000D01*
X203725500Y-77932999D01*
X203225499Y-77932999D01*
X203225500Y-77932998D01*
X203225500Y-76582000D01*
X203245185Y-76514961D01*
X203297989Y-76469206D01*
X203349500Y-76458000D01*
X204562999Y-76458000D01*
X204562999Y-76183028D01*
X204562998Y-76183013D01*
X204552505Y-76080302D01*
X204497358Y-75913880D01*
X204497356Y-75913875D01*
X204405315Y-75764654D01*
X204281345Y-75640684D01*
X204132124Y-75548643D01*
X204132119Y-75548641D01*
X204079500Y-75531205D01*
X204022055Y-75491432D01*
X203995232Y-75426916D01*
X204007547Y-75358140D01*
X204055090Y-75306941D01*
X204118502Y-75289499D01*
X204324508Y-75289499D01*
X204324516Y-75289498D01*
X204324519Y-75289498D01*
X204380802Y-75283748D01*
X204427297Y-75278999D01*
X204593834Y-75223814D01*
X204743156Y-75131712D01*
X204867212Y-75007656D01*
X204959314Y-74858334D01*
X205014499Y-74691797D01*
X205025000Y-74589009D01*
X205024999Y-74036595D01*
X205044683Y-73969557D01*
X205061313Y-73948920D01*
X206357416Y-72652819D01*
X206418739Y-72619334D01*
X206445097Y-72616500D01*
X206998186Y-72616500D01*
X206998194Y-72616500D01*
X207035069Y-72613598D01*
X207035071Y-72613597D01*
X207035073Y-72613597D01*
X207129782Y-72586081D01*
X207192898Y-72567744D01*
X207334365Y-72484081D01*
X207450581Y-72367865D01*
X207450584Y-72367858D01*
X207455361Y-72361702D01*
X207457160Y-72363097D01*
X207499824Y-72323253D01*
X207568564Y-72310741D01*
X207633156Y-72337379D01*
X207673094Y-72394709D01*
X207679500Y-72434051D01*
X207679500Y-72811330D01*
X207679499Y-72811348D01*
X207679499Y-72977054D01*
X207679498Y-72977054D01*
X207696458Y-73040346D01*
X207720423Y-73129785D01*
X207724419Y-73136706D01*
X207724420Y-73136707D01*
X207724420Y-73136708D01*
X207799477Y-73266712D01*
X207799481Y-73266717D01*
X207918349Y-73385585D01*
X207918354Y-73385589D01*
X208673284Y-74140520D01*
X208673286Y-74140521D01*
X208673290Y-74140524D01*
X208717737Y-74166185D01*
X208810216Y-74219577D01*
X208962943Y-74260501D01*
X208962945Y-74260501D01*
X209128654Y-74260501D01*
X209128670Y-74260500D01*
X209180139Y-74260500D01*
X209247178Y-74280185D01*
X209292933Y-74332989D01*
X209302612Y-74365102D01*
X209348263Y-74653325D01*
X209361028Y-74733922D01*
X209423096Y-74992454D01*
X209450756Y-75107669D01*
X209461930Y-75154210D01*
X209490623Y-75242517D01*
X209595494Y-75565280D01*
X209677948Y-75764342D01*
X209760904Y-75964615D01*
X209954976Y-76345501D01*
X209957136Y-76349740D01*
X209957142Y-76349751D01*
X210182966Y-76718262D01*
X210182971Y-76718269D01*
X210182973Y-76718272D01*
X210300806Y-76880456D01*
X210437025Y-77067946D01*
X210437035Y-77067960D01*
X210717737Y-77396617D01*
X210717743Y-77396624D01*
X211023376Y-77702257D01*
X211023382Y-77702262D01*
X211352039Y-77982964D01*
X211352046Y-77982969D01*
X211701728Y-78237027D01*
X211701732Y-78237029D01*
X211701737Y-78237033D01*
X212070248Y-78462857D01*
X212070254Y-78462860D01*
X212070265Y-78462867D01*
X212455385Y-78659096D01*
X212854714Y-78824503D01*
X212854719Y-78824505D01*
X212959240Y-78858465D01*
X213265790Y-78958070D01*
X213686078Y-79058972D01*
X214112987Y-79126588D01*
X214543885Y-79160500D01*
X214543893Y-79160500D01*
X254976107Y-79160500D01*
X254976115Y-79160500D01*
X255407013Y-79126588D01*
X255833922Y-79058972D01*
X256254210Y-78958070D01*
X256665286Y-78824503D01*
X257064615Y-78659096D01*
X257449735Y-78462867D01*
X257818272Y-78237027D01*
X258167954Y-77982969D01*
X258496624Y-77702257D01*
X258802257Y-77396624D01*
X259057413Y-77097876D01*
X259082964Y-77067960D01*
X259082964Y-77067959D01*
X259082969Y-77067954D01*
X259337027Y-76718272D01*
X259562867Y-76349735D01*
X259759096Y-75964615D01*
X259924503Y-75565286D01*
X260058070Y-75154210D01*
X260158972Y-74733922D01*
X260226588Y-74307013D01*
X260260500Y-73876115D01*
X260260500Y-73443885D01*
X260226588Y-73012987D01*
X260158972Y-72586078D01*
X260058070Y-72165790D01*
X259939654Y-71801344D01*
X259924505Y-71754719D01*
X259895910Y-71685685D01*
X259759096Y-71355385D01*
X259562867Y-70970265D01*
X259553541Y-70955046D01*
X259337033Y-70601737D01*
X259337029Y-70601732D01*
X259337027Y-70601728D01*
X259082969Y-70252046D01*
X259082964Y-70252039D01*
X258802262Y-69923382D01*
X258802257Y-69923376D01*
X258496624Y-69617743D01*
X258414130Y-69547286D01*
X258167960Y-69337035D01*
X258167946Y-69337025D01*
X257867036Y-69118402D01*
X257818272Y-69082973D01*
X257818269Y-69082971D01*
X257818262Y-69082966D01*
X257449751Y-68857142D01*
X257449740Y-68857136D01*
X257449739Y-68857135D01*
X257449735Y-68857133D01*
X257064615Y-68660904D01*
X256904301Y-68594500D01*
X256665280Y-68495494D01*
X256372796Y-68400461D01*
X256254210Y-68361930D01*
X255833922Y-68261028D01*
X255407013Y-68193412D01*
X254976120Y-68159500D01*
X254976115Y-68159500D01*
X214543885Y-68159500D01*
X214543879Y-68159500D01*
X214112986Y-68193412D01*
X214112985Y-68193412D01*
X213686083Y-68261027D01*
X213686080Y-68261027D01*
X213686078Y-68261028D01*
X213535562Y-68297163D01*
X213265801Y-68361927D01*
X213265795Y-68361928D01*
X213265790Y-68361930D01*
X213265778Y-68361934D01*
X212854719Y-68495494D01*
X212455387Y-68660903D01*
X212070259Y-68857136D01*
X212070248Y-68857142D01*
X211701737Y-69082966D01*
X211701726Y-69082974D01*
X211352053Y-69337025D01*
X211352039Y-69337035D01*
X211023382Y-69617737D01*
X211023368Y-69617750D01*
X210717750Y-69923368D01*
X210717737Y-69923382D01*
X210437035Y-70252039D01*
X210437025Y-70252053D01*
X210182974Y-70601726D01*
X210182966Y-70601737D01*
X209957142Y-70970248D01*
X209957136Y-70970259D01*
X209760903Y-71355387D01*
X209595494Y-71754719D01*
X209461934Y-72165778D01*
X209461927Y-72165801D01*
X209361027Y-72586081D01*
X209324756Y-72815084D01*
X209294826Y-72878218D01*
X209235515Y-72915149D01*
X209165652Y-72914151D01*
X209114602Y-72883366D01*
X208916819Y-72685583D01*
X208883334Y-72624260D01*
X208880500Y-72597902D01*
X208880500Y-70955059D01*
X208880501Y-70955046D01*
X208880501Y-70786945D01*
X208880501Y-70786943D01*
X208839577Y-70634215D01*
X208810632Y-70584081D01*
X208810632Y-70584080D01*
X208760524Y-70497290D01*
X208760521Y-70497286D01*
X208760520Y-70497284D01*
X208648716Y-70385480D01*
X208648715Y-70385479D01*
X208644385Y-70381149D01*
X208644374Y-70381139D01*
X207817590Y-69554355D01*
X207817588Y-69554352D01*
X207698717Y-69435481D01*
X207698709Y-69435475D01*
X207575143Y-69364135D01*
X207575140Y-69364134D01*
X207561785Y-69356423D01*
X207431435Y-69321495D01*
X207375848Y-69289401D01*
X207334370Y-69247923D01*
X207334362Y-69247917D01*
X207192896Y-69164255D01*
X207192893Y-69164254D01*
X207035073Y-69118402D01*
X207035067Y-69118401D01*
X206998201Y-69115500D01*
X206998194Y-69115500D01*
X206445098Y-69115500D01*
X206378059Y-69095815D01*
X206366255Y-69086303D01*
X206366161Y-69086426D01*
X206359718Y-69081482D01*
X206359716Y-69081480D01*
X206272904Y-69031360D01*
X206272904Y-69031359D01*
X206272900Y-69031358D01*
X206222785Y-69002423D01*
X206070057Y-68961499D01*
X205911943Y-68961499D01*
X205904347Y-68961499D01*
X205904331Y-68961500D01*
X201531775Y-68961500D01*
X201464736Y-68941815D01*
X201444093Y-68925180D01*
X201405203Y-68886289D01*
X201405194Y-68886282D01*
X201324111Y-68838330D01*
X201271887Y-68807445D01*
X201123156Y-68764235D01*
X201123153Y-68764234D01*
X201123151Y-68764234D01*
X201092395Y-68761814D01*
X201088405Y-68761500D01*
X201088404Y-68761500D01*
X200739606Y-68761500D01*
X200739584Y-68761501D01*
X200704847Y-68764234D01*
X200704844Y-68764235D01*
X200556113Y-68807445D01*
X200556111Y-68807445D01*
X200556111Y-68807446D01*
X200422805Y-68886282D01*
X200422796Y-68886289D01*
X200313289Y-68995796D01*
X200313280Y-68995807D01*
X200313095Y-68996122D01*
X200312885Y-68996317D01*
X200308505Y-69001965D01*
X200307593Y-69001258D01*
X200262026Y-69043805D01*
X200206364Y-69057000D01*
X199264348Y-69057000D01*
X199197309Y-69037315D01*
X199158809Y-68998097D01*
X199157397Y-68995807D01*
X199083712Y-68876344D01*
X198959656Y-68752288D01*
X198811498Y-68660904D01*
X198810336Y-68660187D01*
X198810331Y-68660185D01*
X198808862Y-68659698D01*
X198643797Y-68605001D01*
X198643795Y-68605000D01*
X198541010Y-68594500D01*
X197190998Y-68594500D01*
X197190981Y-68594501D01*
X197088203Y-68605000D01*
X197088200Y-68605001D01*
X196921668Y-68660185D01*
X196921663Y-68660187D01*
X196772342Y-68752289D01*
X196648289Y-68876342D01*
X196556187Y-69025663D01*
X196556185Y-69025668D01*
X196554299Y-69031360D01*
X196501001Y-69192203D01*
X196501001Y-69192204D01*
X196501000Y-69192204D01*
X196490500Y-69294983D01*
X196490500Y-70020001D01*
X196490501Y-70020019D01*
X196501000Y-70122796D01*
X196501001Y-70122799D01*
X196556185Y-70289331D01*
X196556187Y-70289336D01*
X196579047Y-70326398D01*
X196648288Y-70438656D01*
X196772344Y-70562712D01*
X196921666Y-70654814D01*
X197088203Y-70709999D01*
X197190991Y-70720500D01*
X198541008Y-70720499D01*
X198643797Y-70709999D01*
X198810334Y-70654814D01*
X198959656Y-70562712D01*
X199083712Y-70438656D01*
X199158809Y-70316902D01*
X199210757Y-70270179D01*
X199264348Y-70258000D01*
X200423180Y-70258000D01*
X200486300Y-70275267D01*
X200556113Y-70316555D01*
X200704844Y-70359765D01*
X200739595Y-70362500D01*
X201088404Y-70362499D01*
X201123156Y-70359765D01*
X201271887Y-70316555D01*
X201405198Y-70237715D01*
X201444093Y-70198820D01*
X201505416Y-70165334D01*
X201531775Y-70162500D01*
X203237281Y-70162500D01*
X203304320Y-70182185D01*
X203350075Y-70234989D01*
X203360019Y-70304147D01*
X203344013Y-70349621D01*
X203281218Y-70455801D01*
X203235399Y-70613513D01*
X203235204Y-70615998D01*
X203235205Y-70616000D01*
X205375685Y-70616000D01*
X205438806Y-70633268D01*
X205497102Y-70667744D01*
X205536829Y-70679286D01*
X205654926Y-70713597D01*
X205654929Y-70713597D01*
X205654931Y-70713598D01*
X205691806Y-70716500D01*
X205691814Y-70716500D01*
X206998186Y-70716500D01*
X206998194Y-70716500D01*
X207035069Y-70713598D01*
X207153170Y-70679286D01*
X207223039Y-70679485D01*
X207275446Y-70710681D01*
X207643181Y-71078416D01*
X207676666Y-71139739D01*
X207679500Y-71166097D01*
X207679500Y-71197948D01*
X207659815Y-71264987D01*
X207607011Y-71310742D01*
X207537853Y-71320686D01*
X207474297Y-71291661D01*
X207456033Y-71269775D01*
X207455361Y-71270298D01*
X207450576Y-71264129D01*
X207334370Y-71147923D01*
X207334362Y-71147917D01*
X207192896Y-71064255D01*
X207192893Y-71064254D01*
X207035073Y-71018402D01*
X207035067Y-71018401D01*
X206998201Y-71015500D01*
X206998194Y-71015500D01*
X205691806Y-71015500D01*
X205691798Y-71015500D01*
X205654932Y-71018401D01*
X205654926Y-71018402D01*
X205497106Y-71064254D01*
X205497103Y-71064255D01*
X205438806Y-71098732D01*
X205375685Y-71116000D01*
X204720000Y-71116000D01*
X204720000Y-71666000D01*
X204983000Y-71666000D01*
X205050039Y-71685685D01*
X205095794Y-71738489D01*
X205107000Y-71790000D01*
X205107000Y-72031701D01*
X205109901Y-72068563D01*
X205109903Y-72068572D01*
X205119450Y-72101435D01*
X205119249Y-72171305D01*
X205088054Y-72223709D01*
X204732800Y-72578963D01*
X204671477Y-72612448D01*
X204601785Y-72607464D01*
X204594435Y-72604385D01*
X204539203Y-72586083D01*
X204427297Y-72549001D01*
X204427295Y-72549000D01*
X204324510Y-72538500D01*
X203599498Y-72538500D01*
X203599480Y-72538501D01*
X203496703Y-72549000D01*
X203496700Y-72549001D01*
X203330168Y-72604185D01*
X203330159Y-72604189D01*
X203227597Y-72667450D01*
X203160205Y-72685890D01*
X203093541Y-72664967D01*
X203048772Y-72611325D01*
X203040773Y-72572842D01*
X203039562Y-72573002D01*
X203038501Y-72564945D01*
X203038501Y-72564943D01*
X202997577Y-72412216D01*
X202997565Y-72412195D01*
X202918524Y-72275290D01*
X202918518Y-72275282D01*
X201943590Y-71300355D01*
X201943588Y-71300352D01*
X201824717Y-71181481D01*
X201824716Y-71181480D01*
X201737904Y-71131360D01*
X201737904Y-71131359D01*
X201737900Y-71131358D01*
X201711302Y-71116001D01*
X203235204Y-71116001D01*
X203235399Y-71118486D01*
X203281218Y-71276198D01*
X203364814Y-71417552D01*
X203364821Y-71417561D01*
X203480938Y-71533678D01*
X203480947Y-71533685D01*
X203622303Y-71617282D01*
X203622306Y-71617283D01*
X203780004Y-71663099D01*
X203780010Y-71663100D01*
X203816850Y-71665999D01*
X203816866Y-71666000D01*
X204220000Y-71666000D01*
X204220000Y-71116000D01*
X203235205Y-71116000D01*
X203235204Y-71116001D01*
X201711302Y-71116001D01*
X201687785Y-71102423D01*
X201535057Y-71061499D01*
X201535054Y-71061499D01*
X201531774Y-71061499D01*
X201529106Y-71060715D01*
X201526997Y-71060438D01*
X201527040Y-71060109D01*
X201464735Y-71041814D01*
X201444092Y-71025179D01*
X201405203Y-70986289D01*
X201405194Y-70986282D01*
X201304964Y-70927007D01*
X201271887Y-70907445D01*
X201123156Y-70864235D01*
X201123153Y-70864234D01*
X201123151Y-70864234D01*
X201092395Y-70861814D01*
X201088405Y-70861500D01*
X201088404Y-70861500D01*
X200739606Y-70861500D01*
X200739584Y-70861501D01*
X200704847Y-70864234D01*
X200669950Y-70874372D01*
X200556113Y-70907445D01*
X200556111Y-70907445D01*
X200556111Y-70907446D01*
X200422805Y-70986282D01*
X200422796Y-70986289D01*
X200313289Y-71095796D01*
X200313282Y-71095805D01*
X200252876Y-71197948D01*
X200234445Y-71229113D01*
X200210730Y-71310742D01*
X200191234Y-71377847D01*
X200191234Y-71377849D01*
X200188500Y-71412589D01*
X200188500Y-71911393D01*
X200188501Y-71911418D01*
X200191161Y-71945219D01*
X200176795Y-72013596D01*
X200127742Y-72063351D01*
X200059576Y-72078688D01*
X200005545Y-72062333D01*
X200004020Y-72061453D01*
X199972925Y-72043500D01*
X199937285Y-72022923D01*
X199784557Y-71981999D01*
X199626443Y-71981999D01*
X199618847Y-71981999D01*
X199618831Y-71982000D01*
X199264348Y-71982000D01*
X199197309Y-71962315D01*
X199158809Y-71923097D01*
X199083712Y-71801344D01*
X198959656Y-71677288D01*
X198810334Y-71585186D01*
X198643797Y-71530001D01*
X198643795Y-71530000D01*
X198541010Y-71519500D01*
X197190998Y-71519500D01*
X197190981Y-71519501D01*
X197088203Y-71530000D01*
X197088200Y-71530001D01*
X196921668Y-71585185D01*
X196921663Y-71585187D01*
X196772342Y-71677289D01*
X196648289Y-71801342D01*
X196624227Y-71840353D01*
X196580395Y-71911418D01*
X196573191Y-71923097D01*
X196521243Y-71969821D01*
X196467652Y-71982000D01*
X195337899Y-71982000D01*
X195270860Y-71962315D01*
X195225105Y-71909511D01*
X195215161Y-71840353D01*
X195228131Y-71802867D01*
X195227312Y-71802485D01*
X195329429Y-71583492D01*
X195329432Y-71583486D01*
X195386636Y-71370000D01*
X194489012Y-71370000D01*
X194521925Y-71312993D01*
X194556000Y-71185826D01*
X194556000Y-71054174D01*
X194521925Y-70927007D01*
X194489012Y-70870000D01*
X195386636Y-70870000D01*
X195386635Y-70869999D01*
X195329432Y-70656513D01*
X195329429Y-70656507D01*
X195229600Y-70442422D01*
X195229599Y-70442420D01*
X195094113Y-70248926D01*
X195094108Y-70248920D01*
X194927082Y-70081894D01*
X194733578Y-69946399D01*
X194519492Y-69846570D01*
X194519486Y-69846567D01*
X194306000Y-69789364D01*
X194306000Y-70686988D01*
X194248993Y-70654075D01*
X194121826Y-70620000D01*
X193990174Y-70620000D01*
X193863007Y-70654075D01*
X193806000Y-70686988D01*
X193806000Y-69789364D01*
X193805999Y-69789364D01*
X193592513Y-69846567D01*
X193592507Y-69846570D01*
X193378422Y-69946399D01*
X193378420Y-69946400D01*
X193184926Y-70081886D01*
X193184920Y-70081891D01*
X193017891Y-70248920D01*
X193017886Y-70248926D01*
X192882400Y-70442420D01*
X192882399Y-70442422D01*
X192782570Y-70656507D01*
X192782567Y-70656513D01*
X192725364Y-70869999D01*
X192725364Y-70870000D01*
X193622988Y-70870000D01*
X193590075Y-70927007D01*
X193556000Y-71054174D01*
X193556000Y-71185826D01*
X193590075Y-71312993D01*
X193622988Y-71370000D01*
X192725364Y-71370000D01*
X192782567Y-71583486D01*
X192782570Y-71583492D01*
X192882399Y-71797578D01*
X193017894Y-71991082D01*
X193184917Y-72158105D01*
X193370595Y-72288119D01*
X193414219Y-72342696D01*
X193421412Y-72412195D01*
X193389890Y-72474549D01*
X193370595Y-72491269D01*
X193184594Y-72621508D01*
X193017506Y-72788596D01*
X192881965Y-72982170D01*
X192881962Y-72982175D01*
X192879289Y-72987909D01*
X192833115Y-73040346D01*
X192766909Y-73059500D01*
X192379663Y-73059500D01*
X192313691Y-73040494D01*
X192313455Y-73040346D01*
X192269911Y-73012985D01*
X192216691Y-72979544D01*
X192057053Y-72923685D01*
X191898947Y-72905871D01*
X191895194Y-72905390D01*
X191889007Y-72904501D01*
X191889006Y-72904500D01*
X191889000Y-72904500D01*
X190889000Y-72904500D01*
X190888997Y-72904500D01*
X190817059Y-72909645D01*
X190817052Y-72909646D01*
X190809640Y-72911822D01*
X190788603Y-72916062D01*
X190741488Y-72921371D01*
X190720941Y-72923687D01*
X190720940Y-72923687D01*
X190561307Y-72979544D01*
X190561302Y-72979547D01*
X190418116Y-73069518D01*
X190418107Y-73069525D01*
X190402639Y-73084993D01*
X190347055Y-73117084D01*
X190282303Y-73134435D01*
X190282302Y-73134435D01*
X190282300Y-73134436D01*
X190248739Y-73153814D01*
X190248737Y-73153815D01*
X190153699Y-73208685D01*
X190153693Y-73208689D01*
X189540688Y-73821694D01*
X189540684Y-73821699D01*
X189489705Y-73909999D01*
X189489705Y-73910000D01*
X189462371Y-73957343D01*
X189459902Y-73955917D01*
X189424711Y-73999579D01*
X189358415Y-74021638D01*
X189290717Y-74004353D01*
X189243111Y-73953212D01*
X189230000Y-73897717D01*
X189230000Y-64124500D01*
X189249685Y-64057461D01*
X189302489Y-64011706D01*
X189354000Y-64000500D01*
X256255424Y-64000500D01*
X256255468Y-64000502D01*
G37*
%TD.AperFunction*%
%TA.AperFunction,Conductor*%
G36*
X196534691Y-73202685D02*
G01*
X196573189Y-73241901D01*
X196633138Y-73339093D01*
X196648289Y-73363657D01*
X196730304Y-73445672D01*
X196763789Y-73506995D01*
X196758805Y-73576687D01*
X196730305Y-73621034D01*
X196648682Y-73702657D01*
X196556643Y-73851875D01*
X196556641Y-73851880D01*
X196501494Y-74018302D01*
X196501493Y-74018309D01*
X196491000Y-74121013D01*
X196491000Y-74233500D01*
X199240999Y-74233500D01*
X199240999Y-74121028D01*
X199240998Y-74121013D01*
X199230505Y-74018302D01*
X199175358Y-73851880D01*
X199175356Y-73851875D01*
X199083315Y-73702654D01*
X199001695Y-73621034D01*
X198968210Y-73559711D01*
X198973194Y-73490019D01*
X199001691Y-73445676D01*
X199083712Y-73363656D01*
X199158809Y-73241902D01*
X199210757Y-73195179D01*
X199264348Y-73183000D01*
X199405403Y-73183000D01*
X199472442Y-73202685D01*
X199493084Y-73219319D01*
X199937681Y-73663916D01*
X199971166Y-73725239D01*
X199974000Y-73751597D01*
X199974000Y-74589001D01*
X199974001Y-74589019D01*
X199984500Y-74691796D01*
X199984501Y-74691799D01*
X200039685Y-74858331D01*
X200039687Y-74858336D01*
X200074569Y-74914888D01*
X200131788Y-75007656D01*
X200255844Y-75131712D01*
X200405166Y-75223814D01*
X200571703Y-75278999D01*
X200674491Y-75289500D01*
X200755907Y-75289499D01*
X200822943Y-75309183D01*
X200868699Y-75361986D01*
X200878643Y-75431145D01*
X200849619Y-75494701D01*
X200794911Y-75531204D01*
X200743672Y-75548183D01*
X200743663Y-75548187D01*
X200594342Y-75640289D01*
X200470289Y-75764342D01*
X200378187Y-75913663D01*
X200378185Y-75913668D01*
X200378115Y-75913880D01*
X200323001Y-76080203D01*
X200323001Y-76080204D01*
X200323000Y-76080204D01*
X200312500Y-76182983D01*
X200312500Y-76457902D01*
X200292815Y-76524941D01*
X200276181Y-76545583D01*
X200050084Y-76771681D01*
X199988761Y-76805166D01*
X199962403Y-76808000D01*
X199264348Y-76808000D01*
X199197309Y-76788315D01*
X199158809Y-76749097D01*
X199083712Y-76627344D01*
X198959656Y-76503288D01*
X198810334Y-76411186D01*
X198643797Y-76356001D01*
X198643795Y-76356000D01*
X198541010Y-76345500D01*
X197190998Y-76345500D01*
X197190981Y-76345501D01*
X197088203Y-76356000D01*
X197088200Y-76356001D01*
X196921668Y-76411185D01*
X196921663Y-76411187D01*
X196772342Y-76503289D01*
X196648289Y-76627342D01*
X196648288Y-76627344D01*
X196580293Y-76737583D01*
X196573191Y-76749097D01*
X196521243Y-76795821D01*
X196467652Y-76808000D01*
X195564597Y-76808000D01*
X195497558Y-76788315D01*
X195476916Y-76771681D01*
X195442818Y-76737583D01*
X195409333Y-76676260D01*
X195406499Y-76649902D01*
X195406499Y-75302129D01*
X195406498Y-75302123D01*
X195406497Y-75302116D01*
X195400091Y-75242517D01*
X195393115Y-75223814D01*
X195349797Y-75107671D01*
X195349793Y-75107664D01*
X195263547Y-74992455D01*
X195263544Y-74992452D01*
X195148335Y-74906206D01*
X195148328Y-74906202D01*
X195016917Y-74857189D01*
X195001951Y-74845986D01*
X196491001Y-74845986D01*
X196501494Y-74948697D01*
X196556641Y-75115119D01*
X196556643Y-75115124D01*
X196648684Y-75264345D01*
X196772654Y-75388315D01*
X196921875Y-75480356D01*
X196921880Y-75480358D01*
X197088302Y-75535505D01*
X197088309Y-75535506D01*
X197191019Y-75545999D01*
X197615999Y-75545999D01*
X198116000Y-75545999D01*
X198540972Y-75545999D01*
X198540986Y-75545998D01*
X198643697Y-75535505D01*
X198810119Y-75480358D01*
X198810124Y-75480356D01*
X198959345Y-75388315D01*
X199083315Y-75264345D01*
X199175356Y-75115124D01*
X199175358Y-75115119D01*
X199230505Y-74948697D01*
X199230506Y-74948690D01*
X199240999Y-74845986D01*
X199241000Y-74845973D01*
X199241000Y-74733500D01*
X198116000Y-74733500D01*
X198116000Y-75545999D01*
X197615999Y-75545999D01*
X197616000Y-75545998D01*
X197616000Y-74733500D01*
X196491001Y-74733500D01*
X196491001Y-74845986D01*
X195001951Y-74845986D01*
X194960983Y-74815318D01*
X194936566Y-74749853D01*
X194951418Y-74681580D01*
X194972563Y-74653332D01*
X195094495Y-74531401D01*
X195230035Y-74337830D01*
X195329903Y-74123663D01*
X195391063Y-73895408D01*
X195411659Y-73660000D01*
X195391063Y-73424592D01*
X195368154Y-73339093D01*
X195369817Y-73269243D01*
X195408980Y-73211381D01*
X195473208Y-73183877D01*
X195487929Y-73183000D01*
X196467652Y-73183000D01*
X196534691Y-73202685D01*
G37*
%TD.AperFunction*%
%TD*%
%TA.AperFunction,Conductor*%
%TO.N,GND*%
G36*
X160020000Y-78425000D02*
G01*
X160000315Y-78492039D01*
X159947511Y-78537794D01*
X159896000Y-78549000D01*
X159220006Y-78549000D01*
X159149806Y-78578078D01*
X159149805Y-78578079D01*
X157436385Y-80291500D01*
X156381207Y-81346678D01*
X156371104Y-81356781D01*
X156371099Y-81356786D01*
X156309774Y-81390268D01*
X156283423Y-81393100D01*
X156203579Y-81393100D01*
X156130196Y-81403791D01*
X156017007Y-81459125D01*
X155927925Y-81548207D01*
X155872590Y-81661397D01*
X155861900Y-81734772D01*
X155861900Y-82806425D01*
X155872591Y-82879804D01*
X155927925Y-82992992D01*
X156017007Y-83082074D01*
X156017008Y-83082074D01*
X156017010Y-83082076D01*
X156130196Y-83137409D01*
X156203573Y-83148100D01*
X156775226Y-83148099D01*
X156848604Y-83137409D01*
X156961790Y-83082076D01*
X156967059Y-83076807D01*
X157036719Y-83007148D01*
X157098042Y-82973663D01*
X157167734Y-82978647D01*
X157212081Y-83007148D01*
X157287007Y-83082074D01*
X157287008Y-83082074D01*
X157287010Y-83082076D01*
X157400196Y-83137409D01*
X157473573Y-83148100D01*
X158045226Y-83148099D01*
X158118604Y-83137409D01*
X158231790Y-83082076D01*
X158237059Y-83076807D01*
X158306719Y-83007148D01*
X158368042Y-82973663D01*
X158437734Y-82978647D01*
X158482081Y-83007148D01*
X158557007Y-83082074D01*
X158557008Y-83082074D01*
X158557010Y-83082076D01*
X158670196Y-83137409D01*
X158743573Y-83148100D01*
X159315226Y-83148099D01*
X159388604Y-83137409D01*
X159501790Y-83082076D01*
X159507059Y-83076807D01*
X159576719Y-83007148D01*
X159638042Y-82973663D01*
X159707734Y-82978647D01*
X159752081Y-83007148D01*
X159827007Y-83082074D01*
X159827008Y-83082074D01*
X159827010Y-83082076D01*
X159940196Y-83137409D01*
X160013573Y-83148100D01*
X160585226Y-83148099D01*
X160658604Y-83137409D01*
X160771790Y-83082076D01*
X160777059Y-83076807D01*
X160846719Y-83007148D01*
X160908042Y-82973663D01*
X160977734Y-82978647D01*
X161022081Y-83007148D01*
X161097007Y-83082074D01*
X161097008Y-83082074D01*
X161097010Y-83082076D01*
X161210196Y-83137409D01*
X161283573Y-83148100D01*
X161855226Y-83148099D01*
X161928604Y-83137409D01*
X162041790Y-83082076D01*
X162047059Y-83076807D01*
X162116719Y-83007148D01*
X162178042Y-82973663D01*
X162247734Y-82978647D01*
X162292081Y-83007148D01*
X162367007Y-83082074D01*
X162367008Y-83082074D01*
X162367010Y-83082076D01*
X162480196Y-83137409D01*
X162553573Y-83148100D01*
X163125226Y-83148099D01*
X163198604Y-83137409D01*
X163311790Y-83082076D01*
X163317059Y-83076807D01*
X163386719Y-83007148D01*
X163448042Y-82973663D01*
X163517734Y-82978647D01*
X163562081Y-83007148D01*
X163637007Y-83082074D01*
X163637008Y-83082074D01*
X163637010Y-83082076D01*
X163750196Y-83137409D01*
X163823573Y-83148100D01*
X164395226Y-83148099D01*
X164468604Y-83137409D01*
X164581790Y-83082076D01*
X164587059Y-83076807D01*
X164656719Y-83007148D01*
X164718042Y-82973663D01*
X164787734Y-82978647D01*
X164832081Y-83007148D01*
X164907007Y-83082074D01*
X164907008Y-83082074D01*
X164907010Y-83082076D01*
X165020196Y-83137409D01*
X165093573Y-83148100D01*
X165665226Y-83148099D01*
X165738604Y-83137409D01*
X165851790Y-83082076D01*
X165857059Y-83076807D01*
X165926719Y-83007148D01*
X165988042Y-82973663D01*
X166057734Y-82978647D01*
X166102081Y-83007148D01*
X166177007Y-83082074D01*
X166177008Y-83082074D01*
X166177010Y-83082076D01*
X166290196Y-83137409D01*
X166363573Y-83148100D01*
X166935226Y-83148099D01*
X166935226Y-83148098D01*
X166939693Y-83147775D01*
X166939803Y-83149296D01*
X167002491Y-83158178D01*
X167055389Y-83203824D01*
X167056750Y-83205980D01*
X167077082Y-83238943D01*
X167201054Y-83362915D01*
X167350275Y-83454956D01*
X167350280Y-83454958D01*
X167516702Y-83510105D01*
X167516709Y-83510106D01*
X167619419Y-83520599D01*
X167669399Y-83520598D01*
X167669400Y-83520598D01*
X167669400Y-81020600D01*
X167669399Y-81020599D01*
X167619429Y-81020600D01*
X167619411Y-81020601D01*
X167516702Y-81031094D01*
X167350280Y-81086241D01*
X167350275Y-81086243D01*
X167201057Y-81178282D01*
X167077080Y-81302258D01*
X167056749Y-81335219D01*
X167004800Y-81381943D01*
X166939763Y-81392524D01*
X166939698Y-81393424D01*
X166935917Y-81393149D01*
X166935837Y-81393163D01*
X166935535Y-81393122D01*
X166935229Y-81393100D01*
X166363579Y-81393100D01*
X166290196Y-81403791D01*
X166177007Y-81459125D01*
X166102081Y-81534052D01*
X166040758Y-81567537D01*
X165971066Y-81562553D01*
X165926719Y-81534052D01*
X165851792Y-81459125D01*
X165738602Y-81403790D01*
X165665227Y-81393100D01*
X165093579Y-81393100D01*
X165020196Y-81403791D01*
X164907007Y-81459125D01*
X164832081Y-81534052D01*
X164770758Y-81567537D01*
X164701066Y-81562553D01*
X164656719Y-81534052D01*
X164581792Y-81459125D01*
X164468602Y-81403790D01*
X164395227Y-81393100D01*
X163823579Y-81393100D01*
X163750196Y-81403791D01*
X163637007Y-81459125D01*
X163562081Y-81534052D01*
X163500758Y-81567537D01*
X163431066Y-81562553D01*
X163386719Y-81534052D01*
X163311792Y-81459125D01*
X163198602Y-81403790D01*
X163125227Y-81393100D01*
X162553579Y-81393100D01*
X162480196Y-81403791D01*
X162367007Y-81459125D01*
X162292081Y-81534052D01*
X162230758Y-81567537D01*
X162161066Y-81562553D01*
X162116719Y-81534052D01*
X162041792Y-81459125D01*
X161928602Y-81403790D01*
X161855228Y-81393100D01*
X161492375Y-81393100D01*
X161425336Y-81373415D01*
X161379581Y-81320611D01*
X161369637Y-81251453D01*
X161398662Y-81187897D01*
X161404680Y-81181433D01*
X162856795Y-79729319D01*
X162918118Y-79695834D01*
X162944476Y-79693000D01*
X170564000Y-79693000D01*
X170631039Y-79712685D01*
X170676794Y-79765489D01*
X170688000Y-79817000D01*
X170688000Y-85282192D01*
X170672635Y-85336374D01*
X170674694Y-85337334D01*
X170671642Y-85343877D01*
X170616494Y-85510302D01*
X170616493Y-85510309D01*
X170606000Y-85613013D01*
X170606000Y-85750500D01*
X170688000Y-85750500D01*
X170688000Y-86250500D01*
X170606001Y-86250500D01*
X170606001Y-86387986D01*
X170616494Y-86490697D01*
X170671641Y-86657120D01*
X170674696Y-86663671D01*
X170672632Y-86664633D01*
X170688000Y-86718809D01*
X170688000Y-88275504D01*
X170668315Y-88342543D01*
X170615511Y-88388298D01*
X170564000Y-88399504D01*
X152270000Y-88399507D01*
X152202961Y-88379822D01*
X152157206Y-88327018D01*
X152146000Y-88275507D01*
X152146000Y-83308327D01*
X152165685Y-83241288D01*
X152218489Y-83195533D01*
X152287647Y-83185589D01*
X152351203Y-83214614D01*
X152357681Y-83220646D01*
X154420558Y-85283524D01*
X154420563Y-85283527D01*
X154477472Y-85316383D01*
X154477476Y-85316384D01*
X154519139Y-85340439D01*
X154629087Y-85369900D01*
X154629089Y-85369900D01*
X168509712Y-85369900D01*
X168509714Y-85369900D01*
X168619662Y-85340439D01*
X168718239Y-85283526D01*
X169535326Y-84466438D01*
X169592239Y-84367861D01*
X169621700Y-84257913D01*
X169621700Y-84144086D01*
X169621700Y-83173528D01*
X169641385Y-83106489D01*
X169658019Y-83085846D01*
X169661788Y-83082076D01*
X169661790Y-83082076D01*
X169750876Y-82992990D01*
X169806209Y-82879804D01*
X169816900Y-82806427D01*
X169816899Y-81734774D01*
X169806209Y-81661396D01*
X169750876Y-81548210D01*
X169750874Y-81548208D01*
X169750874Y-81548207D01*
X169661792Y-81459125D01*
X169548602Y-81403790D01*
X169475227Y-81393100D01*
X168903574Y-81393100D01*
X168899107Y-81393425D01*
X168898997Y-81391915D01*
X168836258Y-81382999D01*
X168783380Y-81337329D01*
X168782049Y-81335219D01*
X168761717Y-81302256D01*
X168637745Y-81178284D01*
X168488524Y-81086243D01*
X168488519Y-81086241D01*
X168322097Y-81031094D01*
X168322090Y-81031093D01*
X168219386Y-81020600D01*
X168169400Y-81020600D01*
X168169400Y-83520599D01*
X168219372Y-83520599D01*
X168219386Y-83520598D01*
X168322097Y-83510105D01*
X168488519Y-83454958D01*
X168488524Y-83454956D01*
X168568003Y-83405933D01*
X168635395Y-83387493D01*
X168702059Y-83408415D01*
X168746829Y-83462057D01*
X168757100Y-83511472D01*
X168757100Y-83970573D01*
X168737415Y-84037612D01*
X168720781Y-84058254D01*
X168310054Y-84468981D01*
X168248731Y-84502466D01*
X168222373Y-84505300D01*
X154916427Y-84505300D01*
X154849388Y-84485615D01*
X154828746Y-84468981D01*
X152411440Y-82051675D01*
X152411432Y-82051669D01*
X152312868Y-81994764D01*
X152312864Y-81994762D01*
X152312862Y-81994761D01*
X152312860Y-81994760D01*
X152312857Y-81994759D01*
X152237905Y-81974675D01*
X152178245Y-81938310D01*
X152147717Y-81875462D01*
X152146000Y-81854901D01*
X152146000Y-76324000D01*
X152165685Y-76256961D01*
X152218489Y-76211206D01*
X152270000Y-76200000D01*
X153416000Y-76200000D01*
X160020000Y-76200000D01*
X160020000Y-78425000D01*
G37*
%TD.AperFunction*%
%TD*%
%TA.AperFunction,Conductor*%
%TO.N,GND*%
G36*
X159963039Y-59963685D02*
G01*
X160008794Y-60016489D01*
X160020000Y-60068000D01*
X160020000Y-60546776D01*
X160000315Y-60613815D01*
X159983682Y-60634457D01*
X159862482Y-60755657D01*
X159770443Y-60904875D01*
X159770441Y-60904880D01*
X159715294Y-61071302D01*
X159715293Y-61071309D01*
X159704800Y-61174013D01*
X159704800Y-61599000D01*
X160020000Y-61599000D01*
X160020000Y-62099000D01*
X159704801Y-62099000D01*
X159704801Y-62523986D01*
X159715294Y-62626697D01*
X159770441Y-62793119D01*
X159770443Y-62793124D01*
X159862484Y-62942345D01*
X159983681Y-63063542D01*
X160017166Y-63124865D01*
X160020000Y-63151223D01*
X160020000Y-63507662D01*
X160000315Y-63574701D01*
X159948757Y-63619376D01*
X159948848Y-63619562D01*
X159948147Y-63619904D01*
X159947511Y-63620456D01*
X159945275Y-63621308D01*
X159827007Y-63679125D01*
X159752081Y-63754052D01*
X159690758Y-63787537D01*
X159621066Y-63782553D01*
X159576719Y-63754052D01*
X159501792Y-63679125D01*
X159388602Y-63623790D01*
X159315227Y-63613100D01*
X158743574Y-63613100D01*
X158739107Y-63613425D01*
X158738997Y-63611915D01*
X158676258Y-63602999D01*
X158623380Y-63557329D01*
X158622049Y-63555219D01*
X158601717Y-63522256D01*
X158477745Y-63398284D01*
X158328524Y-63306243D01*
X158328519Y-63306241D01*
X158162097Y-63251094D01*
X158162090Y-63251093D01*
X158059386Y-63240600D01*
X158009400Y-63240600D01*
X158009400Y-65740599D01*
X158059372Y-65740599D01*
X158059386Y-65740598D01*
X158162097Y-65730105D01*
X158328519Y-65674958D01*
X158328524Y-65674956D01*
X158477745Y-65582915D01*
X158601717Y-65458943D01*
X158622047Y-65425983D01*
X158673994Y-65379258D01*
X158739036Y-65368672D01*
X158739102Y-65367776D01*
X158742869Y-65368049D01*
X158742956Y-65368035D01*
X158743279Y-65368078D01*
X158743562Y-65368098D01*
X158743573Y-65368100D01*
X158950421Y-65368099D01*
X159017461Y-65387783D01*
X159038103Y-65404418D01*
X159983681Y-66349996D01*
X160017166Y-66411319D01*
X160020000Y-66437677D01*
X160020000Y-76200000D01*
X153416000Y-76200000D01*
X153416000Y-73952300D01*
X153435685Y-73885261D01*
X153488489Y-73839506D01*
X153507895Y-73832528D01*
X153616458Y-73803439D01*
X153715035Y-73746526D01*
X156835326Y-70626235D01*
X156892239Y-70527658D01*
X156921700Y-70417710D01*
X156921700Y-70303882D01*
X156921700Y-65731472D01*
X156941385Y-65664433D01*
X156994189Y-65618678D01*
X157063347Y-65608734D01*
X157110797Y-65625933D01*
X157190275Y-65674956D01*
X157190280Y-65674958D01*
X157356702Y-65730105D01*
X157356709Y-65730106D01*
X157459419Y-65740599D01*
X157509399Y-65740598D01*
X157509400Y-65740598D01*
X157509400Y-63240600D01*
X157509399Y-63240599D01*
X157459429Y-63240600D01*
X157459411Y-63240601D01*
X157356702Y-63251094D01*
X157190280Y-63306241D01*
X157190275Y-63306243D01*
X157041057Y-63398282D01*
X156917080Y-63522258D01*
X156896749Y-63555219D01*
X156844800Y-63601943D01*
X156779763Y-63612524D01*
X156779698Y-63613424D01*
X156775917Y-63613149D01*
X156775837Y-63613163D01*
X156775535Y-63613122D01*
X156775229Y-63613100D01*
X156203579Y-63613100D01*
X156130196Y-63623791D01*
X156017007Y-63679125D01*
X155927925Y-63768207D01*
X155872590Y-63881397D01*
X155861900Y-63954772D01*
X155861900Y-65026425D01*
X155872591Y-65099804D01*
X155927924Y-65212990D01*
X156017010Y-65302076D01*
X156017011Y-65302076D01*
X156020781Y-65305846D01*
X156054266Y-65367169D01*
X156057100Y-65393528D01*
X156057100Y-70130369D01*
X156037415Y-70197408D01*
X156020781Y-70218050D01*
X153627681Y-72611150D01*
X153566358Y-72644635D01*
X153496666Y-72639651D01*
X153440733Y-72597779D01*
X153416316Y-72532315D01*
X153416000Y-72523469D01*
X153416000Y-60068000D01*
X153435685Y-60000961D01*
X153488489Y-59955206D01*
X153540000Y-59944000D01*
X159896000Y-59944000D01*
X159963039Y-59963685D01*
G37*
%TD.AperFunction*%
%TD*%
M02*
