%TF.GenerationSoftware,KiCad,Pcbnew,8.0.2*%
%TF.CreationDate,2024-06-01T12:45:28+02:00*%
%TF.ProjectId,LoraSensor,4c6f7261-5365-46e7-936f-722e6b696361,rev?*%
%TF.SameCoordinates,Original*%
%TF.FileFunction,Soldermask,Top*%
%TF.FilePolarity,Negative*%
%FSLAX46Y46*%
G04 Gerber Fmt 4.6, Leading zero omitted, Abs format (unit mm)*
G04 Created by KiCad (PCBNEW 8.0.2) date 2024-06-01 12:45:28*
%MOMM*%
%LPD*%
G01*
G04 APERTURE LIST*
G04 Aperture macros list*
%AMRoundRect*
0 Rectangle with rounded corners*
0 $1 Rounding radius*
0 $2 $3 $4 $5 $6 $7 $8 $9 X,Y pos of 4 corners*
0 Add a 4 corners polygon primitive as box body*
4,1,4,$2,$3,$4,$5,$6,$7,$8,$9,$2,$3,0*
0 Add four circle primitives for the rounded corners*
1,1,$1+$1,$2,$3*
1,1,$1+$1,$4,$5*
1,1,$1+$1,$6,$7*
1,1,$1+$1,$8,$9*
0 Add four rect primitives between the rounded corners*
20,1,$1+$1,$2,$3,$4,$5,0*
20,1,$1+$1,$4,$5,$6,$7,0*
20,1,$1+$1,$6,$7,$8,$9,0*
20,1,$1+$1,$8,$9,$2,$3,0*%
%AMFreePoly0*
4,1,19,0.500000,-0.750000,0.000000,-0.750000,0.000000,-0.744911,-0.071157,-0.744911,-0.207708,-0.704816,-0.327430,-0.627875,-0.420627,-0.520320,-0.479746,-0.390866,-0.500000,-0.250000,-0.500000,0.250000,-0.479746,0.390866,-0.420627,0.520320,-0.327430,0.627875,-0.207708,0.704816,-0.071157,0.744911,0.000000,0.744911,0.000000,0.750000,0.500000,0.750000,0.500000,-0.750000,0.500000,-0.750000,
$1*%
%AMFreePoly1*
4,1,19,0.000000,0.744911,0.071157,0.744911,0.207708,0.704816,0.327430,0.627875,0.420627,0.520320,0.479746,0.390866,0.500000,0.250000,0.500000,-0.250000,0.479746,-0.390866,0.420627,-0.520320,0.327430,-0.627875,0.207708,-0.704816,0.071157,-0.744911,0.000000,-0.744911,0.000000,-0.750000,-0.500000,-0.750000,-0.500000,0.750000,0.000000,0.750000,0.000000,0.744911,0.000000,0.744911,
$1*%
G04 Aperture macros list end*
%ADD10C,1.000000*%
%ADD11RoundRect,0.250000X0.250000X0.500000X-0.250000X0.500000X-0.250000X-0.500000X0.250000X-0.500000X0*%
%ADD12RoundRect,0.250000X-0.425000X0.537500X-0.425000X-0.537500X0.425000X-0.537500X0.425000X0.537500X0*%
%ADD13RoundRect,0.250000X-0.312500X-0.625000X0.312500X-0.625000X0.312500X0.625000X-0.312500X0.625000X0*%
%ADD14FreePoly0,0.000000*%
%ADD15FreePoly1,0.000000*%
%ADD16RoundRect,0.075000X-0.075000X0.150000X-0.075000X-0.150000X0.075000X-0.150000X0.075000X0.150000X0*%
%ADD17R,1.600000X1.000000*%
%ADD18RoundRect,0.250000X0.625000X-0.312500X0.625000X0.312500X-0.625000X0.312500X-0.625000X-0.312500X0*%
%ADD19C,2.000000*%
%ADD20RoundRect,0.112500X0.112500X-0.187500X0.112500X0.187500X-0.112500X0.187500X-0.112500X-0.187500X0*%
%ADD21RoundRect,0.250000X-0.625000X0.312500X-0.625000X-0.312500X0.625000X-0.312500X0.625000X0.312500X0*%
%ADD22R,0.450000X1.380000*%
%ADD23R,1.650000X1.300000*%
%ADD24R,1.425000X1.550000*%
%ADD25R,1.800000X1.900000*%
%ADD26R,1.000000X1.900000*%
%ADD27R,3.000000X2.100000*%
%ADD28R,1.600000X0.800000*%
%ADD29RoundRect,0.250000X0.475000X-0.337500X0.475000X0.337500X-0.475000X0.337500X-0.475000X-0.337500X0*%
%ADD30R,1.600200X0.863600*%
%ADD31R,1.700000X1.700000*%
%ADD32O,1.700000X1.700000*%
%ADD33RoundRect,0.250000X-0.337500X-0.475000X0.337500X-0.475000X0.337500X0.475000X-0.337500X0.475000X0*%
%ADD34R,2.997200X2.108200*%
%ADD35R,1.600200X0.812800*%
%ADD36R,2.500000X2.000000*%
%ADD37FreePoly0,180.000000*%
%ADD38FreePoly1,180.000000*%
%ADD39RoundRect,0.250000X0.337500X0.475000X-0.337500X0.475000X-0.337500X-0.475000X0.337500X-0.475000X0*%
%ADD40RoundRect,0.087500X-0.087500X0.187500X-0.087500X-0.187500X0.087500X-0.187500X0.087500X0.187500X0*%
%ADD41RoundRect,0.175000X-0.625000X0.175000X-0.625000X-0.175000X0.625000X-0.175000X0.625000X0.175000X0*%
%ADD42RoundRect,0.150000X0.587500X0.150000X-0.587500X0.150000X-0.587500X-0.150000X0.587500X-0.150000X0*%
G04 APERTURE END LIST*
D10*
%TO.C,TP2*%
X195224400Y-68021200D03*
%TD*%
D11*
%TO.C,U3*%
X169265600Y-81127600D03*
X167995600Y-81127600D03*
X166725600Y-81127600D03*
X165455600Y-81127600D03*
X164185600Y-81127600D03*
X162915600Y-81127600D03*
X161645600Y-81127600D03*
X160375600Y-81127600D03*
X159105600Y-81127600D03*
X157835600Y-81127600D03*
X156565600Y-81127600D03*
X169265600Y-63347600D03*
X167995600Y-63347600D03*
X166725600Y-63347600D03*
X165455600Y-63347600D03*
X164185600Y-63347600D03*
X162915600Y-63347600D03*
X161645600Y-63347600D03*
X160375600Y-63347600D03*
X159105600Y-63347600D03*
X157835600Y-63347600D03*
X156565600Y-63347600D03*
%TD*%
D12*
%TO.C,C3*%
X173482000Y-61300500D03*
X173482000Y-64175500D03*
%TD*%
D13*
%TO.C,R7*%
X201037000Y-73914000D03*
X203962000Y-73914000D03*
%TD*%
D14*
%TO.C,JP2*%
X165720000Y-60706000D03*
D15*
X167020000Y-60706000D03*
%TD*%
D16*
%TO.C,U1*%
X176681400Y-68911300D03*
X176031400Y-68911300D03*
X175381400Y-68911300D03*
X175381400Y-70861300D03*
X176031400Y-70861300D03*
X176681400Y-70861300D03*
D17*
X176031400Y-69886300D03*
%TD*%
D13*
%TO.C,R8*%
X160843500Y-60706000D03*
X163768500Y-60706000D03*
%TD*%
D18*
%TO.C,R4*%
X174371000Y-77662500D03*
X174371000Y-74737500D03*
%TD*%
D19*
%TO.C,TP3*%
X147320000Y-85090000D03*
%TD*%
D18*
%TO.C,R6*%
X197866000Y-77408500D03*
X197866000Y-74483500D03*
%TD*%
D20*
%TO.C,D1*%
X179070000Y-68868000D03*
X179070000Y-66768000D03*
%TD*%
D21*
%TO.C,R1*%
X179451000Y-71816500D03*
X179451000Y-74741500D03*
%TD*%
D22*
%TO.C,J2*%
X181386000Y-63690000D03*
X180736000Y-63690000D03*
X180086000Y-63690000D03*
X179436000Y-63690000D03*
X178786000Y-63690000D03*
D23*
X183461000Y-61030000D03*
D24*
X182573500Y-63605000D03*
D25*
X181236000Y-61030000D03*
D26*
X178536000Y-61030000D03*
D24*
X177598500Y-63605000D03*
D23*
X176711000Y-61030000D03*
%TD*%
D27*
%TO.C,J1*%
X185185000Y-66675000D03*
X185185000Y-73025000D03*
D28*
X182285000Y-70475000D03*
X182285000Y-69225000D03*
%TD*%
D29*
%TO.C,C7*%
X175800750Y-87800000D03*
X175800750Y-85725000D03*
%TD*%
D30*
%TO.C,AE1*%
X169265600Y-84785399D03*
X169265600Y-87833001D03*
%TD*%
D31*
%TO.C,J6*%
X194056000Y-76200000D03*
D32*
X194056000Y-73660000D03*
X194056000Y-71120000D03*
%TD*%
D18*
%TO.C,R5*%
X197866000Y-72582500D03*
X197866000Y-69657500D03*
%TD*%
D33*
%TO.C,C5*%
X201400500Y-76708000D03*
X203475500Y-76708000D03*
%TD*%
D20*
%TO.C,D2*%
X200914000Y-71662000D03*
X200914000Y-69562000D03*
%TD*%
D34*
%TO.C,J5*%
X185154499Y-84318000D03*
X185154499Y-76718000D03*
D35*
X182254500Y-81768000D03*
X182254500Y-80518000D03*
X182254500Y-79268000D03*
%TD*%
D10*
%TO.C,TP1*%
X195021200Y-79705200D03*
%TD*%
D18*
%TO.C,R9*%
X154813000Y-87314500D03*
X154813000Y-84389500D03*
%TD*%
D33*
%TO.C,C1*%
X174879000Y-67183000D03*
X176954000Y-67183000D03*
%TD*%
D18*
%TO.C,R2*%
X179451000Y-79567500D03*
X179451000Y-76642500D03*
%TD*%
D36*
%TO.C,AE2*%
X151870800Y-79014000D03*
X151870800Y-68814000D03*
%TD*%
D33*
%TO.C,C2*%
X174929800Y-72720200D03*
X177004800Y-72720200D03*
%TD*%
D37*
%TO.C,JP1*%
X160162000Y-87122000D03*
D38*
X158862000Y-87122000D03*
%TD*%
D39*
%TO.C,C4*%
X171217500Y-60706000D03*
X169142500Y-60706000D03*
%TD*%
D13*
%TO.C,R3*%
X177023300Y-83489800D03*
X179948300Y-83489800D03*
%TD*%
D40*
%TO.C,U2*%
X179697000Y-85562000D03*
X178697000Y-85562000D03*
X178697000Y-87412000D03*
X179697000Y-87412000D03*
D41*
X179197000Y-86487000D03*
%TD*%
D39*
%TO.C,C6*%
X160549500Y-84582000D03*
X158474500Y-84582000D03*
%TD*%
D42*
%TO.C,Q1*%
X206345000Y-71816000D03*
X206345000Y-69916000D03*
X204470000Y-70866000D03*
%TD*%
M02*
