%TF.GenerationSoftware,KiCad,Pcbnew,8.0.2*%
%TF.CreationDate,2024-06-28T10:12:45+02:00*%
%TF.ProjectId,LoraSensor,4c6f7261-5365-46e7-936f-722e6b696361,rev?*%
%TF.SameCoordinates,Original*%
%TF.FileFunction,Legend,Top*%
%TF.FilePolarity,Positive*%
%FSLAX46Y46*%
G04 Gerber Fmt 4.6, Leading zero omitted, Abs format (unit mm)*
G04 Created by KiCad (PCBNEW 8.0.2) date 2024-06-28 10:12:45*
%MOMM*%
%LPD*%
G01*
G04 APERTURE LIST*
%ADD10C,0.100000*%
%ADD11C,0.150000*%
%ADD12C,0.120000*%
%ADD13C,0.200000*%
%ADD14C,0.152400*%
G04 APERTURE END LIST*
D10*
X200914000Y-66040000D02*
X200914000Y-81280000D01*
X147134874Y-61086419D02*
X146658684Y-61086419D01*
X146658684Y-61086419D02*
X146658684Y-60086419D01*
X147611065Y-61086419D02*
X147515827Y-61038800D01*
X147515827Y-61038800D02*
X147468208Y-60991180D01*
X147468208Y-60991180D02*
X147420589Y-60895942D01*
X147420589Y-60895942D02*
X147420589Y-60610228D01*
X147420589Y-60610228D02*
X147468208Y-60514990D01*
X147468208Y-60514990D02*
X147515827Y-60467371D01*
X147515827Y-60467371D02*
X147611065Y-60419752D01*
X147611065Y-60419752D02*
X147753922Y-60419752D01*
X147753922Y-60419752D02*
X147849160Y-60467371D01*
X147849160Y-60467371D02*
X147896779Y-60514990D01*
X147896779Y-60514990D02*
X147944398Y-60610228D01*
X147944398Y-60610228D02*
X147944398Y-60895942D01*
X147944398Y-60895942D02*
X147896779Y-60991180D01*
X147896779Y-60991180D02*
X147849160Y-61038800D01*
X147849160Y-61038800D02*
X147753922Y-61086419D01*
X147753922Y-61086419D02*
X147611065Y-61086419D01*
X148944398Y-61086419D02*
X148611065Y-60610228D01*
X148372970Y-61086419D02*
X148372970Y-60086419D01*
X148372970Y-60086419D02*
X148753922Y-60086419D01*
X148753922Y-60086419D02*
X148849160Y-60134038D01*
X148849160Y-60134038D02*
X148896779Y-60181657D01*
X148896779Y-60181657D02*
X148944398Y-60276895D01*
X148944398Y-60276895D02*
X148944398Y-60419752D01*
X148944398Y-60419752D02*
X148896779Y-60514990D01*
X148896779Y-60514990D02*
X148849160Y-60562609D01*
X148849160Y-60562609D02*
X148753922Y-60610228D01*
X148753922Y-60610228D02*
X148372970Y-60610228D01*
X149801541Y-61086419D02*
X149801541Y-60562609D01*
X149801541Y-60562609D02*
X149753922Y-60467371D01*
X149753922Y-60467371D02*
X149658684Y-60419752D01*
X149658684Y-60419752D02*
X149468208Y-60419752D01*
X149468208Y-60419752D02*
X149372970Y-60467371D01*
X149801541Y-61038800D02*
X149706303Y-61086419D01*
X149706303Y-61086419D02*
X149468208Y-61086419D01*
X149468208Y-61086419D02*
X149372970Y-61038800D01*
X149372970Y-61038800D02*
X149325351Y-60943561D01*
X149325351Y-60943561D02*
X149325351Y-60848323D01*
X149325351Y-60848323D02*
X149372970Y-60753085D01*
X149372970Y-60753085D02*
X149468208Y-60705466D01*
X149468208Y-60705466D02*
X149706303Y-60705466D01*
X149706303Y-60705466D02*
X149801541Y-60657847D01*
X143550475Y-85137238D02*
X143550475Y-85613428D01*
X143550475Y-85613428D02*
X142550475Y-85613428D01*
X143550475Y-84661047D02*
X143502856Y-84756285D01*
X143502856Y-84756285D02*
X143455236Y-84803904D01*
X143455236Y-84803904D02*
X143359998Y-84851523D01*
X143359998Y-84851523D02*
X143074284Y-84851523D01*
X143074284Y-84851523D02*
X142979046Y-84803904D01*
X142979046Y-84803904D02*
X142931427Y-84756285D01*
X142931427Y-84756285D02*
X142883808Y-84661047D01*
X142883808Y-84661047D02*
X142883808Y-84518190D01*
X142883808Y-84518190D02*
X142931427Y-84422952D01*
X142931427Y-84422952D02*
X142979046Y-84375333D01*
X142979046Y-84375333D02*
X143074284Y-84327714D01*
X143074284Y-84327714D02*
X143359998Y-84327714D01*
X143359998Y-84327714D02*
X143455236Y-84375333D01*
X143455236Y-84375333D02*
X143502856Y-84422952D01*
X143502856Y-84422952D02*
X143550475Y-84518190D01*
X143550475Y-84518190D02*
X143550475Y-84661047D01*
X143550475Y-83899142D02*
X142883808Y-83899142D01*
X143074284Y-83899142D02*
X142979046Y-83851523D01*
X142979046Y-83851523D02*
X142931427Y-83803904D01*
X142931427Y-83803904D02*
X142883808Y-83708666D01*
X142883808Y-83708666D02*
X142883808Y-83613428D01*
X143550475Y-82851523D02*
X143026665Y-82851523D01*
X143026665Y-82851523D02*
X142931427Y-82899142D01*
X142931427Y-82899142D02*
X142883808Y-82994380D01*
X142883808Y-82994380D02*
X142883808Y-83184856D01*
X142883808Y-83184856D02*
X142931427Y-83280094D01*
X143502856Y-82851523D02*
X143550475Y-82946761D01*
X143550475Y-82946761D02*
X143550475Y-83184856D01*
X143550475Y-83184856D02*
X143502856Y-83280094D01*
X143502856Y-83280094D02*
X143407617Y-83327713D01*
X143407617Y-83327713D02*
X143312379Y-83327713D01*
X143312379Y-83327713D02*
X143217141Y-83280094D01*
X143217141Y-83280094D02*
X143169522Y-83184856D01*
X143169522Y-83184856D02*
X143169522Y-82946761D01*
X143169522Y-82946761D02*
X143121903Y-82851523D01*
X143502856Y-82422951D02*
X143550475Y-82280094D01*
X143550475Y-82280094D02*
X143550475Y-82041999D01*
X143550475Y-82041999D02*
X143502856Y-81946761D01*
X143502856Y-81946761D02*
X143455236Y-81899142D01*
X143455236Y-81899142D02*
X143359998Y-81851523D01*
X143359998Y-81851523D02*
X143264760Y-81851523D01*
X143264760Y-81851523D02*
X143169522Y-81899142D01*
X143169522Y-81899142D02*
X143121903Y-81946761D01*
X143121903Y-81946761D02*
X143074284Y-82041999D01*
X143074284Y-82041999D02*
X143026665Y-82232475D01*
X143026665Y-82232475D02*
X142979046Y-82327713D01*
X142979046Y-82327713D02*
X142931427Y-82375332D01*
X142931427Y-82375332D02*
X142836189Y-82422951D01*
X142836189Y-82422951D02*
X142740951Y-82422951D01*
X142740951Y-82422951D02*
X142645713Y-82375332D01*
X142645713Y-82375332D02*
X142598094Y-82327713D01*
X142598094Y-82327713D02*
X142550475Y-82232475D01*
X142550475Y-82232475D02*
X142550475Y-81994380D01*
X142550475Y-81994380D02*
X142598094Y-81851523D01*
X143502856Y-81041999D02*
X143550475Y-81137237D01*
X143550475Y-81137237D02*
X143550475Y-81327713D01*
X143550475Y-81327713D02*
X143502856Y-81422951D01*
X143502856Y-81422951D02*
X143407617Y-81470570D01*
X143407617Y-81470570D02*
X143026665Y-81470570D01*
X143026665Y-81470570D02*
X142931427Y-81422951D01*
X142931427Y-81422951D02*
X142883808Y-81327713D01*
X142883808Y-81327713D02*
X142883808Y-81137237D01*
X142883808Y-81137237D02*
X142931427Y-81041999D01*
X142931427Y-81041999D02*
X143026665Y-80994380D01*
X143026665Y-80994380D02*
X143121903Y-80994380D01*
X143121903Y-80994380D02*
X143217141Y-81470570D01*
X142883808Y-80565808D02*
X143550475Y-80565808D01*
X142979046Y-80565808D02*
X142931427Y-80518189D01*
X142931427Y-80518189D02*
X142883808Y-80422951D01*
X142883808Y-80422951D02*
X142883808Y-80280094D01*
X142883808Y-80280094D02*
X142931427Y-80184856D01*
X142931427Y-80184856D02*
X143026665Y-80137237D01*
X143026665Y-80137237D02*
X143550475Y-80137237D01*
X143502856Y-79708665D02*
X143550475Y-79613427D01*
X143550475Y-79613427D02*
X143550475Y-79422951D01*
X143550475Y-79422951D02*
X143502856Y-79327713D01*
X143502856Y-79327713D02*
X143407617Y-79280094D01*
X143407617Y-79280094D02*
X143359998Y-79280094D01*
X143359998Y-79280094D02*
X143264760Y-79327713D01*
X143264760Y-79327713D02*
X143217141Y-79422951D01*
X143217141Y-79422951D02*
X143217141Y-79565808D01*
X143217141Y-79565808D02*
X143169522Y-79661046D01*
X143169522Y-79661046D02*
X143074284Y-79708665D01*
X143074284Y-79708665D02*
X143026665Y-79708665D01*
X143026665Y-79708665D02*
X142931427Y-79661046D01*
X142931427Y-79661046D02*
X142883808Y-79565808D01*
X142883808Y-79565808D02*
X142883808Y-79422951D01*
X142883808Y-79422951D02*
X142931427Y-79327713D01*
X143502856Y-78470570D02*
X143550475Y-78565808D01*
X143550475Y-78565808D02*
X143550475Y-78756284D01*
X143550475Y-78756284D02*
X143502856Y-78851522D01*
X143502856Y-78851522D02*
X143407617Y-78899141D01*
X143407617Y-78899141D02*
X143026665Y-78899141D01*
X143026665Y-78899141D02*
X142931427Y-78851522D01*
X142931427Y-78851522D02*
X142883808Y-78756284D01*
X142883808Y-78756284D02*
X142883808Y-78565808D01*
X142883808Y-78565808D02*
X142931427Y-78470570D01*
X142931427Y-78470570D02*
X143026665Y-78422951D01*
X143026665Y-78422951D02*
X143121903Y-78422951D01*
X143121903Y-78422951D02*
X143217141Y-78899141D01*
X145160419Y-82470571D02*
X145160419Y-83041999D01*
X145160419Y-82756285D02*
X144160419Y-82756285D01*
X144160419Y-82756285D02*
X144303276Y-82851523D01*
X144303276Y-82851523D02*
X144398514Y-82946761D01*
X144398514Y-82946761D02*
X144446133Y-83041999D01*
X145065180Y-82041999D02*
X145112800Y-81994380D01*
X145112800Y-81994380D02*
X145160419Y-82041999D01*
X145160419Y-82041999D02*
X145112800Y-82089618D01*
X145112800Y-82089618D02*
X145065180Y-82041999D01*
X145065180Y-82041999D02*
X145160419Y-82041999D01*
X144255657Y-81613428D02*
X144208038Y-81565809D01*
X144208038Y-81565809D02*
X144160419Y-81470571D01*
X144160419Y-81470571D02*
X144160419Y-81232476D01*
X144160419Y-81232476D02*
X144208038Y-81137238D01*
X144208038Y-81137238D02*
X144255657Y-81089619D01*
X144255657Y-81089619D02*
X144350895Y-81042000D01*
X144350895Y-81042000D02*
X144446133Y-81042000D01*
X144446133Y-81042000D02*
X144588990Y-81089619D01*
X144588990Y-81089619D02*
X145160419Y-81661047D01*
X145160419Y-81661047D02*
X145160419Y-81042000D01*
X161117598Y-70754419D02*
X161117598Y-71468704D01*
X161117598Y-71468704D02*
X161069979Y-71611561D01*
X161069979Y-71611561D02*
X160974741Y-71706800D01*
X160974741Y-71706800D02*
X160831884Y-71754419D01*
X160831884Y-71754419D02*
X160736646Y-71754419D01*
X162069979Y-71754419D02*
X161593789Y-71754419D01*
X161593789Y-71754419D02*
X161593789Y-70754419D01*
X162974741Y-71659180D02*
X162927122Y-71706800D01*
X162927122Y-71706800D02*
X162784265Y-71754419D01*
X162784265Y-71754419D02*
X162689027Y-71754419D01*
X162689027Y-71754419D02*
X162546170Y-71706800D01*
X162546170Y-71706800D02*
X162450932Y-71611561D01*
X162450932Y-71611561D02*
X162403313Y-71516323D01*
X162403313Y-71516323D02*
X162355694Y-71325847D01*
X162355694Y-71325847D02*
X162355694Y-71182990D01*
X162355694Y-71182990D02*
X162403313Y-70992514D01*
X162403313Y-70992514D02*
X162450932Y-70897276D01*
X162450932Y-70897276D02*
X162546170Y-70802038D01*
X162546170Y-70802038D02*
X162689027Y-70754419D01*
X162689027Y-70754419D02*
X162784265Y-70754419D01*
X162784265Y-70754419D02*
X162927122Y-70802038D01*
X162927122Y-70802038D02*
X162974741Y-70849657D01*
X163689027Y-70754419D02*
X163689027Y-71468704D01*
X163689027Y-71468704D02*
X163641408Y-71611561D01*
X163641408Y-71611561D02*
X163546170Y-71706800D01*
X163546170Y-71706800D02*
X163403313Y-71754419D01*
X163403313Y-71754419D02*
X163308075Y-71754419D01*
X164641408Y-71754419D02*
X164165218Y-71754419D01*
X164165218Y-71754419D02*
X164165218Y-70754419D01*
X165546170Y-71659180D02*
X165498551Y-71706800D01*
X165498551Y-71706800D02*
X165355694Y-71754419D01*
X165355694Y-71754419D02*
X165260456Y-71754419D01*
X165260456Y-71754419D02*
X165117599Y-71706800D01*
X165117599Y-71706800D02*
X165022361Y-71611561D01*
X165022361Y-71611561D02*
X164974742Y-71516323D01*
X164974742Y-71516323D02*
X164927123Y-71325847D01*
X164927123Y-71325847D02*
X164927123Y-71182990D01*
X164927123Y-71182990D02*
X164974742Y-70992514D01*
X164974742Y-70992514D02*
X165022361Y-70897276D01*
X165022361Y-70897276D02*
X165117599Y-70802038D01*
X165117599Y-70802038D02*
X165260456Y-70754419D01*
X165260456Y-70754419D02*
X165355694Y-70754419D01*
X165355694Y-70754419D02*
X165498551Y-70802038D01*
X165498551Y-70802038D02*
X165546170Y-70849657D01*
X166260456Y-70754419D02*
X166260456Y-71468704D01*
X166260456Y-71468704D02*
X166212837Y-71611561D01*
X166212837Y-71611561D02*
X166117599Y-71706800D01*
X166117599Y-71706800D02*
X165974742Y-71754419D01*
X165974742Y-71754419D02*
X165879504Y-71754419D01*
X167212837Y-71754419D02*
X166736647Y-71754419D01*
X166736647Y-71754419D02*
X166736647Y-70754419D01*
X168117599Y-71659180D02*
X168069980Y-71706800D01*
X168069980Y-71706800D02*
X167927123Y-71754419D01*
X167927123Y-71754419D02*
X167831885Y-71754419D01*
X167831885Y-71754419D02*
X167689028Y-71706800D01*
X167689028Y-71706800D02*
X167593790Y-71611561D01*
X167593790Y-71611561D02*
X167546171Y-71516323D01*
X167546171Y-71516323D02*
X167498552Y-71325847D01*
X167498552Y-71325847D02*
X167498552Y-71182990D01*
X167498552Y-71182990D02*
X167546171Y-70992514D01*
X167546171Y-70992514D02*
X167593790Y-70897276D01*
X167593790Y-70897276D02*
X167689028Y-70802038D01*
X167689028Y-70802038D02*
X167831885Y-70754419D01*
X167831885Y-70754419D02*
X167927123Y-70754419D01*
X167927123Y-70754419D02*
X168069980Y-70802038D01*
X168069980Y-70802038D02*
X168117599Y-70849657D01*
X168831885Y-70754419D02*
X168831885Y-71468704D01*
X168831885Y-71468704D02*
X168784266Y-71611561D01*
X168784266Y-71611561D02*
X168689028Y-71706800D01*
X168689028Y-71706800D02*
X168546171Y-71754419D01*
X168546171Y-71754419D02*
X168450933Y-71754419D01*
X169784266Y-71754419D02*
X169308076Y-71754419D01*
X169308076Y-71754419D02*
X169308076Y-70754419D01*
X170689028Y-71659180D02*
X170641409Y-71706800D01*
X170641409Y-71706800D02*
X170498552Y-71754419D01*
X170498552Y-71754419D02*
X170403314Y-71754419D01*
X170403314Y-71754419D02*
X170260457Y-71706800D01*
X170260457Y-71706800D02*
X170165219Y-71611561D01*
X170165219Y-71611561D02*
X170117600Y-71516323D01*
X170117600Y-71516323D02*
X170069981Y-71325847D01*
X170069981Y-71325847D02*
X170069981Y-71182990D01*
X170069981Y-71182990D02*
X170117600Y-70992514D01*
X170117600Y-70992514D02*
X170165219Y-70897276D01*
X170165219Y-70897276D02*
X170260457Y-70802038D01*
X170260457Y-70802038D02*
X170403314Y-70754419D01*
X170403314Y-70754419D02*
X170498552Y-70754419D01*
X170498552Y-70754419D02*
X170641409Y-70802038D01*
X170641409Y-70802038D02*
X170689028Y-70849657D01*
X150843752Y-86811753D02*
X151510419Y-86621277D01*
X151510419Y-86621277D02*
X151034228Y-86430801D01*
X151034228Y-86430801D02*
X151510419Y-86240325D01*
X151510419Y-86240325D02*
X150843752Y-86049849D01*
X151510419Y-85668896D02*
X150843752Y-85668896D01*
X150510419Y-85668896D02*
X150558038Y-85716515D01*
X150558038Y-85716515D02*
X150605657Y-85668896D01*
X150605657Y-85668896D02*
X150558038Y-85621277D01*
X150558038Y-85621277D02*
X150510419Y-85668896D01*
X150510419Y-85668896D02*
X150605657Y-85668896D01*
X150843752Y-85335563D02*
X150843752Y-84954611D01*
X151510419Y-85192706D02*
X150653276Y-85192706D01*
X150653276Y-85192706D02*
X150558038Y-85145087D01*
X150558038Y-85145087D02*
X150510419Y-85049849D01*
X150510419Y-85049849D02*
X150510419Y-84954611D01*
X151510419Y-84621277D02*
X150843752Y-84621277D01*
X150510419Y-84621277D02*
X150558038Y-84668896D01*
X150558038Y-84668896D02*
X150605657Y-84621277D01*
X150605657Y-84621277D02*
X150558038Y-84573658D01*
X150558038Y-84573658D02*
X150510419Y-84621277D01*
X150510419Y-84621277D02*
X150605657Y-84621277D01*
D11*
X154297142Y-60144819D02*
X153963809Y-59668628D01*
X153725714Y-60144819D02*
X153725714Y-59144819D01*
X153725714Y-59144819D02*
X154106666Y-59144819D01*
X154106666Y-59144819D02*
X154201904Y-59192438D01*
X154201904Y-59192438D02*
X154249523Y-59240057D01*
X154249523Y-59240057D02*
X154297142Y-59335295D01*
X154297142Y-59335295D02*
X154297142Y-59478152D01*
X154297142Y-59478152D02*
X154249523Y-59573390D01*
X154249523Y-59573390D02*
X154201904Y-59621009D01*
X154201904Y-59621009D02*
X154106666Y-59668628D01*
X154106666Y-59668628D02*
X153725714Y-59668628D01*
X155249523Y-60144819D02*
X154678095Y-60144819D01*
X154963809Y-60144819D02*
X154963809Y-59144819D01*
X154963809Y-59144819D02*
X154868571Y-59287676D01*
X154868571Y-59287676D02*
X154773333Y-59382914D01*
X154773333Y-59382914D02*
X154678095Y-59430533D01*
X155868571Y-59144819D02*
X155963809Y-59144819D01*
X155963809Y-59144819D02*
X156059047Y-59192438D01*
X156059047Y-59192438D02*
X156106666Y-59240057D01*
X156106666Y-59240057D02*
X156154285Y-59335295D01*
X156154285Y-59335295D02*
X156201904Y-59525771D01*
X156201904Y-59525771D02*
X156201904Y-59763866D01*
X156201904Y-59763866D02*
X156154285Y-59954342D01*
X156154285Y-59954342D02*
X156106666Y-60049580D01*
X156106666Y-60049580D02*
X156059047Y-60097200D01*
X156059047Y-60097200D02*
X155963809Y-60144819D01*
X155963809Y-60144819D02*
X155868571Y-60144819D01*
X155868571Y-60144819D02*
X155773333Y-60097200D01*
X155773333Y-60097200D02*
X155725714Y-60049580D01*
X155725714Y-60049580D02*
X155678095Y-59954342D01*
X155678095Y-59954342D02*
X155630476Y-59763866D01*
X155630476Y-59763866D02*
X155630476Y-59525771D01*
X155630476Y-59525771D02*
X155678095Y-59335295D01*
X155678095Y-59335295D02*
X155725714Y-59240057D01*
X155725714Y-59240057D02*
X155773333Y-59192438D01*
X155773333Y-59192438D02*
X155868571Y-59144819D01*
X176363333Y-78432819D02*
X176030000Y-77956628D01*
X175791905Y-78432819D02*
X175791905Y-77432819D01*
X175791905Y-77432819D02*
X176172857Y-77432819D01*
X176172857Y-77432819D02*
X176268095Y-77480438D01*
X176268095Y-77480438D02*
X176315714Y-77528057D01*
X176315714Y-77528057D02*
X176363333Y-77623295D01*
X176363333Y-77623295D02*
X176363333Y-77766152D01*
X176363333Y-77766152D02*
X176315714Y-77861390D01*
X176315714Y-77861390D02*
X176268095Y-77909009D01*
X176268095Y-77909009D02*
X176172857Y-77956628D01*
X176172857Y-77956628D02*
X175791905Y-77956628D01*
X176696667Y-77432819D02*
X177315714Y-77432819D01*
X177315714Y-77432819D02*
X176982381Y-77813771D01*
X176982381Y-77813771D02*
X177125238Y-77813771D01*
X177125238Y-77813771D02*
X177220476Y-77861390D01*
X177220476Y-77861390D02*
X177268095Y-77909009D01*
X177268095Y-77909009D02*
X177315714Y-78004247D01*
X177315714Y-78004247D02*
X177315714Y-78242342D01*
X177315714Y-78242342D02*
X177268095Y-78337580D01*
X177268095Y-78337580D02*
X177220476Y-78385200D01*
X177220476Y-78385200D02*
X177125238Y-78432819D01*
X177125238Y-78432819D02*
X176839524Y-78432819D01*
X176839524Y-78432819D02*
X176744286Y-78385200D01*
X176744286Y-78385200D02*
X176696667Y-78337580D01*
X176490333Y-88243580D02*
X176442714Y-88291200D01*
X176442714Y-88291200D02*
X176299857Y-88338819D01*
X176299857Y-88338819D02*
X176204619Y-88338819D01*
X176204619Y-88338819D02*
X176061762Y-88291200D01*
X176061762Y-88291200D02*
X175966524Y-88195961D01*
X175966524Y-88195961D02*
X175918905Y-88100723D01*
X175918905Y-88100723D02*
X175871286Y-87910247D01*
X175871286Y-87910247D02*
X175871286Y-87767390D01*
X175871286Y-87767390D02*
X175918905Y-87576914D01*
X175918905Y-87576914D02*
X175966524Y-87481676D01*
X175966524Y-87481676D02*
X176061762Y-87386438D01*
X176061762Y-87386438D02*
X176204619Y-87338819D01*
X176204619Y-87338819D02*
X176299857Y-87338819D01*
X176299857Y-87338819D02*
X176442714Y-87386438D01*
X176442714Y-87386438D02*
X176490333Y-87434057D01*
X177061762Y-87767390D02*
X176966524Y-87719771D01*
X176966524Y-87719771D02*
X176918905Y-87672152D01*
X176918905Y-87672152D02*
X176871286Y-87576914D01*
X176871286Y-87576914D02*
X176871286Y-87529295D01*
X176871286Y-87529295D02*
X176918905Y-87434057D01*
X176918905Y-87434057D02*
X176966524Y-87386438D01*
X176966524Y-87386438D02*
X177061762Y-87338819D01*
X177061762Y-87338819D02*
X177252238Y-87338819D01*
X177252238Y-87338819D02*
X177347476Y-87386438D01*
X177347476Y-87386438D02*
X177395095Y-87434057D01*
X177395095Y-87434057D02*
X177442714Y-87529295D01*
X177442714Y-87529295D02*
X177442714Y-87576914D01*
X177442714Y-87576914D02*
X177395095Y-87672152D01*
X177395095Y-87672152D02*
X177347476Y-87719771D01*
X177347476Y-87719771D02*
X177252238Y-87767390D01*
X177252238Y-87767390D02*
X177061762Y-87767390D01*
X177061762Y-87767390D02*
X176966524Y-87815009D01*
X176966524Y-87815009D02*
X176918905Y-87862628D01*
X176918905Y-87862628D02*
X176871286Y-87957866D01*
X176871286Y-87957866D02*
X176871286Y-88148342D01*
X176871286Y-88148342D02*
X176918905Y-88243580D01*
X176918905Y-88243580D02*
X176966524Y-88291200D01*
X176966524Y-88291200D02*
X177061762Y-88338819D01*
X177061762Y-88338819D02*
X177252238Y-88338819D01*
X177252238Y-88338819D02*
X177347476Y-88291200D01*
X177347476Y-88291200D02*
X177395095Y-88243580D01*
X177395095Y-88243580D02*
X177442714Y-88148342D01*
X177442714Y-88148342D02*
X177442714Y-87957866D01*
X177442714Y-87957866D02*
X177395095Y-87862628D01*
X177395095Y-87862628D02*
X177347476Y-87815009D01*
X177347476Y-87815009D02*
X177252238Y-87767390D01*
X162077495Y-72835419D02*
X162077495Y-73644942D01*
X162077495Y-73644942D02*
X162125114Y-73740180D01*
X162125114Y-73740180D02*
X162172733Y-73787800D01*
X162172733Y-73787800D02*
X162267971Y-73835419D01*
X162267971Y-73835419D02*
X162458447Y-73835419D01*
X162458447Y-73835419D02*
X162553685Y-73787800D01*
X162553685Y-73787800D02*
X162601304Y-73740180D01*
X162601304Y-73740180D02*
X162648923Y-73644942D01*
X162648923Y-73644942D02*
X162648923Y-72835419D01*
X163029876Y-72835419D02*
X163648923Y-72835419D01*
X163648923Y-72835419D02*
X163315590Y-73216371D01*
X163315590Y-73216371D02*
X163458447Y-73216371D01*
X163458447Y-73216371D02*
X163553685Y-73263990D01*
X163553685Y-73263990D02*
X163601304Y-73311609D01*
X163601304Y-73311609D02*
X163648923Y-73406847D01*
X163648923Y-73406847D02*
X163648923Y-73644942D01*
X163648923Y-73644942D02*
X163601304Y-73740180D01*
X163601304Y-73740180D02*
X163553685Y-73787800D01*
X163553685Y-73787800D02*
X163458447Y-73835419D01*
X163458447Y-73835419D02*
X163172733Y-73835419D01*
X163172733Y-73835419D02*
X163077495Y-73787800D01*
X163077495Y-73787800D02*
X163029876Y-73740180D01*
X173239133Y-60938580D02*
X173191514Y-60986200D01*
X173191514Y-60986200D02*
X173048657Y-61033819D01*
X173048657Y-61033819D02*
X172953419Y-61033819D01*
X172953419Y-61033819D02*
X172810562Y-60986200D01*
X172810562Y-60986200D02*
X172715324Y-60890961D01*
X172715324Y-60890961D02*
X172667705Y-60795723D01*
X172667705Y-60795723D02*
X172620086Y-60605247D01*
X172620086Y-60605247D02*
X172620086Y-60462390D01*
X172620086Y-60462390D02*
X172667705Y-60271914D01*
X172667705Y-60271914D02*
X172715324Y-60176676D01*
X172715324Y-60176676D02*
X172810562Y-60081438D01*
X172810562Y-60081438D02*
X172953419Y-60033819D01*
X172953419Y-60033819D02*
X173048657Y-60033819D01*
X173048657Y-60033819D02*
X173191514Y-60081438D01*
X173191514Y-60081438D02*
X173239133Y-60129057D01*
X173572467Y-60033819D02*
X174191514Y-60033819D01*
X174191514Y-60033819D02*
X173858181Y-60414771D01*
X173858181Y-60414771D02*
X174001038Y-60414771D01*
X174001038Y-60414771D02*
X174096276Y-60462390D01*
X174096276Y-60462390D02*
X174143895Y-60510009D01*
X174143895Y-60510009D02*
X174191514Y-60605247D01*
X174191514Y-60605247D02*
X174191514Y-60843342D01*
X174191514Y-60843342D02*
X174143895Y-60938580D01*
X174143895Y-60938580D02*
X174096276Y-60986200D01*
X174096276Y-60986200D02*
X174001038Y-61033819D01*
X174001038Y-61033819D02*
X173715324Y-61033819D01*
X173715324Y-61033819D02*
X173620086Y-60986200D01*
X173620086Y-60986200D02*
X173572467Y-60938580D01*
X184999333Y-65732819D02*
X184666000Y-65256628D01*
X184427905Y-65732819D02*
X184427905Y-64732819D01*
X184427905Y-64732819D02*
X184808857Y-64732819D01*
X184808857Y-64732819D02*
X184904095Y-64780438D01*
X184904095Y-64780438D02*
X184951714Y-64828057D01*
X184951714Y-64828057D02*
X184999333Y-64923295D01*
X184999333Y-64923295D02*
X184999333Y-65066152D01*
X184999333Y-65066152D02*
X184951714Y-65161390D01*
X184951714Y-65161390D02*
X184904095Y-65209009D01*
X184904095Y-65209009D02*
X184808857Y-65256628D01*
X184808857Y-65256628D02*
X184427905Y-65256628D01*
X185332667Y-64732819D02*
X185999333Y-64732819D01*
X185999333Y-64732819D02*
X185570762Y-65732819D01*
X163758857Y-58890819D02*
X163758857Y-59700342D01*
X163758857Y-59700342D02*
X163806476Y-59795580D01*
X163806476Y-59795580D02*
X163854095Y-59843200D01*
X163854095Y-59843200D02*
X163949333Y-59890819D01*
X163949333Y-59890819D02*
X164139809Y-59890819D01*
X164139809Y-59890819D02*
X164235047Y-59843200D01*
X164235047Y-59843200D02*
X164282666Y-59795580D01*
X164282666Y-59795580D02*
X164330285Y-59700342D01*
X164330285Y-59700342D02*
X164330285Y-58890819D01*
X164806476Y-59224152D02*
X164806476Y-60224152D01*
X164806476Y-59271771D02*
X164901714Y-59224152D01*
X164901714Y-59224152D02*
X165092190Y-59224152D01*
X165092190Y-59224152D02*
X165187428Y-59271771D01*
X165187428Y-59271771D02*
X165235047Y-59319390D01*
X165235047Y-59319390D02*
X165282666Y-59414628D01*
X165282666Y-59414628D02*
X165282666Y-59700342D01*
X165282666Y-59700342D02*
X165235047Y-59795580D01*
X165235047Y-59795580D02*
X165187428Y-59843200D01*
X165187428Y-59843200D02*
X165092190Y-59890819D01*
X165092190Y-59890819D02*
X164901714Y-59890819D01*
X164901714Y-59890819D02*
X164806476Y-59843200D01*
X165854095Y-59890819D02*
X165758857Y-59843200D01*
X165758857Y-59843200D02*
X165711238Y-59747961D01*
X165711238Y-59747961D02*
X165711238Y-58890819D01*
X166377905Y-59890819D02*
X166282667Y-59843200D01*
X166282667Y-59843200D02*
X166235048Y-59795580D01*
X166235048Y-59795580D02*
X166187429Y-59700342D01*
X166187429Y-59700342D02*
X166187429Y-59414628D01*
X166187429Y-59414628D02*
X166235048Y-59319390D01*
X166235048Y-59319390D02*
X166282667Y-59271771D01*
X166282667Y-59271771D02*
X166377905Y-59224152D01*
X166377905Y-59224152D02*
X166520762Y-59224152D01*
X166520762Y-59224152D02*
X166616000Y-59271771D01*
X166616000Y-59271771D02*
X166663619Y-59319390D01*
X166663619Y-59319390D02*
X166711238Y-59414628D01*
X166711238Y-59414628D02*
X166711238Y-59700342D01*
X166711238Y-59700342D02*
X166663619Y-59795580D01*
X166663619Y-59795580D02*
X166616000Y-59843200D01*
X166616000Y-59843200D02*
X166520762Y-59890819D01*
X166520762Y-59890819D02*
X166377905Y-59890819D01*
X167568381Y-59890819D02*
X167568381Y-59367009D01*
X167568381Y-59367009D02*
X167520762Y-59271771D01*
X167520762Y-59271771D02*
X167425524Y-59224152D01*
X167425524Y-59224152D02*
X167235048Y-59224152D01*
X167235048Y-59224152D02*
X167139810Y-59271771D01*
X167568381Y-59843200D02*
X167473143Y-59890819D01*
X167473143Y-59890819D02*
X167235048Y-59890819D01*
X167235048Y-59890819D02*
X167139810Y-59843200D01*
X167139810Y-59843200D02*
X167092191Y-59747961D01*
X167092191Y-59747961D02*
X167092191Y-59652723D01*
X167092191Y-59652723D02*
X167139810Y-59557485D01*
X167139810Y-59557485D02*
X167235048Y-59509866D01*
X167235048Y-59509866D02*
X167473143Y-59509866D01*
X167473143Y-59509866D02*
X167568381Y-59462247D01*
X168473143Y-59890819D02*
X168473143Y-58890819D01*
X168473143Y-59843200D02*
X168377905Y-59890819D01*
X168377905Y-59890819D02*
X168187429Y-59890819D01*
X168187429Y-59890819D02*
X168092191Y-59843200D01*
X168092191Y-59843200D02*
X168044572Y-59795580D01*
X168044572Y-59795580D02*
X167996953Y-59700342D01*
X167996953Y-59700342D02*
X167996953Y-59414628D01*
X167996953Y-59414628D02*
X168044572Y-59319390D01*
X168044572Y-59319390D02*
X168092191Y-59271771D01*
X168092191Y-59271771D02*
X168187429Y-59224152D01*
X168187429Y-59224152D02*
X168377905Y-59224152D01*
X168377905Y-59224152D02*
X168473143Y-59271771D01*
X175681495Y-66723819D02*
X175681495Y-67533342D01*
X175681495Y-67533342D02*
X175729114Y-67628580D01*
X175729114Y-67628580D02*
X175776733Y-67676200D01*
X175776733Y-67676200D02*
X175871971Y-67723819D01*
X175871971Y-67723819D02*
X176062447Y-67723819D01*
X176062447Y-67723819D02*
X176157685Y-67676200D01*
X176157685Y-67676200D02*
X176205304Y-67628580D01*
X176205304Y-67628580D02*
X176252923Y-67533342D01*
X176252923Y-67533342D02*
X176252923Y-66723819D01*
X177252923Y-67723819D02*
X176681495Y-67723819D01*
X176967209Y-67723819D02*
X176967209Y-66723819D01*
X176967209Y-66723819D02*
X176871971Y-66866676D01*
X176871971Y-66866676D02*
X176776733Y-66961914D01*
X176776733Y-66961914D02*
X176681495Y-67009533D01*
X159853333Y-60144819D02*
X159520000Y-59668628D01*
X159281905Y-60144819D02*
X159281905Y-59144819D01*
X159281905Y-59144819D02*
X159662857Y-59144819D01*
X159662857Y-59144819D02*
X159758095Y-59192438D01*
X159758095Y-59192438D02*
X159805714Y-59240057D01*
X159805714Y-59240057D02*
X159853333Y-59335295D01*
X159853333Y-59335295D02*
X159853333Y-59478152D01*
X159853333Y-59478152D02*
X159805714Y-59573390D01*
X159805714Y-59573390D02*
X159758095Y-59621009D01*
X159758095Y-59621009D02*
X159662857Y-59668628D01*
X159662857Y-59668628D02*
X159281905Y-59668628D01*
X160424762Y-59573390D02*
X160329524Y-59525771D01*
X160329524Y-59525771D02*
X160281905Y-59478152D01*
X160281905Y-59478152D02*
X160234286Y-59382914D01*
X160234286Y-59382914D02*
X160234286Y-59335295D01*
X160234286Y-59335295D02*
X160281905Y-59240057D01*
X160281905Y-59240057D02*
X160329524Y-59192438D01*
X160329524Y-59192438D02*
X160424762Y-59144819D01*
X160424762Y-59144819D02*
X160615238Y-59144819D01*
X160615238Y-59144819D02*
X160710476Y-59192438D01*
X160710476Y-59192438D02*
X160758095Y-59240057D01*
X160758095Y-59240057D02*
X160805714Y-59335295D01*
X160805714Y-59335295D02*
X160805714Y-59382914D01*
X160805714Y-59382914D02*
X160758095Y-59478152D01*
X160758095Y-59478152D02*
X160710476Y-59525771D01*
X160710476Y-59525771D02*
X160615238Y-59573390D01*
X160615238Y-59573390D02*
X160424762Y-59573390D01*
X160424762Y-59573390D02*
X160329524Y-59621009D01*
X160329524Y-59621009D02*
X160281905Y-59668628D01*
X160281905Y-59668628D02*
X160234286Y-59763866D01*
X160234286Y-59763866D02*
X160234286Y-59954342D01*
X160234286Y-59954342D02*
X160281905Y-60049580D01*
X160281905Y-60049580D02*
X160329524Y-60097200D01*
X160329524Y-60097200D02*
X160424762Y-60144819D01*
X160424762Y-60144819D02*
X160615238Y-60144819D01*
X160615238Y-60144819D02*
X160710476Y-60097200D01*
X160710476Y-60097200D02*
X160758095Y-60049580D01*
X160758095Y-60049580D02*
X160805714Y-59954342D01*
X160805714Y-59954342D02*
X160805714Y-59763866D01*
X160805714Y-59763866D02*
X160758095Y-59668628D01*
X160758095Y-59668628D02*
X160710476Y-59621009D01*
X160710476Y-59621009D02*
X160615238Y-59573390D01*
X181697333Y-76908819D02*
X181364000Y-76432628D01*
X181125905Y-76908819D02*
X181125905Y-75908819D01*
X181125905Y-75908819D02*
X181506857Y-75908819D01*
X181506857Y-75908819D02*
X181602095Y-75956438D01*
X181602095Y-75956438D02*
X181649714Y-76004057D01*
X181649714Y-76004057D02*
X181697333Y-76099295D01*
X181697333Y-76099295D02*
X181697333Y-76242152D01*
X181697333Y-76242152D02*
X181649714Y-76337390D01*
X181649714Y-76337390D02*
X181602095Y-76385009D01*
X181602095Y-76385009D02*
X181506857Y-76432628D01*
X181506857Y-76432628D02*
X181125905Y-76432628D01*
X182554476Y-75908819D02*
X182364000Y-75908819D01*
X182364000Y-75908819D02*
X182268762Y-75956438D01*
X182268762Y-75956438D02*
X182221143Y-76004057D01*
X182221143Y-76004057D02*
X182125905Y-76146914D01*
X182125905Y-76146914D02*
X182078286Y-76337390D01*
X182078286Y-76337390D02*
X182078286Y-76718342D01*
X182078286Y-76718342D02*
X182125905Y-76813580D01*
X182125905Y-76813580D02*
X182173524Y-76861200D01*
X182173524Y-76861200D02*
X182268762Y-76908819D01*
X182268762Y-76908819D02*
X182459238Y-76908819D01*
X182459238Y-76908819D02*
X182554476Y-76861200D01*
X182554476Y-76861200D02*
X182602095Y-76813580D01*
X182602095Y-76813580D02*
X182649714Y-76718342D01*
X182649714Y-76718342D02*
X182649714Y-76480247D01*
X182649714Y-76480247D02*
X182602095Y-76385009D01*
X182602095Y-76385009D02*
X182554476Y-76337390D01*
X182554476Y-76337390D02*
X182459238Y-76289771D01*
X182459238Y-76289771D02*
X182268762Y-76289771D01*
X182268762Y-76289771D02*
X182173524Y-76337390D01*
X182173524Y-76337390D02*
X182125905Y-76385009D01*
X182125905Y-76385009D02*
X182078286Y-76480247D01*
X173061333Y-73098819D02*
X172728000Y-72622628D01*
X172489905Y-73098819D02*
X172489905Y-72098819D01*
X172489905Y-72098819D02*
X172870857Y-72098819D01*
X172870857Y-72098819D02*
X172966095Y-72146438D01*
X172966095Y-72146438D02*
X173013714Y-72194057D01*
X173013714Y-72194057D02*
X173061333Y-72289295D01*
X173061333Y-72289295D02*
X173061333Y-72432152D01*
X173061333Y-72432152D02*
X173013714Y-72527390D01*
X173013714Y-72527390D02*
X172966095Y-72575009D01*
X172966095Y-72575009D02*
X172870857Y-72622628D01*
X172870857Y-72622628D02*
X172489905Y-72622628D01*
X173918476Y-72432152D02*
X173918476Y-73098819D01*
X173680381Y-72051200D02*
X173442286Y-72765485D01*
X173442286Y-72765485D02*
X174061333Y-72765485D01*
X185469305Y-60144819D02*
X185469305Y-59144819D01*
X185469305Y-59144819D02*
X185707400Y-59144819D01*
X185707400Y-59144819D02*
X185850257Y-59192438D01*
X185850257Y-59192438D02*
X185945495Y-59287676D01*
X185945495Y-59287676D02*
X185993114Y-59382914D01*
X185993114Y-59382914D02*
X186040733Y-59573390D01*
X186040733Y-59573390D02*
X186040733Y-59716247D01*
X186040733Y-59716247D02*
X185993114Y-59906723D01*
X185993114Y-59906723D02*
X185945495Y-60001961D01*
X185945495Y-60001961D02*
X185850257Y-60097200D01*
X185850257Y-60097200D02*
X185707400Y-60144819D01*
X185707400Y-60144819D02*
X185469305Y-60144819D01*
X186993114Y-60144819D02*
X186421686Y-60144819D01*
X186707400Y-60144819D02*
X186707400Y-59144819D01*
X186707400Y-59144819D02*
X186612162Y-59287676D01*
X186612162Y-59287676D02*
X186516924Y-59382914D01*
X186516924Y-59382914D02*
X186421686Y-59430533D01*
X179131933Y-78483619D02*
X178798600Y-78007428D01*
X178560505Y-78483619D02*
X178560505Y-77483619D01*
X178560505Y-77483619D02*
X178941457Y-77483619D01*
X178941457Y-77483619D02*
X179036695Y-77531238D01*
X179036695Y-77531238D02*
X179084314Y-77578857D01*
X179084314Y-77578857D02*
X179131933Y-77674095D01*
X179131933Y-77674095D02*
X179131933Y-77816952D01*
X179131933Y-77816952D02*
X179084314Y-77912190D01*
X179084314Y-77912190D02*
X179036695Y-77959809D01*
X179036695Y-77959809D02*
X178941457Y-78007428D01*
X178941457Y-78007428D02*
X178560505Y-78007428D01*
X180084314Y-78483619D02*
X179512886Y-78483619D01*
X179798600Y-78483619D02*
X179798600Y-77483619D01*
X179798600Y-77483619D02*
X179703362Y-77626476D01*
X179703362Y-77626476D02*
X179608124Y-77721714D01*
X179608124Y-77721714D02*
X179512886Y-77769333D01*
X178595283Y-73257580D02*
X178547664Y-73305200D01*
X178547664Y-73305200D02*
X178404807Y-73352819D01*
X178404807Y-73352819D02*
X178309569Y-73352819D01*
X178309569Y-73352819D02*
X178166712Y-73305200D01*
X178166712Y-73305200D02*
X178071474Y-73209961D01*
X178071474Y-73209961D02*
X178023855Y-73114723D01*
X178023855Y-73114723D02*
X177976236Y-72924247D01*
X177976236Y-72924247D02*
X177976236Y-72781390D01*
X177976236Y-72781390D02*
X178023855Y-72590914D01*
X178023855Y-72590914D02*
X178071474Y-72495676D01*
X178071474Y-72495676D02*
X178166712Y-72400438D01*
X178166712Y-72400438D02*
X178309569Y-72352819D01*
X178309569Y-72352819D02*
X178404807Y-72352819D01*
X178404807Y-72352819D02*
X178547664Y-72400438D01*
X178547664Y-72400438D02*
X178595283Y-72448057D01*
X178928617Y-72352819D02*
X179595283Y-72352819D01*
X179595283Y-72352819D02*
X179166712Y-73352819D01*
X186636819Y-70778666D02*
X186160628Y-71111999D01*
X186636819Y-71350094D02*
X185636819Y-71350094D01*
X185636819Y-71350094D02*
X185636819Y-70969142D01*
X185636819Y-70969142D02*
X185684438Y-70873904D01*
X185684438Y-70873904D02*
X185732057Y-70826285D01*
X185732057Y-70826285D02*
X185827295Y-70778666D01*
X185827295Y-70778666D02*
X185970152Y-70778666D01*
X185970152Y-70778666D02*
X186065390Y-70826285D01*
X186065390Y-70826285D02*
X186113009Y-70873904D01*
X186113009Y-70873904D02*
X186160628Y-70969142D01*
X186160628Y-70969142D02*
X186160628Y-71350094D01*
X185636819Y-69873904D02*
X185636819Y-70350094D01*
X185636819Y-70350094D02*
X186113009Y-70397713D01*
X186113009Y-70397713D02*
X186065390Y-70350094D01*
X186065390Y-70350094D02*
X186017771Y-70254856D01*
X186017771Y-70254856D02*
X186017771Y-70016761D01*
X186017771Y-70016761D02*
X186065390Y-69921523D01*
X186065390Y-69921523D02*
X186113009Y-69873904D01*
X186113009Y-69873904D02*
X186208247Y-69826285D01*
X186208247Y-69826285D02*
X186446342Y-69826285D01*
X186446342Y-69826285D02*
X186541580Y-69873904D01*
X186541580Y-69873904D02*
X186589200Y-69921523D01*
X186589200Y-69921523D02*
X186636819Y-70016761D01*
X186636819Y-70016761D02*
X186636819Y-70254856D01*
X186636819Y-70254856D02*
X186589200Y-70350094D01*
X186589200Y-70350094D02*
X186541580Y-70397713D01*
X184745333Y-76051580D02*
X184697714Y-76099200D01*
X184697714Y-76099200D02*
X184554857Y-76146819D01*
X184554857Y-76146819D02*
X184459619Y-76146819D01*
X184459619Y-76146819D02*
X184316762Y-76099200D01*
X184316762Y-76099200D02*
X184221524Y-76003961D01*
X184221524Y-76003961D02*
X184173905Y-75908723D01*
X184173905Y-75908723D02*
X184126286Y-75718247D01*
X184126286Y-75718247D02*
X184126286Y-75575390D01*
X184126286Y-75575390D02*
X184173905Y-75384914D01*
X184173905Y-75384914D02*
X184221524Y-75289676D01*
X184221524Y-75289676D02*
X184316762Y-75194438D01*
X184316762Y-75194438D02*
X184459619Y-75146819D01*
X184459619Y-75146819D02*
X184554857Y-75146819D01*
X184554857Y-75146819D02*
X184697714Y-75194438D01*
X184697714Y-75194438D02*
X184745333Y-75242057D01*
X185650095Y-75146819D02*
X185173905Y-75146819D01*
X185173905Y-75146819D02*
X185126286Y-75623009D01*
X185126286Y-75623009D02*
X185173905Y-75575390D01*
X185173905Y-75575390D02*
X185269143Y-75527771D01*
X185269143Y-75527771D02*
X185507238Y-75527771D01*
X185507238Y-75527771D02*
X185602476Y-75575390D01*
X185602476Y-75575390D02*
X185650095Y-75623009D01*
X185650095Y-75623009D02*
X185697714Y-75718247D01*
X185697714Y-75718247D02*
X185697714Y-75956342D01*
X185697714Y-75956342D02*
X185650095Y-76051580D01*
X185650095Y-76051580D02*
X185602476Y-76099200D01*
X185602476Y-76099200D02*
X185507238Y-76146819D01*
X185507238Y-76146819D02*
X185269143Y-76146819D01*
X185269143Y-76146819D02*
X185173905Y-76099200D01*
X185173905Y-76099200D02*
X185126286Y-76051580D01*
X186459905Y-75384819D02*
X186459905Y-74384819D01*
X186459905Y-74384819D02*
X186698000Y-74384819D01*
X186698000Y-74384819D02*
X186840857Y-74432438D01*
X186840857Y-74432438D02*
X186936095Y-74527676D01*
X186936095Y-74527676D02*
X186983714Y-74622914D01*
X186983714Y-74622914D02*
X187031333Y-74813390D01*
X187031333Y-74813390D02*
X187031333Y-74956247D01*
X187031333Y-74956247D02*
X186983714Y-75146723D01*
X186983714Y-75146723D02*
X186936095Y-75241961D01*
X186936095Y-75241961D02*
X186840857Y-75337200D01*
X186840857Y-75337200D02*
X186698000Y-75384819D01*
X186698000Y-75384819D02*
X186459905Y-75384819D01*
X187412286Y-74480057D02*
X187459905Y-74432438D01*
X187459905Y-74432438D02*
X187555143Y-74384819D01*
X187555143Y-74384819D02*
X187793238Y-74384819D01*
X187793238Y-74384819D02*
X187888476Y-74432438D01*
X187888476Y-74432438D02*
X187936095Y-74480057D01*
X187936095Y-74480057D02*
X187983714Y-74575295D01*
X187983714Y-74575295D02*
X187983714Y-74670533D01*
X187983714Y-74670533D02*
X187936095Y-74813390D01*
X187936095Y-74813390D02*
X187364667Y-75384819D01*
X187364667Y-75384819D02*
X187983714Y-75384819D01*
X173174819Y-81446666D02*
X172698628Y-81779999D01*
X173174819Y-82018094D02*
X172174819Y-82018094D01*
X172174819Y-82018094D02*
X172174819Y-81637142D01*
X172174819Y-81637142D02*
X172222438Y-81541904D01*
X172222438Y-81541904D02*
X172270057Y-81494285D01*
X172270057Y-81494285D02*
X172365295Y-81446666D01*
X172365295Y-81446666D02*
X172508152Y-81446666D01*
X172508152Y-81446666D02*
X172603390Y-81494285D01*
X172603390Y-81494285D02*
X172651009Y-81541904D01*
X172651009Y-81541904D02*
X172698628Y-81637142D01*
X172698628Y-81637142D02*
X172698628Y-82018094D01*
X173174819Y-80970475D02*
X173174819Y-80779999D01*
X173174819Y-80779999D02*
X173127200Y-80684761D01*
X173127200Y-80684761D02*
X173079580Y-80637142D01*
X173079580Y-80637142D02*
X172936723Y-80541904D01*
X172936723Y-80541904D02*
X172746247Y-80494285D01*
X172746247Y-80494285D02*
X172365295Y-80494285D01*
X172365295Y-80494285D02*
X172270057Y-80541904D01*
X172270057Y-80541904D02*
X172222438Y-80589523D01*
X172222438Y-80589523D02*
X172174819Y-80684761D01*
X172174819Y-80684761D02*
X172174819Y-80875237D01*
X172174819Y-80875237D02*
X172222438Y-80970475D01*
X172222438Y-80970475D02*
X172270057Y-81018094D01*
X172270057Y-81018094D02*
X172365295Y-81065713D01*
X172365295Y-81065713D02*
X172603390Y-81065713D01*
X172603390Y-81065713D02*
X172698628Y-81018094D01*
X172698628Y-81018094D02*
X172746247Y-80970475D01*
X172746247Y-80970475D02*
X172793866Y-80875237D01*
X172793866Y-80875237D02*
X172793866Y-80684761D01*
X172793866Y-80684761D02*
X172746247Y-80589523D01*
X172746247Y-80589523D02*
X172698628Y-80541904D01*
X172698628Y-80541904D02*
X172603390Y-80494285D01*
X173061333Y-67415580D02*
X173013714Y-67463200D01*
X173013714Y-67463200D02*
X172870857Y-67510819D01*
X172870857Y-67510819D02*
X172775619Y-67510819D01*
X172775619Y-67510819D02*
X172632762Y-67463200D01*
X172632762Y-67463200D02*
X172537524Y-67367961D01*
X172537524Y-67367961D02*
X172489905Y-67272723D01*
X172489905Y-67272723D02*
X172442286Y-67082247D01*
X172442286Y-67082247D02*
X172442286Y-66939390D01*
X172442286Y-66939390D02*
X172489905Y-66748914D01*
X172489905Y-66748914D02*
X172537524Y-66653676D01*
X172537524Y-66653676D02*
X172632762Y-66558438D01*
X172632762Y-66558438D02*
X172775619Y-66510819D01*
X172775619Y-66510819D02*
X172870857Y-66510819D01*
X172870857Y-66510819D02*
X173013714Y-66558438D01*
X173013714Y-66558438D02*
X173061333Y-66606057D01*
X174013714Y-67510819D02*
X173442286Y-67510819D01*
X173728000Y-67510819D02*
X173728000Y-66510819D01*
X173728000Y-66510819D02*
X173632762Y-66653676D01*
X173632762Y-66653676D02*
X173537524Y-66748914D01*
X173537524Y-66748914D02*
X173442286Y-66796533D01*
X181556819Y-85256666D02*
X181080628Y-85589999D01*
X181556819Y-85828094D02*
X180556819Y-85828094D01*
X180556819Y-85828094D02*
X180556819Y-85447142D01*
X180556819Y-85447142D02*
X180604438Y-85351904D01*
X180604438Y-85351904D02*
X180652057Y-85304285D01*
X180652057Y-85304285D02*
X180747295Y-85256666D01*
X180747295Y-85256666D02*
X180890152Y-85256666D01*
X180890152Y-85256666D02*
X180985390Y-85304285D01*
X180985390Y-85304285D02*
X181033009Y-85351904D01*
X181033009Y-85351904D02*
X181080628Y-85447142D01*
X181080628Y-85447142D02*
X181080628Y-85828094D01*
X180652057Y-84875713D02*
X180604438Y-84828094D01*
X180604438Y-84828094D02*
X180556819Y-84732856D01*
X180556819Y-84732856D02*
X180556819Y-84494761D01*
X180556819Y-84494761D02*
X180604438Y-84399523D01*
X180604438Y-84399523D02*
X180652057Y-84351904D01*
X180652057Y-84351904D02*
X180747295Y-84304285D01*
X180747295Y-84304285D02*
X180842533Y-84304285D01*
X180842533Y-84304285D02*
X180985390Y-84351904D01*
X180985390Y-84351904D02*
X181556819Y-84923332D01*
X181556819Y-84923332D02*
X181556819Y-84304285D01*
X178806333Y-66838881D02*
X178758714Y-66886501D01*
X178758714Y-66886501D02*
X178615857Y-66934120D01*
X178615857Y-66934120D02*
X178520619Y-66934120D01*
X178520619Y-66934120D02*
X178377762Y-66886501D01*
X178377762Y-66886501D02*
X178282524Y-66791262D01*
X178282524Y-66791262D02*
X178234905Y-66696024D01*
X178234905Y-66696024D02*
X178187286Y-66505548D01*
X178187286Y-66505548D02*
X178187286Y-66362691D01*
X178187286Y-66362691D02*
X178234905Y-66172215D01*
X178234905Y-66172215D02*
X178282524Y-66076977D01*
X178282524Y-66076977D02*
X178377762Y-65981739D01*
X178377762Y-65981739D02*
X178520619Y-65934120D01*
X178520619Y-65934120D02*
X178615857Y-65934120D01*
X178615857Y-65934120D02*
X178758714Y-65981739D01*
X178758714Y-65981739D02*
X178806333Y-66029358D01*
X179187286Y-66029358D02*
X179234905Y-65981739D01*
X179234905Y-65981739D02*
X179330143Y-65934120D01*
X179330143Y-65934120D02*
X179568238Y-65934120D01*
X179568238Y-65934120D02*
X179663476Y-65981739D01*
X179663476Y-65981739D02*
X179711095Y-66029358D01*
X179711095Y-66029358D02*
X179758714Y-66124596D01*
X179758714Y-66124596D02*
X179758714Y-66219834D01*
X179758714Y-66219834D02*
X179711095Y-66362691D01*
X179711095Y-66362691D02*
X179139667Y-66934120D01*
X179139667Y-66934120D02*
X179758714Y-66934120D01*
X171939104Y-88288019D02*
X171605771Y-87811828D01*
X171367676Y-88288019D02*
X171367676Y-87288019D01*
X171367676Y-87288019D02*
X171748628Y-87288019D01*
X171748628Y-87288019D02*
X171843866Y-87335638D01*
X171843866Y-87335638D02*
X171891485Y-87383257D01*
X171891485Y-87383257D02*
X171939104Y-87478495D01*
X171939104Y-87478495D02*
X171939104Y-87621352D01*
X171939104Y-87621352D02*
X171891485Y-87716590D01*
X171891485Y-87716590D02*
X171843866Y-87764209D01*
X171843866Y-87764209D02*
X171748628Y-87811828D01*
X171748628Y-87811828D02*
X171367676Y-87811828D01*
X172748628Y-88240400D02*
X172653390Y-88288019D01*
X172653390Y-88288019D02*
X172462914Y-88288019D01*
X172462914Y-88288019D02*
X172367676Y-88240400D01*
X172367676Y-88240400D02*
X172320057Y-88145161D01*
X172320057Y-88145161D02*
X172320057Y-87764209D01*
X172320057Y-87764209D02*
X172367676Y-87668971D01*
X172367676Y-87668971D02*
X172462914Y-87621352D01*
X172462914Y-87621352D02*
X172653390Y-87621352D01*
X172653390Y-87621352D02*
X172748628Y-87668971D01*
X172748628Y-87668971D02*
X172796247Y-87764209D01*
X172796247Y-87764209D02*
X172796247Y-87859447D01*
X172796247Y-87859447D02*
X172320057Y-87954685D01*
X173177200Y-88240400D02*
X173272438Y-88288019D01*
X173272438Y-88288019D02*
X173462914Y-88288019D01*
X173462914Y-88288019D02*
X173558152Y-88240400D01*
X173558152Y-88240400D02*
X173605771Y-88145161D01*
X173605771Y-88145161D02*
X173605771Y-88097542D01*
X173605771Y-88097542D02*
X173558152Y-88002304D01*
X173558152Y-88002304D02*
X173462914Y-87954685D01*
X173462914Y-87954685D02*
X173320057Y-87954685D01*
X173320057Y-87954685D02*
X173224819Y-87907066D01*
X173224819Y-87907066D02*
X173177200Y-87811828D01*
X173177200Y-87811828D02*
X173177200Y-87764209D01*
X173177200Y-87764209D02*
X173224819Y-87668971D01*
X173224819Y-87668971D02*
X173320057Y-87621352D01*
X173320057Y-87621352D02*
X173462914Y-87621352D01*
X173462914Y-87621352D02*
X173558152Y-87668971D01*
X174415295Y-88240400D02*
X174320057Y-88288019D01*
X174320057Y-88288019D02*
X174129581Y-88288019D01*
X174129581Y-88288019D02*
X174034343Y-88240400D01*
X174034343Y-88240400D02*
X173986724Y-88145161D01*
X173986724Y-88145161D02*
X173986724Y-87764209D01*
X173986724Y-87764209D02*
X174034343Y-87668971D01*
X174034343Y-87668971D02*
X174129581Y-87621352D01*
X174129581Y-87621352D02*
X174320057Y-87621352D01*
X174320057Y-87621352D02*
X174415295Y-87668971D01*
X174415295Y-87668971D02*
X174462914Y-87764209D01*
X174462914Y-87764209D02*
X174462914Y-87859447D01*
X174462914Y-87859447D02*
X173986724Y-87954685D01*
X174748629Y-87621352D02*
X175129581Y-87621352D01*
X174891486Y-87288019D02*
X174891486Y-88145161D01*
X174891486Y-88145161D02*
X174939105Y-88240400D01*
X174939105Y-88240400D02*
X175034343Y-88288019D01*
X175034343Y-88288019D02*
X175129581Y-88288019D01*
X169937133Y-60557580D02*
X169889514Y-60605200D01*
X169889514Y-60605200D02*
X169746657Y-60652819D01*
X169746657Y-60652819D02*
X169651419Y-60652819D01*
X169651419Y-60652819D02*
X169508562Y-60605200D01*
X169508562Y-60605200D02*
X169413324Y-60509961D01*
X169413324Y-60509961D02*
X169365705Y-60414723D01*
X169365705Y-60414723D02*
X169318086Y-60224247D01*
X169318086Y-60224247D02*
X169318086Y-60081390D01*
X169318086Y-60081390D02*
X169365705Y-59890914D01*
X169365705Y-59890914D02*
X169413324Y-59795676D01*
X169413324Y-59795676D02*
X169508562Y-59700438D01*
X169508562Y-59700438D02*
X169651419Y-59652819D01*
X169651419Y-59652819D02*
X169746657Y-59652819D01*
X169746657Y-59652819D02*
X169889514Y-59700438D01*
X169889514Y-59700438D02*
X169937133Y-59748057D01*
X170794276Y-59986152D02*
X170794276Y-60652819D01*
X170556181Y-59605200D02*
X170318086Y-60319485D01*
X170318086Y-60319485D02*
X170937133Y-60319485D01*
X175307645Y-72642819D02*
X175307645Y-73452342D01*
X175307645Y-73452342D02*
X175355264Y-73547580D01*
X175355264Y-73547580D02*
X175402883Y-73595200D01*
X175402883Y-73595200D02*
X175498121Y-73642819D01*
X175498121Y-73642819D02*
X175688597Y-73642819D01*
X175688597Y-73642819D02*
X175783835Y-73595200D01*
X175783835Y-73595200D02*
X175831454Y-73547580D01*
X175831454Y-73547580D02*
X175879073Y-73452342D01*
X175879073Y-73452342D02*
X175879073Y-72642819D01*
X176307645Y-72738057D02*
X176355264Y-72690438D01*
X176355264Y-72690438D02*
X176450502Y-72642819D01*
X176450502Y-72642819D02*
X176688597Y-72642819D01*
X176688597Y-72642819D02*
X176783835Y-72690438D01*
X176783835Y-72690438D02*
X176831454Y-72738057D01*
X176831454Y-72738057D02*
X176879073Y-72833295D01*
X176879073Y-72833295D02*
X176879073Y-72928533D01*
X176879073Y-72928533D02*
X176831454Y-73071390D01*
X176831454Y-73071390D02*
X176260026Y-73642819D01*
X176260026Y-73642819D02*
X176879073Y-73642819D01*
X168819533Y-87176780D02*
X168771914Y-87224400D01*
X168771914Y-87224400D02*
X168629057Y-87272019D01*
X168629057Y-87272019D02*
X168533819Y-87272019D01*
X168533819Y-87272019D02*
X168390962Y-87224400D01*
X168390962Y-87224400D02*
X168295724Y-87129161D01*
X168295724Y-87129161D02*
X168248105Y-87033923D01*
X168248105Y-87033923D02*
X168200486Y-86843447D01*
X168200486Y-86843447D02*
X168200486Y-86700590D01*
X168200486Y-86700590D02*
X168248105Y-86510114D01*
X168248105Y-86510114D02*
X168295724Y-86414876D01*
X168295724Y-86414876D02*
X168390962Y-86319638D01*
X168390962Y-86319638D02*
X168533819Y-86272019D01*
X168533819Y-86272019D02*
X168629057Y-86272019D01*
X168629057Y-86272019D02*
X168771914Y-86319638D01*
X168771914Y-86319638D02*
X168819533Y-86367257D01*
X169676676Y-86272019D02*
X169486200Y-86272019D01*
X169486200Y-86272019D02*
X169390962Y-86319638D01*
X169390962Y-86319638D02*
X169343343Y-86367257D01*
X169343343Y-86367257D02*
X169248105Y-86510114D01*
X169248105Y-86510114D02*
X169200486Y-86700590D01*
X169200486Y-86700590D02*
X169200486Y-87081542D01*
X169200486Y-87081542D02*
X169248105Y-87176780D01*
X169248105Y-87176780D02*
X169295724Y-87224400D01*
X169295724Y-87224400D02*
X169390962Y-87272019D01*
X169390962Y-87272019D02*
X169581438Y-87272019D01*
X169581438Y-87272019D02*
X169676676Y-87224400D01*
X169676676Y-87224400D02*
X169724295Y-87176780D01*
X169724295Y-87176780D02*
X169771914Y-87081542D01*
X169771914Y-87081542D02*
X169771914Y-86843447D01*
X169771914Y-86843447D02*
X169724295Y-86748209D01*
X169724295Y-86748209D02*
X169676676Y-86700590D01*
X169676676Y-86700590D02*
X169581438Y-86652971D01*
X169581438Y-86652971D02*
X169390962Y-86652971D01*
X169390962Y-86652971D02*
X169295724Y-86700590D01*
X169295724Y-86700590D02*
X169248105Y-86748209D01*
X169248105Y-86748209D02*
X169200486Y-86843447D01*
X187356761Y-66082057D02*
X187261523Y-66034438D01*
X187261523Y-66034438D02*
X187166285Y-65939200D01*
X187166285Y-65939200D02*
X187023428Y-65796342D01*
X187023428Y-65796342D02*
X186928190Y-65748723D01*
X186928190Y-65748723D02*
X186832952Y-65748723D01*
X186880571Y-65986819D02*
X186785333Y-65939200D01*
X186785333Y-65939200D02*
X186690095Y-65843961D01*
X186690095Y-65843961D02*
X186642476Y-65653485D01*
X186642476Y-65653485D02*
X186642476Y-65320152D01*
X186642476Y-65320152D02*
X186690095Y-65129676D01*
X186690095Y-65129676D02*
X186785333Y-65034438D01*
X186785333Y-65034438D02*
X186880571Y-64986819D01*
X186880571Y-64986819D02*
X187071047Y-64986819D01*
X187071047Y-64986819D02*
X187166285Y-65034438D01*
X187166285Y-65034438D02*
X187261523Y-65129676D01*
X187261523Y-65129676D02*
X187309142Y-65320152D01*
X187309142Y-65320152D02*
X187309142Y-65653485D01*
X187309142Y-65653485D02*
X187261523Y-65843961D01*
X187261523Y-65843961D02*
X187166285Y-65939200D01*
X187166285Y-65939200D02*
X187071047Y-65986819D01*
X187071047Y-65986819D02*
X186880571Y-65986819D01*
X188261523Y-65986819D02*
X187690095Y-65986819D01*
X187975809Y-65986819D02*
X187975809Y-64986819D01*
X187975809Y-64986819D02*
X187880571Y-65129676D01*
X187880571Y-65129676D02*
X187785333Y-65224914D01*
X187785333Y-65224914D02*
X187690095Y-65272533D01*
D12*
%TO.C,R10*%
X157749864Y-60685000D02*
X156295736Y-60685000D01*
X157749864Y-62505000D02*
X156295736Y-62505000D01*
%TO.C,R3*%
X175747000Y-81626064D02*
X175747000Y-80171936D01*
X177567000Y-81626064D02*
X177567000Y-80171936D01*
%TO.C,C8*%
X176125200Y-85503652D02*
X176125200Y-84981148D01*
X177595200Y-85503652D02*
X177595200Y-84981148D01*
%TO.C,U3*%
X153822400Y-64363600D02*
X155727400Y-64363600D01*
X153822400Y-82397600D02*
X153822400Y-64363600D01*
X155727400Y-82397600D02*
X153822400Y-82397600D01*
X169951400Y-82397600D02*
X171856400Y-82397600D01*
X171856400Y-64363600D02*
X169951400Y-64363600D01*
X171856400Y-82397600D02*
X171856400Y-64363600D01*
X169964400Y-83155600D02*
X169964400Y-82655600D01*
X170464400Y-82655600D01*
X169964400Y-83155600D01*
G36*
X169964400Y-83155600D02*
G01*
X169964400Y-82655600D01*
X170464400Y-82655600D01*
X169964400Y-83155600D01*
G37*
%TO.C,C3*%
X172470800Y-61396000D02*
X172470800Y-65481000D01*
X174340800Y-61396000D02*
X172470800Y-61396000D01*
X174340800Y-65481000D02*
X174340800Y-61396000D01*
%TO.C,R7*%
X182660936Y-66146000D02*
X184115064Y-66146000D01*
X182660936Y-67966000D02*
X184115064Y-67966000D01*
%TO.C,JP2*%
X165293800Y-62523600D02*
X165293800Y-61123600D01*
X165993800Y-60423600D02*
X166593800Y-60423600D01*
X166593800Y-63223600D02*
X165993800Y-63223600D01*
X167293800Y-61123600D02*
X167293800Y-62523600D01*
X165293800Y-61123600D02*
G75*
G02*
X165993800Y-60423600I699999J1D01*
G01*
X165993800Y-63223600D02*
G75*
G02*
X165293800Y-62523600I0J700000D01*
G01*
X166593800Y-60423600D02*
G75*
G02*
X167293800Y-61123600I1J-699999D01*
G01*
X167293800Y-62523600D02*
G75*
G02*
X166593800Y-63223600I-700000J0D01*
G01*
%TO.C,U1*%
X175435000Y-70301000D02*
X175435000Y-68301000D01*
X177655000Y-70301000D02*
X177655000Y-68301000D01*
X175535000Y-70821000D02*
X175255000Y-70541000D01*
X175535000Y-70541000D01*
X175535000Y-70821000D01*
G36*
X175535000Y-70821000D02*
G01*
X175255000Y-70541000D01*
X175535000Y-70541000D01*
X175535000Y-70821000D01*
G37*
%TO.C,R8*%
X161502736Y-60939000D02*
X162956864Y-60939000D01*
X161502736Y-62759000D02*
X162956864Y-62759000D01*
%TO.C,R6*%
X181462000Y-74133064D02*
X181462000Y-72678936D01*
X183282000Y-74133064D02*
X183282000Y-72678936D01*
%TO.C,R4*%
X172699000Y-74837936D02*
X172699000Y-76292064D01*
X174519000Y-74837936D02*
X174519000Y-76292064D01*
%TO.C,D1*%
X185332000Y-63586000D02*
X185332000Y-60926000D01*
X185332000Y-63586000D02*
X187032000Y-63586000D01*
X187032000Y-63586000D02*
X187032000Y-60926000D01*
%TO.C,R1*%
X178414000Y-80171936D02*
X178414000Y-81626064D01*
X180234000Y-80171936D02*
X180234000Y-81626064D01*
%TO.C,J2*%
X176276000Y-60083600D02*
X176276000Y-59823600D01*
X176276000Y-64133600D02*
X176276000Y-62363600D01*
X176276000Y-64133600D02*
X176656000Y-64133600D01*
X183896000Y-59823600D02*
X183896000Y-60083600D01*
X183896000Y-62363600D02*
X183896000Y-64133600D01*
X183896000Y-64133600D02*
X183516000Y-64133600D01*
D10*
%TO.C,J1*%
X180985000Y-81498600D02*
X180985000Y-81498600D01*
X181085000Y-81498600D02*
X181085000Y-81498600D01*
D13*
X183085000Y-77248600D02*
X183085000Y-79473600D01*
X183085000Y-82273600D02*
X183085000Y-84498600D01*
X183085000Y-84498600D02*
X183385000Y-84498600D01*
X183385000Y-77248600D02*
X183085000Y-77248600D01*
X186985000Y-77248600D02*
X187285000Y-77248600D01*
X187285000Y-77248600D02*
X187285000Y-84498600D01*
X187285000Y-84498600D02*
X186985000Y-84498600D01*
D10*
X180985000Y-81498600D02*
G75*
G02*
X181085000Y-81498600I50000J0D01*
G01*
X181085000Y-81498600D02*
G75*
G02*
X180985000Y-81498600I-50000J0D01*
G01*
D12*
%TO.C,C7*%
X178077750Y-75212748D02*
X178077750Y-75735252D01*
X179547750Y-75212748D02*
X179547750Y-75735252D01*
D14*
%TO.C,AE1*%
X147957949Y-83324700D02*
X149526851Y-83324700D01*
X149526851Y-81470500D02*
X147957949Y-81470500D01*
D12*
%TO.C,R5*%
X182660936Y-68559000D02*
X184115064Y-68559000D01*
X182660936Y-70379000D02*
X184115064Y-70379000D01*
%TO.C,C5*%
X184304000Y-73413252D02*
X184304000Y-72890748D01*
X185774000Y-73413252D02*
X185774000Y-72890748D01*
%TO.C,D2*%
X186729000Y-74127000D02*
X186729000Y-71467000D01*
X186729000Y-74127000D02*
X188429000Y-74127000D01*
X188429000Y-74127000D02*
X188429000Y-71467000D01*
%TO.C,R9*%
X173334000Y-81626064D02*
X173334000Y-80171936D01*
X175154000Y-81626064D02*
X175154000Y-80171936D01*
%TO.C,C1*%
X173124000Y-69166748D02*
X173124000Y-69689252D01*
X174594000Y-69166748D02*
X174594000Y-69689252D01*
%TO.C,R2*%
X178414000Y-86579064D02*
X178414000Y-85124936D01*
X180234000Y-86579064D02*
X180234000Y-85124936D01*
D10*
%TO.C,AE2*%
X142478000Y-61300600D02*
X152478000Y-61300600D01*
X142478000Y-75300600D02*
X142478000Y-61300600D01*
X152478000Y-61800600D02*
X152478000Y-61300600D01*
X152478000Y-71800600D02*
X152478000Y-64800600D01*
X152478000Y-75300600D02*
X142478000Y-75300600D01*
X152478000Y-75300600D02*
X152478000Y-74800600D01*
D12*
%TO.C,C2*%
X178238000Y-69505253D02*
X178238000Y-68982749D01*
X179708000Y-69505253D02*
X179708000Y-68982749D01*
%TO.C,JP1*%
X173320200Y-86044000D02*
X173320200Y-84644000D01*
X174020200Y-83944000D02*
X174620200Y-83944000D01*
X174620200Y-86744000D02*
X174020200Y-86744000D01*
X175320200Y-84644000D02*
X175320200Y-86044000D01*
X173320200Y-84644000D02*
G75*
G02*
X174020200Y-83944000I700000J0D01*
G01*
X174020200Y-86744000D02*
G75*
G02*
X173320200Y-86044000I-1J699999D01*
G01*
X174620200Y-83944000D02*
G75*
G02*
X175320200Y-84644000I0J-700000D01*
G01*
X175320200Y-86044000D02*
G75*
G02*
X174620200Y-86744000I-699999J-1D01*
G01*
%TO.C,C4*%
X170365052Y-61114000D02*
X169842548Y-61114000D01*
X170365052Y-62584000D02*
X169842548Y-62584000D01*
%TO.C,U2*%
X175035750Y-74474000D02*
X175035750Y-76474000D01*
X177255750Y-74474000D02*
X177255750Y-76474000D01*
X177245750Y-74124000D02*
X176965750Y-74124000D01*
X176965750Y-73844000D01*
X177245750Y-74124000D01*
G36*
X177245750Y-74124000D02*
G01*
X176965750Y-74124000D01*
X176965750Y-73844000D01*
X177245750Y-74124000D01*
G37*
%TO.C,C6*%
X171096000Y-85224252D02*
X171096000Y-84701748D01*
X172566000Y-85224252D02*
X172566000Y-84701748D01*
%TO.C,Q1*%
X187960000Y-66639000D02*
X187310000Y-66639000D01*
X187960000Y-66639000D02*
X188610000Y-66639000D01*
X187960000Y-69759000D02*
X187310000Y-69759000D01*
X187960000Y-69759000D02*
X188610000Y-69759000D01*
X186797500Y-66689000D02*
X186557500Y-66359000D01*
X187037500Y-66359000D01*
X186797500Y-66689000D01*
G36*
X186797500Y-66689000D02*
G01*
X186557500Y-66359000D01*
X187037500Y-66359000D01*
X186797500Y-66689000D01*
G37*
%TD*%
M02*
