M48
; DRILL file {KiCad 8.0.2} date 2024-06-01T12:46:32+0200
; FORMAT={-:-/ absolute / inch / decimal}
; #@! TF.CreationDate,2024-06-01T12:46:32+02:00
; #@! TF.GenerationSoftware,Kicad,Pcbnew,8.0.2
; #@! TF.FileFunction,MixedPlating,1,2
FMAT,2
INCH
; #@! TA.AperFunction,Plated,PTH,ViaDrill
T1C0.0118
; #@! TA.AperFunction,Plated,PTH,ComponentDrill
T2C0.0394
%
G90
G05
T1
X6.055Y-3.088
X6.057Y-2.986
X6.06Y-2.3819
X6.06Y-2.4512
X6.06Y-2.5206
X6.06Y-2.59
X6.06Y-2.6594
X6.06Y-2.7287
X6.06Y-2.7981
X6.06Y-2.8675
X6.075Y-3.068
X6.078Y-2.964
X6.089Y-2.555
X6.09Y-2.35
X6.09Y-2.625
X6.09Y-2.695
X6.09Y-2.768
X6.09Y-2.834
X6.09Y-2.9
X6.095Y-3.048
X6.099Y-2.412
X6.099Y-2.942
X6.115Y-3.028
X6.116Y-3.085
X6.12Y-2.476
X6.12Y-2.505
X6.12Y-2.921
X6.126Y-2.444
X6.129Y-2.532
X6.129Y-2.565
X6.129Y-2.595
X6.129Y-2.625
X6.129Y-2.655
X6.129Y-2.685
X6.129Y-2.715
X6.129Y-2.745
X6.129Y-2.775
X6.129Y-2.805
X6.129Y-2.835
X6.129Y-2.865
X6.129Y-2.895
X6.135Y-3.008
X6.148Y-2.399
X6.155Y-2.988
X6.157Y-3.083
X6.165Y-2.345
X6.175Y-2.968
X6.175Y-3.041
X6.185Y-2.425
X6.196Y-2.557
X6.196Y-2.587
X6.196Y-2.617
X6.196Y-2.647
X6.196Y-2.677
X6.196Y-2.707
X6.196Y-2.737
X6.196Y-2.767
X6.196Y-2.797
X6.196Y-2.827
X6.196Y-2.857
X6.196Y-2.887
X6.196Y-2.917
X6.196Y-2.947
X6.2Y-2.335
X6.22Y-2.993
X6.221Y-2.409
X6.224Y-3.044
X6.23Y-2.57
X6.23Y-2.6308
X6.23Y-2.6917
X6.23Y-2.7525
X6.23Y-2.8133
X6.23Y-2.8742
X6.236Y-2.945
X6.26Y-2.55
X6.268Y-2.914
X6.27Y-2.345
X6.27Y-2.44
X6.27Y-2.5967
X6.27Y-2.66
X6.27Y-2.7233
X6.27Y-2.7867
X6.27Y-2.85
X6.27Y-2.9767
X6.355Y-3.275
X6.6Y-2.89
X6.615Y-2.56
X6.615Y-3.135
X6.64Y-2.85
X6.74Y-2.4393
X6.825Y-2.865
X6.83Y-2.47
X6.8458Y-2.693
X6.859Y-2.752
X6.875Y-3.1456
X6.875Y-3.21
X6.885Y-3.415
X6.94Y-2.46
X6.992Y-2.752
X7.0Y-3.145
X7.115Y-3.415
X7.25Y-2.49
X7.25Y-2.785
X7.314Y-2.386
X7.345Y-3.145
X7.345Y-3.22
X7.46Y-3.145
X7.46Y-3.22
X7.85Y-2.94
X7.98Y-2.79
X8.1Y-3.02
T2
X5.8Y-3.35
X7.64Y-2.8
X7.64Y-2.9
X7.64Y-3.0
M30
