%TF.GenerationSoftware,KiCad,Pcbnew,8.0.2*%
%TF.CreationDate,2024-06-01T12:45:28+02:00*%
%TF.ProjectId,LoraSensor,4c6f7261-5365-46e7-936f-722e6b696361,rev?*%
%TF.SameCoordinates,Original*%
%TF.FileFunction,Legend,Top*%
%TF.FilePolarity,Positive*%
%FSLAX46Y46*%
G04 Gerber Fmt 4.6, Leading zero omitted, Abs format (unit mm)*
G04 Created by KiCad (PCBNEW 8.0.2) date 2024-06-01 12:45:28*
%MOMM*%
%LPD*%
G01*
G04 APERTURE LIST*
%ADD10C,0.100000*%
%ADD11C,0.127000*%
%ADD12C,0.150000*%
%ADD13C,0.120000*%
%ADD14C,0.200000*%
%ADD15C,0.152400*%
G04 APERTURE END LIST*
D10*
X144681961Y-61965675D02*
X144205771Y-61965675D01*
X144205771Y-61965675D02*
X144205771Y-60965675D01*
X145158152Y-61965675D02*
X145062914Y-61918056D01*
X145062914Y-61918056D02*
X145015295Y-61870436D01*
X145015295Y-61870436D02*
X144967676Y-61775198D01*
X144967676Y-61775198D02*
X144967676Y-61489484D01*
X144967676Y-61489484D02*
X145015295Y-61394246D01*
X145015295Y-61394246D02*
X145062914Y-61346627D01*
X145062914Y-61346627D02*
X145158152Y-61299008D01*
X145158152Y-61299008D02*
X145301009Y-61299008D01*
X145301009Y-61299008D02*
X145396247Y-61346627D01*
X145396247Y-61346627D02*
X145443866Y-61394246D01*
X145443866Y-61394246D02*
X145491485Y-61489484D01*
X145491485Y-61489484D02*
X145491485Y-61775198D01*
X145491485Y-61775198D02*
X145443866Y-61870436D01*
X145443866Y-61870436D02*
X145396247Y-61918056D01*
X145396247Y-61918056D02*
X145301009Y-61965675D01*
X145301009Y-61965675D02*
X145158152Y-61965675D01*
X145920057Y-61965675D02*
X145920057Y-61299008D01*
X145920057Y-61489484D02*
X145967676Y-61394246D01*
X145967676Y-61394246D02*
X146015295Y-61346627D01*
X146015295Y-61346627D02*
X146110533Y-61299008D01*
X146110533Y-61299008D02*
X146205771Y-61299008D01*
X146967676Y-61965675D02*
X146967676Y-61441865D01*
X146967676Y-61441865D02*
X146920057Y-61346627D01*
X146920057Y-61346627D02*
X146824819Y-61299008D01*
X146824819Y-61299008D02*
X146634343Y-61299008D01*
X146634343Y-61299008D02*
X146539105Y-61346627D01*
X146967676Y-61918056D02*
X146872438Y-61965675D01*
X146872438Y-61965675D02*
X146634343Y-61965675D01*
X146634343Y-61965675D02*
X146539105Y-61918056D01*
X146539105Y-61918056D02*
X146491486Y-61822817D01*
X146491486Y-61822817D02*
X146491486Y-61727579D01*
X146491486Y-61727579D02*
X146539105Y-61632341D01*
X146539105Y-61632341D02*
X146634343Y-61584722D01*
X146634343Y-61584722D02*
X146872438Y-61584722D01*
X146872438Y-61584722D02*
X146967676Y-61537103D01*
X147396248Y-61918056D02*
X147539105Y-61965675D01*
X147539105Y-61965675D02*
X147777200Y-61965675D01*
X147777200Y-61965675D02*
X147872438Y-61918056D01*
X147872438Y-61918056D02*
X147920057Y-61870436D01*
X147920057Y-61870436D02*
X147967676Y-61775198D01*
X147967676Y-61775198D02*
X147967676Y-61679960D01*
X147967676Y-61679960D02*
X147920057Y-61584722D01*
X147920057Y-61584722D02*
X147872438Y-61537103D01*
X147872438Y-61537103D02*
X147777200Y-61489484D01*
X147777200Y-61489484D02*
X147586724Y-61441865D01*
X147586724Y-61441865D02*
X147491486Y-61394246D01*
X147491486Y-61394246D02*
X147443867Y-61346627D01*
X147443867Y-61346627D02*
X147396248Y-61251389D01*
X147396248Y-61251389D02*
X147396248Y-61156151D01*
X147396248Y-61156151D02*
X147443867Y-61060913D01*
X147443867Y-61060913D02*
X147491486Y-61013294D01*
X147491486Y-61013294D02*
X147586724Y-60965675D01*
X147586724Y-60965675D02*
X147824819Y-60965675D01*
X147824819Y-60965675D02*
X147967676Y-61013294D01*
X148777200Y-61918056D02*
X148681962Y-61965675D01*
X148681962Y-61965675D02*
X148491486Y-61965675D01*
X148491486Y-61965675D02*
X148396248Y-61918056D01*
X148396248Y-61918056D02*
X148348629Y-61822817D01*
X148348629Y-61822817D02*
X148348629Y-61441865D01*
X148348629Y-61441865D02*
X148396248Y-61346627D01*
X148396248Y-61346627D02*
X148491486Y-61299008D01*
X148491486Y-61299008D02*
X148681962Y-61299008D01*
X148681962Y-61299008D02*
X148777200Y-61346627D01*
X148777200Y-61346627D02*
X148824819Y-61441865D01*
X148824819Y-61441865D02*
X148824819Y-61537103D01*
X148824819Y-61537103D02*
X148348629Y-61632341D01*
X149253391Y-61299008D02*
X149253391Y-61965675D01*
X149253391Y-61394246D02*
X149301010Y-61346627D01*
X149301010Y-61346627D02*
X149396248Y-61299008D01*
X149396248Y-61299008D02*
X149539105Y-61299008D01*
X149539105Y-61299008D02*
X149634343Y-61346627D01*
X149634343Y-61346627D02*
X149681962Y-61441865D01*
X149681962Y-61441865D02*
X149681962Y-61965675D01*
X150110534Y-61918056D02*
X150205772Y-61965675D01*
X150205772Y-61965675D02*
X150396248Y-61965675D01*
X150396248Y-61965675D02*
X150491486Y-61918056D01*
X150491486Y-61918056D02*
X150539105Y-61822817D01*
X150539105Y-61822817D02*
X150539105Y-61775198D01*
X150539105Y-61775198D02*
X150491486Y-61679960D01*
X150491486Y-61679960D02*
X150396248Y-61632341D01*
X150396248Y-61632341D02*
X150253391Y-61632341D01*
X150253391Y-61632341D02*
X150158153Y-61584722D01*
X150158153Y-61584722D02*
X150110534Y-61489484D01*
X150110534Y-61489484D02*
X150110534Y-61441865D01*
X150110534Y-61441865D02*
X150158153Y-61346627D01*
X150158153Y-61346627D02*
X150253391Y-61299008D01*
X150253391Y-61299008D02*
X150396248Y-61299008D01*
X150396248Y-61299008D02*
X150491486Y-61346627D01*
X151348629Y-61918056D02*
X151253391Y-61965675D01*
X151253391Y-61965675D02*
X151062915Y-61965675D01*
X151062915Y-61965675D02*
X150967677Y-61918056D01*
X150967677Y-61918056D02*
X150920058Y-61822817D01*
X150920058Y-61822817D02*
X150920058Y-61441865D01*
X150920058Y-61441865D02*
X150967677Y-61346627D01*
X150967677Y-61346627D02*
X151062915Y-61299008D01*
X151062915Y-61299008D02*
X151253391Y-61299008D01*
X151253391Y-61299008D02*
X151348629Y-61346627D01*
X151348629Y-61346627D02*
X151396248Y-61441865D01*
X151396248Y-61441865D02*
X151396248Y-61537103D01*
X151396248Y-61537103D02*
X150920058Y-61632341D01*
X147348628Y-63575619D02*
X146777200Y-63575619D01*
X147062914Y-63575619D02*
X147062914Y-62575619D01*
X147062914Y-62575619D02*
X146967676Y-62718476D01*
X146967676Y-62718476D02*
X146872438Y-62813714D01*
X146872438Y-62813714D02*
X146777200Y-62861333D01*
X147777200Y-63480380D02*
X147824819Y-63528000D01*
X147824819Y-63528000D02*
X147777200Y-63575619D01*
X147777200Y-63575619D02*
X147729581Y-63528000D01*
X147729581Y-63528000D02*
X147777200Y-63480380D01*
X147777200Y-63480380D02*
X147777200Y-63575619D01*
X148443866Y-62575619D02*
X148539104Y-62575619D01*
X148539104Y-62575619D02*
X148634342Y-62623238D01*
X148634342Y-62623238D02*
X148681961Y-62670857D01*
X148681961Y-62670857D02*
X148729580Y-62766095D01*
X148729580Y-62766095D02*
X148777199Y-62956571D01*
X148777199Y-62956571D02*
X148777199Y-63194666D01*
X148777199Y-63194666D02*
X148729580Y-63385142D01*
X148729580Y-63385142D02*
X148681961Y-63480380D01*
X148681961Y-63480380D02*
X148634342Y-63528000D01*
X148634342Y-63528000D02*
X148539104Y-63575619D01*
X148539104Y-63575619D02*
X148443866Y-63575619D01*
X148443866Y-63575619D02*
X148348628Y-63528000D01*
X148348628Y-63528000D02*
X148301009Y-63480380D01*
X148301009Y-63480380D02*
X148253390Y-63385142D01*
X148253390Y-63385142D02*
X148205771Y-63194666D01*
X148205771Y-63194666D02*
X148205771Y-62956571D01*
X148205771Y-62956571D02*
X148253390Y-62766095D01*
X148253390Y-62766095D02*
X148301009Y-62670857D01*
X148301009Y-62670857D02*
X148348628Y-62623238D01*
X148348628Y-62623238D02*
X148443866Y-62575619D01*
X161193798Y-69611419D02*
X161193798Y-70325704D01*
X161193798Y-70325704D02*
X161146179Y-70468561D01*
X161146179Y-70468561D02*
X161050941Y-70563800D01*
X161050941Y-70563800D02*
X160908084Y-70611419D01*
X160908084Y-70611419D02*
X160812846Y-70611419D01*
X162146179Y-70611419D02*
X161669989Y-70611419D01*
X161669989Y-70611419D02*
X161669989Y-69611419D01*
X163050941Y-70516180D02*
X163003322Y-70563800D01*
X163003322Y-70563800D02*
X162860465Y-70611419D01*
X162860465Y-70611419D02*
X162765227Y-70611419D01*
X162765227Y-70611419D02*
X162622370Y-70563800D01*
X162622370Y-70563800D02*
X162527132Y-70468561D01*
X162527132Y-70468561D02*
X162479513Y-70373323D01*
X162479513Y-70373323D02*
X162431894Y-70182847D01*
X162431894Y-70182847D02*
X162431894Y-70039990D01*
X162431894Y-70039990D02*
X162479513Y-69849514D01*
X162479513Y-69849514D02*
X162527132Y-69754276D01*
X162527132Y-69754276D02*
X162622370Y-69659038D01*
X162622370Y-69659038D02*
X162765227Y-69611419D01*
X162765227Y-69611419D02*
X162860465Y-69611419D01*
X162860465Y-69611419D02*
X163003322Y-69659038D01*
X163003322Y-69659038D02*
X163050941Y-69706657D01*
X163765227Y-69611419D02*
X163765227Y-70325704D01*
X163765227Y-70325704D02*
X163717608Y-70468561D01*
X163717608Y-70468561D02*
X163622370Y-70563800D01*
X163622370Y-70563800D02*
X163479513Y-70611419D01*
X163479513Y-70611419D02*
X163384275Y-70611419D01*
X164717608Y-70611419D02*
X164241418Y-70611419D01*
X164241418Y-70611419D02*
X164241418Y-69611419D01*
X165622370Y-70516180D02*
X165574751Y-70563800D01*
X165574751Y-70563800D02*
X165431894Y-70611419D01*
X165431894Y-70611419D02*
X165336656Y-70611419D01*
X165336656Y-70611419D02*
X165193799Y-70563800D01*
X165193799Y-70563800D02*
X165098561Y-70468561D01*
X165098561Y-70468561D02*
X165050942Y-70373323D01*
X165050942Y-70373323D02*
X165003323Y-70182847D01*
X165003323Y-70182847D02*
X165003323Y-70039990D01*
X165003323Y-70039990D02*
X165050942Y-69849514D01*
X165050942Y-69849514D02*
X165098561Y-69754276D01*
X165098561Y-69754276D02*
X165193799Y-69659038D01*
X165193799Y-69659038D02*
X165336656Y-69611419D01*
X165336656Y-69611419D02*
X165431894Y-69611419D01*
X165431894Y-69611419D02*
X165574751Y-69659038D01*
X165574751Y-69659038D02*
X165622370Y-69706657D01*
X166336656Y-69611419D02*
X166336656Y-70325704D01*
X166336656Y-70325704D02*
X166289037Y-70468561D01*
X166289037Y-70468561D02*
X166193799Y-70563800D01*
X166193799Y-70563800D02*
X166050942Y-70611419D01*
X166050942Y-70611419D02*
X165955704Y-70611419D01*
X167289037Y-70611419D02*
X166812847Y-70611419D01*
X166812847Y-70611419D02*
X166812847Y-69611419D01*
X168193799Y-70516180D02*
X168146180Y-70563800D01*
X168146180Y-70563800D02*
X168003323Y-70611419D01*
X168003323Y-70611419D02*
X167908085Y-70611419D01*
X167908085Y-70611419D02*
X167765228Y-70563800D01*
X167765228Y-70563800D02*
X167669990Y-70468561D01*
X167669990Y-70468561D02*
X167622371Y-70373323D01*
X167622371Y-70373323D02*
X167574752Y-70182847D01*
X167574752Y-70182847D02*
X167574752Y-70039990D01*
X167574752Y-70039990D02*
X167622371Y-69849514D01*
X167622371Y-69849514D02*
X167669990Y-69754276D01*
X167669990Y-69754276D02*
X167765228Y-69659038D01*
X167765228Y-69659038D02*
X167908085Y-69611419D01*
X167908085Y-69611419D02*
X168003323Y-69611419D01*
X168003323Y-69611419D02*
X168146180Y-69659038D01*
X168146180Y-69659038D02*
X168193799Y-69706657D01*
X168908085Y-69611419D02*
X168908085Y-70325704D01*
X168908085Y-70325704D02*
X168860466Y-70468561D01*
X168860466Y-70468561D02*
X168765228Y-70563800D01*
X168765228Y-70563800D02*
X168622371Y-70611419D01*
X168622371Y-70611419D02*
X168527133Y-70611419D01*
X169860466Y-70611419D02*
X169384276Y-70611419D01*
X169384276Y-70611419D02*
X169384276Y-69611419D01*
X170765228Y-70516180D02*
X170717609Y-70563800D01*
X170717609Y-70563800D02*
X170574752Y-70611419D01*
X170574752Y-70611419D02*
X170479514Y-70611419D01*
X170479514Y-70611419D02*
X170336657Y-70563800D01*
X170336657Y-70563800D02*
X170241419Y-70468561D01*
X170241419Y-70468561D02*
X170193800Y-70373323D01*
X170193800Y-70373323D02*
X170146181Y-70182847D01*
X170146181Y-70182847D02*
X170146181Y-70039990D01*
X170146181Y-70039990D02*
X170193800Y-69849514D01*
X170193800Y-69849514D02*
X170241419Y-69754276D01*
X170241419Y-69754276D02*
X170336657Y-69659038D01*
X170336657Y-69659038D02*
X170479514Y-69611419D01*
X170479514Y-69611419D02*
X170574752Y-69611419D01*
X170574752Y-69611419D02*
X170717609Y-69659038D01*
X170717609Y-69659038D02*
X170765228Y-69706657D01*
D11*
X187960000Y-64008000D02*
X187960000Y-64008000D01*
X187960000Y-64516000D02*
X187960000Y-64516000D01*
X187960000Y-65024000D02*
X187960000Y-65024000D01*
X187960000Y-65532000D02*
X187960000Y-65532000D01*
X187960000Y-66040000D02*
X187960000Y-66040000D01*
X187960000Y-66548000D02*
X187960000Y-66548000D01*
X187960000Y-67056000D02*
X187960000Y-67056000D01*
X187960000Y-67564000D02*
X187960000Y-67564000D01*
X187960000Y-68072000D02*
X187960000Y-68072000D01*
X187960000Y-68580000D02*
X187960000Y-68580000D01*
X187960000Y-69088000D02*
X187960000Y-69088000D01*
X187960000Y-69596000D02*
X187960000Y-69596000D01*
X187960000Y-70104000D02*
X187960000Y-70104000D01*
X187960000Y-70612000D02*
X187960000Y-70612000D01*
X187960000Y-71120000D02*
X187960000Y-71120000D01*
X187960000Y-71628000D02*
X187960000Y-71628000D01*
X187960000Y-72136000D02*
X187960000Y-72136000D01*
X187960000Y-72644000D02*
X187960000Y-72644000D01*
X187960000Y-73152000D02*
X187960000Y-73152000D01*
X187960000Y-73660000D02*
X187960000Y-73660000D01*
X187960000Y-74168000D02*
X187960000Y-74168000D01*
X187960000Y-74676000D02*
X187960000Y-74676000D01*
X187960000Y-75184000D02*
X187960000Y-75184000D01*
X187960000Y-75692000D02*
X187960000Y-75692000D01*
X187960000Y-76200000D02*
X187960000Y-76200000D01*
X187960000Y-76708000D02*
X187960000Y-76708000D01*
X187960000Y-77216000D02*
X187960000Y-77216000D01*
X187960000Y-77724000D02*
X187960000Y-77724000D01*
X187960000Y-78232000D02*
X187960000Y-78232000D01*
X187960000Y-78740000D02*
X187960000Y-78740000D01*
X187960000Y-79248000D02*
X187960000Y-79248000D01*
X187960000Y-79756000D02*
X187960000Y-79756000D01*
X187960000Y-80264000D02*
X187960000Y-80264000D01*
X187960000Y-80772000D02*
X187960000Y-80772000D01*
X187960000Y-81280000D02*
X187960000Y-81280000D01*
X187960000Y-81788000D02*
X187960000Y-81788000D01*
X187960000Y-82296000D02*
X187960000Y-82296000D01*
X187960000Y-82804000D02*
X187960000Y-82804000D01*
D10*
X215900000Y-66040000D02*
X215900000Y-81280000D01*
X164592000Y-82296000D02*
X174040800Y-82296000D01*
X174040800Y-88646000D01*
X164592000Y-88646000D01*
X164592000Y-82296000D01*
X173068752Y-84728953D02*
X173735419Y-84538477D01*
X173735419Y-84538477D02*
X173259228Y-84348001D01*
X173259228Y-84348001D02*
X173735419Y-84157525D01*
X173735419Y-84157525D02*
X173068752Y-83967049D01*
X173735419Y-83586096D02*
X173068752Y-83586096D01*
X172735419Y-83586096D02*
X172783038Y-83633715D01*
X172783038Y-83633715D02*
X172830657Y-83586096D01*
X172830657Y-83586096D02*
X172783038Y-83538477D01*
X172783038Y-83538477D02*
X172735419Y-83586096D01*
X172735419Y-83586096D02*
X172830657Y-83586096D01*
X173068752Y-83252763D02*
X173068752Y-82871811D01*
X173735419Y-83109906D02*
X172878276Y-83109906D01*
X172878276Y-83109906D02*
X172783038Y-83062287D01*
X172783038Y-83062287D02*
X172735419Y-82967049D01*
X172735419Y-82967049D02*
X172735419Y-82871811D01*
X173735419Y-82538477D02*
X173068752Y-82538477D01*
X172735419Y-82538477D02*
X172783038Y-82586096D01*
X172783038Y-82586096D02*
X172830657Y-82538477D01*
X172830657Y-82538477D02*
X172783038Y-82490858D01*
X172783038Y-82490858D02*
X172735419Y-82538477D01*
X172735419Y-82538477D02*
X172830657Y-82538477D01*
D12*
X193962495Y-65698019D02*
X194533923Y-65698019D01*
X194248209Y-66698019D02*
X194248209Y-65698019D01*
X194867257Y-66698019D02*
X194867257Y-65698019D01*
X194867257Y-65698019D02*
X195248209Y-65698019D01*
X195248209Y-65698019D02*
X195343447Y-65745638D01*
X195343447Y-65745638D02*
X195391066Y-65793257D01*
X195391066Y-65793257D02*
X195438685Y-65888495D01*
X195438685Y-65888495D02*
X195438685Y-66031352D01*
X195438685Y-66031352D02*
X195391066Y-66126590D01*
X195391066Y-66126590D02*
X195343447Y-66174209D01*
X195343447Y-66174209D02*
X195248209Y-66221828D01*
X195248209Y-66221828D02*
X194867257Y-66221828D01*
X195819638Y-65793257D02*
X195867257Y-65745638D01*
X195867257Y-65745638D02*
X195962495Y-65698019D01*
X195962495Y-65698019D02*
X196200590Y-65698019D01*
X196200590Y-65698019D02*
X196295828Y-65745638D01*
X196295828Y-65745638D02*
X196343447Y-65793257D01*
X196343447Y-65793257D02*
X196391066Y-65888495D01*
X196391066Y-65888495D02*
X196391066Y-65983733D01*
X196391066Y-65983733D02*
X196343447Y-66126590D01*
X196343447Y-66126590D02*
X195772019Y-66698019D01*
X195772019Y-66698019D02*
X196391066Y-66698019D01*
X162153695Y-71692419D02*
X162153695Y-72501942D01*
X162153695Y-72501942D02*
X162201314Y-72597180D01*
X162201314Y-72597180D02*
X162248933Y-72644800D01*
X162248933Y-72644800D02*
X162344171Y-72692419D01*
X162344171Y-72692419D02*
X162534647Y-72692419D01*
X162534647Y-72692419D02*
X162629885Y-72644800D01*
X162629885Y-72644800D02*
X162677504Y-72597180D01*
X162677504Y-72597180D02*
X162725123Y-72501942D01*
X162725123Y-72501942D02*
X162725123Y-71692419D01*
X163106076Y-71692419D02*
X163725123Y-71692419D01*
X163725123Y-71692419D02*
X163391790Y-72073371D01*
X163391790Y-72073371D02*
X163534647Y-72073371D01*
X163534647Y-72073371D02*
X163629885Y-72120990D01*
X163629885Y-72120990D02*
X163677504Y-72168609D01*
X163677504Y-72168609D02*
X163725123Y-72263847D01*
X163725123Y-72263847D02*
X163725123Y-72501942D01*
X163725123Y-72501942D02*
X163677504Y-72597180D01*
X163677504Y-72597180D02*
X163629885Y-72644800D01*
X163629885Y-72644800D02*
X163534647Y-72692419D01*
X163534647Y-72692419D02*
X163248933Y-72692419D01*
X163248933Y-72692419D02*
X163153695Y-72644800D01*
X163153695Y-72644800D02*
X163106076Y-72597180D01*
X173315333Y-59795580D02*
X173267714Y-59843200D01*
X173267714Y-59843200D02*
X173124857Y-59890819D01*
X173124857Y-59890819D02*
X173029619Y-59890819D01*
X173029619Y-59890819D02*
X172886762Y-59843200D01*
X172886762Y-59843200D02*
X172791524Y-59747961D01*
X172791524Y-59747961D02*
X172743905Y-59652723D01*
X172743905Y-59652723D02*
X172696286Y-59462247D01*
X172696286Y-59462247D02*
X172696286Y-59319390D01*
X172696286Y-59319390D02*
X172743905Y-59128914D01*
X172743905Y-59128914D02*
X172791524Y-59033676D01*
X172791524Y-59033676D02*
X172886762Y-58938438D01*
X172886762Y-58938438D02*
X173029619Y-58890819D01*
X173029619Y-58890819D02*
X173124857Y-58890819D01*
X173124857Y-58890819D02*
X173267714Y-58938438D01*
X173267714Y-58938438D02*
X173315333Y-58986057D01*
X173648667Y-58890819D02*
X174267714Y-58890819D01*
X174267714Y-58890819D02*
X173934381Y-59271771D01*
X173934381Y-59271771D02*
X174077238Y-59271771D01*
X174077238Y-59271771D02*
X174172476Y-59319390D01*
X174172476Y-59319390D02*
X174220095Y-59367009D01*
X174220095Y-59367009D02*
X174267714Y-59462247D01*
X174267714Y-59462247D02*
X174267714Y-59700342D01*
X174267714Y-59700342D02*
X174220095Y-59795580D01*
X174220095Y-59795580D02*
X174172476Y-59843200D01*
X174172476Y-59843200D02*
X174077238Y-59890819D01*
X174077238Y-59890819D02*
X173791524Y-59890819D01*
X173791524Y-59890819D02*
X173696286Y-59843200D01*
X173696286Y-59843200D02*
X173648667Y-59795580D01*
X206194819Y-74334666D02*
X205718628Y-74667999D01*
X206194819Y-74906094D02*
X205194819Y-74906094D01*
X205194819Y-74906094D02*
X205194819Y-74525142D01*
X205194819Y-74525142D02*
X205242438Y-74429904D01*
X205242438Y-74429904D02*
X205290057Y-74382285D01*
X205290057Y-74382285D02*
X205385295Y-74334666D01*
X205385295Y-74334666D02*
X205528152Y-74334666D01*
X205528152Y-74334666D02*
X205623390Y-74382285D01*
X205623390Y-74382285D02*
X205671009Y-74429904D01*
X205671009Y-74429904D02*
X205718628Y-74525142D01*
X205718628Y-74525142D02*
X205718628Y-74906094D01*
X205194819Y-74001332D02*
X205194819Y-73334666D01*
X205194819Y-73334666D02*
X206194819Y-73763237D01*
X153471857Y-59525819D02*
X153471857Y-60335342D01*
X153471857Y-60335342D02*
X153519476Y-60430580D01*
X153519476Y-60430580D02*
X153567095Y-60478200D01*
X153567095Y-60478200D02*
X153662333Y-60525819D01*
X153662333Y-60525819D02*
X153852809Y-60525819D01*
X153852809Y-60525819D02*
X153948047Y-60478200D01*
X153948047Y-60478200D02*
X153995666Y-60430580D01*
X153995666Y-60430580D02*
X154043285Y-60335342D01*
X154043285Y-60335342D02*
X154043285Y-59525819D01*
X154519476Y-59859152D02*
X154519476Y-60859152D01*
X154519476Y-59906771D02*
X154614714Y-59859152D01*
X154614714Y-59859152D02*
X154805190Y-59859152D01*
X154805190Y-59859152D02*
X154900428Y-59906771D01*
X154900428Y-59906771D02*
X154948047Y-59954390D01*
X154948047Y-59954390D02*
X154995666Y-60049628D01*
X154995666Y-60049628D02*
X154995666Y-60335342D01*
X154995666Y-60335342D02*
X154948047Y-60430580D01*
X154948047Y-60430580D02*
X154900428Y-60478200D01*
X154900428Y-60478200D02*
X154805190Y-60525819D01*
X154805190Y-60525819D02*
X154614714Y-60525819D01*
X154614714Y-60525819D02*
X154519476Y-60478200D01*
X155567095Y-60525819D02*
X155471857Y-60478200D01*
X155471857Y-60478200D02*
X155424238Y-60382961D01*
X155424238Y-60382961D02*
X155424238Y-59525819D01*
X156090905Y-60525819D02*
X155995667Y-60478200D01*
X155995667Y-60478200D02*
X155948048Y-60430580D01*
X155948048Y-60430580D02*
X155900429Y-60335342D01*
X155900429Y-60335342D02*
X155900429Y-60049628D01*
X155900429Y-60049628D02*
X155948048Y-59954390D01*
X155948048Y-59954390D02*
X155995667Y-59906771D01*
X155995667Y-59906771D02*
X156090905Y-59859152D01*
X156090905Y-59859152D02*
X156233762Y-59859152D01*
X156233762Y-59859152D02*
X156329000Y-59906771D01*
X156329000Y-59906771D02*
X156376619Y-59954390D01*
X156376619Y-59954390D02*
X156424238Y-60049628D01*
X156424238Y-60049628D02*
X156424238Y-60335342D01*
X156424238Y-60335342D02*
X156376619Y-60430580D01*
X156376619Y-60430580D02*
X156329000Y-60478200D01*
X156329000Y-60478200D02*
X156233762Y-60525819D01*
X156233762Y-60525819D02*
X156090905Y-60525819D01*
X157281381Y-60525819D02*
X157281381Y-60002009D01*
X157281381Y-60002009D02*
X157233762Y-59906771D01*
X157233762Y-59906771D02*
X157138524Y-59859152D01*
X157138524Y-59859152D02*
X156948048Y-59859152D01*
X156948048Y-59859152D02*
X156852810Y-59906771D01*
X157281381Y-60478200D02*
X157186143Y-60525819D01*
X157186143Y-60525819D02*
X156948048Y-60525819D01*
X156948048Y-60525819D02*
X156852810Y-60478200D01*
X156852810Y-60478200D02*
X156805191Y-60382961D01*
X156805191Y-60382961D02*
X156805191Y-60287723D01*
X156805191Y-60287723D02*
X156852810Y-60192485D01*
X156852810Y-60192485D02*
X156948048Y-60144866D01*
X156948048Y-60144866D02*
X157186143Y-60144866D01*
X157186143Y-60144866D02*
X157281381Y-60097247D01*
X158186143Y-60525819D02*
X158186143Y-59525819D01*
X158186143Y-60478200D02*
X158090905Y-60525819D01*
X158090905Y-60525819D02*
X157900429Y-60525819D01*
X157900429Y-60525819D02*
X157805191Y-60478200D01*
X157805191Y-60478200D02*
X157757572Y-60430580D01*
X157757572Y-60430580D02*
X157709953Y-60335342D01*
X157709953Y-60335342D02*
X157709953Y-60049628D01*
X157709953Y-60049628D02*
X157757572Y-59954390D01*
X157757572Y-59954390D02*
X157805191Y-59906771D01*
X157805191Y-59906771D02*
X157900429Y-59859152D01*
X157900429Y-59859152D02*
X158090905Y-59859152D01*
X158090905Y-59859152D02*
X158186143Y-59906771D01*
X173521019Y-70648204D02*
X174330542Y-70648204D01*
X174330542Y-70648204D02*
X174425780Y-70600585D01*
X174425780Y-70600585D02*
X174473400Y-70552966D01*
X174473400Y-70552966D02*
X174521019Y-70457728D01*
X174521019Y-70457728D02*
X174521019Y-70267252D01*
X174521019Y-70267252D02*
X174473400Y-70172014D01*
X174473400Y-70172014D02*
X174425780Y-70124395D01*
X174425780Y-70124395D02*
X174330542Y-70076776D01*
X174330542Y-70076776D02*
X173521019Y-70076776D01*
X174521019Y-69076776D02*
X174521019Y-69648204D01*
X174521019Y-69362490D02*
X173521019Y-69362490D01*
X173521019Y-69362490D02*
X173663876Y-69457728D01*
X173663876Y-69457728D02*
X173759114Y-69552966D01*
X173759114Y-69552966D02*
X173806733Y-69648204D01*
X159712819Y-60821866D02*
X159236628Y-61155199D01*
X159712819Y-61393294D02*
X158712819Y-61393294D01*
X158712819Y-61393294D02*
X158712819Y-61012342D01*
X158712819Y-61012342D02*
X158760438Y-60917104D01*
X158760438Y-60917104D02*
X158808057Y-60869485D01*
X158808057Y-60869485D02*
X158903295Y-60821866D01*
X158903295Y-60821866D02*
X159046152Y-60821866D01*
X159046152Y-60821866D02*
X159141390Y-60869485D01*
X159141390Y-60869485D02*
X159189009Y-60917104D01*
X159189009Y-60917104D02*
X159236628Y-61012342D01*
X159236628Y-61012342D02*
X159236628Y-61393294D01*
X159141390Y-60250437D02*
X159093771Y-60345675D01*
X159093771Y-60345675D02*
X159046152Y-60393294D01*
X159046152Y-60393294D02*
X158950914Y-60440913D01*
X158950914Y-60440913D02*
X158903295Y-60440913D01*
X158903295Y-60440913D02*
X158808057Y-60393294D01*
X158808057Y-60393294D02*
X158760438Y-60345675D01*
X158760438Y-60345675D02*
X158712819Y-60250437D01*
X158712819Y-60250437D02*
X158712819Y-60059961D01*
X158712819Y-60059961D02*
X158760438Y-59964723D01*
X158760438Y-59964723D02*
X158808057Y-59917104D01*
X158808057Y-59917104D02*
X158903295Y-59869485D01*
X158903295Y-59869485D02*
X158950914Y-59869485D01*
X158950914Y-59869485D02*
X159046152Y-59917104D01*
X159046152Y-59917104D02*
X159093771Y-59964723D01*
X159093771Y-59964723D02*
X159141390Y-60059961D01*
X159141390Y-60059961D02*
X159141390Y-60250437D01*
X159141390Y-60250437D02*
X159189009Y-60345675D01*
X159189009Y-60345675D02*
X159236628Y-60393294D01*
X159236628Y-60393294D02*
X159331866Y-60440913D01*
X159331866Y-60440913D02*
X159522342Y-60440913D01*
X159522342Y-60440913D02*
X159617580Y-60393294D01*
X159617580Y-60393294D02*
X159665200Y-60345675D01*
X159665200Y-60345675D02*
X159712819Y-60250437D01*
X159712819Y-60250437D02*
X159712819Y-60059961D01*
X159712819Y-60059961D02*
X159665200Y-59964723D01*
X159665200Y-59964723D02*
X159617580Y-59917104D01*
X159617580Y-59917104D02*
X159522342Y-59869485D01*
X159522342Y-59869485D02*
X159331866Y-59869485D01*
X159331866Y-59869485D02*
X159236628Y-59917104D01*
X159236628Y-59917104D02*
X159189009Y-59964723D01*
X159189009Y-59964723D02*
X159141390Y-60059961D01*
X176730819Y-76493666D02*
X176254628Y-76826999D01*
X176730819Y-77065094D02*
X175730819Y-77065094D01*
X175730819Y-77065094D02*
X175730819Y-76684142D01*
X175730819Y-76684142D02*
X175778438Y-76588904D01*
X175778438Y-76588904D02*
X175826057Y-76541285D01*
X175826057Y-76541285D02*
X175921295Y-76493666D01*
X175921295Y-76493666D02*
X176064152Y-76493666D01*
X176064152Y-76493666D02*
X176159390Y-76541285D01*
X176159390Y-76541285D02*
X176207009Y-76588904D01*
X176207009Y-76588904D02*
X176254628Y-76684142D01*
X176254628Y-76684142D02*
X176254628Y-77065094D01*
X176064152Y-75636523D02*
X176730819Y-75636523D01*
X175683200Y-75874618D02*
X176397485Y-76112713D01*
X176397485Y-76112713D02*
X176397485Y-75493666D01*
X197699333Y-79448819D02*
X197366000Y-78972628D01*
X197127905Y-79448819D02*
X197127905Y-78448819D01*
X197127905Y-78448819D02*
X197508857Y-78448819D01*
X197508857Y-78448819D02*
X197604095Y-78496438D01*
X197604095Y-78496438D02*
X197651714Y-78544057D01*
X197651714Y-78544057D02*
X197699333Y-78639295D01*
X197699333Y-78639295D02*
X197699333Y-78782152D01*
X197699333Y-78782152D02*
X197651714Y-78877390D01*
X197651714Y-78877390D02*
X197604095Y-78925009D01*
X197604095Y-78925009D02*
X197508857Y-78972628D01*
X197508857Y-78972628D02*
X197127905Y-78972628D01*
X198556476Y-78448819D02*
X198366000Y-78448819D01*
X198366000Y-78448819D02*
X198270762Y-78496438D01*
X198270762Y-78496438D02*
X198223143Y-78544057D01*
X198223143Y-78544057D02*
X198127905Y-78686914D01*
X198127905Y-78686914D02*
X198080286Y-78877390D01*
X198080286Y-78877390D02*
X198080286Y-79258342D01*
X198080286Y-79258342D02*
X198127905Y-79353580D01*
X198127905Y-79353580D02*
X198175524Y-79401200D01*
X198175524Y-79401200D02*
X198270762Y-79448819D01*
X198270762Y-79448819D02*
X198461238Y-79448819D01*
X198461238Y-79448819D02*
X198556476Y-79401200D01*
X198556476Y-79401200D02*
X198604095Y-79353580D01*
X198604095Y-79353580D02*
X198651714Y-79258342D01*
X198651714Y-79258342D02*
X198651714Y-79020247D01*
X198651714Y-79020247D02*
X198604095Y-78925009D01*
X198604095Y-78925009D02*
X198556476Y-78877390D01*
X198556476Y-78877390D02*
X198461238Y-78829771D01*
X198461238Y-78829771D02*
X198270762Y-78829771D01*
X198270762Y-78829771D02*
X198175524Y-78877390D01*
X198175524Y-78877390D02*
X198127905Y-78925009D01*
X198127905Y-78925009D02*
X198080286Y-79020247D01*
X178357305Y-65986819D02*
X178357305Y-64986819D01*
X178357305Y-64986819D02*
X178595400Y-64986819D01*
X178595400Y-64986819D02*
X178738257Y-65034438D01*
X178738257Y-65034438D02*
X178833495Y-65129676D01*
X178833495Y-65129676D02*
X178881114Y-65224914D01*
X178881114Y-65224914D02*
X178928733Y-65415390D01*
X178928733Y-65415390D02*
X178928733Y-65558247D01*
X178928733Y-65558247D02*
X178881114Y-65748723D01*
X178881114Y-65748723D02*
X178833495Y-65843961D01*
X178833495Y-65843961D02*
X178738257Y-65939200D01*
X178738257Y-65939200D02*
X178595400Y-65986819D01*
X178595400Y-65986819D02*
X178357305Y-65986819D01*
X179881114Y-65986819D02*
X179309686Y-65986819D01*
X179595400Y-65986819D02*
X179595400Y-64986819D01*
X179595400Y-64986819D02*
X179500162Y-65129676D01*
X179500162Y-65129676D02*
X179404924Y-65224914D01*
X179404924Y-65224914D02*
X179309686Y-65272533D01*
X178127819Y-78271666D02*
X177651628Y-78604999D01*
X178127819Y-78843094D02*
X177127819Y-78843094D01*
X177127819Y-78843094D02*
X177127819Y-78462142D01*
X177127819Y-78462142D02*
X177175438Y-78366904D01*
X177175438Y-78366904D02*
X177223057Y-78319285D01*
X177223057Y-78319285D02*
X177318295Y-78271666D01*
X177318295Y-78271666D02*
X177461152Y-78271666D01*
X177461152Y-78271666D02*
X177556390Y-78319285D01*
X177556390Y-78319285D02*
X177604009Y-78366904D01*
X177604009Y-78366904D02*
X177651628Y-78462142D01*
X177651628Y-78462142D02*
X177651628Y-78843094D01*
X178127819Y-77319285D02*
X178127819Y-77890713D01*
X178127819Y-77604999D02*
X177127819Y-77604999D01*
X177127819Y-77604999D02*
X177270676Y-77700237D01*
X177270676Y-77700237D02*
X177365914Y-77795475D01*
X177365914Y-77795475D02*
X177413533Y-77890713D01*
X174940933Y-84535180D02*
X174893314Y-84582800D01*
X174893314Y-84582800D02*
X174750457Y-84630419D01*
X174750457Y-84630419D02*
X174655219Y-84630419D01*
X174655219Y-84630419D02*
X174512362Y-84582800D01*
X174512362Y-84582800D02*
X174417124Y-84487561D01*
X174417124Y-84487561D02*
X174369505Y-84392323D01*
X174369505Y-84392323D02*
X174321886Y-84201847D01*
X174321886Y-84201847D02*
X174321886Y-84058990D01*
X174321886Y-84058990D02*
X174369505Y-83868514D01*
X174369505Y-83868514D02*
X174417124Y-83773276D01*
X174417124Y-83773276D02*
X174512362Y-83678038D01*
X174512362Y-83678038D02*
X174655219Y-83630419D01*
X174655219Y-83630419D02*
X174750457Y-83630419D01*
X174750457Y-83630419D02*
X174893314Y-83678038D01*
X174893314Y-83678038D02*
X174940933Y-83725657D01*
X175274267Y-83630419D02*
X175940933Y-83630419D01*
X175940933Y-83630419D02*
X175512362Y-84630419D01*
X197699333Y-68526819D02*
X197366000Y-68050628D01*
X197127905Y-68526819D02*
X197127905Y-67526819D01*
X197127905Y-67526819D02*
X197508857Y-67526819D01*
X197508857Y-67526819D02*
X197604095Y-67574438D01*
X197604095Y-67574438D02*
X197651714Y-67622057D01*
X197651714Y-67622057D02*
X197699333Y-67717295D01*
X197699333Y-67717295D02*
X197699333Y-67860152D01*
X197699333Y-67860152D02*
X197651714Y-67955390D01*
X197651714Y-67955390D02*
X197604095Y-68003009D01*
X197604095Y-68003009D02*
X197508857Y-68050628D01*
X197508857Y-68050628D02*
X197127905Y-68050628D01*
X198604095Y-67526819D02*
X198127905Y-67526819D01*
X198127905Y-67526819D02*
X198080286Y-68003009D01*
X198080286Y-68003009D02*
X198127905Y-67955390D01*
X198127905Y-67955390D02*
X198223143Y-67907771D01*
X198223143Y-67907771D02*
X198461238Y-67907771D01*
X198461238Y-67907771D02*
X198556476Y-67955390D01*
X198556476Y-67955390D02*
X198604095Y-68003009D01*
X198604095Y-68003009D02*
X198651714Y-68098247D01*
X198651714Y-68098247D02*
X198651714Y-68336342D01*
X198651714Y-68336342D02*
X198604095Y-68431580D01*
X198604095Y-68431580D02*
X198556476Y-68479200D01*
X198556476Y-68479200D02*
X198461238Y-68526819D01*
X198461238Y-68526819D02*
X198223143Y-68526819D01*
X198223143Y-68526819D02*
X198127905Y-68479200D01*
X198127905Y-68479200D02*
X198080286Y-68431580D01*
X202271333Y-79099580D02*
X202223714Y-79147200D01*
X202223714Y-79147200D02*
X202080857Y-79194819D01*
X202080857Y-79194819D02*
X201985619Y-79194819D01*
X201985619Y-79194819D02*
X201842762Y-79147200D01*
X201842762Y-79147200D02*
X201747524Y-79051961D01*
X201747524Y-79051961D02*
X201699905Y-78956723D01*
X201699905Y-78956723D02*
X201652286Y-78766247D01*
X201652286Y-78766247D02*
X201652286Y-78623390D01*
X201652286Y-78623390D02*
X201699905Y-78432914D01*
X201699905Y-78432914D02*
X201747524Y-78337676D01*
X201747524Y-78337676D02*
X201842762Y-78242438D01*
X201842762Y-78242438D02*
X201985619Y-78194819D01*
X201985619Y-78194819D02*
X202080857Y-78194819D01*
X202080857Y-78194819D02*
X202223714Y-78242438D01*
X202223714Y-78242438D02*
X202271333Y-78290057D01*
X203176095Y-78194819D02*
X202699905Y-78194819D01*
X202699905Y-78194819D02*
X202652286Y-78671009D01*
X202652286Y-78671009D02*
X202699905Y-78623390D01*
X202699905Y-78623390D02*
X202795143Y-78575771D01*
X202795143Y-78575771D02*
X203033238Y-78575771D01*
X203033238Y-78575771D02*
X203128476Y-78623390D01*
X203128476Y-78623390D02*
X203176095Y-78671009D01*
X203176095Y-78671009D02*
X203223714Y-78766247D01*
X203223714Y-78766247D02*
X203223714Y-79004342D01*
X203223714Y-79004342D02*
X203176095Y-79099580D01*
X203176095Y-79099580D02*
X203128476Y-79147200D01*
X203128476Y-79147200D02*
X203033238Y-79194819D01*
X203033238Y-79194819D02*
X202795143Y-79194819D01*
X202795143Y-79194819D02*
X202699905Y-79147200D01*
X202699905Y-79147200D02*
X202652286Y-79099580D01*
X200175905Y-68526819D02*
X200175905Y-67526819D01*
X200175905Y-67526819D02*
X200414000Y-67526819D01*
X200414000Y-67526819D02*
X200556857Y-67574438D01*
X200556857Y-67574438D02*
X200652095Y-67669676D01*
X200652095Y-67669676D02*
X200699714Y-67764914D01*
X200699714Y-67764914D02*
X200747333Y-67955390D01*
X200747333Y-67955390D02*
X200747333Y-68098247D01*
X200747333Y-68098247D02*
X200699714Y-68288723D01*
X200699714Y-68288723D02*
X200652095Y-68383961D01*
X200652095Y-68383961D02*
X200556857Y-68479200D01*
X200556857Y-68479200D02*
X200414000Y-68526819D01*
X200414000Y-68526819D02*
X200175905Y-68526819D01*
X201128286Y-67622057D02*
X201175905Y-67574438D01*
X201175905Y-67574438D02*
X201271143Y-67526819D01*
X201271143Y-67526819D02*
X201509238Y-67526819D01*
X201509238Y-67526819D02*
X201604476Y-67574438D01*
X201604476Y-67574438D02*
X201652095Y-67622057D01*
X201652095Y-67622057D02*
X201699714Y-67717295D01*
X201699714Y-67717295D02*
X201699714Y-67812533D01*
X201699714Y-67812533D02*
X201652095Y-67955390D01*
X201652095Y-67955390D02*
X201080667Y-68526819D01*
X201080667Y-68526819D02*
X201699714Y-68526819D01*
X193759295Y-81090419D02*
X194330723Y-81090419D01*
X194045009Y-82090419D02*
X194045009Y-81090419D01*
X194664057Y-82090419D02*
X194664057Y-81090419D01*
X194664057Y-81090419D02*
X195045009Y-81090419D01*
X195045009Y-81090419D02*
X195140247Y-81138038D01*
X195140247Y-81138038D02*
X195187866Y-81185657D01*
X195187866Y-81185657D02*
X195235485Y-81280895D01*
X195235485Y-81280895D02*
X195235485Y-81423752D01*
X195235485Y-81423752D02*
X195187866Y-81518990D01*
X195187866Y-81518990D02*
X195140247Y-81566609D01*
X195140247Y-81566609D02*
X195045009Y-81614228D01*
X195045009Y-81614228D02*
X194664057Y-81614228D01*
X196187866Y-82090419D02*
X195616438Y-82090419D01*
X195902152Y-82090419D02*
X195902152Y-81090419D01*
X195902152Y-81090419D02*
X195806914Y-81233276D01*
X195806914Y-81233276D02*
X195711676Y-81328514D01*
X195711676Y-81328514D02*
X195616438Y-81376133D01*
X157172819Y-86018666D02*
X156696628Y-86351999D01*
X157172819Y-86590094D02*
X156172819Y-86590094D01*
X156172819Y-86590094D02*
X156172819Y-86209142D01*
X156172819Y-86209142D02*
X156220438Y-86113904D01*
X156220438Y-86113904D02*
X156268057Y-86066285D01*
X156268057Y-86066285D02*
X156363295Y-86018666D01*
X156363295Y-86018666D02*
X156506152Y-86018666D01*
X156506152Y-86018666D02*
X156601390Y-86066285D01*
X156601390Y-86066285D02*
X156649009Y-86113904D01*
X156649009Y-86113904D02*
X156696628Y-86209142D01*
X156696628Y-86209142D02*
X156696628Y-86590094D01*
X157172819Y-85542475D02*
X157172819Y-85351999D01*
X157172819Y-85351999D02*
X157125200Y-85256761D01*
X157125200Y-85256761D02*
X157077580Y-85209142D01*
X157077580Y-85209142D02*
X156934723Y-85113904D01*
X156934723Y-85113904D02*
X156744247Y-85066285D01*
X156744247Y-85066285D02*
X156363295Y-85066285D01*
X156363295Y-85066285D02*
X156268057Y-85113904D01*
X156268057Y-85113904D02*
X156220438Y-85161523D01*
X156220438Y-85161523D02*
X156172819Y-85256761D01*
X156172819Y-85256761D02*
X156172819Y-85447237D01*
X156172819Y-85447237D02*
X156220438Y-85542475D01*
X156220438Y-85542475D02*
X156268057Y-85590094D01*
X156268057Y-85590094D02*
X156363295Y-85637713D01*
X156363295Y-85637713D02*
X156601390Y-85637713D01*
X156601390Y-85637713D02*
X156696628Y-85590094D01*
X156696628Y-85590094D02*
X156744247Y-85542475D01*
X156744247Y-85542475D02*
X156791866Y-85447237D01*
X156791866Y-85447237D02*
X156791866Y-85256761D01*
X156791866Y-85256761D02*
X156744247Y-85161523D01*
X156744247Y-85161523D02*
X156696628Y-85113904D01*
X156696628Y-85113904D02*
X156601390Y-85066285D01*
X173587580Y-67349666D02*
X173635200Y-67397285D01*
X173635200Y-67397285D02*
X173682819Y-67540142D01*
X173682819Y-67540142D02*
X173682819Y-67635380D01*
X173682819Y-67635380D02*
X173635200Y-67778237D01*
X173635200Y-67778237D02*
X173539961Y-67873475D01*
X173539961Y-67873475D02*
X173444723Y-67921094D01*
X173444723Y-67921094D02*
X173254247Y-67968713D01*
X173254247Y-67968713D02*
X173111390Y-67968713D01*
X173111390Y-67968713D02*
X172920914Y-67921094D01*
X172920914Y-67921094D02*
X172825676Y-67873475D01*
X172825676Y-67873475D02*
X172730438Y-67778237D01*
X172730438Y-67778237D02*
X172682819Y-67635380D01*
X172682819Y-67635380D02*
X172682819Y-67540142D01*
X172682819Y-67540142D02*
X172730438Y-67397285D01*
X172730438Y-67397285D02*
X172778057Y-67349666D01*
X173682819Y-66397285D02*
X173682819Y-66968713D01*
X173682819Y-66682999D02*
X172682819Y-66682999D01*
X172682819Y-66682999D02*
X172825676Y-66778237D01*
X172825676Y-66778237D02*
X172920914Y-66873475D01*
X172920914Y-66873475D02*
X172968533Y-66968713D01*
X181912419Y-73242466D02*
X181436228Y-73575799D01*
X181912419Y-73813894D02*
X180912419Y-73813894D01*
X180912419Y-73813894D02*
X180912419Y-73432942D01*
X180912419Y-73432942D02*
X180960038Y-73337704D01*
X180960038Y-73337704D02*
X181007657Y-73290085D01*
X181007657Y-73290085D02*
X181102895Y-73242466D01*
X181102895Y-73242466D02*
X181245752Y-73242466D01*
X181245752Y-73242466D02*
X181340990Y-73290085D01*
X181340990Y-73290085D02*
X181388609Y-73337704D01*
X181388609Y-73337704D02*
X181436228Y-73432942D01*
X181436228Y-73432942D02*
X181436228Y-73813894D01*
X181007657Y-72861513D02*
X180960038Y-72813894D01*
X180960038Y-72813894D02*
X180912419Y-72718656D01*
X180912419Y-72718656D02*
X180912419Y-72480561D01*
X180912419Y-72480561D02*
X180960038Y-72385323D01*
X180960038Y-72385323D02*
X181007657Y-72337704D01*
X181007657Y-72337704D02*
X181102895Y-72290085D01*
X181102895Y-72290085D02*
X181198133Y-72290085D01*
X181198133Y-72290085D02*
X181340990Y-72337704D01*
X181340990Y-72337704D02*
X181912419Y-72909132D01*
X181912419Y-72909132D02*
X181912419Y-72290085D01*
X173736080Y-72810666D02*
X173783700Y-72858285D01*
X173783700Y-72858285D02*
X173831319Y-73001142D01*
X173831319Y-73001142D02*
X173831319Y-73096380D01*
X173831319Y-73096380D02*
X173783700Y-73239237D01*
X173783700Y-73239237D02*
X173688461Y-73334475D01*
X173688461Y-73334475D02*
X173593223Y-73382094D01*
X173593223Y-73382094D02*
X173402747Y-73429713D01*
X173402747Y-73429713D02*
X173259890Y-73429713D01*
X173259890Y-73429713D02*
X173069414Y-73382094D01*
X173069414Y-73382094D02*
X172974176Y-73334475D01*
X172974176Y-73334475D02*
X172878938Y-73239237D01*
X172878938Y-73239237D02*
X172831319Y-73096380D01*
X172831319Y-73096380D02*
X172831319Y-73001142D01*
X172831319Y-73001142D02*
X172878938Y-72858285D01*
X172878938Y-72858285D02*
X172926557Y-72810666D01*
X172926557Y-72429713D02*
X172878938Y-72382094D01*
X172878938Y-72382094D02*
X172831319Y-72286856D01*
X172831319Y-72286856D02*
X172831319Y-72048761D01*
X172831319Y-72048761D02*
X172878938Y-71953523D01*
X172878938Y-71953523D02*
X172926557Y-71905904D01*
X172926557Y-71905904D02*
X173021795Y-71858285D01*
X173021795Y-71858285D02*
X173117033Y-71858285D01*
X173117033Y-71858285D02*
X173259890Y-71905904D01*
X173259890Y-71905904D02*
X173831319Y-72477332D01*
X173831319Y-72477332D02*
X173831319Y-71858285D01*
X162506819Y-87979095D02*
X162030628Y-88312428D01*
X162506819Y-88550523D02*
X161506819Y-88550523D01*
X161506819Y-88550523D02*
X161506819Y-88169571D01*
X161506819Y-88169571D02*
X161554438Y-88074333D01*
X161554438Y-88074333D02*
X161602057Y-88026714D01*
X161602057Y-88026714D02*
X161697295Y-87979095D01*
X161697295Y-87979095D02*
X161840152Y-87979095D01*
X161840152Y-87979095D02*
X161935390Y-88026714D01*
X161935390Y-88026714D02*
X161983009Y-88074333D01*
X161983009Y-88074333D02*
X162030628Y-88169571D01*
X162030628Y-88169571D02*
X162030628Y-88550523D01*
X162459200Y-87169571D02*
X162506819Y-87264809D01*
X162506819Y-87264809D02*
X162506819Y-87455285D01*
X162506819Y-87455285D02*
X162459200Y-87550523D01*
X162459200Y-87550523D02*
X162363961Y-87598142D01*
X162363961Y-87598142D02*
X161983009Y-87598142D01*
X161983009Y-87598142D02*
X161887771Y-87550523D01*
X161887771Y-87550523D02*
X161840152Y-87455285D01*
X161840152Y-87455285D02*
X161840152Y-87264809D01*
X161840152Y-87264809D02*
X161887771Y-87169571D01*
X161887771Y-87169571D02*
X161983009Y-87121952D01*
X161983009Y-87121952D02*
X162078247Y-87121952D01*
X162078247Y-87121952D02*
X162173485Y-87598142D01*
X162459200Y-86740999D02*
X162506819Y-86645761D01*
X162506819Y-86645761D02*
X162506819Y-86455285D01*
X162506819Y-86455285D02*
X162459200Y-86360047D01*
X162459200Y-86360047D02*
X162363961Y-86312428D01*
X162363961Y-86312428D02*
X162316342Y-86312428D01*
X162316342Y-86312428D02*
X162221104Y-86360047D01*
X162221104Y-86360047D02*
X162173485Y-86455285D01*
X162173485Y-86455285D02*
X162173485Y-86598142D01*
X162173485Y-86598142D02*
X162125866Y-86693380D01*
X162125866Y-86693380D02*
X162030628Y-86740999D01*
X162030628Y-86740999D02*
X161983009Y-86740999D01*
X161983009Y-86740999D02*
X161887771Y-86693380D01*
X161887771Y-86693380D02*
X161840152Y-86598142D01*
X161840152Y-86598142D02*
X161840152Y-86455285D01*
X161840152Y-86455285D02*
X161887771Y-86360047D01*
X162459200Y-85502904D02*
X162506819Y-85598142D01*
X162506819Y-85598142D02*
X162506819Y-85788618D01*
X162506819Y-85788618D02*
X162459200Y-85883856D01*
X162459200Y-85883856D02*
X162363961Y-85931475D01*
X162363961Y-85931475D02*
X161983009Y-85931475D01*
X161983009Y-85931475D02*
X161887771Y-85883856D01*
X161887771Y-85883856D02*
X161840152Y-85788618D01*
X161840152Y-85788618D02*
X161840152Y-85598142D01*
X161840152Y-85598142D02*
X161887771Y-85502904D01*
X161887771Y-85502904D02*
X161983009Y-85455285D01*
X161983009Y-85455285D02*
X162078247Y-85455285D01*
X162078247Y-85455285D02*
X162173485Y-85931475D01*
X161840152Y-85169570D02*
X161840152Y-84788618D01*
X161506819Y-85026713D02*
X162363961Y-85026713D01*
X162363961Y-85026713D02*
X162459200Y-84979094D01*
X162459200Y-84979094D02*
X162506819Y-84883856D01*
X162506819Y-84883856D02*
X162506819Y-84788618D01*
X170013333Y-59541580D02*
X169965714Y-59589200D01*
X169965714Y-59589200D02*
X169822857Y-59636819D01*
X169822857Y-59636819D02*
X169727619Y-59636819D01*
X169727619Y-59636819D02*
X169584762Y-59589200D01*
X169584762Y-59589200D02*
X169489524Y-59493961D01*
X169489524Y-59493961D02*
X169441905Y-59398723D01*
X169441905Y-59398723D02*
X169394286Y-59208247D01*
X169394286Y-59208247D02*
X169394286Y-59065390D01*
X169394286Y-59065390D02*
X169441905Y-58874914D01*
X169441905Y-58874914D02*
X169489524Y-58779676D01*
X169489524Y-58779676D02*
X169584762Y-58684438D01*
X169584762Y-58684438D02*
X169727619Y-58636819D01*
X169727619Y-58636819D02*
X169822857Y-58636819D01*
X169822857Y-58636819D02*
X169965714Y-58684438D01*
X169965714Y-58684438D02*
X170013333Y-58732057D01*
X170870476Y-58970152D02*
X170870476Y-59636819D01*
X170632381Y-58589200D02*
X170394286Y-59303485D01*
X170394286Y-59303485D02*
X171013333Y-59303485D01*
X178319133Y-82145119D02*
X177985800Y-81668928D01*
X177747705Y-82145119D02*
X177747705Y-81145119D01*
X177747705Y-81145119D02*
X178128657Y-81145119D01*
X178128657Y-81145119D02*
X178223895Y-81192738D01*
X178223895Y-81192738D02*
X178271514Y-81240357D01*
X178271514Y-81240357D02*
X178319133Y-81335595D01*
X178319133Y-81335595D02*
X178319133Y-81478452D01*
X178319133Y-81478452D02*
X178271514Y-81573690D01*
X178271514Y-81573690D02*
X178223895Y-81621309D01*
X178223895Y-81621309D02*
X178128657Y-81668928D01*
X178128657Y-81668928D02*
X177747705Y-81668928D01*
X178652467Y-81145119D02*
X179271514Y-81145119D01*
X179271514Y-81145119D02*
X178938181Y-81526071D01*
X178938181Y-81526071D02*
X179081038Y-81526071D01*
X179081038Y-81526071D02*
X179176276Y-81573690D01*
X179176276Y-81573690D02*
X179223895Y-81621309D01*
X179223895Y-81621309D02*
X179271514Y-81716547D01*
X179271514Y-81716547D02*
X179271514Y-81954642D01*
X179271514Y-81954642D02*
X179223895Y-82049880D01*
X179223895Y-82049880D02*
X179176276Y-82097500D01*
X179176276Y-82097500D02*
X179081038Y-82145119D01*
X179081038Y-82145119D02*
X178795324Y-82145119D01*
X178795324Y-82145119D02*
X178700086Y-82097500D01*
X178700086Y-82097500D02*
X178652467Y-82049880D01*
X180975095Y-87465819D02*
X180975095Y-88275342D01*
X180975095Y-88275342D02*
X181022714Y-88370580D01*
X181022714Y-88370580D02*
X181070333Y-88418200D01*
X181070333Y-88418200D02*
X181165571Y-88465819D01*
X181165571Y-88465819D02*
X181356047Y-88465819D01*
X181356047Y-88465819D02*
X181451285Y-88418200D01*
X181451285Y-88418200D02*
X181498904Y-88370580D01*
X181498904Y-88370580D02*
X181546523Y-88275342D01*
X181546523Y-88275342D02*
X181546523Y-87465819D01*
X181975095Y-87561057D02*
X182022714Y-87513438D01*
X182022714Y-87513438D02*
X182117952Y-87465819D01*
X182117952Y-87465819D02*
X182356047Y-87465819D01*
X182356047Y-87465819D02*
X182451285Y-87513438D01*
X182451285Y-87513438D02*
X182498904Y-87561057D01*
X182498904Y-87561057D02*
X182546523Y-87656295D01*
X182546523Y-87656295D02*
X182546523Y-87751533D01*
X182546523Y-87751533D02*
X182498904Y-87894390D01*
X182498904Y-87894390D02*
X181927476Y-88465819D01*
X181927476Y-88465819D02*
X182546523Y-88465819D01*
X159345333Y-83265180D02*
X159297714Y-83312800D01*
X159297714Y-83312800D02*
X159154857Y-83360419D01*
X159154857Y-83360419D02*
X159059619Y-83360419D01*
X159059619Y-83360419D02*
X158916762Y-83312800D01*
X158916762Y-83312800D02*
X158821524Y-83217561D01*
X158821524Y-83217561D02*
X158773905Y-83122323D01*
X158773905Y-83122323D02*
X158726286Y-82931847D01*
X158726286Y-82931847D02*
X158726286Y-82788990D01*
X158726286Y-82788990D02*
X158773905Y-82598514D01*
X158773905Y-82598514D02*
X158821524Y-82503276D01*
X158821524Y-82503276D02*
X158916762Y-82408038D01*
X158916762Y-82408038D02*
X159059619Y-82360419D01*
X159059619Y-82360419D02*
X159154857Y-82360419D01*
X159154857Y-82360419D02*
X159297714Y-82408038D01*
X159297714Y-82408038D02*
X159345333Y-82455657D01*
X160202476Y-82360419D02*
X160012000Y-82360419D01*
X160012000Y-82360419D02*
X159916762Y-82408038D01*
X159916762Y-82408038D02*
X159869143Y-82455657D01*
X159869143Y-82455657D02*
X159773905Y-82598514D01*
X159773905Y-82598514D02*
X159726286Y-82788990D01*
X159726286Y-82788990D02*
X159726286Y-83169942D01*
X159726286Y-83169942D02*
X159773905Y-83265180D01*
X159773905Y-83265180D02*
X159821524Y-83312800D01*
X159821524Y-83312800D02*
X159916762Y-83360419D01*
X159916762Y-83360419D02*
X160107238Y-83360419D01*
X160107238Y-83360419D02*
X160202476Y-83312800D01*
X160202476Y-83312800D02*
X160250095Y-83265180D01*
X160250095Y-83265180D02*
X160297714Y-83169942D01*
X160297714Y-83169942D02*
X160297714Y-82931847D01*
X160297714Y-82931847D02*
X160250095Y-82836609D01*
X160250095Y-82836609D02*
X160202476Y-82788990D01*
X160202476Y-82788990D02*
X160107238Y-82741371D01*
X160107238Y-82741371D02*
X159916762Y-82741371D01*
X159916762Y-82741371D02*
X159821524Y-82788990D01*
X159821524Y-82788990D02*
X159773905Y-82836609D01*
X159773905Y-82836609D02*
X159726286Y-82931847D01*
X205312261Y-68622057D02*
X205217023Y-68574438D01*
X205217023Y-68574438D02*
X205121785Y-68479200D01*
X205121785Y-68479200D02*
X204978928Y-68336342D01*
X204978928Y-68336342D02*
X204883690Y-68288723D01*
X204883690Y-68288723D02*
X204788452Y-68288723D01*
X204836071Y-68526819D02*
X204740833Y-68479200D01*
X204740833Y-68479200D02*
X204645595Y-68383961D01*
X204645595Y-68383961D02*
X204597976Y-68193485D01*
X204597976Y-68193485D02*
X204597976Y-67860152D01*
X204597976Y-67860152D02*
X204645595Y-67669676D01*
X204645595Y-67669676D02*
X204740833Y-67574438D01*
X204740833Y-67574438D02*
X204836071Y-67526819D01*
X204836071Y-67526819D02*
X205026547Y-67526819D01*
X205026547Y-67526819D02*
X205121785Y-67574438D01*
X205121785Y-67574438D02*
X205217023Y-67669676D01*
X205217023Y-67669676D02*
X205264642Y-67860152D01*
X205264642Y-67860152D02*
X205264642Y-68193485D01*
X205264642Y-68193485D02*
X205217023Y-68383961D01*
X205217023Y-68383961D02*
X205121785Y-68479200D01*
X205121785Y-68479200D02*
X205026547Y-68526819D01*
X205026547Y-68526819D02*
X204836071Y-68526819D01*
X206217023Y-68526819D02*
X205645595Y-68526819D01*
X205931309Y-68526819D02*
X205931309Y-67526819D01*
X205931309Y-67526819D02*
X205836071Y-67669676D01*
X205836071Y-67669676D02*
X205740833Y-67764914D01*
X205740833Y-67764914D02*
X205645595Y-67812533D01*
D13*
%TO.C,TP2*%
X195924400Y-68021200D02*
G75*
G02*
X194524400Y-68021200I-700000J0D01*
G01*
X194524400Y-68021200D02*
G75*
G02*
X195924400Y-68021200I700000J0D01*
G01*
%TO.C,U3*%
X153898600Y-63220600D02*
X155803600Y-63220600D01*
X153898600Y-81254600D02*
X153898600Y-63220600D01*
X155803600Y-81254600D02*
X153898600Y-81254600D01*
X170027600Y-81254600D02*
X171932600Y-81254600D01*
X171932600Y-63220600D02*
X170027600Y-63220600D01*
X171932600Y-81254600D02*
X171932600Y-63220600D01*
X170040600Y-82012600D02*
X170040600Y-81512600D01*
X170540600Y-81512600D01*
X170040600Y-82012600D01*
G36*
X170040600Y-82012600D02*
G01*
X170040600Y-81512600D01*
X170540600Y-81512600D01*
X170040600Y-82012600D01*
G37*
%TO.C,C3*%
X172547000Y-60253000D02*
X172547000Y-64338000D01*
X174417000Y-60253000D02*
X172547000Y-60253000D01*
X174417000Y-64338000D02*
X174417000Y-60253000D01*
%TO.C,R7*%
X201772436Y-73004000D02*
X203226564Y-73004000D01*
X201772436Y-74824000D02*
X203226564Y-74824000D01*
%TO.C,JP2*%
X164970000Y-61006000D02*
X164970000Y-60406000D01*
X165670000Y-59706000D02*
X167070000Y-59706000D01*
X167070000Y-61706000D02*
X165670000Y-61706000D01*
X167770000Y-60406000D02*
X167770000Y-61006000D01*
X164970000Y-60406000D02*
G75*
G02*
X165670000Y-59706000I699999J1D01*
G01*
X165670000Y-61706000D02*
G75*
G02*
X164970000Y-61006000I-1J699999D01*
G01*
X167070000Y-59706000D02*
G75*
G02*
X167770000Y-60406000I0J-700000D01*
G01*
X167770000Y-61006000D02*
G75*
G02*
X167070000Y-61706000I-700000J0D01*
G01*
%TO.C,U1*%
X174921400Y-68886300D02*
X174921400Y-70886300D01*
X177141400Y-68886300D02*
X177141400Y-70886300D01*
X177321400Y-68646300D02*
X177041400Y-68646300D01*
X177041400Y-68366300D01*
X177321400Y-68646300D01*
G36*
X177321400Y-68646300D02*
G01*
X177041400Y-68646300D01*
X177041400Y-68366300D01*
X177321400Y-68646300D01*
G37*
%TO.C,R8*%
X161578936Y-59796000D02*
X163033064Y-59796000D01*
X161578936Y-61616000D02*
X163033064Y-61616000D01*
%TO.C,R4*%
X173461000Y-76927064D02*
X173461000Y-75472936D01*
X175281000Y-76927064D02*
X175281000Y-75472936D01*
%TO.C,TP3*%
X148520000Y-85090000D02*
G75*
G02*
X146120000Y-85090000I-1200000J0D01*
G01*
X146120000Y-85090000D02*
G75*
G02*
X148520000Y-85090000I1200000J0D01*
G01*
%TO.C,R6*%
X196956000Y-76673064D02*
X196956000Y-75218936D01*
X198776000Y-76673064D02*
X198776000Y-75218936D01*
%TO.C,D1*%
X178220000Y-69428000D02*
X178220000Y-66768000D01*
X178220000Y-69428000D02*
X179920000Y-69428000D01*
X179920000Y-69428000D02*
X179920000Y-66768000D01*
%TO.C,R1*%
X178541000Y-72551936D02*
X178541000Y-74006064D01*
X180361000Y-72551936D02*
X180361000Y-74006064D01*
%TO.C,J2*%
X176276000Y-59890000D02*
X176276000Y-59630000D01*
X176276000Y-63940000D02*
X176276000Y-62170000D01*
X176276000Y-63940000D02*
X176656000Y-63940000D01*
X183896000Y-59630000D02*
X183896000Y-59890000D01*
X183896000Y-62170000D02*
X183896000Y-63940000D01*
X183896000Y-63940000D02*
X183516000Y-63940000D01*
D10*
%TO.C,J1*%
X180985000Y-70475000D02*
X180985000Y-70475000D01*
X181085000Y-70475000D02*
X181085000Y-70475000D01*
D14*
X183085000Y-66225000D02*
X183085000Y-68450000D01*
X183085000Y-71250000D02*
X183085000Y-73475000D01*
X183085000Y-73475000D02*
X183385000Y-73475000D01*
X183385000Y-66225000D02*
X183085000Y-66225000D01*
X186985000Y-66225000D02*
X187285000Y-66225000D01*
X187285000Y-66225000D02*
X187285000Y-73475000D01*
X187285000Y-73475000D02*
X186985000Y-73475000D01*
D10*
X180985000Y-70475000D02*
G75*
G02*
X181085000Y-70475000I50000J0D01*
G01*
X181085000Y-70475000D02*
G75*
G02*
X180985000Y-70475000I-50000J0D01*
G01*
D13*
%TO.C,C7*%
X175065750Y-87023752D02*
X175065750Y-86501248D01*
X176535750Y-87023752D02*
X176535750Y-86501248D01*
D15*
%TO.C,AE1*%
X168338500Y-85524749D02*
X168338500Y-87093651D01*
X170192700Y-87093651D02*
X170192700Y-85524749D01*
D13*
%TO.C,J6*%
X192726000Y-74930000D02*
X192726000Y-69790000D01*
X195386000Y-69790000D02*
X192726000Y-69790000D01*
X195386000Y-74930000D02*
X192726000Y-74930000D01*
X195386000Y-74930000D02*
X195386000Y-69790000D01*
X195386000Y-76200000D02*
X195386000Y-77530000D01*
X195386000Y-77530000D02*
X194056000Y-77530000D01*
%TO.C,R5*%
X196956000Y-71847064D02*
X196956000Y-70392936D01*
X198776000Y-71847064D02*
X198776000Y-70392936D01*
%TO.C,C5*%
X202176748Y-75973000D02*
X202699252Y-75973000D01*
X202176748Y-77443000D02*
X202699252Y-77443000D01*
%TO.C,D2*%
X200064000Y-72222000D02*
X200064000Y-69562000D01*
X200064000Y-72222000D02*
X201764000Y-72222000D01*
X201764000Y-72222000D02*
X201764000Y-69562000D01*
D15*
%TO.C,J5*%
X181927500Y-75946000D02*
X181927500Y-78528860D01*
X181927500Y-82507140D02*
X181927500Y-85090000D01*
X181927500Y-85090000D02*
X183323159Y-85090000D01*
X183323159Y-75946000D02*
X181927500Y-75946000D01*
X186985839Y-85090000D02*
X187388501Y-85090000D01*
X187388501Y-75946000D02*
X186985839Y-75946000D01*
X187388501Y-85090000D02*
X187388501Y-75946000D01*
D13*
%TO.C,TP1*%
X195721200Y-79705200D02*
G75*
G02*
X194321200Y-79705200I-700000J0D01*
G01*
X194321200Y-79705200D02*
G75*
G02*
X195721200Y-79705200I700000J0D01*
G01*
%TO.C,R9*%
X153903000Y-86579064D02*
X153903000Y-85124936D01*
X155723000Y-86579064D02*
X155723000Y-85124936D01*
%TO.C,C1*%
X175655248Y-66448000D02*
X176177752Y-66448000D01*
X175655248Y-67918000D02*
X176177752Y-67918000D01*
%TO.C,R2*%
X178541000Y-78832064D02*
X178541000Y-77377936D01*
X180361000Y-78832064D02*
X180361000Y-77377936D01*
D10*
%TO.C,AE2*%
X142370800Y-66914000D02*
X152370800Y-66914000D01*
X142370800Y-80914000D02*
X142370800Y-66914000D01*
X152370800Y-67414000D02*
X152370800Y-66914000D01*
X152370800Y-77414000D02*
X152370800Y-70414000D01*
X152370800Y-80914000D02*
X142370800Y-80914000D01*
X152370800Y-80914000D02*
X152370800Y-80414000D01*
D13*
%TO.C,C2*%
X175706048Y-71985200D02*
X176228552Y-71985200D01*
X175706048Y-73455200D02*
X176228552Y-73455200D01*
%TO.C,JP1*%
X158112000Y-87422000D02*
X158112000Y-86822000D01*
X158812000Y-86122000D02*
X160212000Y-86122000D01*
X160212000Y-88122000D02*
X158812000Y-88122000D01*
X160912000Y-86822000D02*
X160912000Y-87422000D01*
X158112000Y-86822000D02*
G75*
G02*
X158812000Y-86122000I700000J0D01*
G01*
X158812000Y-88122000D02*
G75*
G02*
X158112000Y-87422000I0J700000D01*
G01*
X160212000Y-86122000D02*
G75*
G02*
X160912000Y-86822000I1J-699999D01*
G01*
X160912000Y-87422000D02*
G75*
G02*
X160212000Y-88122000I-699999J-1D01*
G01*
%TO.C,C4*%
X170441252Y-59971000D02*
X169918748Y-59971000D01*
X170441252Y-61441000D02*
X169918748Y-61441000D01*
%TO.C,R3*%
X177758736Y-82579800D02*
X179212864Y-82579800D01*
X177758736Y-84399800D02*
X179212864Y-84399800D01*
%TO.C,U2*%
X178087000Y-85487000D02*
X178087000Y-87487000D01*
X180307000Y-85487000D02*
X180307000Y-87487000D01*
X180297000Y-85137000D02*
X180017000Y-85137000D01*
X180017000Y-84857000D01*
X180297000Y-85137000D01*
G36*
X180297000Y-85137000D02*
G01*
X180017000Y-85137000D01*
X180017000Y-84857000D01*
X180297000Y-85137000D01*
G37*
%TO.C,C6*%
X159773252Y-83847000D02*
X159250748Y-83847000D01*
X159773252Y-85317000D02*
X159250748Y-85317000D01*
%TO.C,Q1*%
X205407500Y-69306000D02*
X204757500Y-69306000D01*
X205407500Y-69306000D02*
X206057500Y-69306000D01*
X205407500Y-72426000D02*
X204757500Y-72426000D01*
X205407500Y-72426000D02*
X206057500Y-72426000D01*
X206810000Y-72706000D02*
X206330000Y-72706000D01*
X206570000Y-72376000D01*
X206810000Y-72706000D01*
G36*
X206810000Y-72706000D02*
G01*
X206330000Y-72706000D01*
X206570000Y-72376000D01*
X206810000Y-72706000D01*
G37*
%TD*%
M02*
