M48
; DRILL file {KiCad 8.0.2} date 2024-06-14T11:54:11+0200
; FORMAT={-:-/ absolute / inch / decimal}
; #@! TF.CreationDate,2024-06-14T11:54:11+02:00
; #@! TF.GenerationSoftware,Kicad,Pcbnew,8.0.2
; #@! TF.FileFunction,MixedPlating,1,2
FMAT,2
INCH
; #@! TA.AperFunction,Plated,PTH,ViaDrill
T1C0.0118
; #@! TA.AperFunction,Plated,PTH,ComponentDrill
T2C0.0394
%
G90
G05
T1
X6.0Y-3.3
X6.0Y-3.35
X6.0Y-3.38
X6.0Y-3.41
X6.0Y-3.44
X6.0Y-3.47
X6.01Y-3.01
X6.01Y-3.04
X6.01Y-3.07
X6.01Y-3.1
X6.01Y-3.13
X6.01Y-3.16
X6.01Y-3.19
X6.02Y-3.22
X6.02Y-3.32
X6.04Y-3.02
X6.04Y-3.24
X6.04Y-3.34
X6.04Y-3.47
X6.05Y-3.42
X6.057Y-2.4269
X6.057Y-2.4962
X6.057Y-2.5656
X6.057Y-2.635
X6.057Y-2.7044
X6.057Y-2.775
X6.057Y-2.92
X6.057Y-2.955
X6.06Y-2.82
X6.06Y-2.99
X6.06Y-3.1
X6.06Y-3.26
X6.06Y-3.36
X6.07Y-3.17
X6.07Y-3.47
X6.08Y-2.8
X6.08Y-3.28
X6.082Y-2.895
X6.086Y-2.6
X6.087Y-2.395
X6.087Y-2.67
X6.087Y-2.74
X6.09Y-3.38
X6.096Y-2.457
X6.1Y-2.78
X6.1Y-3.04
X6.1Y-3.3
X6.1Y-3.47
X6.102Y-2.875
X6.11Y-2.95
X6.11Y-3.12
X6.11Y-3.21
X6.117Y-2.521
X6.117Y-2.55
X6.12Y-2.76
X6.12Y-3.38
X6.12Y-3.42
X6.122Y-2.855
X6.123Y-2.489
X6.126Y-2.577
X6.126Y-2.61
X6.126Y-2.64
X6.126Y-2.67
X6.126Y-2.7
X6.126Y-2.73
X6.13Y-3.31
X6.13Y-3.47
X6.14Y-3.18
X6.142Y-2.835
X6.145Y-2.444
X6.15Y-3.38
X6.16Y-2.92
X6.16Y-2.99
X6.16Y-3.31
X6.16Y-3.47
X6.162Y-2.39
X6.162Y-2.815
X6.17Y-3.07
X6.17Y-3.15
X6.18Y-3.38
X6.182Y-2.47
X6.19Y-3.31
X6.19Y-3.42
X6.19Y-3.47
X6.192Y-2.42
X6.193Y-2.602
X6.193Y-2.632
X6.193Y-2.662
X6.193Y-2.692
X6.193Y-2.722
X6.193Y-2.752
X6.193Y-2.782
X6.2Y-3.12
X6.21Y-2.88
X6.21Y-2.95
X6.21Y-3.38
X6.218Y-2.454
X6.22Y-3.02
X6.22Y-3.31
X6.22Y-3.47
X6.222Y-2.39
X6.227Y-2.6758
X6.227Y-2.7367
X6.227Y-2.81
X6.228Y-2.628
X6.23Y-3.09
X6.24Y-3.38
X6.25Y-3.31
X6.25Y-3.47
X6.257Y-2.595
X6.26Y-3.42
X6.267Y-2.6417
X6.267Y-2.705
X6.267Y-2.7683
X6.27Y-3.07
X6.27Y-3.38
X6.28Y-2.82
X6.28Y-2.86
X6.28Y-2.9
X6.28Y-2.94
X6.28Y-2.98
X6.28Y-3.02
X6.28Y-3.31
X6.28Y-3.47
X6.298Y-2.384
X6.3Y-3.38
X6.31Y-3.31
X6.31Y-3.47
X6.33Y-3.38
X6.34Y-3.31
X6.34Y-3.42
X6.34Y-3.47
X6.36Y-3.38
X6.37Y-3.31
X6.37Y-3.47
X6.39Y-3.38
X6.4Y-3.31
X6.4Y-3.47
X6.41Y-3.18
X6.42Y-3.38
X6.42Y-3.42
X6.43Y-3.31
X6.43Y-3.47
X6.45Y-3.18
X6.45Y-3.38
X6.46Y-3.31
X6.46Y-3.47
X6.48Y-3.38
X6.49Y-3.18
X6.49Y-3.31
X6.49Y-3.47
X6.51Y-3.38
X6.51Y-3.42
X6.52Y-3.31
X6.52Y-3.47
X6.53Y-3.18
X6.54Y-3.38
X6.55Y-3.31
X6.55Y-3.47
X6.57Y-3.18
X6.57Y-3.38
X6.58Y-3.31
X6.58Y-3.47
X6.6Y-3.38
X6.6Y-3.42
X6.61Y-3.17
X6.61Y-3.31
X6.61Y-3.47
X6.612Y-2.605
X6.63Y-3.38
X6.64Y-3.47
X6.65Y-3.18
X6.66Y-3.37
X6.67Y-3.47
X6.68Y-3.35
X6.69Y-3.18
X6.7Y-3.22
X6.7Y-3.29
X6.7Y-3.32
X6.7Y-3.38
X6.7Y-3.41
X6.7Y-3.44
X6.7Y-3.47
X6.737Y-2.4843
X6.74Y-3.18
X6.785Y-3.135
X6.79Y-3.45
X6.81Y-2.945
X6.81Y-3.005
X6.827Y-2.515
X6.9028Y-2.735
X6.94Y-2.4676
X7.0Y-3.44
X7.04Y-2.975
X7.175Y-3.075
X7.234Y-2.726
X7.25Y-2.4976
X7.26Y-3.435
X7.2648Y-2.364
X7.85Y-2.94
X7.98Y-2.79
X8.1Y-3.02
T2
X7.64Y-2.8
X7.64Y-2.9
X7.64Y-3.0
M30
