%TF.GenerationSoftware,KiCad,Pcbnew,8.0.2*%
%TF.CreationDate,2024-06-28T10:12:45+02:00*%
%TF.ProjectId,LoraSensor,4c6f7261-5365-46e7-936f-722e6b696361,rev?*%
%TF.SameCoordinates,Original*%
%TF.FileFunction,Soldermask,Top*%
%TF.FilePolarity,Negative*%
%FSLAX46Y46*%
G04 Gerber Fmt 4.6, Leading zero omitted, Abs format (unit mm)*
G04 Created by KiCad (PCBNEW 8.0.2) date 2024-06-28 10:12:45*
%MOMM*%
%LPD*%
G01*
G04 APERTURE LIST*
G04 Aperture macros list*
%AMRoundRect*
0 Rectangle with rounded corners*
0 $1 Rounding radius*
0 $2 $3 $4 $5 $6 $7 $8 $9 X,Y pos of 4 corners*
0 Add a 4 corners polygon primitive as box body*
4,1,4,$2,$3,$4,$5,$6,$7,$8,$9,$2,$3,0*
0 Add four circle primitives for the rounded corners*
1,1,$1+$1,$2,$3*
1,1,$1+$1,$4,$5*
1,1,$1+$1,$6,$7*
1,1,$1+$1,$8,$9*
0 Add four rect primitives between the rounded corners*
20,1,$1+$1,$2,$3,$4,$5,0*
20,1,$1+$1,$4,$5,$6,$7,0*
20,1,$1+$1,$6,$7,$8,$9,0*
20,1,$1+$1,$8,$9,$2,$3,0*%
%AMFreePoly0*
4,1,19,0.500000,-0.750000,0.000000,-0.750000,0.000000,-0.744911,-0.071157,-0.744911,-0.207708,-0.704816,-0.327430,-0.627875,-0.420627,-0.520320,-0.479746,-0.390866,-0.500000,-0.250000,-0.500000,0.250000,-0.479746,0.390866,-0.420627,0.520320,-0.327430,0.627875,-0.207708,0.704816,-0.071157,0.744911,0.000000,0.744911,0.000000,0.750000,0.500000,0.750000,0.500000,-0.750000,0.500000,-0.750000,
$1*%
%AMFreePoly1*
4,1,19,0.000000,0.744911,0.071157,0.744911,0.207708,0.704816,0.327430,0.627875,0.420627,0.520320,0.479746,0.390866,0.500000,0.250000,0.500000,-0.250000,0.479746,-0.390866,0.420627,-0.520320,0.327430,-0.627875,0.207708,-0.704816,0.071157,-0.744911,0.000000,-0.744911,0.000000,-0.750000,-0.500000,-0.750000,-0.500000,0.750000,0.000000,0.750000,0.000000,0.744911,0.000000,0.744911,
$1*%
G04 Aperture macros list end*
%ADD10RoundRect,0.250000X0.312500X0.625000X-0.312500X0.625000X-0.312500X-0.625000X0.312500X-0.625000X0*%
%ADD11RoundRect,0.250000X0.625000X-0.312500X0.625000X0.312500X-0.625000X0.312500X-0.625000X-0.312500X0*%
%ADD12RoundRect,0.250000X0.475000X-0.337500X0.475000X0.337500X-0.475000X0.337500X-0.475000X-0.337500X0*%
%ADD13RoundRect,0.250000X0.250000X0.500000X-0.250000X0.500000X-0.250000X-0.500000X0.250000X-0.500000X0*%
%ADD14RoundRect,0.250000X-0.425000X0.537500X-0.425000X-0.537500X0.425000X-0.537500X0.425000X0.537500X0*%
%ADD15RoundRect,0.250000X-0.312500X-0.625000X0.312500X-0.625000X0.312500X0.625000X-0.312500X0.625000X0*%
%ADD16FreePoly0,270.000000*%
%ADD17FreePoly1,270.000000*%
%ADD18RoundRect,0.075000X0.075000X-0.150000X0.075000X0.150000X-0.075000X0.150000X-0.075000X-0.150000X0*%
%ADD19R,1.600000X1.000000*%
%ADD20RoundRect,0.250000X-0.625000X0.312500X-0.625000X-0.312500X0.625000X-0.312500X0.625000X0.312500X0*%
%ADD21RoundRect,0.112500X0.112500X-0.187500X0.112500X0.187500X-0.112500X0.187500X-0.112500X-0.187500X0*%
%ADD22R,0.450000X1.380000*%
%ADD23R,1.650000X1.300000*%
%ADD24R,1.425000X1.550000*%
%ADD25R,1.800000X1.900000*%
%ADD26R,1.000000X1.900000*%
%ADD27R,3.000000X2.100000*%
%ADD28R,1.600000X0.800000*%
%ADD29RoundRect,0.250000X-0.475000X0.337500X-0.475000X-0.337500X0.475000X-0.337500X0.475000X0.337500X0*%
%ADD30R,0.863600X1.600200*%
%ADD31RoundRect,0.349250X-0.412750X-0.349250X0.412750X-0.349250X0.412750X0.349250X-0.412750X0.349250X0*%
%ADD32R,2.500000X2.000000*%
%ADD33FreePoly0,90.000000*%
%ADD34FreePoly1,90.000000*%
%ADD35RoundRect,0.250000X0.337500X0.475000X-0.337500X0.475000X-0.337500X-0.475000X0.337500X-0.475000X0*%
%ADD36RoundRect,0.087500X-0.087500X0.187500X-0.087500X-0.187500X0.087500X-0.187500X0.087500X0.187500X0*%
%ADD37RoundRect,0.175000X-0.625000X0.175000X-0.625000X-0.175000X0.625000X-0.175000X0.625000X0.175000X0*%
%ADD38RoundRect,0.150000X-0.587500X-0.150000X0.587500X-0.150000X0.587500X0.150000X-0.587500X0.150000X0*%
G04 APERTURE END LIST*
D10*
%TO.C,R10*%
X158485300Y-61595000D03*
X155560300Y-61595000D03*
%TD*%
D11*
%TO.C,R3*%
X176657000Y-82361500D03*
X176657000Y-79436500D03*
%TD*%
D12*
%TO.C,C8*%
X176860200Y-86279900D03*
X176860200Y-84204900D03*
%TD*%
D13*
%TO.C,U3*%
X169189400Y-82270600D03*
X167919400Y-82270600D03*
X166649400Y-82270600D03*
X165379400Y-82270600D03*
X164109400Y-82270600D03*
X162839400Y-82270600D03*
X161569400Y-82270600D03*
X160299400Y-82270600D03*
X159029400Y-82270600D03*
X157759400Y-82270600D03*
X156489400Y-82270600D03*
X169189400Y-64490600D03*
X167919400Y-64490600D03*
X166649400Y-64490600D03*
X165379400Y-64490600D03*
X164109400Y-64490600D03*
X162839400Y-64490600D03*
X161569400Y-64490600D03*
X160299400Y-64490600D03*
X159029400Y-64490600D03*
X157759400Y-64490600D03*
X156489400Y-64490600D03*
%TD*%
D14*
%TO.C,C3*%
X173405800Y-62443500D03*
X173405800Y-65318500D03*
%TD*%
D15*
%TO.C,R7*%
X181925500Y-67056000D03*
X184850500Y-67056000D03*
%TD*%
D16*
%TO.C,JP2*%
X166293800Y-61173600D03*
D17*
X166293800Y-62473600D03*
%TD*%
D18*
%TO.C,U1*%
X175895000Y-70276000D03*
X176545000Y-70276000D03*
X177195000Y-70276000D03*
X177195000Y-68326000D03*
X176545000Y-68326000D03*
X175895000Y-68326000D03*
D19*
X176545000Y-69301000D03*
%TD*%
D15*
%TO.C,R8*%
X160767300Y-61849000D03*
X163692300Y-61849000D03*
%TD*%
D11*
%TO.C,R6*%
X182372000Y-74868500D03*
X182372000Y-71943500D03*
%TD*%
D20*
%TO.C,R4*%
X173609000Y-74102500D03*
X173609000Y-77027500D03*
%TD*%
D21*
%TO.C,D1*%
X186182000Y-63026000D03*
X186182000Y-60926000D03*
%TD*%
D20*
%TO.C,R1*%
X179324000Y-79436500D03*
X179324000Y-82361500D03*
%TD*%
D22*
%TO.C,J2*%
X181386000Y-63883600D03*
X180736000Y-63883600D03*
X180086000Y-63883600D03*
X179436000Y-63883600D03*
X178786000Y-63883600D03*
D23*
X183461000Y-61223600D03*
D24*
X182573500Y-63798600D03*
D25*
X181236000Y-61223600D03*
D26*
X178536000Y-61223600D03*
D24*
X177598500Y-63798600D03*
D23*
X176711000Y-61223600D03*
%TD*%
D27*
%TO.C,J1*%
X185185000Y-77698600D03*
X185185000Y-84048600D03*
D28*
X182285000Y-81498600D03*
X182285000Y-80248600D03*
%TD*%
D29*
%TO.C,C7*%
X178812750Y-74436500D03*
X178812750Y-76511500D03*
%TD*%
D30*
%TO.C,AE1*%
X150266201Y-82397600D03*
X147218599Y-82397600D03*
%TD*%
D15*
%TO.C,R5*%
X181925500Y-69469000D03*
X184850500Y-69469000D03*
%TD*%
D12*
%TO.C,C5*%
X185039000Y-74189500D03*
X185039000Y-72114500D03*
%TD*%
D21*
%TO.C,D2*%
X187579000Y-73567000D03*
X187579000Y-71467000D03*
%TD*%
D31*
%TO.C,SW1*%
X181610000Y-87249000D03*
X186610000Y-87249000D03*
%TD*%
D11*
%TO.C,R9*%
X174244000Y-82361500D03*
X174244000Y-79436500D03*
%TD*%
D29*
%TO.C,C1*%
X173859000Y-68390500D03*
X173859000Y-70465500D03*
%TD*%
D11*
%TO.C,R2*%
X179324000Y-87314500D03*
X179324000Y-84389500D03*
%TD*%
D32*
%TO.C,AE2*%
X151978000Y-73400600D03*
X151978000Y-63200600D03*
%TD*%
D12*
%TO.C,C2*%
X178973000Y-70281501D03*
X178973000Y-68206501D03*
%TD*%
D33*
%TO.C,JP1*%
X174320200Y-85994000D03*
D34*
X174320200Y-84694000D03*
%TD*%
D35*
%TO.C,C4*%
X171141300Y-61849000D03*
X169066300Y-61849000D03*
%TD*%
D36*
%TO.C,U2*%
X176645750Y-74549000D03*
X175645750Y-74549000D03*
X175645750Y-76399000D03*
X176645750Y-76399000D03*
D37*
X176145750Y-75474000D03*
%TD*%
D12*
%TO.C,C6*%
X171831000Y-86000500D03*
X171831000Y-83925500D03*
%TD*%
D38*
%TO.C,Q1*%
X187022500Y-67249000D03*
X187022500Y-69149000D03*
X188897500Y-68199000D03*
%TD*%
M02*
