%TF.GenerationSoftware,KiCad,Pcbnew,8.0.2*%
%TF.CreationDate,2024-06-28T10:12:45+02:00*%
%TF.ProjectId,LoraSensor,4c6f7261-5365-46e7-936f-722e6b696361,rev?*%
%TF.SameCoordinates,Original*%
%TF.FileFunction,Copper,L1,Top*%
%TF.FilePolarity,Positive*%
%FSLAX46Y46*%
G04 Gerber Fmt 4.6, Leading zero omitted, Abs format (unit mm)*
G04 Created by KiCad (PCBNEW 8.0.2) date 2024-06-28 10:12:45*
%MOMM*%
%LPD*%
G01*
G04 APERTURE LIST*
G04 Aperture macros list*
%AMRoundRect*
0 Rectangle with rounded corners*
0 $1 Rounding radius*
0 $2 $3 $4 $5 $6 $7 $8 $9 X,Y pos of 4 corners*
0 Add a 4 corners polygon primitive as box body*
4,1,4,$2,$3,$4,$5,$6,$7,$8,$9,$2,$3,0*
0 Add four circle primitives for the rounded corners*
1,1,$1+$1,$2,$3*
1,1,$1+$1,$4,$5*
1,1,$1+$1,$6,$7*
1,1,$1+$1,$8,$9*
0 Add four rect primitives between the rounded corners*
20,1,$1+$1,$2,$3,$4,$5,0*
20,1,$1+$1,$4,$5,$6,$7,0*
20,1,$1+$1,$6,$7,$8,$9,0*
20,1,$1+$1,$8,$9,$2,$3,0*%
%AMFreePoly0*
4,1,19,0.500000,-0.750000,0.000000,-0.750000,0.000000,-0.744911,-0.071157,-0.744911,-0.207708,-0.704816,-0.327430,-0.627875,-0.420627,-0.520320,-0.479746,-0.390866,-0.500000,-0.250000,-0.500000,0.250000,-0.479746,0.390866,-0.420627,0.520320,-0.327430,0.627875,-0.207708,0.704816,-0.071157,0.744911,0.000000,0.744911,0.000000,0.750000,0.500000,0.750000,0.500000,-0.750000,0.500000,-0.750000,
$1*%
%AMFreePoly1*
4,1,19,0.000000,0.744911,0.071157,0.744911,0.207708,0.704816,0.327430,0.627875,0.420627,0.520320,0.479746,0.390866,0.500000,0.250000,0.500000,-0.250000,0.479746,-0.390866,0.420627,-0.520320,0.327430,-0.627875,0.207708,-0.704816,0.071157,-0.744911,0.000000,-0.744911,0.000000,-0.750000,-0.500000,-0.750000,-0.500000,0.750000,0.000000,0.750000,0.000000,0.744911,0.000000,0.744911,
$1*%
G04 Aperture macros list end*
%TA.AperFunction,SMDPad,CuDef*%
%ADD10RoundRect,0.250000X0.312500X0.625000X-0.312500X0.625000X-0.312500X-0.625000X0.312500X-0.625000X0*%
%TD*%
%TA.AperFunction,SMDPad,CuDef*%
%ADD11RoundRect,0.250000X0.625000X-0.312500X0.625000X0.312500X-0.625000X0.312500X-0.625000X-0.312500X0*%
%TD*%
%TA.AperFunction,SMDPad,CuDef*%
%ADD12RoundRect,0.250000X0.475000X-0.337500X0.475000X0.337500X-0.475000X0.337500X-0.475000X-0.337500X0*%
%TD*%
%TA.AperFunction,SMDPad,CuDef*%
%ADD13RoundRect,0.250000X0.250000X0.500000X-0.250000X0.500000X-0.250000X-0.500000X0.250000X-0.500000X0*%
%TD*%
%TA.AperFunction,SMDPad,CuDef*%
%ADD14RoundRect,0.250000X-0.425000X0.537500X-0.425000X-0.537500X0.425000X-0.537500X0.425000X0.537500X0*%
%TD*%
%TA.AperFunction,SMDPad,CuDef*%
%ADD15RoundRect,0.250000X-0.312500X-0.625000X0.312500X-0.625000X0.312500X0.625000X-0.312500X0.625000X0*%
%TD*%
%TA.AperFunction,SMDPad,CuDef*%
%ADD16FreePoly0,270.000000*%
%TD*%
%TA.AperFunction,SMDPad,CuDef*%
%ADD17FreePoly1,270.000000*%
%TD*%
%TA.AperFunction,SMDPad,CuDef*%
%ADD18RoundRect,0.075000X0.075000X-0.150000X0.075000X0.150000X-0.075000X0.150000X-0.075000X-0.150000X0*%
%TD*%
%TA.AperFunction,HeatsinkPad*%
%ADD19R,1.600000X1.000000*%
%TD*%
%TA.AperFunction,SMDPad,CuDef*%
%ADD20RoundRect,0.250000X-0.625000X0.312500X-0.625000X-0.312500X0.625000X-0.312500X0.625000X0.312500X0*%
%TD*%
%TA.AperFunction,SMDPad,CuDef*%
%ADD21RoundRect,0.112500X0.112500X-0.187500X0.112500X0.187500X-0.112500X0.187500X-0.112500X-0.187500X0*%
%TD*%
%TA.AperFunction,SMDPad,CuDef*%
%ADD22R,0.450000X1.380000*%
%TD*%
%TA.AperFunction,SMDPad,CuDef*%
%ADD23R,1.650000X1.300000*%
%TD*%
%TA.AperFunction,SMDPad,CuDef*%
%ADD24R,1.425000X1.550000*%
%TD*%
%TA.AperFunction,SMDPad,CuDef*%
%ADD25R,1.800000X1.900000*%
%TD*%
%TA.AperFunction,SMDPad,CuDef*%
%ADD26R,1.000000X1.900000*%
%TD*%
%TA.AperFunction,SMDPad,CuDef*%
%ADD27R,3.000000X2.100000*%
%TD*%
%TA.AperFunction,SMDPad,CuDef*%
%ADD28R,1.600000X0.800000*%
%TD*%
%TA.AperFunction,SMDPad,CuDef*%
%ADD29RoundRect,0.250000X-0.475000X0.337500X-0.475000X-0.337500X0.475000X-0.337500X0.475000X0.337500X0*%
%TD*%
%TA.AperFunction,SMDPad,CuDef*%
%ADD30R,0.863600X1.600200*%
%TD*%
%TA.AperFunction,SMDPad,CuDef*%
%ADD31RoundRect,0.349250X-0.412750X-0.349250X0.412750X-0.349250X0.412750X0.349250X-0.412750X0.349250X0*%
%TD*%
%TA.AperFunction,SMDPad,CuDef*%
%ADD32R,2.500000X2.000000*%
%TD*%
%TA.AperFunction,SMDPad,CuDef*%
%ADD33O,60.000000X10.000000*%
%TD*%
%TA.AperFunction,SMDPad,CuDef*%
%ADD34FreePoly0,90.000000*%
%TD*%
%TA.AperFunction,SMDPad,CuDef*%
%ADD35FreePoly1,90.000000*%
%TD*%
%TA.AperFunction,SMDPad,CuDef*%
%ADD36RoundRect,0.250000X0.337500X0.475000X-0.337500X0.475000X-0.337500X-0.475000X0.337500X-0.475000X0*%
%TD*%
%TA.AperFunction,SMDPad,CuDef*%
%ADD37RoundRect,0.087500X-0.087500X0.187500X-0.087500X-0.187500X0.087500X-0.187500X0.087500X0.187500X0*%
%TD*%
%TA.AperFunction,SMDPad,CuDef*%
%ADD38RoundRect,0.175000X-0.625000X0.175000X-0.625000X-0.175000X0.625000X-0.175000X0.625000X0.175000X0*%
%TD*%
%TA.AperFunction,SMDPad,CuDef*%
%ADD39RoundRect,0.150000X-0.587500X-0.150000X0.587500X-0.150000X0.587500X0.150000X-0.587500X0.150000X0*%
%TD*%
%TA.AperFunction,ViaPad*%
%ADD40C,0.500000*%
%TD*%
%TA.AperFunction,ViaPad*%
%ADD41C,0.600000*%
%TD*%
%TA.AperFunction,Conductor*%
%ADD42C,0.304800*%
%TD*%
%TA.AperFunction,Conductor*%
%ADD43C,0.508000*%
%TD*%
%TA.AperFunction,Conductor*%
%ADD44C,0.127000*%
%TD*%
%TA.AperFunction,Conductor*%
%ADD45C,0.200000*%
%TD*%
%TA.AperFunction,Conductor*%
%ADD46C,0.609600*%
%TD*%
G04 APERTURE END LIST*
D10*
%TO.P,R10,1*%
%TO.N,/SDA*%
X158485300Y-61595000D03*
%TO.P,R10,2*%
%TO.N,+3V3*%
X155560300Y-61595000D03*
%TD*%
D11*
%TO.P,R3,1*%
%TO.N,/BTN*%
X176657000Y-82361500D03*
%TO.P,R3,2*%
%TO.N,+3V3*%
X176657000Y-79436500D03*
%TD*%
D12*
%TO.P,C8,1*%
%TO.N,GND*%
X176860200Y-86279900D03*
%TO.P,C8,2*%
%TO.N,/BATSENSE*%
X176860200Y-84204900D03*
%TD*%
D13*
%TO.P,U3,1,2.4G_Ant*%
%TO.N,Net-(AE1-FEED)*%
X169189400Y-82270600D03*
%TO.P,U3,2,GND*%
%TO.N,GND*%
X167919400Y-82270600D03*
%TO.P,U3,3,GPIO7*%
%TO.N,unconnected-(U3-GPIO7-Pad3)*%
X166649400Y-82270600D03*
%TO.P,U3,4,GPIO6*%
%TO.N,unconnected-(U3-GPIO6-Pad4)*%
X165379400Y-82270600D03*
%TO.P,U3,5,GPIO5*%
%TO.N,unconnected-(U3-GPIO5-Pad5)*%
X164109400Y-82270600D03*
%TO.P,U3,6,GPIO4*%
%TO.N,unconnected-(U3-GPIO4-Pad6)*%
X162839400Y-82270600D03*
%TO.P,U3,7,GPIO3*%
%TO.N,unconnected-(U3-GPIO3-Pad7)*%
X161569400Y-82270600D03*
%TO.P,U3,8,GPIO2*%
%TO.N,/BTN*%
X160299400Y-82270600D03*
%TO.P,U3,9,GPIO1*%
%TO.N,/BATSENSE*%
X159029400Y-82270600D03*
%TO.P,U3,10,GPIO0*%
%TO.N,/SENSE*%
X157759400Y-82270600D03*
%TO.P,U3,11,EN*%
%TO.N,/EN*%
X156489400Y-82270600D03*
%TO.P,U3,12,VDD*%
%TO.N,+3V3*%
X169189400Y-64490600D03*
%TO.P,U3,13,GND*%
%TO.N,GND*%
X167919400Y-64490600D03*
%TO.P,U3,14,GPIO10*%
%TO.N,unconnected-(U3-GPIO10-Pad14)*%
X166649400Y-64490600D03*
%TO.P,U3,15,GPIO9*%
%TO.N,/PWM*%
X165379400Y-64490600D03*
%TO.P,U3,16,GPIO8*%
%TO.N,unconnected-(U3-GPIO8-Pad16)*%
X164109400Y-64490600D03*
%TO.P,U3,17,GPIO18_DN*%
%TO.N,/DN*%
X162839400Y-64490600D03*
%TO.P,U3,18,GPIO19_DP*%
%TO.N,/DP*%
X161569400Y-64490600D03*
%TO.P,U3,19,GPIO20_RXD*%
%TO.N,/SCL*%
X160299400Y-64490600D03*
%TO.P,U3,20,GPIO21_TXD*%
%TO.N,/SDA*%
X159029400Y-64490600D03*
%TO.P,U3,21,GND*%
%TO.N,GND*%
X157759400Y-64490600D03*
%TO.P,U3,22,LoRa_Ant*%
%TO.N,Net-(AE2-FEED)*%
X156489400Y-64490600D03*
%TD*%
D14*
%TO.P,C3,1*%
%TO.N,+3V3*%
X173405800Y-62443500D03*
%TO.P,C3,2*%
%TO.N,GND*%
X173405800Y-65318500D03*
%TD*%
D15*
%TO.P,R7,1*%
%TO.N,/PWM*%
X181925500Y-67056000D03*
%TO.P,R7,2*%
%TO.N,Net-(Q1-B)*%
X184850500Y-67056000D03*
%TD*%
D16*
%TO.P,JP2,1,A*%
%TO.N,Net-(JP2-A)*%
X166293800Y-61173600D03*
D17*
%TO.P,JP2,2,B*%
%TO.N,/PWM*%
X166293800Y-62473600D03*
%TD*%
D18*
%TO.P,U1,1,OUT*%
%TO.N,+3V3*%
X175895000Y-70276000D03*
%TO.P,U1,2,FB_NC*%
%TO.N,unconnected-(U1-FB_NC-Pad2)*%
X176545000Y-70276000D03*
%TO.P,U1,3,PG*%
%TO.N,unconnected-(U1-PG-Pad3)*%
X177195000Y-70276000D03*
%TO.P,U1,4,EN*%
%TO.N,VIN*%
X177195000Y-68326000D03*
%TO.P,U1,5,GND*%
%TO.N,GND*%
X176545000Y-68326000D03*
%TO.P,U1,6,IN*%
%TO.N,VIN*%
X175895000Y-68326000D03*
D19*
%TO.P,U1,7,PAD*%
%TO.N,GND*%
X176545000Y-69301000D03*
%TD*%
D15*
%TO.P,R8,1*%
%TO.N,GND*%
X160767300Y-61849000D03*
%TO.P,R8,2*%
%TO.N,Net-(JP2-A)*%
X163692300Y-61849000D03*
%TD*%
D11*
%TO.P,R6,1*%
%TO.N,/SENSE*%
X182372000Y-74868500D03*
%TO.P,R6,2*%
%TO.N,GND*%
X182372000Y-71943500D03*
%TD*%
D20*
%TO.P,R4,1*%
%TO.N,/SCL*%
X173609000Y-74102500D03*
%TO.P,R4,2*%
%TO.N,+3V3*%
X173609000Y-77027500D03*
%TD*%
D21*
%TO.P,D1,1,K*%
%TO.N,VIN*%
X186182000Y-63026000D03*
%TO.P,D1,2,A*%
%TO.N,VBUS*%
X186182000Y-60926000D03*
%TD*%
D20*
%TO.P,R1,1*%
%TO.N,VIN*%
X179324000Y-79436500D03*
%TO.P,R1,2*%
%TO.N,/BATSENSE*%
X179324000Y-82361500D03*
%TD*%
D22*
%TO.P,J2,1,VBUS*%
%TO.N,VBUS*%
X181386000Y-63883600D03*
%TO.P,J2,2,D-*%
%TO.N,/DN*%
X180736000Y-63883600D03*
%TO.P,J2,3,D+*%
%TO.N,/DP*%
X180086000Y-63883600D03*
%TO.P,J2,4,ID*%
%TO.N,unconnected-(J2-ID-Pad4)*%
X179436000Y-63883600D03*
%TO.P,J2,5,GND*%
%TO.N,GND*%
X178786000Y-63883600D03*
D23*
%TO.P,J2,6,Shield*%
X183461000Y-61223600D03*
D24*
X182573500Y-63798600D03*
D25*
X181236000Y-61223600D03*
D26*
X178536000Y-61223600D03*
D24*
X177598500Y-63798600D03*
D23*
X176711000Y-61223600D03*
%TD*%
D27*
%TO.P,J1,*%
%TO.N,*%
X185185000Y-77698600D03*
X185185000Y-84048600D03*
D28*
%TO.P,J1,1,Pin_1*%
%TO.N,VIN*%
X182285000Y-81498600D03*
%TO.P,J1,2,Pin_2*%
%TO.N,GND*%
X182285000Y-80248600D03*
%TD*%
D29*
%TO.P,C7,1*%
%TO.N,+3V3*%
X178812750Y-74436500D03*
%TO.P,C7,2*%
%TO.N,GND*%
X178812750Y-76511500D03*
%TD*%
D30*
%TO.P,AE1,1,FEED*%
%TO.N,Net-(AE1-FEED)*%
X150266201Y-82397600D03*
%TO.P,AE1,2,PCB_Trace*%
%TO.N,unconnected-(AE1-PCB_Trace-Pad2)*%
X147218599Y-82397600D03*
%TD*%
D15*
%TO.P,R5,1*%
%TO.N,/PWM*%
X181925500Y-69469000D03*
%TO.P,R5,2*%
%TO.N,/CAP*%
X184850500Y-69469000D03*
%TD*%
D12*
%TO.P,C5,1*%
%TO.N,/SENSE*%
X185039000Y-74189500D03*
%TO.P,C5,2*%
%TO.N,GND*%
X185039000Y-72114500D03*
%TD*%
D21*
%TO.P,D2,1,K*%
%TO.N,/SENSE*%
X187579000Y-73567000D03*
%TO.P,D2,2,A*%
%TO.N,/CAP*%
X187579000Y-71467000D03*
%TD*%
D31*
%TO.P,SW1,1,1*%
%TO.N,/BTN*%
X181610000Y-87249000D03*
%TO.P,SW1,2,2*%
%TO.N,GND*%
X186610000Y-87249000D03*
%TD*%
D11*
%TO.P,R9,1*%
%TO.N,/EN*%
X174244000Y-82361500D03*
%TO.P,R9,2*%
%TO.N,+3V3*%
X174244000Y-79436500D03*
%TD*%
D29*
%TO.P,C1,1*%
%TO.N,GND*%
X173859000Y-68390500D03*
%TO.P,C1,2*%
%TO.N,+3V3*%
X173859000Y-70465500D03*
%TD*%
D11*
%TO.P,R2,1*%
%TO.N,GND*%
X179324000Y-87314500D03*
%TO.P,R2,2*%
%TO.N,/BATSENSE*%
X179324000Y-84389500D03*
%TD*%
D32*
%TO.P,AE2,1,FEED*%
%TO.N,Net-(AE2-FEED)*%
X151978000Y-73400600D03*
%TO.P,AE2,2,PCB_Trace*%
%TO.N,unconnected-(AE2-PCB_Trace-Pad2)*%
X151978000Y-63200600D03*
%TD*%
D33*
%TO.P,J4,1,Pin_1*%
%TO.N,/CAP*%
X227140000Y-73660000D03*
%TD*%
D12*
%TO.P,C2,1*%
%TO.N,GND*%
X178973000Y-70281501D03*
%TO.P,C2,2*%
%TO.N,VIN*%
X178973000Y-68206501D03*
%TD*%
D34*
%TO.P,JP1,1,A*%
%TO.N,GND*%
X174320200Y-85994000D03*
D35*
%TO.P,JP1,2,B*%
%TO.N,/EN*%
X174320200Y-84694000D03*
%TD*%
D36*
%TO.P,C4,1*%
%TO.N,GND*%
X171141300Y-61849000D03*
%TO.P,C4,2*%
%TO.N,+3V3*%
X169066300Y-61849000D03*
%TD*%
D37*
%TO.P,U2,1,VDD*%
%TO.N,+3V3*%
X176645750Y-74549000D03*
%TO.P,U2,2,SCL*%
%TO.N,/SCL*%
X175645750Y-74549000D03*
%TO.P,U2,3,SDA*%
%TO.N,/SDA*%
X175645750Y-76399000D03*
%TO.P,U2,4,VSS*%
%TO.N,GND*%
X176645750Y-76399000D03*
D38*
%TO.P,U2,5,NC*%
%TO.N,unconnected-(U2-NC-Pad5)*%
X176145750Y-75474000D03*
%TD*%
D12*
%TO.P,C6,1*%
%TO.N,GND*%
X171831000Y-86000500D03*
%TO.P,C6,2*%
%TO.N,/EN*%
X171831000Y-83925500D03*
%TD*%
D39*
%TO.P,Q1,1,B*%
%TO.N,Net-(Q1-B)*%
X187022500Y-67249000D03*
%TO.P,Q1,2,E*%
%TO.N,/CAP*%
X187022500Y-69149000D03*
%TO.P,Q1,3,C*%
%TO.N,GND*%
X188897500Y-68199000D03*
%TD*%
D40*
%TO.N,GND*%
X155702000Y-88138000D03*
D41*
X188468000Y-78740000D03*
D40*
X159969200Y-60553600D03*
X155448000Y-70104000D03*
X159512000Y-84074000D03*
X153924000Y-71628000D03*
X157302200Y-67614800D03*
X166370000Y-88138000D03*
X155194000Y-74930000D03*
X152654000Y-77978000D03*
X166878000Y-80772000D03*
X159258000Y-85852000D03*
X153847800Y-63404750D03*
X169418000Y-88138000D03*
X154686000Y-85852000D03*
X157734000Y-74930000D03*
X163322000Y-84074000D03*
X176276000Y-62677600D03*
X154609800Y-62941200D03*
X158750000Y-88138000D03*
X155702000Y-84074000D03*
X153847800Y-70485000D03*
D41*
X182372000Y-73406000D03*
D40*
X168656000Y-88138000D03*
X163322000Y-88138000D03*
D41*
X188468000Y-82296000D03*
D40*
X156464000Y-75946000D03*
D41*
X181991000Y-79121000D03*
D40*
X167132000Y-88138000D03*
X161036000Y-84074000D03*
D41*
X178816000Y-75565000D03*
D40*
X161798000Y-88138000D03*
X153416000Y-84836000D03*
X163068000Y-85852000D03*
X152400000Y-85852000D03*
X167894000Y-88138000D03*
X184525597Y-60046135D03*
X157734000Y-85852000D03*
X164846000Y-88138000D03*
X155448000Y-86868000D03*
X157302200Y-69138800D03*
X170180000Y-84328000D03*
X156514800Y-71501000D03*
X152908000Y-84328000D03*
X153847800Y-66929000D03*
X166878000Y-85852000D03*
X159181800Y-68707002D03*
X153847800Y-74168000D03*
X157302200Y-66852800D03*
X153924000Y-78740000D03*
X153416000Y-88138000D03*
X157734000Y-73152000D03*
X170180000Y-85852000D03*
X154178000Y-80518000D03*
D41*
X186944000Y-68199000D03*
D40*
X167640000Y-86868000D03*
X162814000Y-80772000D03*
X152400000Y-88138000D03*
X159181800Y-70315668D03*
X158165800Y-67966166D03*
X163830000Y-85852000D03*
X156210000Y-85852000D03*
X152400000Y-83820000D03*
X163068000Y-86868000D03*
X158191200Y-66751200D03*
X158750000Y-84074000D03*
X154940000Y-88138000D03*
X157988000Y-88138000D03*
D41*
X188722000Y-69850000D03*
D40*
X154432000Y-83312000D03*
X159512000Y-74676000D03*
X158496000Y-85852000D03*
X154609800Y-69596000D03*
X155600400Y-65455800D03*
X157988000Y-76708000D03*
X159512000Y-76708000D03*
D41*
X261620000Y-73660000D03*
D40*
X152654000Y-80264000D03*
D41*
X188722000Y-65024000D03*
D40*
X155498800Y-72517000D03*
X152400000Y-87376000D03*
X170180000Y-81788000D03*
X158927800Y-65913000D03*
X153847800Y-75057000D03*
X184150000Y-63439600D03*
X164846000Y-80772000D03*
X160020000Y-85852000D03*
X155600400Y-69342000D03*
X157480000Y-79248000D03*
X167640000Y-85852000D03*
X152654000Y-79502000D03*
X164592000Y-85852000D03*
X167894000Y-80518000D03*
X153847800Y-65166875D03*
D41*
X188468000Y-75184000D03*
D40*
X157226000Y-84074000D03*
X159004000Y-86868000D03*
X154940000Y-70612000D03*
X157226000Y-86868000D03*
X152654000Y-77216000D03*
X156438600Y-63144400D03*
X155600400Y-67056000D03*
X161036000Y-86868000D03*
X174979600Y-69286500D03*
X155194000Y-79248000D03*
X156006800Y-72009000D03*
X156972000Y-85852000D03*
X159512000Y-75692000D03*
X160274000Y-88138000D03*
X153847800Y-68691125D03*
X154990800Y-73025000D03*
X162306000Y-85852000D03*
X167132000Y-84074000D03*
X170180000Y-83566000D03*
X169672000Y-85090000D03*
X152400000Y-86614000D03*
X154482800Y-73533000D03*
X161036000Y-88138000D03*
X152400000Y-85090000D03*
X163830000Y-80772000D03*
X158242000Y-78486000D03*
X162560000Y-88138000D03*
X158165800Y-71374000D03*
X168910000Y-80772000D03*
X153416000Y-82296000D03*
X155956000Y-80772000D03*
X167944800Y-66167000D03*
X173405800Y-63881000D03*
X156464000Y-88138000D03*
X161544000Y-85852000D03*
X152654000Y-78740000D03*
X166116000Y-85852000D03*
X155448000Y-85852000D03*
X170180000Y-87376000D03*
X170180000Y-88138000D03*
X168402000Y-85852000D03*
X157302200Y-66090800D03*
X154584400Y-66040000D03*
X171119800Y-63101600D03*
X157302200Y-63119000D03*
X153924000Y-82804000D03*
X153670000Y-86868000D03*
X161798000Y-84074000D03*
D41*
X177800000Y-87376000D03*
D40*
X157302200Y-70662800D03*
X157226000Y-88138000D03*
X155600400Y-68580000D03*
X165608000Y-88138000D03*
X157302200Y-69900800D03*
X152908000Y-81788000D03*
X160782000Y-85852000D03*
X156464000Y-84074000D03*
X164084000Y-88138000D03*
X159512000Y-72644000D03*
X169926000Y-80772000D03*
X157302200Y-68376800D03*
X159512000Y-73660000D03*
X159512000Y-71628000D03*
X152654000Y-76454000D03*
X167894000Y-84074000D03*
X153924000Y-75946000D03*
X157988000Y-84074000D03*
X155194000Y-81534000D03*
X164846000Y-84074000D03*
X165354000Y-86868000D03*
X160274000Y-84074000D03*
X156718000Y-80010000D03*
X166370000Y-84074000D03*
X170180000Y-86614000D03*
X159258000Y-77978000D03*
X156718000Y-77978000D03*
X155600400Y-66294000D03*
X164084000Y-84074000D03*
X156464000Y-74168000D03*
X159181800Y-67098336D03*
X169164000Y-85598000D03*
X154432000Y-71120000D03*
X153416000Y-76708000D03*
X155371800Y-64033400D03*
X155371800Y-64770000D03*
X165608000Y-84074000D03*
X158165800Y-69511332D03*
X162560000Y-84074000D03*
X154178000Y-88138000D03*
X153924000Y-85344000D03*
X155600400Y-67818000D03*
X165354000Y-85852000D03*
X155524200Y-63220600D03*
X154609800Y-67818000D03*
X154940000Y-83820000D03*
X152654000Y-81026000D03*
X165862000Y-80772000D03*
X159512000Y-88138000D03*
X154940000Y-77216000D03*
D41*
X184404000Y-87249000D03*
%TO.N,+3V3*%
X170053000Y-61722000D03*
X161290000Y-59436000D03*
%TO.N,/EN*%
X172339000Y-79629000D03*
X171196000Y-80772000D03*
%TO.N,/PWM*%
X181991000Y-65659000D03*
X179959000Y-66548000D03*
%TD*%
D42*
%TO.N,GND*%
X159969200Y-60553600D02*
X159969200Y-61050900D01*
X188897500Y-68199000D02*
X186944000Y-68199000D01*
X181236000Y-61223600D02*
X183461000Y-61223600D01*
X171831000Y-86000500D02*
X174313700Y-86000500D01*
X177861500Y-87314500D02*
X177800000Y-87376000D01*
X178700250Y-76399000D02*
X178812750Y-76511500D01*
X171141300Y-61849000D02*
X171141300Y-63080100D01*
X183791000Y-63798600D02*
X184150000Y-63439600D01*
X174994100Y-69301000D02*
X174979600Y-69286500D01*
X176711000Y-62242600D02*
X176276000Y-62677600D01*
X171831000Y-86000500D02*
X170328500Y-86000500D01*
X182285000Y-79415000D02*
X181991000Y-79121000D01*
X184868000Y-71943500D02*
X185039000Y-72114500D01*
X170285500Y-87270500D02*
X170180000Y-87376000D01*
X179324000Y-87314500D02*
X177861500Y-87314500D01*
X176860200Y-86279900D02*
X176860200Y-86436200D01*
X178812750Y-76511500D02*
X178812750Y-75568250D01*
X167919400Y-64490600D02*
X167919400Y-66141600D01*
X184525597Y-60046135D02*
X183461000Y-61110732D01*
X178812750Y-76511500D02*
X178588050Y-76511500D01*
X183461000Y-61110732D02*
X183461000Y-61223600D01*
X178786000Y-63883600D02*
X177683500Y-63883600D01*
X186610000Y-87249000D02*
X184404000Y-87249000D01*
X178812750Y-75568250D02*
X178816000Y-75565000D01*
D43*
X177992499Y-69301000D02*
X178973000Y-70281501D01*
D42*
X176711000Y-61223600D02*
X178536000Y-61223600D01*
D43*
X176545000Y-69301000D02*
X177992499Y-69301000D01*
D42*
X159969200Y-61050900D02*
X160767300Y-61849000D01*
X167919400Y-66141600D02*
X167944800Y-66167000D01*
X176645750Y-76399000D02*
X178700250Y-76399000D01*
X176860200Y-86436200D02*
X177800000Y-87376000D01*
X182573500Y-63798600D02*
X183791000Y-63798600D01*
X177598500Y-63798600D02*
X177397000Y-63798600D01*
X177397000Y-63798600D02*
X176276000Y-62677600D01*
X173405800Y-65318500D02*
X173405800Y-63881000D01*
X174755000Y-69286500D02*
X173859000Y-68390500D01*
X182372000Y-71943500D02*
X182372000Y-73406000D01*
X171141300Y-63080100D02*
X171119800Y-63101600D01*
X170328500Y-86000500D02*
X170180000Y-85852000D01*
X182285000Y-80248600D02*
X182285000Y-79415000D01*
D43*
X176545000Y-69301000D02*
X176545000Y-68326000D01*
D42*
X182372000Y-71943500D02*
X184868000Y-71943500D01*
D43*
X176545000Y-69301000D02*
X174994100Y-69301000D01*
D42*
X178536000Y-61223600D02*
X181236000Y-61223600D01*
X174979600Y-69286500D02*
X174755000Y-69286500D01*
X174313700Y-86000500D02*
X174320200Y-85994000D01*
X176711000Y-61223600D02*
X176711000Y-62242600D01*
D44*
%TO.N,/SENSE*%
X182372000Y-74868500D02*
X182372000Y-78105000D01*
X179451000Y-80645000D02*
X172586374Y-80645000D01*
X172586374Y-80645000D02*
X170935374Y-78994000D01*
X184360000Y-74868500D02*
X185039000Y-74189500D01*
X183769000Y-79502000D02*
X183769000Y-82169000D01*
X182372000Y-74868500D02*
X184360000Y-74868500D01*
X170935374Y-78994000D02*
X160286000Y-78994000D01*
X183769000Y-82169000D02*
X183515000Y-82423000D01*
X186956500Y-74189500D02*
X187579000Y-73567000D01*
X182372000Y-78105000D02*
X183769000Y-79502000D01*
X181229000Y-82423000D02*
X179451000Y-80645000D01*
X185039000Y-74189500D02*
X186956500Y-74189500D01*
X160286000Y-78994000D02*
X157759400Y-81520600D01*
X183515000Y-82423000D02*
X181229000Y-82423000D01*
X157759400Y-81520600D02*
X157759400Y-82270600D01*
D42*
%TO.N,VIN*%
X186148000Y-63026000D02*
X184150000Y-65024000D01*
X176932500Y-67563001D02*
X177195000Y-67825501D01*
X175895000Y-67855501D02*
X176187500Y-67563001D01*
X181483000Y-65024000D02*
X180721000Y-65786000D01*
X179324000Y-79436500D02*
X181386100Y-81498600D01*
X177195000Y-67825501D02*
X177195000Y-68326000D01*
X175895000Y-68326000D02*
X175895000Y-67855501D01*
X180721000Y-78039500D02*
X179324000Y-79436500D01*
X176187500Y-67563001D02*
X176560000Y-67563001D01*
X178853501Y-68326000D02*
X178973000Y-68206501D01*
X180721000Y-68199000D02*
X180721000Y-78039500D01*
X177195000Y-68326000D02*
X178853501Y-68326000D01*
X178973000Y-68206501D02*
X180713499Y-68206501D01*
X180713499Y-68206501D02*
X180721000Y-68199000D01*
X184150000Y-65024000D02*
X181483000Y-65024000D01*
X180721000Y-65786000D02*
X180721000Y-68199000D01*
X181386100Y-81498600D02*
X182285000Y-81498600D01*
X176560000Y-67563001D02*
X176932500Y-67563001D01*
X178973000Y-68206501D02*
X179051499Y-68285000D01*
X186182000Y-63026000D02*
X186148000Y-63026000D01*
X178973000Y-68206501D02*
X178973000Y-68016000D01*
%TO.N,+3V3*%
X179592500Y-74436500D02*
X180213000Y-75057000D01*
X173405800Y-62611000D02*
X172262800Y-63754000D01*
X178812750Y-73783750D02*
X178812750Y-74436500D01*
X175705500Y-70465500D02*
X175895000Y-70276000D01*
X180213000Y-75057000D02*
X180213000Y-77406500D01*
X175387000Y-79436500D02*
X174244000Y-79436500D01*
X169066300Y-61849000D02*
X169066300Y-64367500D01*
D44*
X169193300Y-61722000D02*
X169066300Y-61849000D01*
X170053000Y-61722000D02*
X169193300Y-61722000D01*
X160909000Y-59436000D02*
X161290000Y-59436000D01*
D42*
X173859000Y-70465500D02*
X175705500Y-70465500D01*
X173609000Y-77027500D02*
X174686500Y-78105000D01*
X177546000Y-72517000D02*
X178812750Y-73783750D01*
X178812750Y-74436500D02*
X179592500Y-74436500D01*
X175387000Y-78105000D02*
X175387000Y-79436500D01*
X172065500Y-70465500D02*
X173859000Y-70465500D01*
X169926000Y-63754000D02*
X169189400Y-64490600D01*
X176645750Y-74549000D02*
X178700250Y-74549000D01*
X172262800Y-63754000D02*
X169926000Y-63754000D01*
X173405800Y-62443500D02*
X173405800Y-62611000D01*
X176657000Y-79436500D02*
X175387000Y-79436500D01*
X169066300Y-64367500D02*
X169189400Y-64490600D01*
X175641000Y-77851000D02*
X175387000Y-78105000D01*
D44*
X155560300Y-61595000D02*
X157719300Y-59436000D01*
D42*
X169189400Y-64490600D02*
X169189400Y-67589400D01*
X174686500Y-78105000D02*
X175387000Y-78105000D01*
X169189400Y-67589400D02*
X172065500Y-70465500D01*
X180213000Y-77406500D02*
X179768500Y-77851000D01*
X178700250Y-74549000D02*
X178812750Y-74436500D01*
X174752000Y-72517000D02*
X177546000Y-72517000D01*
X179768500Y-77851000D02*
X175641000Y-77851000D01*
X173859000Y-70465500D02*
X173859000Y-71624000D01*
X173859000Y-71624000D02*
X174752000Y-72517000D01*
X176911000Y-79436500D02*
X176911000Y-79375000D01*
D44*
X157719300Y-59436000D02*
X160909000Y-59436000D01*
%TO.N,/EN*%
X156489400Y-81508600D02*
X156489400Y-82270600D01*
X171196000Y-81280000D02*
X173101000Y-83185000D01*
D42*
X174963888Y-81976500D02*
X174244000Y-81976500D01*
D44*
X171196000Y-80772000D02*
X171196000Y-81280000D01*
X159258000Y-78740000D02*
X156489400Y-81508600D01*
X174244000Y-82361500D02*
X173924500Y-82361500D01*
X174320200Y-84404200D02*
X174320200Y-84694000D01*
D42*
X174667434Y-81976500D02*
X174244000Y-81976500D01*
D44*
X171831000Y-83925500D02*
X172360500Y-83925500D01*
X172339000Y-79629000D02*
X172212000Y-79629000D01*
X172360500Y-83925500D02*
X173101000Y-83185000D01*
X172212000Y-79629000D02*
X171323000Y-78740000D01*
X171323000Y-78740000D02*
X159258000Y-78740000D01*
X173924500Y-82361500D02*
X173101000Y-83185000D01*
X173101000Y-83185000D02*
X174320200Y-84404200D01*
D45*
%TO.N,/CAP*%
X208280000Y-70866000D02*
X208280000Y-72898000D01*
D44*
X186956500Y-69215000D02*
X187022500Y-69149000D01*
X187579000Y-69705500D02*
X187022500Y-69149000D01*
X187579000Y-71467000D02*
X187579000Y-70485000D01*
D45*
X207330000Y-69916000D02*
X208280000Y-70866000D01*
D44*
X187579000Y-70485000D02*
X190627000Y-73533000D01*
X187579000Y-70485000D02*
X187579000Y-69705500D01*
X185104500Y-69215000D02*
X186956500Y-69215000D01*
X190627000Y-73533000D02*
X225171000Y-73533000D01*
D45*
X209042000Y-73660000D02*
X234760000Y-73660000D01*
D44*
X184850500Y-69469000D02*
X185104500Y-69215000D01*
D45*
X208280000Y-72898000D02*
X209042000Y-73660000D01*
D42*
%TO.N,VBUS*%
X184912000Y-62484000D02*
X186182000Y-61214000D01*
X181386000Y-63883600D02*
X181386000Y-62962000D01*
X181386000Y-62962000D02*
X181864000Y-62484000D01*
X186182000Y-61214000D02*
X186182000Y-60926000D01*
X181864000Y-62484000D02*
X184912000Y-62484000D01*
D44*
%TO.N,/PWM*%
X167513000Y-61087000D02*
X168021000Y-60579000D01*
X173482000Y-60579000D02*
X174371000Y-61468000D01*
X166293800Y-62473600D02*
X167142400Y-62473600D01*
X167142400Y-62473600D02*
X167513000Y-62103000D01*
X176403000Y-66548000D02*
X179959000Y-66548000D01*
X167513000Y-62103000D02*
X167513000Y-61087000D01*
X174371000Y-64516000D02*
X176403000Y-66548000D01*
X165379400Y-64168400D02*
X165379400Y-64490600D01*
X181991000Y-65659000D02*
X181991000Y-66990500D01*
X166293800Y-62473600D02*
X166293800Y-63254000D01*
X181991000Y-66990500D02*
X181925500Y-67056000D01*
X166293800Y-63254000D02*
X165379400Y-64168400D01*
X174371000Y-61468000D02*
X174371000Y-64516000D01*
X181925500Y-69469000D02*
X181925500Y-67056000D01*
X168021000Y-60579000D02*
X173482000Y-60579000D01*
%TO.N,/SDA*%
X175637750Y-76407000D02*
X175645750Y-76399000D01*
X159029400Y-64490600D02*
X159029400Y-65125600D01*
X174117000Y-75692000D02*
X174824000Y-76399000D01*
X174824000Y-76399000D02*
X175645750Y-76399000D01*
X158750000Y-64211200D02*
X159029400Y-64490600D01*
X169595800Y-75692000D02*
X174117000Y-75692000D01*
X159029400Y-65125600D02*
X169595800Y-75692000D01*
X158750000Y-61859700D02*
X158750000Y-64211200D01*
X158485300Y-61595000D02*
X158750000Y-61859700D01*
%TO.N,/SCL*%
X175133000Y-74549000D02*
X175645750Y-74549000D01*
X174686500Y-74102500D02*
X175133000Y-74549000D01*
X169701010Y-75438000D02*
X174244000Y-75438000D01*
X160299400Y-66036390D02*
X169701010Y-75438000D01*
X160299400Y-64490600D02*
X160299400Y-66036390D01*
X174244000Y-75438000D02*
X175133000Y-74549000D01*
X173609000Y-74102500D02*
X174686500Y-74102500D01*
%TO.N,/DP*%
X161975800Y-60833000D02*
X161975800Y-62738000D01*
X180086000Y-64709600D02*
X179549000Y-65246600D01*
X174472600Y-59740800D02*
X163068000Y-59740800D01*
X180086000Y-63883600D02*
X180086000Y-64709600D01*
X161975800Y-62738000D02*
X161569400Y-63144400D01*
X163068000Y-59740800D02*
X161975800Y-60833000D01*
X175358000Y-64108400D02*
X175358000Y-60626200D01*
X176496200Y-65246600D02*
X175358000Y-64108400D01*
X161569400Y-63144400D02*
X161569400Y-64490600D01*
X179549000Y-65246600D02*
X176496200Y-65246600D01*
X175358000Y-60626200D02*
X174472600Y-59740800D01*
%TO.N,/DN*%
X162839400Y-63093600D02*
X162839400Y-64490600D01*
X162483800Y-62738000D02*
X162839400Y-63093600D01*
X180115000Y-65696600D02*
X176309800Y-65696600D01*
X174908000Y-64294800D02*
X174908000Y-61370000D01*
X180736000Y-63883600D02*
X180736000Y-65075600D01*
X176309800Y-65696600D02*
X174908000Y-64294800D01*
X162483800Y-61087000D02*
X162483800Y-62738000D01*
X180736000Y-65075600D02*
X180115000Y-65696600D01*
X173583600Y-60045600D02*
X163525200Y-60045600D01*
X174908000Y-61370000D02*
X173583600Y-60045600D01*
X163525200Y-60045600D02*
X162483800Y-61087000D01*
%TO.N,Net-(Q1-B)*%
X185104500Y-67310000D02*
X186961500Y-67310000D01*
X186961500Y-67310000D02*
X187022500Y-67249000D01*
X184850500Y-67056000D02*
X185104500Y-67310000D01*
%TO.N,/BATSENSE*%
X172481164Y-80899000D02*
X177861500Y-80899000D01*
X159029400Y-81520600D02*
X161302000Y-79248000D01*
X159029400Y-82270600D02*
X159029400Y-81520600D01*
X170830164Y-79248000D02*
X172481164Y-80899000D01*
X177861500Y-80899000D02*
X179324000Y-82361500D01*
X179139400Y-84204900D02*
X179324000Y-84389500D01*
X176860200Y-84204900D02*
X179139400Y-84204900D01*
X179324000Y-82361500D02*
X179324000Y-84389500D01*
X161302000Y-79248000D02*
X170830164Y-79248000D01*
%TO.N,Net-(JP2-A)*%
X165292800Y-61173600D02*
X166293800Y-61173600D01*
X164617400Y-61849000D02*
X165292800Y-61173600D01*
X163692300Y-61849000D02*
X164617400Y-61849000D01*
D46*
%TO.N,Net-(AE1-FEED)*%
X154686000Y-84937600D02*
X152146000Y-82397600D01*
X168452800Y-84937600D02*
X154686000Y-84937600D01*
X169189400Y-84201000D02*
X168452800Y-84937600D01*
X152146000Y-82397600D02*
X150266201Y-82397600D01*
X169189400Y-82270600D02*
X169189400Y-84201000D01*
%TO.N,Net-(AE2-FEED)*%
X156489400Y-70360796D02*
X153449596Y-73400600D01*
X153449596Y-73400600D02*
X151978000Y-73400600D01*
X156489400Y-64490600D02*
X156489400Y-70360796D01*
D44*
%TO.N,/BTN*%
X176591500Y-82361500D02*
X176657000Y-82361500D01*
X181610000Y-87249000D02*
X180213000Y-85852000D01*
X178689000Y-85852000D02*
X178181000Y-85344000D01*
X175514000Y-83439000D02*
X176591500Y-82361500D01*
X175514000Y-84709000D02*
X175514000Y-83439000D01*
X170724954Y-79502000D02*
X172375954Y-81153000D01*
X172375954Y-81153000D02*
X175448500Y-81153000D01*
X175448500Y-81153000D02*
X176657000Y-82361500D01*
X178181000Y-85344000D02*
X176149000Y-85344000D01*
X162814000Y-79502000D02*
X170724954Y-79502000D01*
X160299400Y-82270600D02*
X160299400Y-82016600D01*
X180213000Y-85852000D02*
X178689000Y-85852000D01*
X176149000Y-85344000D02*
X175514000Y-84709000D01*
X160299400Y-82016600D02*
X162814000Y-79502000D01*
%TD*%
%TA.AperFunction,Conductor*%
%TO.N,GND*%
G36*
X189435378Y-63955077D02*
G01*
X189475984Y-63969857D01*
X189649768Y-64000500D01*
X189672108Y-64000500D01*
X256255424Y-64000500D01*
X256255468Y-64000502D01*
X256263703Y-64000501D01*
X256263708Y-64000503D01*
X256281319Y-64000502D01*
X256348356Y-64020180D01*
X256369006Y-64036820D01*
X265904505Y-73572318D01*
X265937990Y-73633641D01*
X265933006Y-73703333D01*
X265904505Y-73747680D01*
X256369005Y-83283179D01*
X256307682Y-83316664D01*
X256281320Y-83319497D01*
X256263708Y-83319497D01*
X256263706Y-83319497D01*
X256255468Y-83319497D01*
X256255424Y-83319500D01*
X189649765Y-83319500D01*
X189475984Y-83350142D01*
X189310158Y-83410498D01*
X189310157Y-83410499D01*
X189157340Y-83498728D01*
X189157337Y-83498731D01*
X189022158Y-83612158D01*
X188935609Y-83715305D01*
X188877437Y-83754008D01*
X188840619Y-83759600D01*
X187703000Y-83759600D01*
X187635961Y-83739915D01*
X187590206Y-83687111D01*
X187579000Y-83635600D01*
X187579000Y-74491499D01*
X187598685Y-74424460D01*
X187651489Y-74378705D01*
X187703000Y-74367499D01*
X187753394Y-74367499D01*
X187753404Y-74367499D01*
X187788156Y-74364765D01*
X187936887Y-74321555D01*
X188070198Y-74242715D01*
X188179715Y-74133198D01*
X188258555Y-73999887D01*
X188301765Y-73851156D01*
X188304500Y-73816405D01*
X188304499Y-73317596D01*
X188301765Y-73282844D01*
X188258555Y-73134113D01*
X188179715Y-73000802D01*
X188179713Y-73000800D01*
X188179710Y-73000796D01*
X188070203Y-72891289D01*
X188070194Y-72891282D01*
X187989111Y-72843330D01*
X187936887Y-72812445D01*
X187788156Y-72769235D01*
X187788153Y-72769234D01*
X187788151Y-72769234D01*
X187753410Y-72766500D01*
X187703000Y-72766500D01*
X187635961Y-72746815D01*
X187590206Y-72694011D01*
X187579000Y-72642500D01*
X187579000Y-72391499D01*
X187598685Y-72324460D01*
X187651489Y-72278705D01*
X187702999Y-72267499D01*
X187753404Y-72267499D01*
X187788156Y-72264765D01*
X187936887Y-72221555D01*
X188070198Y-72142715D01*
X188070203Y-72142710D01*
X188166968Y-72045946D01*
X188228291Y-72012461D01*
X188297983Y-72017445D01*
X188342330Y-72045946D01*
X190171346Y-73874962D01*
X190171356Y-73874973D01*
X190175686Y-73879303D01*
X190175687Y-73879304D01*
X190280696Y-73984313D01*
X190409304Y-74058565D01*
X190552747Y-74097000D01*
X190552748Y-74097000D01*
X196542259Y-74097000D01*
X196609298Y-74116685D01*
X196655053Y-74169489D01*
X196665877Y-74211271D01*
X196673412Y-74307013D01*
X196673412Y-74307014D01*
X196689279Y-74407196D01*
X196741028Y-74733922D01*
X196841930Y-75154210D01*
X196841934Y-75154221D01*
X196975494Y-75565280D01*
X197087910Y-75836677D01*
X197140904Y-75964615D01*
X197337133Y-76349735D01*
X197337136Y-76349740D01*
X197337142Y-76349751D01*
X197562966Y-76718262D01*
X197562974Y-76718273D01*
X197817025Y-77067946D01*
X197817035Y-77067960D01*
X198097737Y-77396617D01*
X198097743Y-77396624D01*
X198403376Y-77702257D01*
X198403382Y-77702262D01*
X198732039Y-77982964D01*
X198732046Y-77982969D01*
X199081728Y-78237027D01*
X199081732Y-78237029D01*
X199081737Y-78237033D01*
X199450248Y-78462857D01*
X199450254Y-78462860D01*
X199450265Y-78462867D01*
X199835385Y-78659096D01*
X200234714Y-78824503D01*
X200234719Y-78824505D01*
X200339240Y-78858465D01*
X200645790Y-78958070D01*
X201066078Y-79058972D01*
X201492987Y-79126588D01*
X201923885Y-79160500D01*
X201923893Y-79160500D01*
X252356107Y-79160500D01*
X252356115Y-79160500D01*
X252787013Y-79126588D01*
X253213922Y-79058972D01*
X253634210Y-78958070D01*
X254045286Y-78824503D01*
X254444615Y-78659096D01*
X254829735Y-78462867D01*
X255198272Y-78237027D01*
X255547954Y-77982969D01*
X255876624Y-77702257D01*
X256182257Y-77396624D01*
X256462969Y-77067954D01*
X256717027Y-76718272D01*
X256942867Y-76349735D01*
X257139096Y-75964615D01*
X257304503Y-75565286D01*
X257438070Y-75154210D01*
X257538972Y-74733922D01*
X257606588Y-74307013D01*
X257640500Y-73876115D01*
X257640500Y-73443885D01*
X257606588Y-73012987D01*
X257538972Y-72586078D01*
X257438070Y-72165790D01*
X257304503Y-71754714D01*
X257139096Y-71355385D01*
X256942867Y-70970265D01*
X256717027Y-70601728D01*
X256462969Y-70252046D01*
X256462964Y-70252039D01*
X256182262Y-69923382D01*
X256182257Y-69923376D01*
X255876624Y-69617743D01*
X255808309Y-69559396D01*
X255547960Y-69337035D01*
X255547946Y-69337025D01*
X255405632Y-69233628D01*
X255198272Y-69082973D01*
X255198269Y-69082971D01*
X255198262Y-69082966D01*
X254829751Y-68857142D01*
X254829740Y-68857136D01*
X254829739Y-68857135D01*
X254829735Y-68857133D01*
X254444615Y-68660904D01*
X254290663Y-68597135D01*
X254045280Y-68495494D01*
X253742932Y-68397256D01*
X253634210Y-68361930D01*
X253213922Y-68261028D01*
X252787013Y-68193412D01*
X252356120Y-68159500D01*
X252356115Y-68159500D01*
X201923885Y-68159500D01*
X201923879Y-68159500D01*
X201492986Y-68193412D01*
X201492985Y-68193412D01*
X201066083Y-68261027D01*
X201066080Y-68261027D01*
X201066078Y-68261028D01*
X200915562Y-68297163D01*
X200645801Y-68361927D01*
X200645795Y-68361928D01*
X200645790Y-68361930D01*
X200645778Y-68361934D01*
X200234719Y-68495494D01*
X199835387Y-68660903D01*
X199450259Y-68857136D01*
X199450248Y-68857142D01*
X199081737Y-69082966D01*
X199081726Y-69082974D01*
X198732053Y-69337025D01*
X198732039Y-69337035D01*
X198403382Y-69617737D01*
X198403368Y-69617750D01*
X198097750Y-69923368D01*
X198097737Y-69923382D01*
X197817035Y-70252039D01*
X197817025Y-70252053D01*
X197562974Y-70601726D01*
X197562966Y-70601737D01*
X197337142Y-70970248D01*
X197337136Y-70970259D01*
X197140903Y-71355387D01*
X196975494Y-71754719D01*
X196841934Y-72165778D01*
X196841927Y-72165801D01*
X196741027Y-72586083D01*
X196696946Y-72864398D01*
X196667017Y-72927533D01*
X196607705Y-72964464D01*
X196574473Y-72969000D01*
X190911978Y-72969000D01*
X190844939Y-72949315D01*
X190824297Y-72932681D01*
X188179319Y-70287703D01*
X188145834Y-70226380D01*
X188143000Y-70200022D01*
X188143000Y-69709560D01*
X188160268Y-69646439D01*
X188211744Y-69559398D01*
X188257598Y-69401569D01*
X188260500Y-69364694D01*
X188260500Y-69123000D01*
X188280185Y-69055961D01*
X188332989Y-69010206D01*
X188384500Y-68999000D01*
X188647500Y-68999000D01*
X189147500Y-68999000D01*
X189550634Y-68999000D01*
X189550649Y-68998999D01*
X189587489Y-68996100D01*
X189587495Y-68996099D01*
X189745193Y-68950283D01*
X189745196Y-68950282D01*
X189886552Y-68866685D01*
X189886561Y-68866678D01*
X190002678Y-68750561D01*
X190002685Y-68750552D01*
X190086281Y-68609198D01*
X190132100Y-68451486D01*
X190132295Y-68449001D01*
X190132295Y-68449000D01*
X189147500Y-68449000D01*
X189147500Y-68999000D01*
X188647500Y-68999000D01*
X188647500Y-67949000D01*
X189147500Y-67949000D01*
X190132295Y-67949000D01*
X190132295Y-67948998D01*
X190132100Y-67946513D01*
X190086281Y-67788801D01*
X190002685Y-67647447D01*
X190002678Y-67647438D01*
X189886561Y-67531321D01*
X189886552Y-67531314D01*
X189745196Y-67447717D01*
X189745193Y-67447716D01*
X189587495Y-67401900D01*
X189587489Y-67401899D01*
X189550649Y-67399000D01*
X189147500Y-67399000D01*
X189147500Y-67949000D01*
X188647500Y-67949000D01*
X188647500Y-67399000D01*
X188384500Y-67399000D01*
X188317461Y-67379315D01*
X188271706Y-67326511D01*
X188260500Y-67275000D01*
X188260500Y-67033313D01*
X188260499Y-67033298D01*
X188257598Y-66996432D01*
X188257597Y-66996426D01*
X188211745Y-66838606D01*
X188211744Y-66838603D01*
X188211744Y-66838602D01*
X188128081Y-66697135D01*
X188128079Y-66697133D01*
X188128076Y-66697129D01*
X188011870Y-66580923D01*
X188011862Y-66580917D01*
X187870396Y-66497255D01*
X187870393Y-66497254D01*
X187712573Y-66451402D01*
X187712568Y-66451401D01*
X187693270Y-66449883D01*
X187627982Y-66424999D01*
X187586512Y-66368767D01*
X187579000Y-66326265D01*
X187579000Y-64071600D01*
X187598685Y-64004561D01*
X187651489Y-63958806D01*
X187703000Y-63947600D01*
X189392968Y-63947600D01*
X189435378Y-63955077D01*
G37*
%TD.AperFunction*%
%TD*%
%TA.AperFunction,Conductor*%
%TO.N,GND*%
G36*
X160020000Y-78425000D02*
G01*
X160000315Y-78492039D01*
X159947511Y-78537794D01*
X159896000Y-78549000D01*
X159220006Y-78549000D01*
X159149806Y-78578078D01*
X159149805Y-78578079D01*
X157436385Y-80291500D01*
X156381207Y-81346678D01*
X156371104Y-81356781D01*
X156371099Y-81356786D01*
X156309774Y-81390268D01*
X156283423Y-81393100D01*
X156203579Y-81393100D01*
X156130196Y-81403791D01*
X156017007Y-81459125D01*
X155927925Y-81548207D01*
X155872590Y-81661397D01*
X155861900Y-81734772D01*
X155861900Y-82806425D01*
X155872591Y-82879804D01*
X155927925Y-82992992D01*
X156017007Y-83082074D01*
X156017008Y-83082074D01*
X156017010Y-83082076D01*
X156130196Y-83137409D01*
X156203573Y-83148100D01*
X156775226Y-83148099D01*
X156848604Y-83137409D01*
X156961790Y-83082076D01*
X156967059Y-83076807D01*
X157036719Y-83007148D01*
X157098042Y-82973663D01*
X157167734Y-82978647D01*
X157212081Y-83007148D01*
X157287007Y-83082074D01*
X157287008Y-83082074D01*
X157287010Y-83082076D01*
X157400196Y-83137409D01*
X157473573Y-83148100D01*
X158045226Y-83148099D01*
X158118604Y-83137409D01*
X158231790Y-83082076D01*
X158237059Y-83076807D01*
X158306719Y-83007148D01*
X158368042Y-82973663D01*
X158437734Y-82978647D01*
X158482081Y-83007148D01*
X158557007Y-83082074D01*
X158557008Y-83082074D01*
X158557010Y-83082076D01*
X158670196Y-83137409D01*
X158743573Y-83148100D01*
X159315226Y-83148099D01*
X159388604Y-83137409D01*
X159501790Y-83082076D01*
X159507059Y-83076807D01*
X159576719Y-83007148D01*
X159638042Y-82973663D01*
X159707734Y-82978647D01*
X159752081Y-83007148D01*
X159827007Y-83082074D01*
X159827008Y-83082074D01*
X159827010Y-83082076D01*
X159940196Y-83137409D01*
X160013573Y-83148100D01*
X160585226Y-83148099D01*
X160658604Y-83137409D01*
X160771790Y-83082076D01*
X160777059Y-83076807D01*
X160846719Y-83007148D01*
X160908042Y-82973663D01*
X160977734Y-82978647D01*
X161022081Y-83007148D01*
X161097007Y-83082074D01*
X161097008Y-83082074D01*
X161097010Y-83082076D01*
X161210196Y-83137409D01*
X161283573Y-83148100D01*
X161855226Y-83148099D01*
X161928604Y-83137409D01*
X162041790Y-83082076D01*
X162047059Y-83076807D01*
X162116719Y-83007148D01*
X162178042Y-82973663D01*
X162247734Y-82978647D01*
X162292081Y-83007148D01*
X162367007Y-83082074D01*
X162367008Y-83082074D01*
X162367010Y-83082076D01*
X162480196Y-83137409D01*
X162553573Y-83148100D01*
X163125226Y-83148099D01*
X163198604Y-83137409D01*
X163311790Y-83082076D01*
X163317059Y-83076807D01*
X163386719Y-83007148D01*
X163448042Y-82973663D01*
X163517734Y-82978647D01*
X163562081Y-83007148D01*
X163637007Y-83082074D01*
X163637008Y-83082074D01*
X163637010Y-83082076D01*
X163750196Y-83137409D01*
X163823573Y-83148100D01*
X164395226Y-83148099D01*
X164468604Y-83137409D01*
X164581790Y-83082076D01*
X164587059Y-83076807D01*
X164656719Y-83007148D01*
X164718042Y-82973663D01*
X164787734Y-82978647D01*
X164832081Y-83007148D01*
X164907007Y-83082074D01*
X164907008Y-83082074D01*
X164907010Y-83082076D01*
X165020196Y-83137409D01*
X165093573Y-83148100D01*
X165665226Y-83148099D01*
X165738604Y-83137409D01*
X165851790Y-83082076D01*
X165857059Y-83076807D01*
X165926719Y-83007148D01*
X165988042Y-82973663D01*
X166057734Y-82978647D01*
X166102081Y-83007148D01*
X166177007Y-83082074D01*
X166177008Y-83082074D01*
X166177010Y-83082076D01*
X166290196Y-83137409D01*
X166363573Y-83148100D01*
X166935226Y-83148099D01*
X166935226Y-83148098D01*
X166939693Y-83147775D01*
X166939803Y-83149296D01*
X167002491Y-83158178D01*
X167055389Y-83203824D01*
X167056750Y-83205980D01*
X167077082Y-83238943D01*
X167201054Y-83362915D01*
X167350275Y-83454956D01*
X167350280Y-83454958D01*
X167516702Y-83510105D01*
X167516709Y-83510106D01*
X167619419Y-83520599D01*
X167669399Y-83520598D01*
X167669400Y-83520598D01*
X167669400Y-81020600D01*
X167669399Y-81020599D01*
X167619429Y-81020600D01*
X167619411Y-81020601D01*
X167516702Y-81031094D01*
X167350280Y-81086241D01*
X167350275Y-81086243D01*
X167201057Y-81178282D01*
X167077080Y-81302258D01*
X167056749Y-81335219D01*
X167004800Y-81381943D01*
X166939763Y-81392524D01*
X166939698Y-81393424D01*
X166935917Y-81393149D01*
X166935837Y-81393163D01*
X166935535Y-81393122D01*
X166935229Y-81393100D01*
X166363579Y-81393100D01*
X166290196Y-81403791D01*
X166177007Y-81459125D01*
X166102081Y-81534052D01*
X166040758Y-81567537D01*
X165971066Y-81562553D01*
X165926719Y-81534052D01*
X165851792Y-81459125D01*
X165738602Y-81403790D01*
X165665227Y-81393100D01*
X165093579Y-81393100D01*
X165020196Y-81403791D01*
X164907007Y-81459125D01*
X164832081Y-81534052D01*
X164770758Y-81567537D01*
X164701066Y-81562553D01*
X164656719Y-81534052D01*
X164581792Y-81459125D01*
X164468602Y-81403790D01*
X164395227Y-81393100D01*
X163823579Y-81393100D01*
X163750196Y-81403791D01*
X163637007Y-81459125D01*
X163562081Y-81534052D01*
X163500758Y-81567537D01*
X163431066Y-81562553D01*
X163386719Y-81534052D01*
X163311792Y-81459125D01*
X163198602Y-81403790D01*
X163125227Y-81393100D01*
X162553579Y-81393100D01*
X162480196Y-81403791D01*
X162367007Y-81459125D01*
X162292081Y-81534052D01*
X162230758Y-81567537D01*
X162161066Y-81562553D01*
X162116719Y-81534052D01*
X162041792Y-81459125D01*
X161928602Y-81403790D01*
X161855228Y-81393100D01*
X161492375Y-81393100D01*
X161425336Y-81373415D01*
X161379581Y-81320611D01*
X161369637Y-81251453D01*
X161398662Y-81187897D01*
X161404680Y-81181433D01*
X162856795Y-79729319D01*
X162918118Y-79695834D01*
X162944476Y-79693000D01*
X170564000Y-79693000D01*
X170631039Y-79712685D01*
X170676794Y-79765489D01*
X170688000Y-79817000D01*
X170688000Y-85282192D01*
X170672635Y-85336374D01*
X170674694Y-85337334D01*
X170671642Y-85343877D01*
X170616494Y-85510302D01*
X170616493Y-85510309D01*
X170606000Y-85613013D01*
X170606000Y-85750500D01*
X170688000Y-85750500D01*
X170688000Y-86250500D01*
X170606001Y-86250500D01*
X170606001Y-86387986D01*
X170616494Y-86490697D01*
X170671641Y-86657120D01*
X170674696Y-86663671D01*
X170672632Y-86664633D01*
X170688000Y-86718809D01*
X170688000Y-88275504D01*
X170668315Y-88342543D01*
X170615511Y-88388298D01*
X170564000Y-88399504D01*
X152270000Y-88399507D01*
X152202961Y-88379822D01*
X152157206Y-88327018D01*
X152146000Y-88275507D01*
X152146000Y-83308327D01*
X152165685Y-83241288D01*
X152218489Y-83195533D01*
X152287647Y-83185589D01*
X152351203Y-83214614D01*
X152357681Y-83220646D01*
X154420558Y-85283524D01*
X154420563Y-85283527D01*
X154477472Y-85316383D01*
X154477476Y-85316384D01*
X154519139Y-85340439D01*
X154629087Y-85369900D01*
X154629089Y-85369900D01*
X168509712Y-85369900D01*
X168509714Y-85369900D01*
X168619662Y-85340439D01*
X168718239Y-85283526D01*
X169535326Y-84466438D01*
X169592239Y-84367861D01*
X169621700Y-84257913D01*
X169621700Y-84144086D01*
X169621700Y-83173528D01*
X169641385Y-83106489D01*
X169658019Y-83085846D01*
X169661788Y-83082076D01*
X169661790Y-83082076D01*
X169750876Y-82992990D01*
X169806209Y-82879804D01*
X169816900Y-82806427D01*
X169816899Y-81734774D01*
X169806209Y-81661396D01*
X169750876Y-81548210D01*
X169750874Y-81548208D01*
X169750874Y-81548207D01*
X169661792Y-81459125D01*
X169548602Y-81403790D01*
X169475227Y-81393100D01*
X168903574Y-81393100D01*
X168899107Y-81393425D01*
X168898997Y-81391915D01*
X168836258Y-81382999D01*
X168783380Y-81337329D01*
X168782049Y-81335219D01*
X168761717Y-81302256D01*
X168637745Y-81178284D01*
X168488524Y-81086243D01*
X168488519Y-81086241D01*
X168322097Y-81031094D01*
X168322090Y-81031093D01*
X168219386Y-81020600D01*
X168169400Y-81020600D01*
X168169400Y-83520599D01*
X168219372Y-83520599D01*
X168219386Y-83520598D01*
X168322097Y-83510105D01*
X168488519Y-83454958D01*
X168488524Y-83454956D01*
X168568003Y-83405933D01*
X168635395Y-83387493D01*
X168702059Y-83408415D01*
X168746829Y-83462057D01*
X168757100Y-83511472D01*
X168757100Y-83970573D01*
X168737415Y-84037612D01*
X168720781Y-84058254D01*
X168310054Y-84468981D01*
X168248731Y-84502466D01*
X168222373Y-84505300D01*
X154916427Y-84505300D01*
X154849388Y-84485615D01*
X154828746Y-84468981D01*
X152411440Y-82051675D01*
X152411432Y-82051669D01*
X152312868Y-81994764D01*
X152312864Y-81994762D01*
X152312862Y-81994761D01*
X152312860Y-81994760D01*
X152312857Y-81994759D01*
X152237905Y-81974675D01*
X152178245Y-81938310D01*
X152147717Y-81875462D01*
X152146000Y-81854901D01*
X152146000Y-76324000D01*
X152165685Y-76256961D01*
X152218489Y-76211206D01*
X152270000Y-76200000D01*
X153416000Y-76200000D01*
X160020000Y-76200000D01*
X160020000Y-78425000D01*
G37*
%TD.AperFunction*%
%TD*%
%TA.AperFunction,Conductor*%
%TO.N,GND*%
G36*
X154859379Y-62325885D02*
G01*
X154903740Y-62375740D01*
X154936322Y-62442389D01*
X155025407Y-62531474D01*
X155025408Y-62531474D01*
X155025410Y-62531476D01*
X155138596Y-62586809D01*
X155211973Y-62597500D01*
X155908626Y-62597499D01*
X155982004Y-62586809D01*
X156095190Y-62531476D01*
X156184276Y-62442390D01*
X156184277Y-62442389D01*
X156216860Y-62375740D01*
X156263987Y-62324157D01*
X156328260Y-62306200D01*
X157717340Y-62306200D01*
X157784379Y-62325885D01*
X157828740Y-62375740D01*
X157861322Y-62442389D01*
X157950407Y-62531474D01*
X157950408Y-62531474D01*
X157950410Y-62531476D01*
X158063596Y-62586809D01*
X158136973Y-62597500D01*
X158435001Y-62597499D01*
X158502039Y-62617183D01*
X158547794Y-62669987D01*
X158559000Y-62721499D01*
X158559000Y-63226227D01*
X158539315Y-63293266D01*
X158486511Y-63339021D01*
X158417353Y-63348965D01*
X158369904Y-63331766D01*
X158328528Y-63306245D01*
X158328519Y-63306241D01*
X158162097Y-63251094D01*
X158162090Y-63251093D01*
X158059386Y-63240600D01*
X158009400Y-63240600D01*
X158009400Y-65740599D01*
X158059372Y-65740599D01*
X158059386Y-65740598D01*
X158162097Y-65730105D01*
X158328519Y-65674958D01*
X158328524Y-65674956D01*
X158477745Y-65582915D01*
X158601717Y-65458943D01*
X158622047Y-65425983D01*
X158673994Y-65379258D01*
X158739036Y-65368672D01*
X158739102Y-65367776D01*
X158742869Y-65368049D01*
X158742956Y-65368035D01*
X158743279Y-65368078D01*
X158743562Y-65368098D01*
X158743573Y-65368100D01*
X158950421Y-65368099D01*
X159017461Y-65387783D01*
X159038103Y-65404418D01*
X159983681Y-66349996D01*
X160017166Y-66411319D01*
X160020000Y-66437677D01*
X160020000Y-76200000D01*
X153416000Y-76200000D01*
X153416000Y-73952300D01*
X153435685Y-73885261D01*
X153488489Y-73839506D01*
X153507895Y-73832528D01*
X153616458Y-73803439D01*
X153715035Y-73746526D01*
X156835326Y-70626235D01*
X156892239Y-70527658D01*
X156921700Y-70417710D01*
X156921700Y-70303882D01*
X156921700Y-65731472D01*
X156941385Y-65664433D01*
X156994189Y-65618678D01*
X157063347Y-65608734D01*
X157110797Y-65625933D01*
X157190275Y-65674956D01*
X157190280Y-65674958D01*
X157356702Y-65730105D01*
X157356709Y-65730106D01*
X157459419Y-65740599D01*
X157509399Y-65740598D01*
X157509400Y-65740598D01*
X157509400Y-63240600D01*
X157509399Y-63240599D01*
X157459429Y-63240600D01*
X157459411Y-63240601D01*
X157356702Y-63251094D01*
X157190280Y-63306241D01*
X157190275Y-63306243D01*
X157041057Y-63398282D01*
X156917080Y-63522258D01*
X156896749Y-63555219D01*
X156844800Y-63601943D01*
X156779763Y-63612524D01*
X156779698Y-63613424D01*
X156775917Y-63613149D01*
X156775837Y-63613163D01*
X156775535Y-63613122D01*
X156775229Y-63613100D01*
X156203579Y-63613100D01*
X156130196Y-63623791D01*
X156017007Y-63679125D01*
X155927925Y-63768207D01*
X155872590Y-63881397D01*
X155861900Y-63954772D01*
X155861900Y-65026425D01*
X155872591Y-65099804D01*
X155927924Y-65212990D01*
X156017010Y-65302076D01*
X156017011Y-65302076D01*
X156020781Y-65305846D01*
X156054266Y-65367169D01*
X156057100Y-65393528D01*
X156057100Y-70130369D01*
X156037415Y-70197408D01*
X156020781Y-70218050D01*
X153627681Y-72611150D01*
X153566358Y-72644635D01*
X153496666Y-72639651D01*
X153440733Y-72597779D01*
X153416316Y-72532315D01*
X153416000Y-72523469D01*
X153416000Y-62430200D01*
X153435685Y-62363161D01*
X153488489Y-62317406D01*
X153540000Y-62306200D01*
X154792340Y-62306200D01*
X154859379Y-62325885D01*
G37*
%TD.AperFunction*%
%TD*%
M02*
