%TF.GenerationSoftware,KiCad,Pcbnew,8.0.2*%
%TF.CreationDate,2024-06-14T11:54:08+02:00*%
%TF.ProjectId,LoraSensor,4c6f7261-5365-46e7-936f-722e6b696361,rev?*%
%TF.SameCoordinates,Original*%
%TF.FileFunction,Legend,Top*%
%TF.FilePolarity,Positive*%
%FSLAX46Y46*%
G04 Gerber Fmt 4.6, Leading zero omitted, Abs format (unit mm)*
G04 Created by KiCad (PCBNEW 8.0.2) date 2024-06-14 11:54:08*
%MOMM*%
%LPD*%
G01*
G04 APERTURE LIST*
%ADD10C,0.127000*%
%ADD11C,0.100000*%
%ADD12C,0.150000*%
%ADD13C,0.120000*%
%ADD14C,0.200000*%
%ADD15C,0.152400*%
G04 APERTURE END LIST*
D10*
X187960000Y-64201600D02*
X187960000Y-64201600D01*
X187960000Y-64709600D02*
X187960000Y-64709600D01*
X187960000Y-65217600D02*
X187960000Y-65217600D01*
X187960000Y-65725600D02*
X187960000Y-65725600D01*
X187960000Y-66233600D02*
X187960000Y-66233600D01*
X187960000Y-66741600D02*
X187960000Y-66741600D01*
X187960000Y-67249600D02*
X187960000Y-67249600D01*
X187960000Y-67757600D02*
X187960000Y-67757600D01*
X187960000Y-68265600D02*
X187960000Y-68265600D01*
X187960000Y-68773600D02*
X187960000Y-68773600D01*
X187960000Y-69281600D02*
X187960000Y-69281600D01*
X187960000Y-69789600D02*
X187960000Y-69789600D01*
X187960000Y-70297600D02*
X187960000Y-70297600D01*
X187960000Y-70805600D02*
X187960000Y-70805600D01*
X187960000Y-71313600D02*
X187960000Y-71313600D01*
X187960000Y-71821600D02*
X187960000Y-71821600D01*
X187960000Y-72329600D02*
X187960000Y-72329600D01*
X187960000Y-72837600D02*
X187960000Y-72837600D01*
X187960000Y-73345600D02*
X187960000Y-73345600D01*
X187960000Y-73853600D02*
X187960000Y-73853600D01*
X187960000Y-74361600D02*
X187960000Y-74361600D01*
X187960000Y-74869600D02*
X187960000Y-74869600D01*
X187960000Y-75377600D02*
X187960000Y-75377600D01*
X187960000Y-75885600D02*
X187960000Y-75885600D01*
X187960000Y-76393600D02*
X187960000Y-76393600D01*
X187960000Y-76901600D02*
X187960000Y-76901600D01*
X187960000Y-77409600D02*
X187960000Y-77409600D01*
X187960000Y-77917600D02*
X187960000Y-77917600D01*
X187960000Y-78425600D02*
X187960000Y-78425600D01*
X187960000Y-78933600D02*
X187960000Y-78933600D01*
X187960000Y-79441600D02*
X187960000Y-79441600D01*
X187960000Y-79949600D02*
X187960000Y-79949600D01*
X187960000Y-80457600D02*
X187960000Y-80457600D01*
X187960000Y-80965600D02*
X187960000Y-80965600D01*
X187960000Y-81473600D02*
X187960000Y-81473600D01*
X187960000Y-81981600D02*
X187960000Y-81981600D01*
X187960000Y-82489600D02*
X187960000Y-82489600D01*
X187960000Y-82997600D02*
X187960000Y-82997600D01*
D11*
X215900000Y-66040000D02*
X215900000Y-81280000D01*
X147134874Y-61086419D02*
X146658684Y-61086419D01*
X146658684Y-61086419D02*
X146658684Y-60086419D01*
X147611065Y-61086419D02*
X147515827Y-61038800D01*
X147515827Y-61038800D02*
X147468208Y-60991180D01*
X147468208Y-60991180D02*
X147420589Y-60895942D01*
X147420589Y-60895942D02*
X147420589Y-60610228D01*
X147420589Y-60610228D02*
X147468208Y-60514990D01*
X147468208Y-60514990D02*
X147515827Y-60467371D01*
X147515827Y-60467371D02*
X147611065Y-60419752D01*
X147611065Y-60419752D02*
X147753922Y-60419752D01*
X147753922Y-60419752D02*
X147849160Y-60467371D01*
X147849160Y-60467371D02*
X147896779Y-60514990D01*
X147896779Y-60514990D02*
X147944398Y-60610228D01*
X147944398Y-60610228D02*
X147944398Y-60895942D01*
X147944398Y-60895942D02*
X147896779Y-60991180D01*
X147896779Y-60991180D02*
X147849160Y-61038800D01*
X147849160Y-61038800D02*
X147753922Y-61086419D01*
X147753922Y-61086419D02*
X147611065Y-61086419D01*
X148944398Y-61086419D02*
X148611065Y-60610228D01*
X148372970Y-61086419D02*
X148372970Y-60086419D01*
X148372970Y-60086419D02*
X148753922Y-60086419D01*
X148753922Y-60086419D02*
X148849160Y-60134038D01*
X148849160Y-60134038D02*
X148896779Y-60181657D01*
X148896779Y-60181657D02*
X148944398Y-60276895D01*
X148944398Y-60276895D02*
X148944398Y-60419752D01*
X148944398Y-60419752D02*
X148896779Y-60514990D01*
X148896779Y-60514990D02*
X148849160Y-60562609D01*
X148849160Y-60562609D02*
X148753922Y-60610228D01*
X148753922Y-60610228D02*
X148372970Y-60610228D01*
X149801541Y-61086419D02*
X149801541Y-60562609D01*
X149801541Y-60562609D02*
X149753922Y-60467371D01*
X149753922Y-60467371D02*
X149658684Y-60419752D01*
X149658684Y-60419752D02*
X149468208Y-60419752D01*
X149468208Y-60419752D02*
X149372970Y-60467371D01*
X149801541Y-61038800D02*
X149706303Y-61086419D01*
X149706303Y-61086419D02*
X149468208Y-61086419D01*
X149468208Y-61086419D02*
X149372970Y-61038800D01*
X149372970Y-61038800D02*
X149325351Y-60943561D01*
X149325351Y-60943561D02*
X149325351Y-60848323D01*
X149325351Y-60848323D02*
X149372970Y-60753085D01*
X149372970Y-60753085D02*
X149468208Y-60705466D01*
X149468208Y-60705466D02*
X149706303Y-60705466D01*
X149706303Y-60705466D02*
X149801541Y-60657847D01*
X143550475Y-85137238D02*
X143550475Y-85613428D01*
X143550475Y-85613428D02*
X142550475Y-85613428D01*
X143550475Y-84661047D02*
X143502856Y-84756285D01*
X143502856Y-84756285D02*
X143455236Y-84803904D01*
X143455236Y-84803904D02*
X143359998Y-84851523D01*
X143359998Y-84851523D02*
X143074284Y-84851523D01*
X143074284Y-84851523D02*
X142979046Y-84803904D01*
X142979046Y-84803904D02*
X142931427Y-84756285D01*
X142931427Y-84756285D02*
X142883808Y-84661047D01*
X142883808Y-84661047D02*
X142883808Y-84518190D01*
X142883808Y-84518190D02*
X142931427Y-84422952D01*
X142931427Y-84422952D02*
X142979046Y-84375333D01*
X142979046Y-84375333D02*
X143074284Y-84327714D01*
X143074284Y-84327714D02*
X143359998Y-84327714D01*
X143359998Y-84327714D02*
X143455236Y-84375333D01*
X143455236Y-84375333D02*
X143502856Y-84422952D01*
X143502856Y-84422952D02*
X143550475Y-84518190D01*
X143550475Y-84518190D02*
X143550475Y-84661047D01*
X143550475Y-83899142D02*
X142883808Y-83899142D01*
X143074284Y-83899142D02*
X142979046Y-83851523D01*
X142979046Y-83851523D02*
X142931427Y-83803904D01*
X142931427Y-83803904D02*
X142883808Y-83708666D01*
X142883808Y-83708666D02*
X142883808Y-83613428D01*
X143550475Y-82851523D02*
X143026665Y-82851523D01*
X143026665Y-82851523D02*
X142931427Y-82899142D01*
X142931427Y-82899142D02*
X142883808Y-82994380D01*
X142883808Y-82994380D02*
X142883808Y-83184856D01*
X142883808Y-83184856D02*
X142931427Y-83280094D01*
X143502856Y-82851523D02*
X143550475Y-82946761D01*
X143550475Y-82946761D02*
X143550475Y-83184856D01*
X143550475Y-83184856D02*
X143502856Y-83280094D01*
X143502856Y-83280094D02*
X143407617Y-83327713D01*
X143407617Y-83327713D02*
X143312379Y-83327713D01*
X143312379Y-83327713D02*
X143217141Y-83280094D01*
X143217141Y-83280094D02*
X143169522Y-83184856D01*
X143169522Y-83184856D02*
X143169522Y-82946761D01*
X143169522Y-82946761D02*
X143121903Y-82851523D01*
X143502856Y-82422951D02*
X143550475Y-82280094D01*
X143550475Y-82280094D02*
X143550475Y-82041999D01*
X143550475Y-82041999D02*
X143502856Y-81946761D01*
X143502856Y-81946761D02*
X143455236Y-81899142D01*
X143455236Y-81899142D02*
X143359998Y-81851523D01*
X143359998Y-81851523D02*
X143264760Y-81851523D01*
X143264760Y-81851523D02*
X143169522Y-81899142D01*
X143169522Y-81899142D02*
X143121903Y-81946761D01*
X143121903Y-81946761D02*
X143074284Y-82041999D01*
X143074284Y-82041999D02*
X143026665Y-82232475D01*
X143026665Y-82232475D02*
X142979046Y-82327713D01*
X142979046Y-82327713D02*
X142931427Y-82375332D01*
X142931427Y-82375332D02*
X142836189Y-82422951D01*
X142836189Y-82422951D02*
X142740951Y-82422951D01*
X142740951Y-82422951D02*
X142645713Y-82375332D01*
X142645713Y-82375332D02*
X142598094Y-82327713D01*
X142598094Y-82327713D02*
X142550475Y-82232475D01*
X142550475Y-82232475D02*
X142550475Y-81994380D01*
X142550475Y-81994380D02*
X142598094Y-81851523D01*
X143502856Y-81041999D02*
X143550475Y-81137237D01*
X143550475Y-81137237D02*
X143550475Y-81327713D01*
X143550475Y-81327713D02*
X143502856Y-81422951D01*
X143502856Y-81422951D02*
X143407617Y-81470570D01*
X143407617Y-81470570D02*
X143026665Y-81470570D01*
X143026665Y-81470570D02*
X142931427Y-81422951D01*
X142931427Y-81422951D02*
X142883808Y-81327713D01*
X142883808Y-81327713D02*
X142883808Y-81137237D01*
X142883808Y-81137237D02*
X142931427Y-81041999D01*
X142931427Y-81041999D02*
X143026665Y-80994380D01*
X143026665Y-80994380D02*
X143121903Y-80994380D01*
X143121903Y-80994380D02*
X143217141Y-81470570D01*
X142883808Y-80565808D02*
X143550475Y-80565808D01*
X142979046Y-80565808D02*
X142931427Y-80518189D01*
X142931427Y-80518189D02*
X142883808Y-80422951D01*
X142883808Y-80422951D02*
X142883808Y-80280094D01*
X142883808Y-80280094D02*
X142931427Y-80184856D01*
X142931427Y-80184856D02*
X143026665Y-80137237D01*
X143026665Y-80137237D02*
X143550475Y-80137237D01*
X143502856Y-79708665D02*
X143550475Y-79613427D01*
X143550475Y-79613427D02*
X143550475Y-79422951D01*
X143550475Y-79422951D02*
X143502856Y-79327713D01*
X143502856Y-79327713D02*
X143407617Y-79280094D01*
X143407617Y-79280094D02*
X143359998Y-79280094D01*
X143359998Y-79280094D02*
X143264760Y-79327713D01*
X143264760Y-79327713D02*
X143217141Y-79422951D01*
X143217141Y-79422951D02*
X143217141Y-79565808D01*
X143217141Y-79565808D02*
X143169522Y-79661046D01*
X143169522Y-79661046D02*
X143074284Y-79708665D01*
X143074284Y-79708665D02*
X143026665Y-79708665D01*
X143026665Y-79708665D02*
X142931427Y-79661046D01*
X142931427Y-79661046D02*
X142883808Y-79565808D01*
X142883808Y-79565808D02*
X142883808Y-79422951D01*
X142883808Y-79422951D02*
X142931427Y-79327713D01*
X143502856Y-78470570D02*
X143550475Y-78565808D01*
X143550475Y-78565808D02*
X143550475Y-78756284D01*
X143550475Y-78756284D02*
X143502856Y-78851522D01*
X143502856Y-78851522D02*
X143407617Y-78899141D01*
X143407617Y-78899141D02*
X143026665Y-78899141D01*
X143026665Y-78899141D02*
X142931427Y-78851522D01*
X142931427Y-78851522D02*
X142883808Y-78756284D01*
X142883808Y-78756284D02*
X142883808Y-78565808D01*
X142883808Y-78565808D02*
X142931427Y-78470570D01*
X142931427Y-78470570D02*
X143026665Y-78422951D01*
X143026665Y-78422951D02*
X143121903Y-78422951D01*
X143121903Y-78422951D02*
X143217141Y-78899141D01*
X145160419Y-82470571D02*
X145160419Y-83041999D01*
X145160419Y-82756285D02*
X144160419Y-82756285D01*
X144160419Y-82756285D02*
X144303276Y-82851523D01*
X144303276Y-82851523D02*
X144398514Y-82946761D01*
X144398514Y-82946761D02*
X144446133Y-83041999D01*
X145065180Y-82041999D02*
X145112800Y-81994380D01*
X145112800Y-81994380D02*
X145160419Y-82041999D01*
X145160419Y-82041999D02*
X145112800Y-82089618D01*
X145112800Y-82089618D02*
X145065180Y-82041999D01*
X145065180Y-82041999D02*
X145160419Y-82041999D01*
X145160419Y-81042000D02*
X145160419Y-81613428D01*
X145160419Y-81327714D02*
X144160419Y-81327714D01*
X144160419Y-81327714D02*
X144303276Y-81422952D01*
X144303276Y-81422952D02*
X144398514Y-81518190D01*
X144398514Y-81518190D02*
X144446133Y-81613428D01*
X161117598Y-70754419D02*
X161117598Y-71468704D01*
X161117598Y-71468704D02*
X161069979Y-71611561D01*
X161069979Y-71611561D02*
X160974741Y-71706800D01*
X160974741Y-71706800D02*
X160831884Y-71754419D01*
X160831884Y-71754419D02*
X160736646Y-71754419D01*
X162069979Y-71754419D02*
X161593789Y-71754419D01*
X161593789Y-71754419D02*
X161593789Y-70754419D01*
X162974741Y-71659180D02*
X162927122Y-71706800D01*
X162927122Y-71706800D02*
X162784265Y-71754419D01*
X162784265Y-71754419D02*
X162689027Y-71754419D01*
X162689027Y-71754419D02*
X162546170Y-71706800D01*
X162546170Y-71706800D02*
X162450932Y-71611561D01*
X162450932Y-71611561D02*
X162403313Y-71516323D01*
X162403313Y-71516323D02*
X162355694Y-71325847D01*
X162355694Y-71325847D02*
X162355694Y-71182990D01*
X162355694Y-71182990D02*
X162403313Y-70992514D01*
X162403313Y-70992514D02*
X162450932Y-70897276D01*
X162450932Y-70897276D02*
X162546170Y-70802038D01*
X162546170Y-70802038D02*
X162689027Y-70754419D01*
X162689027Y-70754419D02*
X162784265Y-70754419D01*
X162784265Y-70754419D02*
X162927122Y-70802038D01*
X162927122Y-70802038D02*
X162974741Y-70849657D01*
X163689027Y-70754419D02*
X163689027Y-71468704D01*
X163689027Y-71468704D02*
X163641408Y-71611561D01*
X163641408Y-71611561D02*
X163546170Y-71706800D01*
X163546170Y-71706800D02*
X163403313Y-71754419D01*
X163403313Y-71754419D02*
X163308075Y-71754419D01*
X164641408Y-71754419D02*
X164165218Y-71754419D01*
X164165218Y-71754419D02*
X164165218Y-70754419D01*
X165546170Y-71659180D02*
X165498551Y-71706800D01*
X165498551Y-71706800D02*
X165355694Y-71754419D01*
X165355694Y-71754419D02*
X165260456Y-71754419D01*
X165260456Y-71754419D02*
X165117599Y-71706800D01*
X165117599Y-71706800D02*
X165022361Y-71611561D01*
X165022361Y-71611561D02*
X164974742Y-71516323D01*
X164974742Y-71516323D02*
X164927123Y-71325847D01*
X164927123Y-71325847D02*
X164927123Y-71182990D01*
X164927123Y-71182990D02*
X164974742Y-70992514D01*
X164974742Y-70992514D02*
X165022361Y-70897276D01*
X165022361Y-70897276D02*
X165117599Y-70802038D01*
X165117599Y-70802038D02*
X165260456Y-70754419D01*
X165260456Y-70754419D02*
X165355694Y-70754419D01*
X165355694Y-70754419D02*
X165498551Y-70802038D01*
X165498551Y-70802038D02*
X165546170Y-70849657D01*
X166260456Y-70754419D02*
X166260456Y-71468704D01*
X166260456Y-71468704D02*
X166212837Y-71611561D01*
X166212837Y-71611561D02*
X166117599Y-71706800D01*
X166117599Y-71706800D02*
X165974742Y-71754419D01*
X165974742Y-71754419D02*
X165879504Y-71754419D01*
X167212837Y-71754419D02*
X166736647Y-71754419D01*
X166736647Y-71754419D02*
X166736647Y-70754419D01*
X168117599Y-71659180D02*
X168069980Y-71706800D01*
X168069980Y-71706800D02*
X167927123Y-71754419D01*
X167927123Y-71754419D02*
X167831885Y-71754419D01*
X167831885Y-71754419D02*
X167689028Y-71706800D01*
X167689028Y-71706800D02*
X167593790Y-71611561D01*
X167593790Y-71611561D02*
X167546171Y-71516323D01*
X167546171Y-71516323D02*
X167498552Y-71325847D01*
X167498552Y-71325847D02*
X167498552Y-71182990D01*
X167498552Y-71182990D02*
X167546171Y-70992514D01*
X167546171Y-70992514D02*
X167593790Y-70897276D01*
X167593790Y-70897276D02*
X167689028Y-70802038D01*
X167689028Y-70802038D02*
X167831885Y-70754419D01*
X167831885Y-70754419D02*
X167927123Y-70754419D01*
X167927123Y-70754419D02*
X168069980Y-70802038D01*
X168069980Y-70802038D02*
X168117599Y-70849657D01*
X168831885Y-70754419D02*
X168831885Y-71468704D01*
X168831885Y-71468704D02*
X168784266Y-71611561D01*
X168784266Y-71611561D02*
X168689028Y-71706800D01*
X168689028Y-71706800D02*
X168546171Y-71754419D01*
X168546171Y-71754419D02*
X168450933Y-71754419D01*
X169784266Y-71754419D02*
X169308076Y-71754419D01*
X169308076Y-71754419D02*
X169308076Y-70754419D01*
X170689028Y-71659180D02*
X170641409Y-71706800D01*
X170641409Y-71706800D02*
X170498552Y-71754419D01*
X170498552Y-71754419D02*
X170403314Y-71754419D01*
X170403314Y-71754419D02*
X170260457Y-71706800D01*
X170260457Y-71706800D02*
X170165219Y-71611561D01*
X170165219Y-71611561D02*
X170117600Y-71516323D01*
X170117600Y-71516323D02*
X170069981Y-71325847D01*
X170069981Y-71325847D02*
X170069981Y-71182990D01*
X170069981Y-71182990D02*
X170117600Y-70992514D01*
X170117600Y-70992514D02*
X170165219Y-70897276D01*
X170165219Y-70897276D02*
X170260457Y-70802038D01*
X170260457Y-70802038D02*
X170403314Y-70754419D01*
X170403314Y-70754419D02*
X170498552Y-70754419D01*
X170498552Y-70754419D02*
X170641409Y-70802038D01*
X170641409Y-70802038D02*
X170689028Y-70849657D01*
X150843752Y-86811753D02*
X151510419Y-86621277D01*
X151510419Y-86621277D02*
X151034228Y-86430801D01*
X151034228Y-86430801D02*
X151510419Y-86240325D01*
X151510419Y-86240325D02*
X150843752Y-86049849D01*
X151510419Y-85668896D02*
X150843752Y-85668896D01*
X150510419Y-85668896D02*
X150558038Y-85716515D01*
X150558038Y-85716515D02*
X150605657Y-85668896D01*
X150605657Y-85668896D02*
X150558038Y-85621277D01*
X150558038Y-85621277D02*
X150510419Y-85668896D01*
X150510419Y-85668896D02*
X150605657Y-85668896D01*
X150843752Y-85335563D02*
X150843752Y-84954611D01*
X151510419Y-85192706D02*
X150653276Y-85192706D01*
X150653276Y-85192706D02*
X150558038Y-85145087D01*
X150558038Y-85145087D02*
X150510419Y-85049849D01*
X150510419Y-85049849D02*
X150510419Y-84954611D01*
X151510419Y-84621277D02*
X150843752Y-84621277D01*
X150510419Y-84621277D02*
X150558038Y-84668896D01*
X150558038Y-84668896D02*
X150605657Y-84621277D01*
X150605657Y-84621277D02*
X150558038Y-84573658D01*
X150558038Y-84573658D02*
X150510419Y-84621277D01*
X150510419Y-84621277D02*
X150605657Y-84621277D01*
D12*
X176363333Y-78432819D02*
X176030000Y-77956628D01*
X175791905Y-78432819D02*
X175791905Y-77432819D01*
X175791905Y-77432819D02*
X176172857Y-77432819D01*
X176172857Y-77432819D02*
X176268095Y-77480438D01*
X176268095Y-77480438D02*
X176315714Y-77528057D01*
X176315714Y-77528057D02*
X176363333Y-77623295D01*
X176363333Y-77623295D02*
X176363333Y-77766152D01*
X176363333Y-77766152D02*
X176315714Y-77861390D01*
X176315714Y-77861390D02*
X176268095Y-77909009D01*
X176268095Y-77909009D02*
X176172857Y-77956628D01*
X176172857Y-77956628D02*
X175791905Y-77956628D01*
X176696667Y-77432819D02*
X177315714Y-77432819D01*
X177315714Y-77432819D02*
X176982381Y-77813771D01*
X176982381Y-77813771D02*
X177125238Y-77813771D01*
X177125238Y-77813771D02*
X177220476Y-77861390D01*
X177220476Y-77861390D02*
X177268095Y-77909009D01*
X177268095Y-77909009D02*
X177315714Y-78004247D01*
X177315714Y-78004247D02*
X177315714Y-78242342D01*
X177315714Y-78242342D02*
X177268095Y-78337580D01*
X177268095Y-78337580D02*
X177220476Y-78385200D01*
X177220476Y-78385200D02*
X177125238Y-78432819D01*
X177125238Y-78432819D02*
X176839524Y-78432819D01*
X176839524Y-78432819D02*
X176744286Y-78385200D01*
X176744286Y-78385200D02*
X176696667Y-78337580D01*
X162077495Y-72835419D02*
X162077495Y-73644942D01*
X162077495Y-73644942D02*
X162125114Y-73740180D01*
X162125114Y-73740180D02*
X162172733Y-73787800D01*
X162172733Y-73787800D02*
X162267971Y-73835419D01*
X162267971Y-73835419D02*
X162458447Y-73835419D01*
X162458447Y-73835419D02*
X162553685Y-73787800D01*
X162553685Y-73787800D02*
X162601304Y-73740180D01*
X162601304Y-73740180D02*
X162648923Y-73644942D01*
X162648923Y-73644942D02*
X162648923Y-72835419D01*
X163029876Y-72835419D02*
X163648923Y-72835419D01*
X163648923Y-72835419D02*
X163315590Y-73216371D01*
X163315590Y-73216371D02*
X163458447Y-73216371D01*
X163458447Y-73216371D02*
X163553685Y-73263990D01*
X163553685Y-73263990D02*
X163601304Y-73311609D01*
X163601304Y-73311609D02*
X163648923Y-73406847D01*
X163648923Y-73406847D02*
X163648923Y-73644942D01*
X163648923Y-73644942D02*
X163601304Y-73740180D01*
X163601304Y-73740180D02*
X163553685Y-73787800D01*
X163553685Y-73787800D02*
X163458447Y-73835419D01*
X163458447Y-73835419D02*
X163172733Y-73835419D01*
X163172733Y-73835419D02*
X163077495Y-73787800D01*
X163077495Y-73787800D02*
X163029876Y-73740180D01*
X173239133Y-60938580D02*
X173191514Y-60986200D01*
X173191514Y-60986200D02*
X173048657Y-61033819D01*
X173048657Y-61033819D02*
X172953419Y-61033819D01*
X172953419Y-61033819D02*
X172810562Y-60986200D01*
X172810562Y-60986200D02*
X172715324Y-60890961D01*
X172715324Y-60890961D02*
X172667705Y-60795723D01*
X172667705Y-60795723D02*
X172620086Y-60605247D01*
X172620086Y-60605247D02*
X172620086Y-60462390D01*
X172620086Y-60462390D02*
X172667705Y-60271914D01*
X172667705Y-60271914D02*
X172715324Y-60176676D01*
X172715324Y-60176676D02*
X172810562Y-60081438D01*
X172810562Y-60081438D02*
X172953419Y-60033819D01*
X172953419Y-60033819D02*
X173048657Y-60033819D01*
X173048657Y-60033819D02*
X173191514Y-60081438D01*
X173191514Y-60081438D02*
X173239133Y-60129057D01*
X173572467Y-60033819D02*
X174191514Y-60033819D01*
X174191514Y-60033819D02*
X173858181Y-60414771D01*
X173858181Y-60414771D02*
X174001038Y-60414771D01*
X174001038Y-60414771D02*
X174096276Y-60462390D01*
X174096276Y-60462390D02*
X174143895Y-60510009D01*
X174143895Y-60510009D02*
X174191514Y-60605247D01*
X174191514Y-60605247D02*
X174191514Y-60843342D01*
X174191514Y-60843342D02*
X174143895Y-60938580D01*
X174143895Y-60938580D02*
X174096276Y-60986200D01*
X174096276Y-60986200D02*
X174001038Y-61033819D01*
X174001038Y-61033819D02*
X173715324Y-61033819D01*
X173715324Y-61033819D02*
X173620086Y-60986200D01*
X173620086Y-60986200D02*
X173572467Y-60938580D01*
X206194819Y-74334666D02*
X205718628Y-74667999D01*
X206194819Y-74906094D02*
X205194819Y-74906094D01*
X205194819Y-74906094D02*
X205194819Y-74525142D01*
X205194819Y-74525142D02*
X205242438Y-74429904D01*
X205242438Y-74429904D02*
X205290057Y-74382285D01*
X205290057Y-74382285D02*
X205385295Y-74334666D01*
X205385295Y-74334666D02*
X205528152Y-74334666D01*
X205528152Y-74334666D02*
X205623390Y-74382285D01*
X205623390Y-74382285D02*
X205671009Y-74429904D01*
X205671009Y-74429904D02*
X205718628Y-74525142D01*
X205718628Y-74525142D02*
X205718628Y-74906094D01*
X205194819Y-74001332D02*
X205194819Y-73334666D01*
X205194819Y-73334666D02*
X206194819Y-73763237D01*
X160202857Y-59297219D02*
X160202857Y-60106742D01*
X160202857Y-60106742D02*
X160250476Y-60201980D01*
X160250476Y-60201980D02*
X160298095Y-60249600D01*
X160298095Y-60249600D02*
X160393333Y-60297219D01*
X160393333Y-60297219D02*
X160583809Y-60297219D01*
X160583809Y-60297219D02*
X160679047Y-60249600D01*
X160679047Y-60249600D02*
X160726666Y-60201980D01*
X160726666Y-60201980D02*
X160774285Y-60106742D01*
X160774285Y-60106742D02*
X160774285Y-59297219D01*
X161250476Y-59630552D02*
X161250476Y-60630552D01*
X161250476Y-59678171D02*
X161345714Y-59630552D01*
X161345714Y-59630552D02*
X161536190Y-59630552D01*
X161536190Y-59630552D02*
X161631428Y-59678171D01*
X161631428Y-59678171D02*
X161679047Y-59725790D01*
X161679047Y-59725790D02*
X161726666Y-59821028D01*
X161726666Y-59821028D02*
X161726666Y-60106742D01*
X161726666Y-60106742D02*
X161679047Y-60201980D01*
X161679047Y-60201980D02*
X161631428Y-60249600D01*
X161631428Y-60249600D02*
X161536190Y-60297219D01*
X161536190Y-60297219D02*
X161345714Y-60297219D01*
X161345714Y-60297219D02*
X161250476Y-60249600D01*
X162298095Y-60297219D02*
X162202857Y-60249600D01*
X162202857Y-60249600D02*
X162155238Y-60154361D01*
X162155238Y-60154361D02*
X162155238Y-59297219D01*
X162821905Y-60297219D02*
X162726667Y-60249600D01*
X162726667Y-60249600D02*
X162679048Y-60201980D01*
X162679048Y-60201980D02*
X162631429Y-60106742D01*
X162631429Y-60106742D02*
X162631429Y-59821028D01*
X162631429Y-59821028D02*
X162679048Y-59725790D01*
X162679048Y-59725790D02*
X162726667Y-59678171D01*
X162726667Y-59678171D02*
X162821905Y-59630552D01*
X162821905Y-59630552D02*
X162964762Y-59630552D01*
X162964762Y-59630552D02*
X163060000Y-59678171D01*
X163060000Y-59678171D02*
X163107619Y-59725790D01*
X163107619Y-59725790D02*
X163155238Y-59821028D01*
X163155238Y-59821028D02*
X163155238Y-60106742D01*
X163155238Y-60106742D02*
X163107619Y-60201980D01*
X163107619Y-60201980D02*
X163060000Y-60249600D01*
X163060000Y-60249600D02*
X162964762Y-60297219D01*
X162964762Y-60297219D02*
X162821905Y-60297219D01*
X164012381Y-60297219D02*
X164012381Y-59773409D01*
X164012381Y-59773409D02*
X163964762Y-59678171D01*
X163964762Y-59678171D02*
X163869524Y-59630552D01*
X163869524Y-59630552D02*
X163679048Y-59630552D01*
X163679048Y-59630552D02*
X163583810Y-59678171D01*
X164012381Y-60249600D02*
X163917143Y-60297219D01*
X163917143Y-60297219D02*
X163679048Y-60297219D01*
X163679048Y-60297219D02*
X163583810Y-60249600D01*
X163583810Y-60249600D02*
X163536191Y-60154361D01*
X163536191Y-60154361D02*
X163536191Y-60059123D01*
X163536191Y-60059123D02*
X163583810Y-59963885D01*
X163583810Y-59963885D02*
X163679048Y-59916266D01*
X163679048Y-59916266D02*
X163917143Y-59916266D01*
X163917143Y-59916266D02*
X164012381Y-59868647D01*
X164917143Y-60297219D02*
X164917143Y-59297219D01*
X164917143Y-60249600D02*
X164821905Y-60297219D01*
X164821905Y-60297219D02*
X164631429Y-60297219D01*
X164631429Y-60297219D02*
X164536191Y-60249600D01*
X164536191Y-60249600D02*
X164488572Y-60201980D01*
X164488572Y-60201980D02*
X164440953Y-60106742D01*
X164440953Y-60106742D02*
X164440953Y-59821028D01*
X164440953Y-59821028D02*
X164488572Y-59725790D01*
X164488572Y-59725790D02*
X164536191Y-59678171D01*
X164536191Y-59678171D02*
X164631429Y-59630552D01*
X164631429Y-59630552D02*
X164821905Y-59630552D01*
X164821905Y-59630552D02*
X164917143Y-59678171D01*
X176032495Y-66906819D02*
X176032495Y-67716342D01*
X176032495Y-67716342D02*
X176080114Y-67811580D01*
X176080114Y-67811580D02*
X176127733Y-67859200D01*
X176127733Y-67859200D02*
X176222971Y-67906819D01*
X176222971Y-67906819D02*
X176413447Y-67906819D01*
X176413447Y-67906819D02*
X176508685Y-67859200D01*
X176508685Y-67859200D02*
X176556304Y-67811580D01*
X176556304Y-67811580D02*
X176603923Y-67716342D01*
X176603923Y-67716342D02*
X176603923Y-66906819D01*
X177603923Y-67906819D02*
X177032495Y-67906819D01*
X177318209Y-67906819D02*
X177318209Y-66906819D01*
X177318209Y-66906819D02*
X177222971Y-67049676D01*
X177222971Y-67049676D02*
X177127733Y-67144914D01*
X177127733Y-67144914D02*
X177032495Y-67192533D01*
X159636619Y-61964866D02*
X159160428Y-62298199D01*
X159636619Y-62536294D02*
X158636619Y-62536294D01*
X158636619Y-62536294D02*
X158636619Y-62155342D01*
X158636619Y-62155342D02*
X158684238Y-62060104D01*
X158684238Y-62060104D02*
X158731857Y-62012485D01*
X158731857Y-62012485D02*
X158827095Y-61964866D01*
X158827095Y-61964866D02*
X158969952Y-61964866D01*
X158969952Y-61964866D02*
X159065190Y-62012485D01*
X159065190Y-62012485D02*
X159112809Y-62060104D01*
X159112809Y-62060104D02*
X159160428Y-62155342D01*
X159160428Y-62155342D02*
X159160428Y-62536294D01*
X159065190Y-61393437D02*
X159017571Y-61488675D01*
X159017571Y-61488675D02*
X158969952Y-61536294D01*
X158969952Y-61536294D02*
X158874714Y-61583913D01*
X158874714Y-61583913D02*
X158827095Y-61583913D01*
X158827095Y-61583913D02*
X158731857Y-61536294D01*
X158731857Y-61536294D02*
X158684238Y-61488675D01*
X158684238Y-61488675D02*
X158636619Y-61393437D01*
X158636619Y-61393437D02*
X158636619Y-61202961D01*
X158636619Y-61202961D02*
X158684238Y-61107723D01*
X158684238Y-61107723D02*
X158731857Y-61060104D01*
X158731857Y-61060104D02*
X158827095Y-61012485D01*
X158827095Y-61012485D02*
X158874714Y-61012485D01*
X158874714Y-61012485D02*
X158969952Y-61060104D01*
X158969952Y-61060104D02*
X159017571Y-61107723D01*
X159017571Y-61107723D02*
X159065190Y-61202961D01*
X159065190Y-61202961D02*
X159065190Y-61393437D01*
X159065190Y-61393437D02*
X159112809Y-61488675D01*
X159112809Y-61488675D02*
X159160428Y-61536294D01*
X159160428Y-61536294D02*
X159255666Y-61583913D01*
X159255666Y-61583913D02*
X159446142Y-61583913D01*
X159446142Y-61583913D02*
X159541380Y-61536294D01*
X159541380Y-61536294D02*
X159589000Y-61488675D01*
X159589000Y-61488675D02*
X159636619Y-61393437D01*
X159636619Y-61393437D02*
X159636619Y-61202961D01*
X159636619Y-61202961D02*
X159589000Y-61107723D01*
X159589000Y-61107723D02*
X159541380Y-61060104D01*
X159541380Y-61060104D02*
X159446142Y-61012485D01*
X159446142Y-61012485D02*
X159255666Y-61012485D01*
X159255666Y-61012485D02*
X159160428Y-61060104D01*
X159160428Y-61060104D02*
X159112809Y-61107723D01*
X159112809Y-61107723D02*
X159065190Y-61202961D01*
X197699333Y-79448819D02*
X197366000Y-78972628D01*
X197127905Y-79448819D02*
X197127905Y-78448819D01*
X197127905Y-78448819D02*
X197508857Y-78448819D01*
X197508857Y-78448819D02*
X197604095Y-78496438D01*
X197604095Y-78496438D02*
X197651714Y-78544057D01*
X197651714Y-78544057D02*
X197699333Y-78639295D01*
X197699333Y-78639295D02*
X197699333Y-78782152D01*
X197699333Y-78782152D02*
X197651714Y-78877390D01*
X197651714Y-78877390D02*
X197604095Y-78925009D01*
X197604095Y-78925009D02*
X197508857Y-78972628D01*
X197508857Y-78972628D02*
X197127905Y-78972628D01*
X198556476Y-78448819D02*
X198366000Y-78448819D01*
X198366000Y-78448819D02*
X198270762Y-78496438D01*
X198270762Y-78496438D02*
X198223143Y-78544057D01*
X198223143Y-78544057D02*
X198127905Y-78686914D01*
X198127905Y-78686914D02*
X198080286Y-78877390D01*
X198080286Y-78877390D02*
X198080286Y-79258342D01*
X198080286Y-79258342D02*
X198127905Y-79353580D01*
X198127905Y-79353580D02*
X198175524Y-79401200D01*
X198175524Y-79401200D02*
X198270762Y-79448819D01*
X198270762Y-79448819D02*
X198461238Y-79448819D01*
X198461238Y-79448819D02*
X198556476Y-79401200D01*
X198556476Y-79401200D02*
X198604095Y-79353580D01*
X198604095Y-79353580D02*
X198651714Y-79258342D01*
X198651714Y-79258342D02*
X198651714Y-79020247D01*
X198651714Y-79020247D02*
X198604095Y-78925009D01*
X198604095Y-78925009D02*
X198556476Y-78877390D01*
X198556476Y-78877390D02*
X198461238Y-78829771D01*
X198461238Y-78829771D02*
X198270762Y-78829771D01*
X198270762Y-78829771D02*
X198175524Y-78877390D01*
X198175524Y-78877390D02*
X198127905Y-78925009D01*
X198127905Y-78925009D02*
X198080286Y-79020247D01*
X185469305Y-64818419D02*
X185469305Y-63818419D01*
X185469305Y-63818419D02*
X185707400Y-63818419D01*
X185707400Y-63818419D02*
X185850257Y-63866038D01*
X185850257Y-63866038D02*
X185945495Y-63961276D01*
X185945495Y-63961276D02*
X185993114Y-64056514D01*
X185993114Y-64056514D02*
X186040733Y-64246990D01*
X186040733Y-64246990D02*
X186040733Y-64389847D01*
X186040733Y-64389847D02*
X185993114Y-64580323D01*
X185993114Y-64580323D02*
X185945495Y-64675561D01*
X185945495Y-64675561D02*
X185850257Y-64770800D01*
X185850257Y-64770800D02*
X185707400Y-64818419D01*
X185707400Y-64818419D02*
X185469305Y-64818419D01*
X186993114Y-64818419D02*
X186421686Y-64818419D01*
X186707400Y-64818419D02*
X186707400Y-63818419D01*
X186707400Y-63818419D02*
X186612162Y-63961276D01*
X186612162Y-63961276D02*
X186516924Y-64056514D01*
X186516924Y-64056514D02*
X186421686Y-64104133D01*
X179131933Y-78483619D02*
X178798600Y-78007428D01*
X178560505Y-78483619D02*
X178560505Y-77483619D01*
X178560505Y-77483619D02*
X178941457Y-77483619D01*
X178941457Y-77483619D02*
X179036695Y-77531238D01*
X179036695Y-77531238D02*
X179084314Y-77578857D01*
X179084314Y-77578857D02*
X179131933Y-77674095D01*
X179131933Y-77674095D02*
X179131933Y-77816952D01*
X179131933Y-77816952D02*
X179084314Y-77912190D01*
X179084314Y-77912190D02*
X179036695Y-77959809D01*
X179036695Y-77959809D02*
X178941457Y-78007428D01*
X178941457Y-78007428D02*
X178560505Y-78007428D01*
X180084314Y-78483619D02*
X179512886Y-78483619D01*
X179798600Y-78483619D02*
X179798600Y-77483619D01*
X179798600Y-77483619D02*
X179703362Y-77626476D01*
X179703362Y-77626476D02*
X179608124Y-77721714D01*
X179608124Y-77721714D02*
X179512886Y-77769333D01*
X197699333Y-68526819D02*
X197366000Y-68050628D01*
X197127905Y-68526819D02*
X197127905Y-67526819D01*
X197127905Y-67526819D02*
X197508857Y-67526819D01*
X197508857Y-67526819D02*
X197604095Y-67574438D01*
X197604095Y-67574438D02*
X197651714Y-67622057D01*
X197651714Y-67622057D02*
X197699333Y-67717295D01*
X197699333Y-67717295D02*
X197699333Y-67860152D01*
X197699333Y-67860152D02*
X197651714Y-67955390D01*
X197651714Y-67955390D02*
X197604095Y-68003009D01*
X197604095Y-68003009D02*
X197508857Y-68050628D01*
X197508857Y-68050628D02*
X197127905Y-68050628D01*
X198604095Y-67526819D02*
X198127905Y-67526819D01*
X198127905Y-67526819D02*
X198080286Y-68003009D01*
X198080286Y-68003009D02*
X198127905Y-67955390D01*
X198127905Y-67955390D02*
X198223143Y-67907771D01*
X198223143Y-67907771D02*
X198461238Y-67907771D01*
X198461238Y-67907771D02*
X198556476Y-67955390D01*
X198556476Y-67955390D02*
X198604095Y-68003009D01*
X198604095Y-68003009D02*
X198651714Y-68098247D01*
X198651714Y-68098247D02*
X198651714Y-68336342D01*
X198651714Y-68336342D02*
X198604095Y-68431580D01*
X198604095Y-68431580D02*
X198556476Y-68479200D01*
X198556476Y-68479200D02*
X198461238Y-68526819D01*
X198461238Y-68526819D02*
X198223143Y-68526819D01*
X198223143Y-68526819D02*
X198127905Y-68479200D01*
X198127905Y-68479200D02*
X198080286Y-68431580D01*
X202271333Y-79099580D02*
X202223714Y-79147200D01*
X202223714Y-79147200D02*
X202080857Y-79194819D01*
X202080857Y-79194819D02*
X201985619Y-79194819D01*
X201985619Y-79194819D02*
X201842762Y-79147200D01*
X201842762Y-79147200D02*
X201747524Y-79051961D01*
X201747524Y-79051961D02*
X201699905Y-78956723D01*
X201699905Y-78956723D02*
X201652286Y-78766247D01*
X201652286Y-78766247D02*
X201652286Y-78623390D01*
X201652286Y-78623390D02*
X201699905Y-78432914D01*
X201699905Y-78432914D02*
X201747524Y-78337676D01*
X201747524Y-78337676D02*
X201842762Y-78242438D01*
X201842762Y-78242438D02*
X201985619Y-78194819D01*
X201985619Y-78194819D02*
X202080857Y-78194819D01*
X202080857Y-78194819D02*
X202223714Y-78242438D01*
X202223714Y-78242438D02*
X202271333Y-78290057D01*
X203176095Y-78194819D02*
X202699905Y-78194819D01*
X202699905Y-78194819D02*
X202652286Y-78671009D01*
X202652286Y-78671009D02*
X202699905Y-78623390D01*
X202699905Y-78623390D02*
X202795143Y-78575771D01*
X202795143Y-78575771D02*
X203033238Y-78575771D01*
X203033238Y-78575771D02*
X203128476Y-78623390D01*
X203128476Y-78623390D02*
X203176095Y-78671009D01*
X203176095Y-78671009D02*
X203223714Y-78766247D01*
X203223714Y-78766247D02*
X203223714Y-79004342D01*
X203223714Y-79004342D02*
X203176095Y-79099580D01*
X203176095Y-79099580D02*
X203128476Y-79147200D01*
X203128476Y-79147200D02*
X203033238Y-79194819D01*
X203033238Y-79194819D02*
X202795143Y-79194819D01*
X202795143Y-79194819D02*
X202699905Y-79147200D01*
X202699905Y-79147200D02*
X202652286Y-79099580D01*
X200175905Y-68526819D02*
X200175905Y-67526819D01*
X200175905Y-67526819D02*
X200414000Y-67526819D01*
X200414000Y-67526819D02*
X200556857Y-67574438D01*
X200556857Y-67574438D02*
X200652095Y-67669676D01*
X200652095Y-67669676D02*
X200699714Y-67764914D01*
X200699714Y-67764914D02*
X200747333Y-67955390D01*
X200747333Y-67955390D02*
X200747333Y-68098247D01*
X200747333Y-68098247D02*
X200699714Y-68288723D01*
X200699714Y-68288723D02*
X200652095Y-68383961D01*
X200652095Y-68383961D02*
X200556857Y-68479200D01*
X200556857Y-68479200D02*
X200414000Y-68526819D01*
X200414000Y-68526819D02*
X200175905Y-68526819D01*
X201128286Y-67622057D02*
X201175905Y-67574438D01*
X201175905Y-67574438D02*
X201271143Y-67526819D01*
X201271143Y-67526819D02*
X201509238Y-67526819D01*
X201509238Y-67526819D02*
X201604476Y-67574438D01*
X201604476Y-67574438D02*
X201652095Y-67622057D01*
X201652095Y-67622057D02*
X201699714Y-67717295D01*
X201699714Y-67717295D02*
X201699714Y-67812533D01*
X201699714Y-67812533D02*
X201652095Y-67955390D01*
X201652095Y-67955390D02*
X201080667Y-68526819D01*
X201080667Y-68526819D02*
X201699714Y-68526819D01*
X172977980Y-69064167D02*
X173025600Y-69111786D01*
X173025600Y-69111786D02*
X173073219Y-69254643D01*
X173073219Y-69254643D02*
X173073219Y-69349881D01*
X173073219Y-69349881D02*
X173025600Y-69492738D01*
X173025600Y-69492738D02*
X172930361Y-69587976D01*
X172930361Y-69587976D02*
X172835123Y-69635595D01*
X172835123Y-69635595D02*
X172644647Y-69683214D01*
X172644647Y-69683214D02*
X172501790Y-69683214D01*
X172501790Y-69683214D02*
X172311314Y-69635595D01*
X172311314Y-69635595D02*
X172216076Y-69587976D01*
X172216076Y-69587976D02*
X172120838Y-69492738D01*
X172120838Y-69492738D02*
X172073219Y-69349881D01*
X172073219Y-69349881D02*
X172073219Y-69254643D01*
X172073219Y-69254643D02*
X172120838Y-69111786D01*
X172120838Y-69111786D02*
X172168457Y-69064167D01*
X173073219Y-68111786D02*
X173073219Y-68683214D01*
X173073219Y-68397500D02*
X172073219Y-68397500D01*
X172073219Y-68397500D02*
X172216076Y-68492738D01*
X172216076Y-68492738D02*
X172311314Y-68587976D01*
X172311314Y-68587976D02*
X172358933Y-68683214D01*
X181556819Y-84494666D02*
X181080628Y-84827999D01*
X181556819Y-85066094D02*
X180556819Y-85066094D01*
X180556819Y-85066094D02*
X180556819Y-84685142D01*
X180556819Y-84685142D02*
X180604438Y-84589904D01*
X180604438Y-84589904D02*
X180652057Y-84542285D01*
X180652057Y-84542285D02*
X180747295Y-84494666D01*
X180747295Y-84494666D02*
X180890152Y-84494666D01*
X180890152Y-84494666D02*
X180985390Y-84542285D01*
X180985390Y-84542285D02*
X181033009Y-84589904D01*
X181033009Y-84589904D02*
X181080628Y-84685142D01*
X181080628Y-84685142D02*
X181080628Y-85066094D01*
X180652057Y-84113713D02*
X180604438Y-84066094D01*
X180604438Y-84066094D02*
X180556819Y-83970856D01*
X180556819Y-83970856D02*
X180556819Y-83732761D01*
X180556819Y-83732761D02*
X180604438Y-83637523D01*
X180604438Y-83637523D02*
X180652057Y-83589904D01*
X180652057Y-83589904D02*
X180747295Y-83542285D01*
X180747295Y-83542285D02*
X180842533Y-83542285D01*
X180842533Y-83542285D02*
X180985390Y-83589904D01*
X180985390Y-83589904D02*
X181556819Y-84161332D01*
X181556819Y-84161332D02*
X181556819Y-83542285D01*
X179157333Y-67021881D02*
X179109714Y-67069501D01*
X179109714Y-67069501D02*
X178966857Y-67117120D01*
X178966857Y-67117120D02*
X178871619Y-67117120D01*
X178871619Y-67117120D02*
X178728762Y-67069501D01*
X178728762Y-67069501D02*
X178633524Y-66974262D01*
X178633524Y-66974262D02*
X178585905Y-66879024D01*
X178585905Y-66879024D02*
X178538286Y-66688548D01*
X178538286Y-66688548D02*
X178538286Y-66545691D01*
X178538286Y-66545691D02*
X178585905Y-66355215D01*
X178585905Y-66355215D02*
X178633524Y-66259977D01*
X178633524Y-66259977D02*
X178728762Y-66164739D01*
X178728762Y-66164739D02*
X178871619Y-66117120D01*
X178871619Y-66117120D02*
X178966857Y-66117120D01*
X178966857Y-66117120D02*
X179109714Y-66164739D01*
X179109714Y-66164739D02*
X179157333Y-66212358D01*
X179538286Y-66212358D02*
X179585905Y-66164739D01*
X179585905Y-66164739D02*
X179681143Y-66117120D01*
X179681143Y-66117120D02*
X179919238Y-66117120D01*
X179919238Y-66117120D02*
X180014476Y-66164739D01*
X180014476Y-66164739D02*
X180062095Y-66212358D01*
X180062095Y-66212358D02*
X180109714Y-66307596D01*
X180109714Y-66307596D02*
X180109714Y-66402834D01*
X180109714Y-66402834D02*
X180062095Y-66545691D01*
X180062095Y-66545691D02*
X179490667Y-67117120D01*
X179490667Y-67117120D02*
X180109714Y-67117120D01*
X169937133Y-60557580D02*
X169889514Y-60605200D01*
X169889514Y-60605200D02*
X169746657Y-60652819D01*
X169746657Y-60652819D02*
X169651419Y-60652819D01*
X169651419Y-60652819D02*
X169508562Y-60605200D01*
X169508562Y-60605200D02*
X169413324Y-60509961D01*
X169413324Y-60509961D02*
X169365705Y-60414723D01*
X169365705Y-60414723D02*
X169318086Y-60224247D01*
X169318086Y-60224247D02*
X169318086Y-60081390D01*
X169318086Y-60081390D02*
X169365705Y-59890914D01*
X169365705Y-59890914D02*
X169413324Y-59795676D01*
X169413324Y-59795676D02*
X169508562Y-59700438D01*
X169508562Y-59700438D02*
X169651419Y-59652819D01*
X169651419Y-59652819D02*
X169746657Y-59652819D01*
X169746657Y-59652819D02*
X169889514Y-59700438D01*
X169889514Y-59700438D02*
X169937133Y-59748057D01*
X170794276Y-59986152D02*
X170794276Y-60652819D01*
X170556181Y-59605200D02*
X170318086Y-60319485D01*
X170318086Y-60319485D02*
X170937133Y-60319485D01*
X175307645Y-72642819D02*
X175307645Y-73452342D01*
X175307645Y-73452342D02*
X175355264Y-73547580D01*
X175355264Y-73547580D02*
X175402883Y-73595200D01*
X175402883Y-73595200D02*
X175498121Y-73642819D01*
X175498121Y-73642819D02*
X175688597Y-73642819D01*
X175688597Y-73642819D02*
X175783835Y-73595200D01*
X175783835Y-73595200D02*
X175831454Y-73547580D01*
X175831454Y-73547580D02*
X175879073Y-73452342D01*
X175879073Y-73452342D02*
X175879073Y-72642819D01*
X176307645Y-72738057D02*
X176355264Y-72690438D01*
X176355264Y-72690438D02*
X176450502Y-72642819D01*
X176450502Y-72642819D02*
X176688597Y-72642819D01*
X176688597Y-72642819D02*
X176783835Y-72690438D01*
X176783835Y-72690438D02*
X176831454Y-72738057D01*
X176831454Y-72738057D02*
X176879073Y-72833295D01*
X176879073Y-72833295D02*
X176879073Y-72928533D01*
X176879073Y-72928533D02*
X176831454Y-73071390D01*
X176831454Y-73071390D02*
X176260026Y-73642819D01*
X176260026Y-73642819D02*
X176879073Y-73642819D01*
X171156333Y-88116580D02*
X171108714Y-88164200D01*
X171108714Y-88164200D02*
X170965857Y-88211819D01*
X170965857Y-88211819D02*
X170870619Y-88211819D01*
X170870619Y-88211819D02*
X170727762Y-88164200D01*
X170727762Y-88164200D02*
X170632524Y-88068961D01*
X170632524Y-88068961D02*
X170584905Y-87973723D01*
X170584905Y-87973723D02*
X170537286Y-87783247D01*
X170537286Y-87783247D02*
X170537286Y-87640390D01*
X170537286Y-87640390D02*
X170584905Y-87449914D01*
X170584905Y-87449914D02*
X170632524Y-87354676D01*
X170632524Y-87354676D02*
X170727762Y-87259438D01*
X170727762Y-87259438D02*
X170870619Y-87211819D01*
X170870619Y-87211819D02*
X170965857Y-87211819D01*
X170965857Y-87211819D02*
X171108714Y-87259438D01*
X171108714Y-87259438D02*
X171156333Y-87307057D01*
X172013476Y-87211819D02*
X171823000Y-87211819D01*
X171823000Y-87211819D02*
X171727762Y-87259438D01*
X171727762Y-87259438D02*
X171680143Y-87307057D01*
X171680143Y-87307057D02*
X171584905Y-87449914D01*
X171584905Y-87449914D02*
X171537286Y-87640390D01*
X171537286Y-87640390D02*
X171537286Y-88021342D01*
X171537286Y-88021342D02*
X171584905Y-88116580D01*
X171584905Y-88116580D02*
X171632524Y-88164200D01*
X171632524Y-88164200D02*
X171727762Y-88211819D01*
X171727762Y-88211819D02*
X171918238Y-88211819D01*
X171918238Y-88211819D02*
X172013476Y-88164200D01*
X172013476Y-88164200D02*
X172061095Y-88116580D01*
X172061095Y-88116580D02*
X172108714Y-88021342D01*
X172108714Y-88021342D02*
X172108714Y-87783247D01*
X172108714Y-87783247D02*
X172061095Y-87688009D01*
X172061095Y-87688009D02*
X172013476Y-87640390D01*
X172013476Y-87640390D02*
X171918238Y-87592771D01*
X171918238Y-87592771D02*
X171727762Y-87592771D01*
X171727762Y-87592771D02*
X171632524Y-87640390D01*
X171632524Y-87640390D02*
X171584905Y-87688009D01*
X171584905Y-87688009D02*
X171537286Y-87783247D01*
X205312261Y-68622057D02*
X205217023Y-68574438D01*
X205217023Y-68574438D02*
X205121785Y-68479200D01*
X205121785Y-68479200D02*
X204978928Y-68336342D01*
X204978928Y-68336342D02*
X204883690Y-68288723D01*
X204883690Y-68288723D02*
X204788452Y-68288723D01*
X204836071Y-68526819D02*
X204740833Y-68479200D01*
X204740833Y-68479200D02*
X204645595Y-68383961D01*
X204645595Y-68383961D02*
X204597976Y-68193485D01*
X204597976Y-68193485D02*
X204597976Y-67860152D01*
X204597976Y-67860152D02*
X204645595Y-67669676D01*
X204645595Y-67669676D02*
X204740833Y-67574438D01*
X204740833Y-67574438D02*
X204836071Y-67526819D01*
X204836071Y-67526819D02*
X205026547Y-67526819D01*
X205026547Y-67526819D02*
X205121785Y-67574438D01*
X205121785Y-67574438D02*
X205217023Y-67669676D01*
X205217023Y-67669676D02*
X205264642Y-67860152D01*
X205264642Y-67860152D02*
X205264642Y-68193485D01*
X205264642Y-68193485D02*
X205217023Y-68383961D01*
X205217023Y-68383961D02*
X205121785Y-68479200D01*
X205121785Y-68479200D02*
X205026547Y-68526819D01*
X205026547Y-68526819D02*
X204836071Y-68526819D01*
X206217023Y-68526819D02*
X205645595Y-68526819D01*
X205931309Y-68526819D02*
X205931309Y-67526819D01*
X205931309Y-67526819D02*
X205836071Y-67669676D01*
X205836071Y-67669676D02*
X205740833Y-67764914D01*
X205740833Y-67764914D02*
X205645595Y-67812533D01*
X172934333Y-78432819D02*
X172601000Y-77956628D01*
X172362905Y-78432819D02*
X172362905Y-77432819D01*
X172362905Y-77432819D02*
X172743857Y-77432819D01*
X172743857Y-77432819D02*
X172839095Y-77480438D01*
X172839095Y-77480438D02*
X172886714Y-77528057D01*
X172886714Y-77528057D02*
X172934333Y-77623295D01*
X172934333Y-77623295D02*
X172934333Y-77766152D01*
X172934333Y-77766152D02*
X172886714Y-77861390D01*
X172886714Y-77861390D02*
X172839095Y-77909009D01*
X172839095Y-77909009D02*
X172743857Y-77956628D01*
X172743857Y-77956628D02*
X172362905Y-77956628D01*
X173410524Y-78432819D02*
X173601000Y-78432819D01*
X173601000Y-78432819D02*
X173696238Y-78385200D01*
X173696238Y-78385200D02*
X173743857Y-78337580D01*
X173743857Y-78337580D02*
X173839095Y-78194723D01*
X173839095Y-78194723D02*
X173886714Y-78004247D01*
X173886714Y-78004247D02*
X173886714Y-77623295D01*
X173886714Y-77623295D02*
X173839095Y-77528057D01*
X173839095Y-77528057D02*
X173791476Y-77480438D01*
X173791476Y-77480438D02*
X173696238Y-77432819D01*
X173696238Y-77432819D02*
X173505762Y-77432819D01*
X173505762Y-77432819D02*
X173410524Y-77480438D01*
X173410524Y-77480438D02*
X173362905Y-77528057D01*
X173362905Y-77528057D02*
X173315286Y-77623295D01*
X173315286Y-77623295D02*
X173315286Y-77861390D01*
X173315286Y-77861390D02*
X173362905Y-77956628D01*
X173362905Y-77956628D02*
X173410524Y-78004247D01*
X173410524Y-78004247D02*
X173505762Y-78051866D01*
X173505762Y-78051866D02*
X173696238Y-78051866D01*
X173696238Y-78051866D02*
X173791476Y-78004247D01*
X173791476Y-78004247D02*
X173839095Y-77956628D01*
X173839095Y-77956628D02*
X173886714Y-77861390D01*
X178595283Y-73257580D02*
X178547664Y-73305200D01*
X178547664Y-73305200D02*
X178404807Y-73352819D01*
X178404807Y-73352819D02*
X178309569Y-73352819D01*
X178309569Y-73352819D02*
X178166712Y-73305200D01*
X178166712Y-73305200D02*
X178071474Y-73209961D01*
X178071474Y-73209961D02*
X178023855Y-73114723D01*
X178023855Y-73114723D02*
X177976236Y-72924247D01*
X177976236Y-72924247D02*
X177976236Y-72781390D01*
X177976236Y-72781390D02*
X178023855Y-72590914D01*
X178023855Y-72590914D02*
X178071474Y-72495676D01*
X178071474Y-72495676D02*
X178166712Y-72400438D01*
X178166712Y-72400438D02*
X178309569Y-72352819D01*
X178309569Y-72352819D02*
X178404807Y-72352819D01*
X178404807Y-72352819D02*
X178547664Y-72400438D01*
X178547664Y-72400438D02*
X178595283Y-72448057D01*
X178928617Y-72352819D02*
X179595283Y-72352819D01*
X179595283Y-72352819D02*
X179166712Y-73352819D01*
X176857819Y-87725095D02*
X176381628Y-88058428D01*
X176857819Y-88296523D02*
X175857819Y-88296523D01*
X175857819Y-88296523D02*
X175857819Y-87915571D01*
X175857819Y-87915571D02*
X175905438Y-87820333D01*
X175905438Y-87820333D02*
X175953057Y-87772714D01*
X175953057Y-87772714D02*
X176048295Y-87725095D01*
X176048295Y-87725095D02*
X176191152Y-87725095D01*
X176191152Y-87725095D02*
X176286390Y-87772714D01*
X176286390Y-87772714D02*
X176334009Y-87820333D01*
X176334009Y-87820333D02*
X176381628Y-87915571D01*
X176381628Y-87915571D02*
X176381628Y-88296523D01*
X176810200Y-86915571D02*
X176857819Y-87010809D01*
X176857819Y-87010809D02*
X176857819Y-87201285D01*
X176857819Y-87201285D02*
X176810200Y-87296523D01*
X176810200Y-87296523D02*
X176714961Y-87344142D01*
X176714961Y-87344142D02*
X176334009Y-87344142D01*
X176334009Y-87344142D02*
X176238771Y-87296523D01*
X176238771Y-87296523D02*
X176191152Y-87201285D01*
X176191152Y-87201285D02*
X176191152Y-87010809D01*
X176191152Y-87010809D02*
X176238771Y-86915571D01*
X176238771Y-86915571D02*
X176334009Y-86867952D01*
X176334009Y-86867952D02*
X176429247Y-86867952D01*
X176429247Y-86867952D02*
X176524485Y-87344142D01*
X176810200Y-86486999D02*
X176857819Y-86391761D01*
X176857819Y-86391761D02*
X176857819Y-86201285D01*
X176857819Y-86201285D02*
X176810200Y-86106047D01*
X176810200Y-86106047D02*
X176714961Y-86058428D01*
X176714961Y-86058428D02*
X176667342Y-86058428D01*
X176667342Y-86058428D02*
X176572104Y-86106047D01*
X176572104Y-86106047D02*
X176524485Y-86201285D01*
X176524485Y-86201285D02*
X176524485Y-86344142D01*
X176524485Y-86344142D02*
X176476866Y-86439380D01*
X176476866Y-86439380D02*
X176381628Y-86486999D01*
X176381628Y-86486999D02*
X176334009Y-86486999D01*
X176334009Y-86486999D02*
X176238771Y-86439380D01*
X176238771Y-86439380D02*
X176191152Y-86344142D01*
X176191152Y-86344142D02*
X176191152Y-86201285D01*
X176191152Y-86201285D02*
X176238771Y-86106047D01*
X176810200Y-85248904D02*
X176857819Y-85344142D01*
X176857819Y-85344142D02*
X176857819Y-85534618D01*
X176857819Y-85534618D02*
X176810200Y-85629856D01*
X176810200Y-85629856D02*
X176714961Y-85677475D01*
X176714961Y-85677475D02*
X176334009Y-85677475D01*
X176334009Y-85677475D02*
X176238771Y-85629856D01*
X176238771Y-85629856D02*
X176191152Y-85534618D01*
X176191152Y-85534618D02*
X176191152Y-85344142D01*
X176191152Y-85344142D02*
X176238771Y-85248904D01*
X176238771Y-85248904D02*
X176334009Y-85201285D01*
X176334009Y-85201285D02*
X176429247Y-85201285D01*
X176429247Y-85201285D02*
X176524485Y-85677475D01*
X176191152Y-84915570D02*
X176191152Y-84534618D01*
X175857819Y-84772713D02*
X176714961Y-84772713D01*
X176714961Y-84772713D02*
X176810200Y-84725094D01*
X176810200Y-84725094D02*
X176857819Y-84629856D01*
X176857819Y-84629856D02*
X176857819Y-84534618D01*
D13*
%TO.C,R3*%
X175747000Y-81626064D02*
X175747000Y-80171936D01*
X177567000Y-81626064D02*
X177567000Y-80171936D01*
%TO.C,U3*%
X153822400Y-64363600D02*
X155727400Y-64363600D01*
X153822400Y-82397600D02*
X153822400Y-64363600D01*
X155727400Y-82397600D02*
X153822400Y-82397600D01*
X169951400Y-82397600D02*
X171856400Y-82397600D01*
X171856400Y-64363600D02*
X169951400Y-64363600D01*
X171856400Y-82397600D02*
X171856400Y-64363600D01*
X169964400Y-83155600D02*
X169964400Y-82655600D01*
X170464400Y-82655600D01*
X169964400Y-83155600D01*
G36*
X169964400Y-83155600D02*
G01*
X169964400Y-82655600D01*
X170464400Y-82655600D01*
X169964400Y-83155600D01*
G37*
%TO.C,C3*%
X172470800Y-61396000D02*
X172470800Y-65481000D01*
X174340800Y-61396000D02*
X172470800Y-61396000D01*
X174340800Y-65481000D02*
X174340800Y-61396000D01*
%TO.C,R7*%
X201772436Y-73004000D02*
X203226564Y-73004000D01*
X201772436Y-74824000D02*
X203226564Y-74824000D01*
%TO.C,JP2*%
X165293800Y-62523600D02*
X165293800Y-61123600D01*
X165993800Y-60423600D02*
X166593800Y-60423600D01*
X166593800Y-63223600D02*
X165993800Y-63223600D01*
X167293800Y-61123600D02*
X167293800Y-62523600D01*
X165293800Y-61123600D02*
G75*
G02*
X165993800Y-60423600I699999J1D01*
G01*
X165993800Y-63223600D02*
G75*
G02*
X165293800Y-62523600I0J700000D01*
G01*
X166593800Y-60423600D02*
G75*
G02*
X167293800Y-61123600I1J-699999D01*
G01*
X167293800Y-62523600D02*
G75*
G02*
X166593800Y-63223600I-700000J0D01*
G01*
%TO.C,U1*%
X175886000Y-71004000D02*
X175606000Y-70724000D01*
X175886000Y-70724000D01*
X175886000Y-71004000D01*
G36*
X175886000Y-71004000D02*
G01*
X175606000Y-70724000D01*
X175886000Y-70724000D01*
X175886000Y-71004000D01*
G37*
X178006000Y-70484000D02*
X178006000Y-68484000D01*
X175786000Y-70484000D02*
X175786000Y-68484000D01*
%TO.C,R8*%
X161502736Y-60939000D02*
X162956864Y-60939000D01*
X161502736Y-62759000D02*
X162956864Y-62759000D01*
%TO.C,R6*%
X196956000Y-76673064D02*
X196956000Y-75218936D01*
X198776000Y-76673064D02*
X198776000Y-75218936D01*
%TO.C,D1*%
X185332000Y-63586000D02*
X185332000Y-60926000D01*
X185332000Y-63586000D02*
X187032000Y-63586000D01*
X187032000Y-63586000D02*
X187032000Y-60926000D01*
%TO.C,R1*%
X178414000Y-80171936D02*
X178414000Y-81626064D01*
X180234000Y-80171936D02*
X180234000Y-81626064D01*
%TO.C,J2*%
X176276000Y-60083600D02*
X176276000Y-59823600D01*
X176276000Y-64133600D02*
X176276000Y-62363600D01*
X176276000Y-64133600D02*
X176656000Y-64133600D01*
X183896000Y-59823600D02*
X183896000Y-60083600D01*
X183896000Y-62363600D02*
X183896000Y-64133600D01*
X183896000Y-64133600D02*
X183516000Y-64133600D01*
D11*
%TO.C,J1*%
X180985000Y-70475000D02*
X180985000Y-70475000D01*
X181085000Y-70475000D02*
X181085000Y-70475000D01*
D14*
X183085000Y-66225000D02*
X183085000Y-68450000D01*
X183085000Y-71250000D02*
X183085000Y-73475000D01*
X183085000Y-73475000D02*
X183385000Y-73475000D01*
X183385000Y-66225000D02*
X183085000Y-66225000D01*
X186985000Y-66225000D02*
X187285000Y-66225000D01*
X187285000Y-66225000D02*
X187285000Y-73475000D01*
X187285000Y-73475000D02*
X186985000Y-73475000D01*
D11*
X180985000Y-70475000D02*
G75*
G02*
X181085000Y-70475000I50000J0D01*
G01*
X181085000Y-70475000D02*
G75*
G02*
X180985000Y-70475000I-50000J0D01*
G01*
D15*
%TO.C,AE1*%
X147957949Y-83324700D02*
X149526851Y-83324700D01*
X149526851Y-81470500D02*
X147957949Y-81470500D01*
D13*
%TO.C,J6*%
X192726000Y-74930000D02*
X192726000Y-69790000D01*
X195386000Y-69790000D02*
X192726000Y-69790000D01*
X195386000Y-74930000D02*
X192726000Y-74930000D01*
X195386000Y-74930000D02*
X195386000Y-69790000D01*
X195386000Y-76200000D02*
X195386000Y-77530000D01*
X195386000Y-77530000D02*
X194056000Y-77530000D01*
%TO.C,R5*%
X196956000Y-71847064D02*
X196956000Y-70392936D01*
X198776000Y-71847064D02*
X198776000Y-70392936D01*
%TO.C,C5*%
X202176748Y-75973000D02*
X202699252Y-75973000D01*
X202176748Y-77443000D02*
X202699252Y-77443000D01*
%TO.C,D2*%
X200064000Y-72222000D02*
X200064000Y-69562000D01*
X200064000Y-72222000D02*
X201764000Y-72222000D01*
X201764000Y-72222000D02*
X201764000Y-69562000D01*
D15*
%TO.C,J5*%
X181927500Y-75946000D02*
X181927500Y-78528860D01*
X181927500Y-82507140D02*
X181927500Y-85090000D01*
X181927500Y-85090000D02*
X183323159Y-85090000D01*
X183323159Y-75946000D02*
X181927500Y-75946000D01*
X186985839Y-85090000D02*
X187388501Y-85090000D01*
X187388501Y-75946000D02*
X186985839Y-75946000D01*
X187388501Y-85090000D02*
X187388501Y-75946000D01*
D13*
%TO.C,C1*%
X174945000Y-69349748D02*
X174945000Y-69872252D01*
X173475000Y-69349748D02*
X173475000Y-69872252D01*
%TO.C,R2*%
X180234000Y-86579064D02*
X180234000Y-85124936D01*
X178414000Y-86579064D02*
X178414000Y-85124936D01*
D11*
%TO.C,AE2*%
X142478000Y-61300600D02*
X152478000Y-61300600D01*
X142478000Y-75300600D02*
X142478000Y-61300600D01*
X152478000Y-61800600D02*
X152478000Y-61300600D01*
X152478000Y-71800600D02*
X152478000Y-64800600D01*
X152478000Y-75300600D02*
X142478000Y-75300600D01*
X152478000Y-75300600D02*
X152478000Y-74800600D01*
D13*
%TO.C,C2*%
X180059000Y-69688253D02*
X180059000Y-69165749D01*
X178589000Y-69688253D02*
X178589000Y-69165749D01*
%TO.C,C4*%
X170365052Y-61114000D02*
X169842548Y-61114000D01*
X170365052Y-62584000D02*
X169842548Y-62584000D01*
%TO.C,U2*%
X175035750Y-74474000D02*
X175035750Y-76474000D01*
X177255750Y-74474000D02*
X177255750Y-76474000D01*
X177245750Y-74124000D02*
X176965750Y-74124000D01*
X176965750Y-73844000D01*
X177245750Y-74124000D01*
G36*
X177245750Y-74124000D02*
G01*
X176965750Y-74124000D01*
X176965750Y-73844000D01*
X177245750Y-74124000D01*
G37*
%TO.C,C6*%
X172566000Y-85224252D02*
X172566000Y-84701748D01*
X171096000Y-85224252D02*
X171096000Y-84701748D01*
%TO.C,Q1*%
X205407500Y-69306000D02*
X204757500Y-69306000D01*
X205407500Y-69306000D02*
X206057500Y-69306000D01*
X205407500Y-72426000D02*
X204757500Y-72426000D01*
X205407500Y-72426000D02*
X206057500Y-72426000D01*
X206810000Y-72706000D02*
X206330000Y-72706000D01*
X206570000Y-72376000D01*
X206810000Y-72706000D01*
G36*
X206810000Y-72706000D02*
G01*
X206330000Y-72706000D01*
X206570000Y-72376000D01*
X206810000Y-72706000D01*
G37*
%TO.C,R9*%
X173334000Y-81626064D02*
X173334000Y-80171936D01*
X175154000Y-81626064D02*
X175154000Y-80171936D01*
%TO.C,C7*%
X178077750Y-75212748D02*
X178077750Y-75735252D01*
X179547750Y-75212748D02*
X179547750Y-75735252D01*
%TO.C,JP1*%
X175244000Y-87187000D02*
G75*
G02*
X174544000Y-87887000I-699999J-1D01*
G01*
X174544000Y-85087000D02*
G75*
G02*
X175244000Y-85787000I0J-700000D01*
G01*
X173944000Y-87887000D02*
G75*
G02*
X173244000Y-87187000I-1J699999D01*
G01*
X173244000Y-85787000D02*
G75*
G02*
X173944000Y-85087000I700000J0D01*
G01*
X175244000Y-85787000D02*
X175244000Y-87187000D01*
X174544000Y-87887000D02*
X173944000Y-87887000D01*
X173944000Y-85087000D02*
X174544000Y-85087000D01*
X173244000Y-87187000D02*
X173244000Y-85787000D01*
%TD*%
M02*
