%TF.GenerationSoftware,KiCad,Pcbnew,8.0.2*%
%TF.CreationDate,2024-06-14T11:54:08+02:00*%
%TF.ProjectId,LoraSensor,4c6f7261-5365-46e7-936f-722e6b696361,rev?*%
%TF.SameCoordinates,Original*%
%TF.FileFunction,Legend,Bot*%
%TF.FilePolarity,Positive*%
%FSLAX46Y46*%
G04 Gerber Fmt 4.6, Leading zero omitted, Abs format (unit mm)*
G04 Created by KiCad (PCBNEW 8.0.2) date 2024-06-14 11:54:08*
%MOMM*%
%LPD*%
G01*
G04 APERTURE LIST*
%ADD10C,0.127000*%
%ADD11C,0.100000*%
G04 APERTURE END LIST*
D10*
X187960000Y-64201600D02*
X187960000Y-64201600D01*
X187960000Y-64709600D02*
X187960000Y-64709600D01*
X187960000Y-65217600D02*
X187960000Y-65217600D01*
X187960000Y-65725600D02*
X187960000Y-65725600D01*
X187960000Y-66233600D02*
X187960000Y-66233600D01*
X187960000Y-66741600D02*
X187960000Y-66741600D01*
X187960000Y-67249600D02*
X187960000Y-67249600D01*
X187960000Y-67757600D02*
X187960000Y-67757600D01*
X187960000Y-68265600D02*
X187960000Y-68265600D01*
X187960000Y-68773600D02*
X187960000Y-68773600D01*
X187960000Y-69281600D02*
X187960000Y-69281600D01*
X187960000Y-69789600D02*
X187960000Y-69789600D01*
X187960000Y-70297600D02*
X187960000Y-70297600D01*
X187960000Y-70805600D02*
X187960000Y-70805600D01*
X187960000Y-71313600D02*
X187960000Y-71313600D01*
X187960000Y-71821600D02*
X187960000Y-71821600D01*
X187960000Y-72329600D02*
X187960000Y-72329600D01*
X187960000Y-72837600D02*
X187960000Y-72837600D01*
X187960000Y-73345600D02*
X187960000Y-73345600D01*
X187960000Y-73853600D02*
X187960000Y-73853600D01*
X187960000Y-74361600D02*
X187960000Y-74361600D01*
X187960000Y-74869600D02*
X187960000Y-74869600D01*
X187960000Y-75377600D02*
X187960000Y-75377600D01*
X187960000Y-75885600D02*
X187960000Y-75885600D01*
X187960000Y-76393600D02*
X187960000Y-76393600D01*
X187960000Y-76901600D02*
X187960000Y-76901600D01*
X187960000Y-77409600D02*
X187960000Y-77409600D01*
X187960000Y-77917600D02*
X187960000Y-77917600D01*
X187960000Y-78425600D02*
X187960000Y-78425600D01*
X187960000Y-78933600D02*
X187960000Y-78933600D01*
X187960000Y-79441600D02*
X187960000Y-79441600D01*
X187960000Y-79949600D02*
X187960000Y-79949600D01*
X187960000Y-80457600D02*
X187960000Y-80457600D01*
X187960000Y-80965600D02*
X187960000Y-80965600D01*
X187960000Y-81473600D02*
X187960000Y-81473600D01*
X187960000Y-81981600D02*
X187960000Y-81981600D01*
X187960000Y-82489600D02*
X187960000Y-82489600D01*
X187960000Y-82997600D02*
X187960000Y-82997600D01*
D11*
X215900000Y-66065400D02*
X215900000Y-81305400D01*
M02*
