%TF.GenerationSoftware,KiCad,Pcbnew,8.0.2*%
%TF.CreationDate,2024-06-01T12:45:28+02:00*%
%TF.ProjectId,LoraSensor,4c6f7261-5365-46e7-936f-722e6b696361,rev?*%
%TF.SameCoordinates,Original*%
%TF.FileFunction,Legend,Bot*%
%TF.FilePolarity,Positive*%
%FSLAX46Y46*%
G04 Gerber Fmt 4.6, Leading zero omitted, Abs format (unit mm)*
G04 Created by KiCad (PCBNEW 8.0.2) date 2024-06-01 12:45:28*
%MOMM*%
%LPD*%
G01*
G04 APERTURE LIST*
%ADD10C,0.100000*%
%ADD11C,0.127000*%
G04 APERTURE END LIST*
D10*
X215900000Y-66065400D02*
X215900000Y-81305400D01*
D11*
X187960000Y-64008000D02*
X187960000Y-64008000D01*
X187960000Y-64516000D02*
X187960000Y-64516000D01*
X187960000Y-65024000D02*
X187960000Y-65024000D01*
X187960000Y-65532000D02*
X187960000Y-65532000D01*
X187960000Y-66040000D02*
X187960000Y-66040000D01*
X187960000Y-66548000D02*
X187960000Y-66548000D01*
X187960000Y-67056000D02*
X187960000Y-67056000D01*
X187960000Y-67564000D02*
X187960000Y-67564000D01*
X187960000Y-68072000D02*
X187960000Y-68072000D01*
X187960000Y-68580000D02*
X187960000Y-68580000D01*
X187960000Y-69088000D02*
X187960000Y-69088000D01*
X187960000Y-69596000D02*
X187960000Y-69596000D01*
X187960000Y-70104000D02*
X187960000Y-70104000D01*
X187960000Y-70612000D02*
X187960000Y-70612000D01*
X187960000Y-71120000D02*
X187960000Y-71120000D01*
X187960000Y-71628000D02*
X187960000Y-71628000D01*
X187960000Y-72136000D02*
X187960000Y-72136000D01*
X187960000Y-72644000D02*
X187960000Y-72644000D01*
X187960000Y-73152000D02*
X187960000Y-73152000D01*
X187960000Y-73660000D02*
X187960000Y-73660000D01*
X187960000Y-74168000D02*
X187960000Y-74168000D01*
X187960000Y-74676000D02*
X187960000Y-74676000D01*
X187960000Y-75184000D02*
X187960000Y-75184000D01*
X187960000Y-75692000D02*
X187960000Y-75692000D01*
X187960000Y-76200000D02*
X187960000Y-76200000D01*
X187960000Y-76708000D02*
X187960000Y-76708000D01*
X187960000Y-77216000D02*
X187960000Y-77216000D01*
X187960000Y-77724000D02*
X187960000Y-77724000D01*
X187960000Y-78232000D02*
X187960000Y-78232000D01*
X187960000Y-78740000D02*
X187960000Y-78740000D01*
X187960000Y-79248000D02*
X187960000Y-79248000D01*
X187960000Y-79756000D02*
X187960000Y-79756000D01*
X187960000Y-80264000D02*
X187960000Y-80264000D01*
X187960000Y-80772000D02*
X187960000Y-80772000D01*
X187960000Y-81280000D02*
X187960000Y-81280000D01*
X187960000Y-81788000D02*
X187960000Y-81788000D01*
X187960000Y-82296000D02*
X187960000Y-82296000D01*
X187960000Y-82804000D02*
X187960000Y-82804000D01*
M02*
